<svg width="934" height="765" viewBox="0 0 934 765" fill="none" xmlns="http://www.w3.org/2000/svg">
<path d="M-425 756.996C-264.331 596.447 -47.0822 456.981 180.812 418.311C242.783 407.796 544.299 355.341 544.299 472.121C544.299 528.053 481.567 518.114 448.478 500.609C383.341 466.15 334.8 433.031 289.304 372.415C219.077 278.851 141.876 127.844 244.956 30.5649C289.444 -11.4188 374.565 12.4619 416.009 43.226C456.642 73.388 483.681 112.096 514.206 151.637C539.016 183.774 532.355 180.512 551.426 144.515C599.294 54.1637 751.631 -9.30653 777.912 131.854C792.658 211.054 766.566 279.817 742.276 352.632C733.152 379.983 719.007 427.529 699.513 449.173C678.289 472.738 666.792 435.16 674.172 415.146C692.519 365.387 717.293 343.927 770.785 343.927C819.163 343.927 883.347 381.518 886.404 436.512C888.1 467.023 895.824 459.558 906.202 436.512C914.254 418.632 926 361.513 926 381.119C926 388.027 925.617 445.209 918.873 449.173C894.863 463.286 862.256 463.547 836.514 472.121" stroke="#FED33F" stroke-width="16" stroke-linecap="round"/>
</svg>
