<svg width="934" height="430" viewBox="0 0 934 430" fill="none" xmlns="http://www.w3.org/2000/svg">
<path d="M-425 421.069C-264.331 260.519 -47.0822 121.054 180.812 82.384C242.783 71.8685 544.299 19.414 544.299 136.194M699.513 113.246C678.289 136.81 666.792 99.2328 674.172 79.2188C692.519 29.4596 717.293 8 770.785 8C819.163 8 883.347 45.5906 886.404 100.584C888.1 131.096 895.824 123.631 906.202 100.584C914.254 82.7049 926 25.5857 926 45.192C926 52.0997 925.617 109.281 918.873 113.246C894.863 127.358 862.256 127.619 836.514 136.194" stroke="#FED33F" stroke-width="16" stroke-linecap="round"/>
</svg>
