<svg width="350" height="518" viewBox="0 0 350 518" fill="none" xmlns="http://www.w3.org/2000/svg">
<path d="M329.916 293.763C324.829 290.241 319.437 288.425 314.604 288.205C310.432 288.04 306.363 287.049 302.751 284.903C299.851 283.197 296.901 281.712 293.899 280.391C296.85 278.135 299.749 275.934 302.649 273.788C306.159 271.146 310.483 269.826 314.706 270.596C320.454 271.641 327.729 270.211 334.596 266.139C346.653 258.93 352.961 246.329 348.637 237.91C344.364 229.545 331.137 228.555 319.081 235.763C311.501 240.276 306.21 246.934 304.379 253.317C303.209 257.389 300.563 260.746 297.206 263.002C293.95 265.203 290.44 267.57 287.286 269.716C281.283 273.788 274.415 276.154 267.344 276.869C262.105 277.419 256.865 278.19 251.676 279.345C252.134 277.144 252.642 274.998 253.202 272.852C254.932 266.194 259.052 260.361 264.801 257.389C269.786 254.803 274.721 249.796 278.332 243.027C285.2 230.096 284.488 215.788 276.857 211.001C269.227 206.214 257.424 212.817 250.557 225.749C246.741 232.902 245.266 240.496 246.029 246.659C246.589 251.391 245.622 256.234 243.842 260.636C242.723 263.442 241.705 266.249 240.739 269.055C237.737 277.97 231.531 285.068 223.595 289.03C222.018 289.801 220.441 290.626 218.864 291.506C208.232 297.229 198.566 304.823 189.969 313.683L189.562 280.281C189.409 269.055 192.411 257.995 198.363 248.805C208.791 232.792 221.611 217.77 234.023 204.178C235.092 203.077 236.109 201.977 237.178 200.821C243.893 193.777 252.592 189.21 261.85 188C268.718 187.119 275.585 186.514 282.402 186.459C289.321 186.404 296.138 189.76 300.207 195.868C303.565 200.821 309.364 205.223 316.537 207.644C329.662 212.047 342.481 208.25 345.076 199.115C347.721 189.981 339.175 178.975 326.05 174.573C319.335 172.317 312.671 172.207 307.431 173.857C303.921 174.958 300.309 175.453 296.697 174.903C286.319 173.252 275.178 173.472 264.546 174.298C270.6 168.96 280.723 161.036 287.896 155.533C292.373 152.122 297.816 150.856 303.209 151.461C308.804 152.067 315.57 150.416 321.98 146.454C333.884 139.025 339.989 126.259 335.563 117.949C331.137 109.64 317.91 108.98 305.956 116.409C299.139 120.701 294.204 126.699 292.119 132.587C290.389 137.484 287.031 141.446 282.809 144.033C278.18 146.894 272.533 150.416 268.921 152.947C268.616 145.463 268.565 137.924 268.87 130.496V130.056C269.125 125.653 271.516 121.911 274.975 119.6C280.469 115.913 285.048 107.934 286.675 98.0845C289.016 83.4472 283.877 70.1855 275.178 68.5347C266.479 66.8838 257.475 77.4491 255.135 92.0865C253.863 99.8454 254.728 107.219 257.119 112.667C258.187 115.088 258.645 117.729 258.289 120.426C257.933 123.452 257.577 126.479 257.221 129.615C256.305 140.456 256.051 151.241 256.254 162.082C255.949 162.302 255.593 162.577 255.288 162.797C246.792 169.29 238.551 176.004 230.513 183.102L230.106 170.336C229.954 164.998 231.429 159.715 234.43 155.423C237.89 150.471 240.026 143.152 240.026 134.953C240.026 120.096 232.853 107.989 224.002 107.989C215.15 107.989 207.977 120.041 207.977 134.953C207.977 143.152 210.165 150.471 213.573 155.423C216.575 159.715 218.05 164.943 217.897 170.336L217.287 189.54C217.185 193.282 215.608 196.804 213.064 199.335C205.688 206.544 198.566 214.083 191.698 221.952C190.681 223.107 189.714 224.263 188.748 225.473L187.324 112.227C187.222 104.027 190.223 96.1585 195.717 90.5457C199.533 86.5837 203.602 82.8419 207.774 79.2651C210.521 76.8989 213.878 75.5783 217.389 75.3031C223.34 74.9179 230.666 71.4511 237.228 65.4531C248.318 55.3281 252.999 41.6813 247.81 34.9679C242.57 28.2545 229.343 31.0609 218.304 41.241C211.793 47.184 207.52 54.3376 206.095 60.6108C205.281 64.2976 203.501 67.5993 200.906 70.1305C200.041 70.9559 199.227 71.7813 198.363 72.6067C193.021 77.6693 187.629 82.5667 181.779 86.8039C180.608 78.5497 180.507 70.1855 180.659 61.7663C180.659 60.6107 180.659 59.4001 180.761 58.2445C180.863 54.6678 181.982 51.201 183.966 48.3396C187.273 43.4421 189.46 35.6832 189.46 26.9338C189.46 11.6912 182.898 -0.634981 174.962 0.0253501C167.026 -0.579953 160.463 11.6912 160.463 26.9338C160.463 35.6832 162.6 43.4421 165.958 48.3396C167.942 51.256 169.061 54.6678 169.162 58.2445C169.162 59.4001 169.213 60.6107 169.264 61.7663C169.417 70.1855 169.315 78.4947 168.145 86.8039C162.295 82.5667 156.902 77.6693 151.561 72.6067C150.696 71.7813 149.831 70.9559 149.017 70.1305C146.423 67.5993 144.642 64.2426 143.828 60.6108C142.455 54.3376 138.131 47.184 131.619 41.241C120.529 31.116 107.354 28.3096 102.114 34.9679C96.8741 41.6813 101.605 55.273 112.695 65.4531C119.258 71.4511 126.583 74.9179 132.535 75.3031C136.045 75.5232 139.352 76.8989 142.15 79.2651C146.321 82.8419 150.391 86.5837 154.206 90.5457C159.649 96.2135 162.702 104.082 162.6 112.227L161.176 225.473C160.209 224.318 159.192 223.162 158.225 221.952C151.357 214.083 144.185 206.544 136.859 199.335C134.265 196.804 132.738 193.282 132.637 189.54L132.026 170.336C131.874 164.998 133.349 159.715 136.35 155.423C139.81 150.471 141.946 143.152 141.946 134.953C141.946 120.096 134.773 107.989 125.922 107.989C117.07 107.989 109.897 120.041 109.897 134.953C109.897 143.152 112.085 150.471 115.493 155.423C118.494 159.715 119.97 164.943 119.817 170.336L119.41 183.102C111.373 176.059 103.131 169.29 94.6358 162.797C94.3306 162.577 93.9745 162.302 93.6692 162.082C93.9236 151.241 93.6693 140.456 92.7027 129.615C92.3466 126.534 92.0414 123.452 91.6344 120.426C91.2783 117.784 91.7361 115.088 92.8044 112.667C95.1954 107.219 96.0602 99.8454 94.7884 92.0865C92.4483 77.4491 83.4441 66.8838 74.7451 68.5347C66.0461 70.1855 60.8572 83.3922 63.2481 98.0845C64.8251 107.934 69.4544 115.968 74.9486 119.6C78.4078 121.911 80.7988 125.653 81.0531 130.056V130.496C81.3584 137.924 81.3075 145.463 81.0531 152.947C77.4413 150.416 71.7945 146.894 67.1652 144.033C62.9938 141.446 59.5854 137.484 57.8558 132.587C55.77 126.699 50.8355 120.646 44.0187 116.409C32.1148 108.98 18.8374 109.64 14.4116 117.949C9.98574 126.259 16.0394 138.97 27.9942 146.454C34.404 150.471 41.1699 152.122 46.7658 151.461C52.209 150.856 57.6523 152.122 62.0781 155.533C69.251 161.036 79.3744 168.96 85.4281 174.298C74.8468 173.472 63.6551 173.252 53.2773 174.903C49.6655 175.453 46.0536 174.958 42.5435 173.857C37.3037 172.207 30.6904 172.262 23.9245 174.573C10.7997 178.975 2.25329 189.981 4.8986 199.115C7.54391 208.25 20.3126 212.102 33.4375 207.644C40.6103 205.223 46.4097 200.821 49.7672 195.868C53.8369 189.815 60.6537 186.404 67.5722 186.459C74.389 186.514 81.2566 187.119 88.1243 188C97.4337 189.21 106.082 193.722 112.797 200.821C113.865 201.922 114.883 203.022 115.951 204.178C128.364 217.77 141.183 232.792 151.612 248.805C157.615 257.995 160.565 269.055 160.413 280.281L160.006 313.683C151.408 304.823 141.743 297.229 131.111 291.506C129.534 290.626 128.007 289.801 126.38 289.03C118.393 285.068 112.186 277.97 109.236 269.055C108.269 266.249 107.252 263.387 106.133 260.636C104.352 256.234 103.386 251.446 103.945 246.659C104.708 240.496 103.182 232.902 99.4177 225.749C92.5501 212.817 80.7988 206.214 73.1172 211.001C65.4356 215.788 64.7743 230.096 71.6419 243.027C75.2538 249.796 80.1883 254.803 85.1737 257.389C90.9222 260.361 95.0428 266.194 96.7724 272.852C97.332 274.998 97.8407 277.144 98.2985 279.345C93.1097 278.245 87.8699 277.419 82.6301 276.869C75.559 276.154 68.6914 273.843 62.6885 269.716C59.5345 267.57 56.0244 265.203 52.7686 263.002C49.4111 260.746 46.7658 257.389 45.5957 253.317C43.7644 246.934 38.4737 240.276 30.8939 235.763C18.8374 228.555 5.6108 229.545 1.3376 237.91C-2.9356 246.274 3.37247 258.93 15.3781 266.139C22.2458 270.266 29.4695 271.697 35.2688 270.596C39.4912 269.826 43.8152 271.146 47.3254 273.788C50.225 275.989 53.1247 278.19 56.0753 280.391C53.0738 281.712 50.0724 283.252 47.2236 284.903C43.5609 287.049 39.4912 288.04 35.3706 288.205C30.5887 288.425 25.1963 290.241 20.0583 293.763C9.07006 301.301 3.83031 313.628 8.307 321.276C12.7837 328.925 25.3489 328.98 36.3371 321.441C42.2382 317.369 46.4606 311.977 48.4445 306.639C51.3442 298.88 57.0418 292.717 64.5708 290.681L65.4356 290.461C68.7931 289.525 72.3032 289.36 75.7625 289.911C81.511 290.791 87.1577 292.002 92.6518 293.653C97.8916 295.138 102.979 297.064 107.913 299.375C104.759 300.751 101.656 302.237 98.6038 303.943C93.9745 306.529 89.1926 308.785 84.1054 309.886C78.5096 311.096 72.3541 315.058 67.3178 321.166C58.2119 332.282 56.177 346.479 62.7903 352.807C69.4036 359.135 82.1723 355.283 91.3292 344.168C95.4497 339.16 98.1459 333.492 99.2142 328.21C100.74 320.836 105.573 314.783 112.237 312.637C112.797 312.472 113.356 312.307 113.916 312.142C120.784 310.051 128.211 311.537 133.705 316.489C137.978 320.341 141.997 324.523 145.711 329.035C154.664 339.931 159.497 354.073 159.344 368.655C158.988 395.454 145.965 420.711 124.09 433.312C112.899 439.806 100.232 442.997 86.0894 442.997C51.7512 442.997 39.8981 461.212 39.3894 461.982C37.3546 465.229 38.1176 469.631 41.0682 471.887C42.2382 472.767 43.5609 473.207 44.8835 473.207C46.9693 473.207 49.0041 472.162 50.3268 470.236C50.6829 469.741 59.331 457.415 86.0385 457.415C90.7696 457.415 95.2971 457.085 99.6721 456.479C101.809 456.204 103.182 458.79 101.809 460.606L78.3569 492.027C76.0168 495.219 76.2203 500.171 79.2218 502.647C80.4427 503.638 81.8671 504.133 83.2915 504.133C85.2246 504.133 87.1577 503.198 88.4804 501.437L122.564 455.654C128.72 448.555 139.911 440.411 139.911 440.411C142.302 438.98 144.948 441.732 143.778 444.373C134.875 463.853 125.159 484.103 116.714 501.822C112.797 510.076 123.938 516.734 128.364 508.865C140.064 487.515 151.663 466.164 162.803 444.428C163.668 442.722 166.059 443.328 166.161 445.309L168.196 511.066C168.45 515.689 171.655 517.945 174.86 518H174.911C178.116 518 181.321 515.689 181.575 511.066L183.61 445.309C183.661 443.328 186.052 442.722 186.967 444.428C198.159 466.109 209.707 487.46 221.407 508.865C225.884 516.734 236.974 510.076 233.057 501.822C224.612 484.103 214.845 463.853 205.993 444.373C204.772 441.732 207.469 438.98 209.86 440.411C209.86 440.411 221.051 448.61 227.207 455.654L261.291 501.437C262.613 503.198 264.546 504.133 266.479 504.133C267.904 504.133 269.328 503.638 270.549 502.647C273.551 500.171 273.754 495.164 271.414 492.027L247.962 460.606C246.64 458.79 247.962 456.149 250.099 456.479C254.525 457.085 259.052 457.415 263.732 457.415C290.44 457.415 299.088 469.686 299.444 470.236C300.767 472.162 302.802 473.207 304.887 473.207C306.21 473.207 307.533 472.767 308.703 471.887C311.653 469.631 312.467 465.229 310.382 461.982C309.873 461.212 298.02 442.997 263.682 442.997C249.539 442.997 236.872 439.806 225.681 433.312C203.806 420.711 190.783 395.399 190.427 368.655C190.223 354.073 195.107 339.931 204.06 329.035C207.774 324.523 211.793 320.341 216.066 316.489C221.56 311.592 228.987 310.051 235.855 312.142C236.414 312.307 236.974 312.472 237.534 312.637C244.249 314.783 249.081 320.836 250.557 328.21C251.625 333.492 254.321 339.105 258.442 344.168C267.548 355.283 280.367 359.19 286.981 352.807C293.594 346.424 291.559 332.282 282.453 321.166C277.417 315.003 271.261 311.096 265.666 309.886C260.578 308.785 255.796 306.529 251.167 303.943C248.166 302.237 245.012 300.751 241.858 299.375C246.792 297.064 251.879 295.138 257.119 293.653C262.664 292.002 268.311 290.846 274.008 289.911C277.468 289.36 280.978 289.525 284.335 290.461L285.2 290.681C292.729 292.717 298.478 298.88 301.326 306.639C303.31 311.977 307.533 317.369 313.434 321.441C324.422 328.98 336.987 328.925 341.464 321.276C345.941 313.628 340.701 301.301 329.713 293.763H329.916Z" fill="#F0F2F4"/>
</svg>
