<svg width="40" height="40" viewBox="0 0 40 40" fill="none" xmlns="http://www.w3.org/2000/svg">
<path d="M20 9.84614C23.4169 9.84614 25.1254 9.84614 26.473 10.4083M14.9583 10.0255C15.2405 9.98226 15.544 9.94942 15.875 9.9245C16.9159 9.84614 18.2283 9.84614 20 9.84614M20 9.84614C22.0421 9.84614 23.474 9.84614 24.5833 9.96614M14.9583 10.0255C14.4165 10.1087 13.9537 10.2303 13.527 10.4083C11.7301 11.1578 10.3025 12.5954 9.55822 14.4048C9.24852 15.1577 9.11064 16.0224 9.04926 17.2308C9 18.2004 9 19.3912 9 20.9231C9 24.3639 9 26.0843 9.55822 27.4414C10.3025 29.2508 11.7301 30.6884 13.527 31.4379C14.8746 32 16.5831 32 20 32C23.4169 32 25.1254 32 26.473 31.4379C28.2699 30.6884 29.6975 29.2508 30.4418 27.4414C31 26.0843 31 24.3639 31 20.9231C31 19.3912 31 18.2004 30.9507 17.2308C30.8894 16.0224 30.7515 15.1577 30.4418 14.4048C29.6975 12.5954 28.2699 11.1578 26.473 10.4083M26.473 10.4083C26.0463 10.2303 25.5835 10.1087 25.0417 10.0256M9.04926 17.2308H30.9507M14.9583 10.0255V8.22917C14.9583 8.1026 15.0609 8 15.1875 8C15.3141 8 15.4167 8.1026 15.4167 8.22917V9.96614M14.9583 10.0255C15.105 10.003 15.2575 9.98335 15.4167 9.96614M15.875 9.9245C15.7161 9.93646 15.5636 9.95025 15.4167 9.96614M25.0417 10.0256V8.22917C25.0417 8.1026 24.9391 8 24.8125 8C24.6859 8 24.5833 8.1026 24.5833 8.22917V9.96614M25.0417 10.0256C24.895 10.003 24.7425 9.98335 24.5833 9.96614" stroke="#003C77" stroke-width="2" stroke-linecap="round"/>
<path d="M24 26.3C24 25.582 24.582 25 25.3 25H25.7C26.418 25 27 25.582 27 26.3V26.7C27 27.418 26.418 28 25.7 28H25.3C24.582 28 24 27.418 24 26.7V26.3Z" fill="#003C77"/>
</svg>
