<svg width="40" height="40" viewBox="0 0 40 40" fill="none" xmlns="http://www.w3.org/2000/svg">
<path d="M20 12.6923V19.1127C20 19.6735 20.2549 20.204 20.6929 20.5543L24.6154 23.6923M20 32C16.2725 32 14.4087 32 12.9385 31.391C10.9783 30.5791 9.42092 29.0217 8.60896 27.0615C8 25.5913 8 23.7275 8 20C8 16.2725 8 14.4087 8.60896 12.9385C9.42092 10.9783 10.9783 9.42092 12.9385 8.60896C14.4087 8 16.2725 8 20 8C23.7275 8 25.5913 8 27.0615 8.60896C29.0217 9.42092 30.5791 10.9783 31.391 12.9385C32 14.4087 32 16.2725 32 20C32 23.7275 32 25.5913 31.391 27.0615C30.5791 29.0217 29.0217 30.5791 27.0615 31.391C25.5913 32 23.7275 32 20 32Z" stroke="#98A6B4" stroke-width="2" stroke-linecap="round"/>
</svg>
