<svg width="54" height="54" viewBox="0 0 54 54" fill="none" xmlns="http://www.w3.org/2000/svg">
<path d="M17.1375 0.674805H36.1697L51.9753 16.4805V46.9697C51.9753 50.4417 48.9567 53.3252 45.1443 53.3252H16.9695C13.142 53.325 10.1248 50.4407 10.1248 46.9697V7.03027C10.1247 3.57769 13.2898 0.674923 17.1375 0.674805Z" fill="white" stroke="#DBDBDB" stroke-width="1.35"/>
<path d="M36.4846 11.016V0L52.65 16.2H41.873C37.0234 16.2 36.2601 12.744 36.4846 11.016Z" fill="#D4D4D8"/>
<rect x="1.34998" y="25.6499" width="38.8" height="20.4" rx="4.05" fill="#155EEF"/>
<path d="M10.9105 40.3501H7.77806V31.5137H10.9364C11.8252 31.5137 12.5903 31.6906 13.2318 32.0444C13.8732 32.3954 14.3665 32.9002 14.7117 33.5589C15.0597 34.2176 15.2337 35.0057 15.2337 35.9233C15.2337 36.8437 15.0597 37.6348 14.7117 38.2963C14.3665 38.9579 13.8703 39.4656 13.2231 39.8194C12.5788 40.1732 11.8079 40.3501 10.9105 40.3501ZM9.6463 38.7494H10.8328C11.3851 38.7494 11.8496 38.6516 12.2264 38.456C12.6061 38.2575 12.8909 37.9512 13.0807 37.537C13.2735 37.1199 13.3698 36.582 13.3698 35.9233C13.3698 35.2703 13.2735 34.7368 13.0807 34.3226C12.8909 33.9084 12.6076 33.6035 12.2308 33.4079C11.854 33.2123 11.3894 33.1145 10.8371 33.1145H9.6463V38.7494ZM24.7378 35.9319C24.7378 36.8955 24.5551 37.7153 24.1898 38.3913C23.8274 39.0672 23.3327 39.5835 22.7056 39.9402C22.0814 40.294 21.3796 40.4709 20.6001 40.4709C19.8148 40.4709 19.1101 40.2926 18.4859 39.9359C17.8617 39.5792 17.3684 39.0629 17.006 38.3869C16.6436 37.711 16.4623 36.8926 16.4623 35.9319C16.4623 34.9683 16.6436 34.1485 17.006 33.4726C17.3684 32.7966 17.8617 32.2817 18.4859 31.9279C19.1101 31.5713 19.8148 31.3929 20.6001 31.3929C21.3796 31.3929 22.0814 31.5713 22.7056 31.9279C23.3327 32.2817 23.8274 32.7966 24.1898 33.4726C24.5551 34.1485 24.7378 34.9683 24.7378 35.9319ZM22.8437 35.9319C22.8437 35.3077 22.7502 34.7813 22.5632 34.3528C22.3791 33.9242 22.1188 33.5991 21.7823 33.3777C21.4457 33.1562 21.0517 33.0454 20.6001 33.0454C20.1485 33.0454 19.7544 33.1562 19.4179 33.3777C19.0813 33.5991 18.8196 33.9242 18.6326 34.3528C18.4485 34.7813 18.3565 35.3077 18.3565 35.9319C18.3565 36.5561 18.4485 37.0825 18.6326 37.5111C18.8196 37.9397 19.0813 38.2647 19.4179 38.4862C19.7544 38.7077 20.1485 38.8184 20.6001 38.8184C21.0517 38.8184 21.4457 38.7077 21.7823 38.4862C22.1188 38.2647 22.3791 37.9397 22.5632 37.5111C22.7502 37.0825 22.8437 36.5561 22.8437 35.9319ZM33.9183 34.6073H32.0284C31.9939 34.3628 31.9235 34.1457 31.817 33.9558C31.7106 33.7631 31.574 33.5991 31.4071 33.4639C31.2403 33.3288 31.0476 33.2252 30.829 33.1533C30.6132 33.0814 30.3788 33.0454 30.1257 33.0454C29.6683 33.0454 29.27 33.159 28.9305 33.3863C28.5911 33.6106 28.3279 33.9386 28.141 34.37C27.954 34.7986 27.8605 35.3192 27.8605 35.9319C27.8605 36.5619 27.954 37.0911 28.141 37.5197C28.3308 37.9483 28.5954 38.2719 28.9349 38.4905C29.2743 38.7091 29.6669 38.8184 30.1127 38.8184C30.363 38.8184 30.5945 38.7853 30.8074 38.7192C31.0231 38.653 31.2144 38.5566 31.3812 38.4301C31.5481 38.3006 31.6862 38.1439 31.7955 37.9598C31.9076 37.7757 31.9853 37.5657 32.0284 37.3299L33.9183 37.3385C33.8694 37.7441 33.7471 38.1353 33.5515 38.5121C33.3588 38.886 33.0985 39.2211 32.7706 39.5174C32.4455 39.8108 32.0572 40.0438 31.6056 40.2163C31.1569 40.3861 30.6492 40.4709 30.0825 40.4709C29.2944 40.4709 28.5897 40.2926 27.9684 39.9359C27.3499 39.5792 26.861 39.0629 26.5014 38.3869C26.1447 37.711 25.9664 36.8926 25.9664 35.9319C25.9664 34.9683 26.1476 34.1485 26.51 33.4726C26.8725 32.7966 27.3643 32.2817 27.9856 31.9279C28.6069 31.5713 29.3059 31.3929 30.0825 31.3929C30.5945 31.3929 31.0692 31.4648 31.5064 31.6087C31.9465 31.7525 32.3362 31.9625 32.6756 32.2386C33.0151 32.5119 33.2912 32.847 33.504 33.2439C33.7198 33.6408 33.8578 34.0953 33.9183 34.6073Z" fill="white"/>
</svg>
