<svg width="32" height="32" viewBox="0 0 32 32" fill="none" xmlns="http://www.w3.org/2000/svg">
<path d="M18.6666 2.66651H7.99998C7.29274 2.66651 6.61446 2.94746 6.11436 3.44756C5.61426 3.94765 5.33331 4.62593 5.33331 5.33317V26.6665C5.33331 27.3738 5.61426 28.052 6.11436 28.5521C6.61446 29.0522 7.29274 29.3332 7.99998 29.3332H24C24.7072 29.3332 25.3855 29.0522 25.8856 28.5521C26.3857 28.052 26.6666 27.3738 26.6666 26.6665V10.6665M18.6666 2.66651C19.0887 2.66582 19.5068 2.74864 19.8967 2.9102C20.2866 3.07176 20.6407 3.30885 20.9386 3.60784L25.7226 8.39184C26.0224 8.68985 26.2602 9.0443 26.4222 9.43472C26.5843 9.82515 26.6673 10.2438 26.6666 10.6665M18.6666 2.66651V9.33317C18.6666 9.68679 18.8071 10.0259 19.0572 10.276C19.3072 10.526 19.6464 10.6665 20 10.6665L26.6666 10.6665M10.6666 23.9998V22.6665M16 23.9998V15.9998M21.3333 23.9998V19.9998" stroke="#003C77" stroke-width="3" stroke-linecap="round" stroke-linejoin="round"/>
</svg>
