<svg width="32" height="32" viewBox="0 0 32 32" fill="none" xmlns="http://www.w3.org/2000/svg">
<path d="M3.33398 15.9999C3.33398 10.0288 3.33398 7.04324 5.18897 5.18824C7.04397 3.33325 10.0295 3.33325 16.0007 3.33325C21.9717 3.33325 24.9573 3.33325 26.8124 5.18824C28.6673 7.04324 28.6673 10.0288 28.6673 15.9999C28.6673 21.971 28.6673 24.9566 26.8124 26.8117C24.9573 28.6666 21.9717 28.6666 16.0007 28.6666C10.0295 28.6666 7.04397 28.6666 5.18897 26.8117C3.33398 24.9566 3.33398 21.971 3.33398 15.9999Z" stroke="#0E0E0E" stroke-width="2" stroke-linejoin="round"/>
<path d="M22.5694 10.7019H18.6428C17.2511 10.7019 16.1199 11.8247 16.1096 13.2165L15.9959 28.5691M13.4434 18.669H19.847" stroke="#0E0E0E" stroke-width="2" stroke-linecap="round" stroke-linejoin="round"/>
</svg>
