<svg width="141" height="92" viewBox="0 0 141 92" fill="none" xmlns="http://www.w3.org/2000/svg">
<g clip-path="url(#clip0_99_293)">
<path d="M17.4999 86.4087C17.3014 86.4087 17.1029 86.4001 16.9015 86.38C15.6242 86.2481 15.0229 85.99 14.4907 85.7635C14.0448 85.5714 13.6593 85.408 12.7991 85.2876C11.7491 85.1442 11.1881 85.2417 10.5408 85.3535C9.83596 85.4739 9.0362 85.6144 7.63229 85.4797C6.55635 85.3764 5.92057 85.1901 5.36246 85.0209C4.84751 84.8689 4.3642 84.7227 3.51553 84.6395C2.89413 84.5793 2.2641 84.5679 1.63982 84.6109L1.52475 82.8934C2.24396 82.8446 2.96893 82.8561 3.68526 82.9278C4.69791 83.0281 5.28767 83.203 5.8544 83.3722C6.38662 83.5299 6.88719 83.679 7.79627 83.765C8.97003 83.8768 9.59143 83.7679 10.2473 83.6561C10.9723 83.5299 11.7203 83.4009 13.035 83.5815C14.1282 83.7306 14.6863 83.9686 15.1754 84.1808C15.6529 84.3844 16.0643 84.5621 17.0799 84.6682C17.8135 84.7428 18.6017 84.6023 19.5137 84.4417C20.5062 84.2668 21.6282 84.0661 23.0148 84.0661C24.4992 84.0661 25.6385 84.2697 26.6396 84.4503C27.5516 84.6137 28.2737 84.7428 28.9929 84.6711C30.0055 84.5679 30.4169 84.3901 30.8945 84.1865C31.3835 83.9772 31.9388 83.7363 33.0348 83.5872C34.3496 83.4066 35.1004 83.5356 35.8254 83.6618C36.4813 83.7765 37.1027 83.8826 38.2765 83.7708C39.1827 83.6847 39.6861 83.5356 40.2155 83.3779C40.7851 83.2088 41.3748 83.0339 42.3875 82.9335C43.147 82.859 43.9122 82.8504 44.6659 82.9077L44.5336 84.6223C43.8806 84.5736 43.216 84.5793 42.5572 84.6453C41.7085 84.7284 41.2224 84.8747 40.7103 85.0266C40.1493 85.1929 39.5164 85.3822 38.4404 85.4825C37.0337 85.6144 36.2339 85.4768 35.5291 85.3564C34.8789 85.2445 34.3179 85.1471 33.2679 85.2904C32.4048 85.408 32.0222 85.5743 31.5763 85.7635C31.0469 85.99 30.4457 86.2481 29.1684 86.38C28.2046 86.4775 27.2955 86.314 26.3318 86.142C25.3997 85.9757 24.3439 85.7865 23.0119 85.7865C21.7777 85.7865 20.7363 85.9728 19.8157 86.1363C19.0246 86.2768 18.268 86.4115 17.5028 86.4115L17.4999 86.4087Z" fill="#003C77"/>
<path d="M24.1569 5.23828H22.4308V19.5776H24.1569V5.23828Z" fill="#003C77"/>
<path d="M30.486 10.1558H16.2341V11.8761H30.486V10.1558Z" fill="#003C77"/>
<path d="M29.3726 46.6795C27.494 46.6795 26.1131 46.2093 25.0804 45.2487L25.3047 43.838C27.238 42.9434 28.0061 41.7277 28.0147 41.7162L28.4405 41.4782L28.3974 41.3807L28.5182 41.3349C30.5377 40.7499 32.284 40.0474 33.7023 39.2475C37.891 36.8934 39.4962 33.6018 38.6102 29.1804V29.1603C38.6015 29.1259 38.5929 29.0915 38.5843 29.0542L38.5699 28.9826L40.0486 28.2256L40.1953 28.3919H40.1982C40.2787 28.4808 40.4341 28.6299 40.6153 28.8019C42.3386 30.4592 47.583 35.5056 42.796 41.9571C39.0331 47.0264 34.3783 46.41 33.2822 46.1777C31.7834 46.5075 30.4888 46.6738 29.3726 46.6738V46.6795ZM27.3703 44.6523C28.6476 45.1139 30.5118 45.0451 33.0952 44.4602L33.5239 44.4717C33.6994 44.5204 37.9399 45.6129 41.4065 40.9392C44.3581 36.9594 42.7989 33.7337 40.5693 31.2362C40.6441 35.2648 38.6245 38.4561 34.5481 40.7471C33.0837 41.5728 31.3116 42.2983 29.2834 42.9033C28.9929 43.2846 28.383 43.9785 27.3674 44.6552L27.3703 44.6523Z" fill="#003C77"/>
<path d="M28.9929 42.9833L28.8145 42.3009L28.7426 42.1374L28.7541 42.1604L28.7397 42.1346L28.1097 41.5955L28.219 41.4665L28.452 41.346C28.8346 41.1396 30.9549 39.9755 32.7644 38.6135L32.773 38.6078C32.773 38.6078 32.7788 38.6049 32.7817 38.6021L33.2679 39.23L33.9267 39.8866L33.8231 39.9755C31.9905 41.3575 29.8646 42.5388 29.3122 42.8399H29.3093L29.1943 42.903C29.1856 42.9087 29.177 42.9116 29.1655 42.9173L29.0936 42.9517C29.0648 42.9603 29.0303 42.9718 28.9929 42.9833Z" fill="#003C77"/>
<path d="M28.7541 43.0236H28.0032L27.8997 42.281C27.8105 41.6645 27.4307 40.0502 26.654 39.0524C25.7996 39.4854 24.528 39.9699 23.0867 39.9699C21.5044 39.9699 20.1178 39.6115 18.9699 38.9062C14.9251 36.426 15.2243 30.6426 15.2387 30.396C15.2674 29.9229 15.6817 29.5645 16.1506 29.5875C16.6253 29.6161 16.9907 30.0233 16.9619 30.4964C16.9619 30.5451 16.7145 35.4998 19.8761 37.4381C20.7507 37.9743 21.8295 38.2467 23.0896 38.2467C24.4963 38.2467 25.7305 37.6274 26.349 37.2517C26.3605 37.246 26.3721 37.2374 26.3836 37.2317C26.6022 37.0998 26.7489 36.9937 26.8065 36.9478C26.8928 36.8647 27.1143 36.6582 27.4365 36.383C28.5613 35.4224 30.7794 33.7622 32.983 33.4325C33.7828 33.3121 34.5279 33.3752 35.1953 33.6218C36.231 34.006 36.8668 35.0067 36.7431 36.0561C36.605 37.2403 35.6729 38.5019 33.895 39.9155L33.8403 39.9585C31.9186 41.4753 29.5912 42.6939 29.2201 42.886L29.1453 42.9261L28.9641 43.0179H28.7541V43.0236ZM28.0924 38.1033C28.7397 38.9807 29.1309 40.056 29.3525 40.8617C30.2299 40.3656 31.5648 39.5599 32.7385 38.6395L32.7817 38.6051C34.6257 37.1485 34.9796 36.2625 35.0256 35.864C35.0573 35.6031 34.8789 35.3479 34.5912 35.2418C34.2028 35.0984 33.7454 35.064 33.2362 35.1386C31.3893 35.4138 29.3467 37.0195 28.5527 37.6962C28.3484 37.8682 28.1902 38.0116 28.0924 38.1033Z" fill="#003C77"/>
<path d="M37.2552 30.3588C34.5538 30.3588 32.7098 29.6219 31.6223 28.1051C30.9146 27.1187 30.555 25.8112 30.555 24.2141C30.555 23.5088 30.6816 22.7977 30.9319 22.1009L30.9549 22.0321C31.9675 19.2996 34.6171 17.3154 37.2523 17.3154C41.208 17.3154 43.7626 19.8759 43.7626 23.8385C43.7626 26.141 42.468 28.3 40.4197 29.4842V29.51L39.9249 29.7451C39.8961 29.7595 39.8673 29.771 39.8386 29.7853L39.8127 29.7968C38.987 30.1695 38.1269 30.3588 37.2523 30.3588H37.2552ZM32.5889 22.5913L32.5688 22.6543C32.3789 23.1733 32.2811 23.698 32.2811 24.217C32.2811 25.4471 32.5314 26.4191 33.0233 27.1072C33.7742 28.1538 35.1177 28.6412 37.2523 28.6412C37.704 28.6412 38.1527 28.5696 38.5929 28.4291L39.1855 28.1939C40.9174 27.3739 42.0365 25.665 42.0365 23.8443C42.0365 20.8365 40.2471 19.0415 37.2523 19.0415C35.3565 19.0415 33.357 20.5669 32.5889 22.5941V22.5913Z" fill="#003C77"/>
<path d="M20.1494 38.6339L18.6938 37.7106C19.4302 36.558 20.2185 35.4426 21.0413 34.4018C22.1949 32.9366 23.3859 31.6492 24.5855 30.5711L24.8387 30.3503C27.3416 28.1711 29.8329 26.9583 32.2495 26.7461L32.4019 28.4607C30.2846 28.6471 28.0464 29.7883 25.7449 31.8499L25.578 31.999C24.5079 32.9796 23.4406 34.1437 22.402 35.4627C21.6166 36.4605 20.86 37.5243 20.1552 38.631L20.1494 38.6339Z" fill="#003C77"/>
<path d="M32.4969 34.8949C29.3553 31.7552 25.4054 32.0563 25.2386 32.0706H25.1638V31.2018L25.0919 30.356C25.5924 30.3129 30.0803 30.0406 33.7224 33.6791L32.4997 34.8949H32.4969Z" fill="#003C77"/>
<path d="M27.3933 37.6617C25.6385 35.9786 21.7231 35.798 21.6828 35.7951L21.7518 34.0747C21.9388 34.0833 26.3606 34.2812 28.5901 36.4202L27.3933 37.6588V37.6617Z" fill="#003C77"/>
<path d="M23.6218 26.1697C18.1529 26.1697 16.1621 22.7719 16.0816 22.6257L17.5833 21.7798L16.8324 22.2042L17.5804 21.7741C17.6437 21.8831 19.2058 24.4493 23.6218 24.4493C27.6177 24.4493 28.4865 21.8716 28.5211 21.7598L30.1724 22.2558C30.1235 22.4164 28.9468 26.1668 23.6218 26.1668V26.1697Z" fill="#003C77"/>
<path d="M33.0579 6.91312C35.6643 13.0262 31.792 22.2818 31.7489 22.3908C27.4595 22.4854 26.1333 18.9988 26.1333 18.9988C28.6937 17.9006 30.4888 15.363 30.4888 12.4069C30.4888 8.44712 27.2668 5.23862 23.2938 5.23862C19.3209 5.23862 16.0988 8.44712 16.0988 12.4069C16.0988 15.3372 17.8624 17.8547 20.3882 18.9701C20.3537 19.0504 19.3094 21.5076 16.8324 22.2073C14.3123 22.9184 8.43493 25.8057 8.43493 33.5445C8.43493 38.1781 10.4746 41.6131 13.455 43.6231C13.0695 44.598 12.6869 45.5843 12.3072 46.5936L12.2122 46.5592C-0.719195 42.2066 4.92518 29.2121 6.94472 26.0552C9.41306 22.1929 11.1219 19.578 12.5258 11.0191C14.1599 1.08391 20.5378 0.814385 23.5585 0.865996C24.8991 0.888934 30.6931 1.36204 33.0579 6.91312Z" fill="#FED33F"/>
<path d="M23.291 20.4352C22.1575 20.4352 21.0643 20.2058 20.0372 19.7528C17.1201 18.4682 15.2329 15.5837 15.2329 12.4039C15.2329 7.97681 18.8462 4.37549 23.291 4.37549C27.7357 4.37549 31.349 7.97681 31.349 12.4039C31.349 15.6153 29.433 18.5141 26.4699 19.7872C25.4601 20.2173 24.3899 20.4352 23.291 20.4352ZM23.291 6.09873C19.8013 6.09873 16.959 8.92875 16.959 12.4068C16.959 14.9042 18.4406 17.1722 20.7334 18.1815C21.5361 18.5371 22.3963 18.7177 23.2881 18.7177C24.1799 18.7177 24.994 18.5457 25.7852 18.2102C28.1126 17.2124 29.6171 14.9329 29.6171 12.4096C29.6171 8.93162 26.7777 6.1016 23.2852 6.1016L23.291 6.09873Z" fill="#003C77"/>
<path d="M20.3882 46.5358C17.6725 46.5358 15.1063 45.7731 12.9717 44.3308C9.49073 41.9854 7.57187 38.1518 7.57187 33.5412C7.57187 26.4418 12.4337 22.5509 16.5965 21.3753C18.642 20.7961 19.5568 18.7173 19.5942 18.6284L20.3853 18.9639H21.2513L21.1822 19.3022C21.0528 19.6004 19.8474 22.2412 17.0683 23.0268C15.7709 23.3939 9.29798 25.6217 9.29798 33.5383C9.29798 37.5612 10.9464 40.8872 13.9383 42.9029C15.7881 44.1531 18.0177 44.8125 20.3882 44.8125C22.2582 44.8125 23.9124 44.4857 25.3048 43.8377L26.0355 45.3975C24.4129 46.1516 22.5142 46.5329 20.3882 46.5329V46.5358Z" fill="#003C77"/>
<path d="M31.5677 23.2509C26.8784 23.2509 25.3853 19.4661 25.322 19.3026L26.9359 18.6919C26.982 18.8066 28.1298 21.6079 31.7259 21.5276L31.7633 23.248C31.6971 23.248 31.6309 23.248 31.5648 23.248L31.5677 23.2509Z" fill="#003C77"/>
<path d="M32.3588 22.9984L31.1361 21.7798L32.3588 22.9955V22.9984Z" fill="#003C77"/>
<path d="M11.9389 47.3703C7.72147 45.951 4.97696 43.5138 3.78019 40.1276C1.84982 34.6682 4.53104 28.2312 6.21975 25.5904L6.28304 25.49C8.7111 21.6937 10.3135 19.1877 11.6771 10.8754C13.4924 -0.172265 21.0815 -0.0346351 23.5729 0.00550707C24.8301 0.0284454 31.2397 0.444204 33.8519 6.57448C36.4928 12.7707 32.96 21.7081 32.5487 22.7087L32.33 23.2421L31.7489 23.2478V22.3876H30.883V21.5245H31.1563C31.9215 19.4773 34.3611 12.1686 32.261 7.24256C30.0659 2.09003 24.6143 1.73735 23.5412 1.72015C19.5367 1.64273 14.7726 2.66062 13.3773 11.1507C11.9562 19.8099 10.184 22.5797 7.73585 26.4104L7.67256 26.5108C6.44127 28.4376 3.63347 34.5363 5.40561 39.5512C6.41826 42.4128 8.80029 44.4944 12.4884 45.736L11.936 47.3675L11.9389 47.3703Z" fill="#003C77"/>
<path d="M23.7167 92C11.7059 92 2.4971 88.998 0.77099 88.3958C0.227266 88.2095 -0.0949404 87.6389 0.0258871 87.0712C3.6651 70.5183 7.41938 57.1796 11.5016 46.2896C11.8584 45.3406 12.2352 44.3628 12.6552 43.3048L14.2605 43.9384C13.8434 44.985 13.4723 45.9513 13.1184 46.8918C9.10522 57.5954 5.41134 70.696 1.82392 86.9335C4.35266 87.7679 12.848 90.2768 23.7196 90.2768C34.5912 90.2768 42.1573 87.8769 44.4214 87.0712C40.9174 68.1011 37.1315 54.9431 32.517 45.6818L32.2868 45.2201L32.586 44.8015C34.2632 42.4417 33.3858 40.4432 33.3484 40.3601L34.9105 39.6289C34.9652 39.7436 36.1591 42.3385 34.2834 45.3635C38.9122 54.8256 42.7039 68.1527 46.2079 87.2346C46.3115 87.7765 46.0065 88.3213 45.4829 88.5191C43.9525 89.1012 35.7017 92 23.7225 92H23.7167ZM44.5048 87.5414C44.5048 87.5414 44.5048 87.5471 44.5048 87.55C44.5048 87.5471 44.5048 87.5443 44.5048 87.5414ZM44.8673 86.9077C44.8673 86.9077 44.8673 86.9077 44.8644 86.9077C44.8644 86.9077 44.8644 86.9077 44.8673 86.9077ZM1.33485 86.7701C1.33485 86.7701 1.34061 86.7701 1.34348 86.7701C1.34348 86.7701 1.33773 86.7701 1.33485 86.7701Z" fill="#003C77"/>
<path d="M31.8496 67.7942C31.5619 67.6107 31.2569 67.5161 30.9836 67.5046C30.7477 67.496 30.5176 67.4444 30.3133 67.3326C30.1494 67.2437 29.9825 67.1663 29.8128 67.0975C29.9796 66.9799 30.1436 66.8652 30.3076 66.7534C30.5061 66.6158 30.7506 66.547 30.9894 66.5871C31.3145 66.6416 31.7259 66.567 32.1142 66.3549C32.7961 65.9792 33.1528 65.3226 32.9083 64.8839C32.6666 64.4481 31.9186 64.3965 31.2368 64.7721C30.8082 65.0072 30.509 65.3542 30.4054 65.6868C30.3392 65.899 30.1896 66.0739 29.9998 66.1914C29.8156 66.3061 29.6171 66.4294 29.4388 66.5412C29.0993 66.7534 28.7109 66.8767 28.3111 66.914C28.0147 66.9427 27.7184 66.9828 27.425 67.043C27.4509 66.9283 27.4796 66.8165 27.5113 66.7047C27.6091 66.3577 27.8421 66.0538 28.1672 65.899C28.4491 65.7642 28.7282 65.5033 28.9325 65.1506C29.3208 64.4768 29.2806 63.7313 28.849 63.4818C28.4175 63.2324 27.7501 63.5765 27.3617 64.2503C27.1459 64.623 27.0625 65.0187 27.1057 65.3398C27.1373 65.5864 27.0826 65.8387 26.982 66.0681C26.9187 66.2144 26.8611 66.3606 26.8065 66.5068C26.6367 66.9713 26.2858 67.3412 25.837 67.5477C25.7478 67.5878 25.6586 67.6308 25.5694 67.6767C24.9682 67.9749 24.4216 68.3706 23.9354 68.8322L23.9124 67.0918C23.9037 66.5068 24.0735 65.9305 24.4101 65.4517C24.9998 64.6173 25.7248 63.8345 26.4267 63.1263C26.4871 63.0689 26.5447 63.0116 26.6051 62.9514C26.9848 62.5844 27.4768 62.3464 28.0004 62.2833C28.3887 62.2374 28.7771 62.2059 29.1626 62.203C29.5539 62.2002 29.9394 62.3751 30.1695 62.6933C30.3594 62.9514 30.6873 63.1808 31.093 63.3069C31.8352 63.5363 32.5602 63.3385 32.7069 62.8625C32.8565 62.3865 32.3732 61.8131 31.6309 61.5837C31.2512 61.4661 30.8743 61.4604 30.578 61.5464C30.3795 61.6038 30.1753 61.6296 29.971 61.6009C29.3841 61.5149 28.7541 61.5263 28.1528 61.5693C28.4952 61.2912 29.0677 60.8783 29.4733 60.5916C29.7265 60.4138 30.0343 60.3479 30.3392 60.3794C30.6557 60.411 31.0383 60.3249 31.4008 60.1185C32.074 59.7314 32.4192 59.0662 32.1689 58.6332C31.9186 58.2003 31.1706 58.1659 30.4946 58.553C30.1091 58.7766 29.83 59.0891 29.7121 59.3959C29.6143 59.6511 29.4244 59.8576 29.1856 59.9923C28.9238 60.1414 28.6045 60.3249 28.4002 60.4568C28.383 60.0669 28.3801 59.6741 28.3974 59.287V59.264C28.4117 59.0347 28.547 58.8397 28.7426 58.7193C29.0533 58.5271 29.3122 58.1114 29.4043 57.5981C29.5366 56.8354 29.246 56.1444 28.7541 56.0584C28.2621 55.9724 27.7529 56.5229 27.6206 57.2856C27.5487 57.6899 27.5976 58.0741 27.7328 58.358C27.7932 58.4841 27.8191 58.6218 27.799 58.7623C27.7788 58.92 27.7587 59.0777 27.7386 59.2411C27.6868 59.806 27.6724 60.3679 27.6839 60.9328C27.6666 60.9443 27.6465 60.9586 27.6292 60.9701C27.1488 61.3084 26.6828 61.6582 26.2282 62.0281L26.2052 61.3629C26.1966 61.0848 26.28 60.8095 26.4497 60.5859C26.6454 60.3278 26.7662 59.9465 26.7662 59.5192C26.7662 58.7451 26.3606 58.1143 25.86 58.1143C25.3594 58.1143 24.9538 58.7422 24.9538 59.5192C24.9538 59.9465 25.0775 60.3278 25.2702 60.5859C25.44 60.8095 25.5234 61.0819 25.5148 61.3629L25.4802 62.3636C25.4745 62.5586 25.3853 62.7421 25.2415 62.874C24.8243 63.2496 24.4216 63.6424 24.0332 64.0524C23.9756 64.1126 23.921 64.1729 23.8663 64.2359L23.7858 58.335C23.78 57.9078 23.9498 57.4978 24.2605 57.2053C24.4762 56.9989 24.7064 56.8039 24.9423 56.6175C25.0976 56.4942 25.2875 56.4254 25.486 56.4111C25.8226 56.391 26.2368 56.2104 26.608 55.8978C27.2351 55.3703 27.4998 54.6592 27.2063 54.3094C26.91 53.9595 26.1621 54.1058 25.5378 54.6362C25.1695 54.9459 24.9279 55.3186 24.8473 55.6455C24.8013 55.8376 24.7006 56.0097 24.5539 56.1416C24.505 56.1846 24.459 56.2276 24.4101 56.2706C24.108 56.5344 23.803 56.7896 23.4722 57.0103C23.406 56.5803 23.4003 56.1444 23.4089 55.7057C23.4089 55.6455 23.4089 55.5824 23.4147 55.5222C23.4204 55.3358 23.4837 55.1552 23.5959 55.0061C23.7829 54.7509 23.9066 54.3466 23.9066 53.8907C23.9066 53.0965 23.5355 52.4542 23.0867 52.4886C22.6379 52.4571 22.2668 53.0965 22.2668 53.8907C22.2668 54.3466 22.3876 54.7509 22.5775 55.0061C22.6897 55.1581 22.753 55.3358 22.7587 55.5222C22.7587 55.5824 22.7616 55.6455 22.7645 55.7057C22.7731 56.1444 22.7674 56.5774 22.7012 57.0103C22.3704 56.7896 22.0654 56.5344 21.7634 56.2706C21.7144 56.2276 21.6655 56.1846 21.6195 56.1416C21.4728 56.0097 21.3721 55.8348 21.3261 55.6455C21.2484 55.3186 21.0039 54.9459 20.6356 54.6362C20.0085 54.1086 19.2634 53.9624 18.9671 54.3094C18.6707 54.6592 18.9383 55.3674 19.5654 55.8978C19.9366 56.2104 20.3508 56.391 20.6874 56.4111C20.8859 56.4226 21.0729 56.4942 21.2311 56.6175C21.467 56.8039 21.6972 56.9989 21.9129 57.2053C22.2208 57.5007 22.3934 57.9107 22.3876 58.335L22.3071 64.2359C22.2524 64.1757 22.1949 64.1155 22.1402 64.0524C21.7518 63.6424 21.3462 63.2496 20.9319 62.874C20.7852 62.7421 20.6989 62.5586 20.6932 62.3636L20.6586 61.3629C20.65 61.0848 20.7334 60.8095 20.9032 60.5859C21.0988 60.3278 21.2196 59.9465 21.2196 59.5192C21.2196 58.7451 20.814 58.1143 20.3134 58.1143C19.8129 58.1143 19.4072 58.7422 19.4072 59.5192C19.4072 59.9465 19.5309 60.3278 19.7237 60.5859C19.8934 60.8095 19.9768 61.0819 19.9682 61.3629L19.9452 62.0281C19.4906 61.6611 19.0246 61.3084 18.5442 60.9701C18.5269 60.9586 18.5068 60.9443 18.4895 60.9328C18.5039 60.3679 18.4895 59.806 18.4348 59.2411C18.4147 59.0805 18.3974 58.92 18.3744 58.7623C18.3543 58.6246 18.3802 58.4841 18.4406 58.358C18.5758 58.0741 18.6247 57.6899 18.5528 57.2856C18.4205 56.5229 17.9113 55.9724 17.4193 56.0584C16.9274 56.1444 16.6339 56.8326 16.7691 57.5981C16.8583 58.1114 17.1201 58.53 17.4308 58.7193C17.6264 58.8397 17.7617 59.0347 17.776 59.264V59.287C17.7933 59.6741 17.7904 60.0669 17.776 60.4568C17.5718 60.3249 17.2525 60.1414 16.9907 59.9923C16.7548 59.8576 16.562 59.6511 16.4642 59.3959C16.3463 59.0891 16.0672 58.7737 15.6817 58.553C15.0085 58.1659 14.2577 58.2003 14.0074 58.6332C13.7571 59.0662 14.0994 59.7285 14.7755 60.1185C15.138 60.3278 15.5206 60.4138 15.837 60.3794C16.1449 60.3479 16.4527 60.4138 16.703 60.5916C17.1086 60.8783 17.6811 61.2912 18.0235 61.5693C17.4251 61.5263 16.7922 61.5149 16.2053 61.6009C16.001 61.6296 15.7968 61.6038 15.5983 61.5464C15.302 61.4604 14.928 61.4633 14.5453 61.5837C13.8031 61.8131 13.3198 62.3865 13.4694 62.8625C13.619 63.3385 14.3411 63.5392 15.0833 63.3069C15.489 63.1808 15.8169 62.9514 16.0068 62.6933C16.2369 62.3779 16.6224 62.2002 17.0137 62.203C17.3992 62.2059 17.7876 62.2374 18.1759 62.2833C18.7024 62.3464 19.1915 62.5815 19.5712 62.9514C19.6316 63.0087 19.6891 63.0661 19.7496 63.1263C20.4515 63.8345 21.1765 64.6173 21.7662 65.4517C22.1057 65.9305 22.2726 66.5068 22.2639 67.0918L22.2409 68.8322C21.7547 68.3706 21.2081 67.9749 20.6069 67.6767C20.5177 67.6308 20.4314 67.5878 20.3393 67.5477C19.8876 67.3412 19.5367 66.9713 19.3698 66.5068C19.3152 66.3606 19.2576 66.2115 19.1943 66.0681C19.0936 65.8387 19.039 65.5893 19.0706 65.3398C19.1138 65.0187 19.0275 64.623 18.8146 64.2503C18.4262 63.5765 17.7617 63.2324 17.3273 63.4818C16.8929 63.7313 16.8555 64.4768 17.2438 65.1506C17.4481 65.5033 17.7271 65.7642 18.0091 65.899C18.3342 66.0538 18.5672 66.3577 18.665 66.7047C18.6966 66.8165 18.7254 66.9283 18.7513 67.043C18.4579 66.9857 18.1615 66.9427 17.8652 66.914C17.4653 66.8767 17.077 66.7563 16.7375 66.5412C16.5591 66.4294 16.3606 66.3061 16.1765 66.1914C15.9866 66.0739 15.837 65.899 15.7709 65.6868C15.6673 65.3542 15.3681 65.0072 14.9395 64.7721C14.2577 64.3965 13.5097 64.4481 13.268 64.8839C13.0264 65.3198 13.3831 65.9792 14.062 66.3549C14.4504 66.5699 14.8589 66.6445 15.1869 66.5871C15.4257 66.547 15.6702 66.6158 15.8687 66.7534C16.0327 66.8681 16.1967 66.9828 16.3635 67.0975C16.1938 67.1663 16.024 67.2466 15.8629 67.3326C15.6558 67.4444 15.4257 67.496 15.1926 67.5046C14.9222 67.5161 14.6173 67.6107 14.3267 67.7942C13.7053 68.1871 13.409 68.8293 13.6622 69.2279C13.9153 69.6264 14.6259 69.6293 15.2473 69.2365C15.581 69.0243 15.8198 68.7433 15.932 68.4652C16.096 68.0609 16.4182 67.7398 16.8439 67.6337L16.8929 67.6222C17.0827 67.5735 17.2812 67.5649 17.4769 67.5935C17.8019 67.6394 18.1213 67.7025 18.432 67.7885C18.7283 67.8659 19.016 67.9663 19.295 68.0867C19.1167 68.1584 18.9412 68.2358 18.7686 68.3247C18.5068 68.4595 18.2363 68.577 17.9487 68.6344C17.6322 68.6974 17.2841 68.9039 16.9993 69.2222C16.4843 69.8013 16.3693 70.5411 16.7433 70.8708C17.1172 71.2006 17.8393 70.9999 18.3572 70.4207C18.5902 70.1598 18.7427 69.8644 18.8031 69.5892C18.8894 69.205 19.1627 68.8895 19.5396 68.7777C19.5712 68.7691 19.6028 68.7605 19.6345 68.7519C20.0229 68.643 20.4429 68.7204 20.7536 68.9784C20.9952 69.1791 21.2225 69.3971 21.4325 69.6322C21.9388 70.1999 22.2121 70.9368 22.2035 71.6966C22.1834 73.093 21.4469 74.4091 20.2099 75.0657C19.577 75.404 18.8606 75.5703 18.0609 75.5703C16.119 75.5703 15.4487 76.5194 15.4199 76.5596C15.3048 76.7287 15.348 76.9581 15.5148 77.0757C15.581 77.1216 15.6558 77.1445 15.7306 77.1445C15.8486 77.1445 15.9636 77.09 16.0384 76.9897C16.0586 76.9639 16.5476 76.3216 18.058 76.3216C18.3255 76.3216 18.5816 76.3044 18.829 76.2728C18.9498 76.2585 19.0275 76.3933 18.9498 76.4879L17.6236 78.1251C17.4912 78.2914 17.5027 78.5495 17.6725 78.6785C17.7415 78.7301 17.8221 78.7559 17.9026 78.7559C18.0119 78.7559 18.1213 78.7072 18.1961 78.6154L20.1236 76.2298C20.4716 75.8599 21.1046 75.4356 21.1046 75.4356C21.2398 75.361 21.3894 75.5044 21.3232 75.642C20.8197 76.657 20.2703 77.7122 19.7927 78.6355C19.5712 79.0656 20.2012 79.4125 20.4515 79.0025C21.1132 77.89 21.7691 76.7775 22.3991 75.6449C22.448 75.556 22.5833 75.5876 22.589 75.6908L22.7041 79.1172C22.7185 79.358 22.8997 79.4756 23.0809 79.4785H23.0838C23.2651 79.4785 23.4463 79.358 23.4607 79.1172L23.5758 75.6908C23.5786 75.5876 23.7139 75.556 23.7656 75.6449C24.3985 76.7746 25.0516 77.8871 25.7133 79.0025C25.9664 79.4125 26.5936 79.0656 26.3721 78.6355C25.8945 77.7122 25.3421 76.657 24.8416 75.642C24.7725 75.5044 24.925 75.361 25.0602 75.4356C25.0602 75.4356 25.6931 75.8628 26.0412 76.2298L27.9687 78.6154C28.0435 78.7072 28.1528 78.7559 28.2621 78.7559C28.3427 78.7559 28.4233 78.7301 28.4923 78.6785C28.662 78.5495 28.6735 78.2885 28.5412 78.1251L27.215 76.4879C27.1402 76.3933 27.215 76.2556 27.3358 76.2728C27.5861 76.3044 27.8421 76.3216 28.1068 76.3216C29.6171 76.3216 30.1062 76.961 30.1263 76.9897C30.2011 77.09 30.3162 77.1445 30.4342 77.1445C30.509 77.1445 30.5838 77.1216 30.6499 77.0757C30.8168 76.9581 30.8628 76.7287 30.7449 76.5596C30.7161 76.5194 30.0458 75.5703 28.1039 75.5703C27.3042 75.5703 26.5878 75.404 25.9549 75.0657C24.7179 74.4091 23.9814 73.0901 23.9613 71.6966C23.9498 70.9368 24.2259 70.1999 24.7323 69.6322C24.9423 69.3971 25.1695 69.1791 25.4112 68.9784C25.7219 68.7232 26.1419 68.643 26.5303 68.7519C26.5619 68.7605 26.5936 68.7691 26.6252 68.7777C27.005 68.8895 27.2783 69.205 27.3617 69.5892C27.4221 69.8644 27.5746 70.1569 27.8076 70.4207C28.3226 70.9999 29.0475 71.2035 29.4215 70.8708C29.7955 70.5382 29.6804 69.8013 29.1655 69.2222C28.8807 68.901 28.5326 68.6974 28.2161 68.6344C27.9284 68.577 27.658 68.4595 27.3962 68.3247C27.2265 68.2358 27.0481 68.1584 26.8698 68.0867C27.1488 67.9663 27.4365 67.8659 27.7328 67.7885C28.0464 67.7025 28.3657 67.6423 28.6879 67.5935C28.8835 67.5649 29.0821 67.5735 29.2719 67.6222L29.3208 67.6337C29.7466 67.7398 30.0717 68.0609 30.2328 68.4652C30.345 68.7433 30.5838 69.0243 30.9175 69.2365C31.5389 69.6293 32.2495 69.6264 32.5026 69.2279C32.7558 68.8293 32.4595 68.1871 31.8381 67.7942H31.8496Z" fill="#003C77"/>
<path d="M74.7808 44.9901C74.7808 45.1105 74.7491 45.2109 74.6829 45.2912C74.6168 45.3743 74.4988 45.4403 74.3291 45.4947C74.1594 45.5492 73.9292 45.5894 73.6415 45.618C73.351 45.6438 72.9827 45.6582 72.5339 45.6582C72.0852 45.6582 71.6968 45.6438 71.4033 45.618C71.107 45.5894 70.8769 45.5463 70.7071 45.4861C70.5374 45.4259 70.4108 45.3456 70.3303 45.2424C70.2468 45.1392 70.1807 45.0102 70.126 44.8582L68.6013 40.0698C68.3942 39.396 68.1669 38.8311 67.9195 38.3781C67.6721 37.9251 67.3959 37.5581 67.0823 37.2742C66.7716 36.9903 66.4206 36.7925 66.0323 36.6778C65.6439 36.5631 65.198 36.5058 64.6945 36.5058H63.8574V44.9729C63.8574 45.0933 63.8257 45.1937 63.7596 45.2739C63.6934 45.3571 63.5812 45.4259 63.423 45.4861C63.2647 45.5463 63.049 45.5894 62.7757 45.618C62.5024 45.6438 62.1572 45.6582 61.7429 45.6582C61.3286 45.6582 60.9834 45.6438 60.7101 45.618C60.4368 45.5894 60.221 45.5463 60.0628 45.4861C59.9046 45.4259 59.7953 45.3542 59.7349 45.2739C59.6744 45.1908 59.6457 45.0933 59.6457 44.9729V36.5058H58.8085C58.2734 36.5058 57.8016 36.5746 57.3989 36.7093C56.9932 36.847 56.6394 37.0592 56.3315 37.3459C56.0266 37.6355 55.7591 38.0025 55.5289 38.4498C55.2988 38.8971 55.0859 39.4361 54.8902 40.0669L53.3828 44.8553C53.3281 45.0073 53.2591 45.1363 53.1785 45.2395C53.0951 45.3428 52.9685 45.4259 52.793 45.4833C52.6175 45.5435 52.3845 45.5865 52.0968 45.6152C51.8063 45.641 51.4323 45.6553 50.9749 45.6553C50.5174 45.6553 50.1434 45.641 49.8586 45.6152C49.5738 45.5865 49.3466 45.5463 49.1768 45.4919C49.0071 45.4374 48.8891 45.3686 48.823 45.2883C48.7568 45.2051 48.7252 45.1048 48.7252 44.9872C48.7252 44.9327 48.7252 44.8668 48.7338 44.7922C48.7395 44.7148 48.7568 44.6259 48.7827 44.5227C48.8086 44.4195 48.846 44.2962 48.8891 44.1557C48.9323 44.0152 48.9927 43.846 49.0704 43.6482L50.5462 39.4304C50.8195 38.6448 51.0928 37.9853 51.3661 37.4462C51.6394 36.9072 51.93 36.4542 52.2349 36.09C52.5399 35.7259 52.8736 35.4248 53.2361 35.1925C53.5957 34.9574 54.0013 34.7538 54.4501 34.5789V34.5617C54.0675 34.4413 53.7136 34.2779 53.3914 34.0714C53.0692 33.865 52.7671 33.5897 52.4881 33.2456C52.209 32.9016 51.9415 32.4743 51.6854 31.964C51.4294 31.4507 51.1734 30.8314 50.9231 30.1002L49.6601 26.3097C49.5393 25.9599 49.4588 25.6846 49.4156 25.4839C49.3725 25.2832 49.3494 25.1111 49.3494 24.9678C49.3494 24.8473 49.3782 24.747 49.4386 24.6667C49.499 24.5836 49.6084 24.5205 49.7666 24.4717C49.9248 24.423 50.1434 24.3857 50.4225 24.357C50.7016 24.3312 51.0583 24.3169 51.4956 24.3169C51.9559 24.3169 52.327 24.3312 52.6118 24.357C52.8966 24.3857 53.121 24.4287 53.285 24.4889C53.4489 24.5491 53.5669 24.6294 53.6388 24.7355C53.7107 24.8387 53.7683 24.9678 53.8114 25.1197L55.1549 29.5985C55.3419 30.2207 55.5404 30.7425 55.7533 31.1669C55.9662 31.5912 56.2165 31.9353 56.4984 32.1962C56.7832 32.4571 57.1112 32.6464 57.4823 32.7611C57.8534 32.8758 58.2964 32.9331 58.8114 32.9331H59.6485V24.9907C59.6485 24.8703 59.6773 24.7699 59.7377 24.6896C59.7981 24.6065 59.9075 24.5405 60.0657 24.4861C60.2239 24.4316 60.4397 24.3914 60.713 24.3628C60.9863 24.337 61.3315 24.3226 61.7458 24.3226C62.16 24.3226 62.5053 24.337 62.7786 24.3628C63.0519 24.3914 63.2676 24.4316 63.4258 24.4861C63.5841 24.5405 63.6963 24.6094 63.7624 24.6896C63.8286 24.7728 63.8602 24.8732 63.8602 24.9907V32.9331H64.6974C65.1894 32.9331 65.6238 32.87 66.0006 32.7439C66.3775 32.6177 66.7112 32.4199 67.0018 32.1475C67.2923 31.8751 67.5455 31.5281 67.7641 31.1095C67.9828 30.6909 68.1784 30.1805 68.3539 29.5812L69.6974 25.1197C69.7405 24.9678 69.7981 24.8387 69.87 24.7355C69.9419 24.6323 70.0599 24.5491 70.2238 24.4889C70.3878 24.4287 70.6122 24.3857 70.897 24.357C71.1818 24.3312 71.5529 24.3169 72.0132 24.3169C72.4735 24.3169 72.8072 24.3312 73.0805 24.357C73.3538 24.3857 73.5725 24.423 73.7365 24.4717C73.9004 24.5205 74.0126 24.5864 74.0731 24.6667C74.1335 24.7499 74.1622 24.8502 74.1622 24.9678C74.1622 25.1083 74.1363 25.2832 74.0874 25.4896C74.0385 25.6961 73.958 25.9685 73.8487 26.3068L72.5857 30.0343C72.3441 30.731 72.1024 31.3274 71.855 31.8235C71.6076 32.3195 71.3458 32.7353 71.0667 33.0736C70.7877 33.412 70.4856 33.6929 70.1577 33.9166C69.8297 34.1402 69.4643 34.3266 69.0587 34.4815V34.4987C69.519 34.6936 69.9275 34.9144 70.29 35.161C70.6496 35.4076 70.9833 35.7144 71.2911 36.0843C71.5961 36.4542 71.8809 36.9101 72.1427 37.4491C72.4045 37.9882 72.6778 38.6505 72.9626 39.4333L74.4212 43.6511C74.4988 43.846 74.5564 44.0152 74.6024 44.1586C74.6455 44.2991 74.6829 44.4224 74.7088 44.5256C74.7376 44.6288 74.7549 44.7206 74.7664 44.7951C74.7779 44.8725 74.7836 44.9356 74.7836 44.9901H74.7808Z" fill="#003C77"/>
<path d="M81.5327 44.9733C81.5327 45.0823 81.4982 45.1798 81.4263 45.2686C81.3544 45.3575 81.2364 45.4263 81.0724 45.4808C80.9084 45.5353 80.6898 45.5783 80.4165 45.6127C80.1432 45.6471 79.7922 45.6615 79.3665 45.6615C78.9407 45.6615 78.6041 45.6443 78.325 45.6127C78.046 45.5812 77.8245 45.5353 77.6605 45.4808C77.4965 45.4263 77.3786 45.3547 77.3066 45.2686C77.2347 45.1826 77.2002 45.0823 77.2002 44.9733V25.0026C77.2002 24.8936 77.2347 24.7962 77.3066 24.7073C77.3786 24.6213 77.4965 24.5496 77.6662 24.4951C77.836 24.4406 78.0575 24.3976 78.3308 24.3632C78.6041 24.3288 78.9493 24.3145 79.3636 24.3145C79.7778 24.3145 80.1403 24.3317 80.4136 24.3632C80.6869 24.3947 80.9056 24.4406 81.0695 24.4951C81.2335 24.5496 81.3515 24.6213 81.4234 24.7073C81.4953 24.7962 81.5298 24.8936 81.5298 25.0026V44.9733H81.5327Z" fill="#003C77"/>
<path d="M101.881 44.9733C101.881 45.0823 101.846 45.1798 101.774 45.2686C101.702 45.3575 101.584 45.4263 101.42 45.4808C101.256 45.5353 101.038 45.5783 100.764 45.6127C100.491 45.6443 100.146 45.6615 99.7317 45.6615C99.3174 45.6615 98.952 45.6443 98.673 45.6127C98.3939 45.5812 98.1753 45.5353 98.0171 45.4808C97.8588 45.4263 97.7438 45.3547 97.6718 45.2686C97.5999 45.1826 97.5654 45.0823 97.5654 44.9733V36.4259H89.6282V44.9733C89.6282 45.0823 89.5965 45.1798 89.5304 45.2686C89.4642 45.3575 89.3491 45.4263 89.1851 45.4808C89.0212 45.5353 88.8025 45.5783 88.5292 45.6127C88.2559 45.6471 87.9049 45.6615 87.4792 45.6615C87.0534 45.6615 86.7168 45.6443 86.4377 45.6127C86.1587 45.5812 85.9372 45.5353 85.7732 45.4808C85.6092 45.4263 85.4913 45.3547 85.4193 45.2686C85.3474 45.1826 85.3129 45.0823 85.3129 44.9733V25.0026C85.3129 24.8936 85.3474 24.7962 85.4193 24.7073C85.4913 24.6213 85.6092 24.5496 85.7732 24.4951C85.9372 24.4406 86.1587 24.3976 86.4377 24.3632C86.7168 24.3317 87.062 24.3145 87.4792 24.3145C87.8963 24.3145 88.2559 24.3317 88.5292 24.3632C88.8025 24.3947 89.0212 24.4406 89.1851 24.4951C89.3491 24.5496 89.4642 24.6213 89.5304 24.7073C89.5965 24.7962 89.6282 24.8936 89.6282 25.0026V32.7644H97.5654V25.0026C97.5654 24.8936 97.5999 24.7962 97.6718 24.7073C97.7438 24.6213 97.8588 24.5496 98.0171 24.4951C98.1753 24.4406 98.3939 24.3976 98.673 24.3632C98.952 24.3317 99.303 24.3145 99.7317 24.3145C100.16 24.3145 100.491 24.3317 100.764 24.3632C101.038 24.3947 101.256 24.4406 101.42 24.4951C101.584 24.5496 101.702 24.6213 101.774 24.7073C101.846 24.7962 101.881 24.8936 101.881 25.0026V44.9733Z" fill="#003C77"/>
<path d="M121.374 44.9905C121.374 45.1109 121.343 45.2113 121.276 45.2916C121.21 45.3747 121.092 45.4407 120.922 45.4952C120.753 45.5496 120.525 45.5898 120.241 45.6185C119.956 45.6443 119.591 45.6586 119.142 45.6586C118.673 45.6586 118.293 45.6443 118.002 45.6185C117.712 45.5898 117.482 45.5468 117.306 45.4866C117.131 45.4263 117.001 45.3461 116.912 45.2428C116.823 45.1396 116.76 45.0106 116.717 44.8586L115.011 40.1505C114.769 39.4652 114.519 38.8889 114.257 38.4273C113.995 37.9656 113.704 37.5872 113.388 37.3004C113.072 37.0108 112.709 36.8073 112.306 36.6868C111.904 36.5664 111.449 36.5062 110.946 36.5062H109.979V44.9733C109.979 45.0937 109.947 45.1941 109.881 45.2744C109.815 45.3575 109.7 45.4263 109.536 45.4866C109.372 45.5468 109.153 45.5898 108.88 45.6185C108.607 45.6443 108.256 45.6586 107.83 45.6586C107.404 45.6586 107.068 45.6443 106.789 45.6185C106.509 45.5898 106.288 45.5468 106.124 45.4866C105.96 45.4263 105.842 45.3547 105.77 45.2744C105.698 45.1912 105.664 45.0937 105.664 44.9733V24.9854C105.664 24.865 105.698 24.7646 105.77 24.6843C105.842 24.6012 105.96 24.5352 106.124 24.4808C106.288 24.4263 106.509 24.3861 106.789 24.3575C107.068 24.3317 107.413 24.3173 107.83 24.3173C108.247 24.3173 108.607 24.3317 108.88 24.3575C109.153 24.3861 109.372 24.4263 109.536 24.4808C109.7 24.5352 109.815 24.604 109.881 24.6843C109.947 24.7675 109.979 24.8678 109.979 24.9854V32.9278H110.946C111.438 32.9278 111.869 32.8619 112.24 32.7328C112.611 32.6009 112.948 32.3945 113.247 32.1106C113.546 31.8268 113.822 31.4597 114.067 31.0067C114.314 30.5537 114.55 29.9974 114.78 29.3322L116.207 25.1173C116.262 24.9653 116.328 24.8363 116.403 24.7331C116.481 24.6299 116.601 24.5467 116.771 24.4865C116.941 24.4263 117.165 24.3833 117.444 24.3546C117.723 24.3288 118.097 24.3145 118.569 24.3145C118.995 24.3145 119.349 24.3288 119.628 24.3546C119.907 24.3833 120.126 24.4205 120.284 24.4693C120.442 24.518 120.548 24.584 120.603 24.6643C120.658 24.7474 120.687 24.8478 120.687 24.9653C120.687 25.1058 120.664 25.2807 120.612 25.4872C120.563 25.6936 120.477 25.966 120.359 26.3044L118.932 30.0634C118.67 30.7601 118.408 31.3537 118.143 31.844C117.882 32.3343 117.605 32.75 117.315 33.0941C117.024 33.4382 116.719 33.7192 116.397 33.9371C116.075 34.155 115.715 34.3356 115.324 34.4761V34.4933C115.761 34.6797 116.158 34.889 116.512 35.1213C116.866 35.3564 117.2 35.6517 117.513 36.013C117.824 36.3714 118.123 36.813 118.408 37.3377C118.693 37.8596 118.981 38.5047 119.277 39.2674L121.015 43.6486C121.19 44.0959 121.294 44.4027 121.325 44.5719C121.357 44.7411 121.374 44.8787 121.374 44.9876V44.9905Z" fill="#003C77"/>
<path d="M141 45.0077C141 45.1167 140.965 45.2113 140.894 45.2944C140.822 45.3776 140.704 45.4435 140.54 45.498C140.376 45.5525 140.154 45.5926 139.875 45.6213C139.596 45.6471 139.248 45.6615 138.834 45.6615C138.419 45.6615 138.071 45.6471 137.792 45.6213C137.513 45.5926 137.295 45.5525 137.136 45.498C136.978 45.4435 136.866 45.3747 136.8 45.2944C136.734 45.2113 136.702 45.1167 136.702 45.0077V33.8625C136.702 33.4382 136.708 33.0196 136.719 32.6124C136.731 32.2052 136.745 31.8411 136.768 31.5257H136.737C136.647 31.6777 136.544 31.8554 136.426 32.0561C136.305 32.2569 136.178 32.469 136.04 32.6927C135.902 32.9163 135.758 33.1457 135.606 33.378C135.453 33.6131 135.301 33.8396 135.146 34.0575L127.767 45.0249C127.68 45.1453 127.588 45.2486 127.496 45.3346C127.404 45.4206 127.283 45.4894 127.136 45.5382C126.99 45.5869 126.809 45.6213 126.596 45.6357C126.383 45.6529 126.107 45.6586 125.767 45.6586C125.341 45.6586 124.996 45.6443 124.734 45.6185C124.473 45.5898 124.268 45.5496 124.119 45.4952C123.972 45.4407 123.871 45.369 123.817 45.283C123.762 45.197 123.733 45.0937 123.733 44.9733V24.9682C123.733 24.8592 123.768 24.7646 123.84 24.6815C123.912 24.5983 124.029 24.5324 124.199 24.4779C124.369 24.4234 124.59 24.3833 124.864 24.3546C125.137 24.3288 125.482 24.3145 125.897 24.3145C126.311 24.3145 126.673 24.3288 126.947 24.3546C127.22 24.3833 127.439 24.4234 127.603 24.4779C127.767 24.5324 127.882 24.6012 127.948 24.6815C128.014 24.7646 128.046 24.8592 128.046 24.9682V36.1793C128.046 36.5291 128.04 36.899 128.028 37.2918C128.017 37.6846 128.002 38.066 127.979 38.4359H128.011C128.198 38.109 128.431 37.7162 128.716 37.2603C129.001 36.8015 129.294 36.3571 129.602 35.9213L136.981 24.9539C137.059 24.8449 137.139 24.7503 137.226 24.6671C137.312 24.584 137.43 24.518 137.579 24.4636C137.726 24.4091 137.91 24.3718 138.129 24.3489C138.348 24.3259 138.627 24.3173 138.966 24.3173C139.38 24.3173 139.717 24.3317 139.976 24.3575C140.232 24.3861 140.436 24.4263 140.592 24.4808C140.744 24.5352 140.85 24.604 140.911 24.6843C140.971 24.7646 141 24.8678 141 24.9854V45.0077Z" fill="#003C77"/>
<path d="M64.614 58.5097C64.614 59.6967 64.427 60.749 64.0559 61.6637C63.6848 62.5783 63.1439 63.3496 62.4333 63.9776C61.7228 64.6055 60.8511 65.0815 59.8183 65.4084C58.7855 65.7352 57.5686 65.8987 56.1704 65.8987H54.3983V72.6483C54.3983 72.7572 54.3638 72.8547 54.2919 72.9436C54.2199 73.0325 54.102 73.1013 53.938 73.1558C53.774 73.2103 53.5554 73.2533 53.2821 73.2877C53.0088 73.3192 52.6578 73.3364 52.232 73.3364C51.8063 73.3364 51.4697 73.3192 51.1906 73.2877C50.9116 73.2561 50.6901 73.2103 50.5261 73.1558C50.3621 73.1013 50.247 73.0296 50.1809 72.9436C50.1147 72.8576 50.083 72.7572 50.083 72.6483V53.6238C50.083 53.1105 50.2183 52.7263 50.4858 52.4711C50.7533 52.2159 51.1072 52.0869 51.5445 52.0869H56.5473C57.0508 52.0869 57.5283 52.107 57.9829 52.1443C58.4374 52.1815 58.9811 52.2647 59.614 52.3908C60.2469 52.517 60.8914 52.7493 61.5415 53.0847C62.1917 53.4231 62.7469 53.8503 63.2072 54.3693C63.6675 54.8854 64.0156 55.4904 64.2573 56.1843C64.4989 56.8753 64.6169 57.6523 64.6169 58.5125L64.614 58.5097ZM60.106 58.8193C60.106 58.0796 59.9736 57.4688 59.7118 56.99C59.4501 56.5111 59.1278 56.1556 58.7452 55.9262C58.3626 55.6968 57.9598 55.5535 57.5398 55.4933C57.1198 55.433 56.6854 55.4044 56.2366 55.4044H54.4012V62.5783H56.3373C57.0249 62.5783 57.6031 62.4866 58.0663 62.3002C58.5295 62.1138 58.9121 61.8558 59.2055 61.5232C59.5018 61.1906 59.7234 60.7949 59.8787 60.3304C60.0312 59.8688 60.1089 59.3641 60.1089 58.8193H60.106Z" fill="#003C77"/>
<path d="M91.4118 62.415C91.4118 64.1698 91.1932 65.7382 90.7559 67.1231C90.3186 68.508 89.6684 69.6808 88.8054 70.6442C87.9423 71.6076 86.8721 72.3445 85.6006 72.852C84.329 73.3595 82.8532 73.6118 81.1817 73.6118C79.5103 73.6118 78.092 73.3968 76.8607 72.9667C75.6294 72.5366 74.6053 71.88 73.7854 70.9968C72.9655 70.1137 72.3498 68.9926 71.9413 67.6306C71.5328 66.2687 71.3257 64.6573 71.3257 62.7935C71.3257 61.0846 71.5443 59.5449 71.9816 58.1772C72.4189 56.8095 73.069 55.6454 73.9321 54.6877C74.7951 53.73 75.8653 52.9931 77.1369 52.4799C78.4113 51.9695 79.89 51.7114 81.573 51.7114C83.2559 51.7114 84.5994 51.9236 85.8278 52.348C87.0563 52.7723 88.0862 53.4261 88.9118 54.3092C89.7375 55.1923 90.3589 56.3048 90.7818 57.6525C91.2047 59.0001 91.4118 60.5857 91.4118 62.415ZM86.8865 62.6444C86.8865 61.5319 86.8002 60.5226 86.6247 59.6137C86.4492 58.7048 86.1529 57.9248 85.73 57.2768C85.3071 56.6288 84.749 56.1271 84.0499 55.7744C83.3509 55.4217 82.4763 55.2439 81.4263 55.2439C80.3762 55.2439 79.4815 55.4418 78.7709 55.8403C78.0604 56.2389 77.485 56.7693 77.0477 57.4345C76.6104 58.0998 76.3026 58.8768 76.1214 59.7628C75.9401 60.6488 75.8509 61.5893 75.8509 62.5813C75.8509 63.7369 75.9372 64.7748 76.1127 65.6952C76.2882 66.6156 76.5817 67.4041 76.9988 68.0579C77.4131 68.7116 77.9712 69.2105 78.6702 69.5546C79.3693 69.8987 80.2496 70.0707 81.3112 70.0707C82.3728 70.0707 83.2559 69.8757 83.9665 69.4829C84.6771 69.0901 85.2496 68.5568 85.6869 67.8801C86.1242 67.2063 86.432 66.4178 86.6132 65.5174C86.7945 64.6171 86.8836 63.6623 86.8836 62.6502L86.8865 62.6444Z" fill="#003C77"/>
<path d="M118.08 78.2194C118.08 78.3284 118.051 78.4201 117.997 78.4976C117.942 78.575 117.844 78.6381 117.7 78.6868C117.557 78.7355 117.367 78.7728 117.128 78.8015C116.886 78.8302 116.576 78.8416 116.193 78.8416C115.81 78.8416 115.517 78.8273 115.284 78.8015C115.048 78.7757 114.858 78.7355 114.709 78.6868C114.562 78.6381 114.458 78.575 114.398 78.4976C114.337 78.4201 114.309 78.3284 114.309 78.2194V73.2332H100.189V78.2194C100.189 78.3284 100.16 78.4201 100.1 78.4976C100.039 78.575 99.9359 78.6381 99.7892 78.6868C99.6425 78.7355 99.4469 78.7728 99.2081 78.8015C98.9664 78.8302 98.6615 78.8416 98.2904 78.8416C97.9193 78.8416 97.6114 78.8273 97.3726 78.8015C97.131 78.7757 96.9382 78.7355 96.7915 78.6868C96.6448 78.6381 96.5441 78.575 96.4895 78.4976C96.4348 78.4201 96.406 78.3284 96.406 78.2194V70.6211C96.383 70.3057 96.4405 70.0792 96.5786 69.9416C96.7138 69.8068 96.921 69.738 97.1943 69.738H98.1782C98.44 69.3681 98.6902 68.9867 98.9233 68.5939C99.1563 68.2011 99.3864 67.7366 99.6051 67.1976C99.8237 66.6585 100.039 66.0162 100.252 65.2679C100.465 64.5224 100.675 63.6077 100.882 62.5296C101.09 61.4515 101.3 60.1727 101.512 58.696C101.725 57.2194 101.947 55.4847 102.177 53.4919C102.243 53.0016 102.367 52.646 102.554 52.4224C102.741 52.1987 103.023 52.0869 103.405 52.0869H114.245C114.628 52.0869 114.927 52.1987 115.146 52.4224C115.364 52.646 115.474 52.9872 115.474 53.4431V69.738H117.278C117.574 69.738 117.781 69.8183 117.902 69.976C118.023 70.1337 118.083 70.3544 118.083 70.6383V78.2223L118.08 78.2194ZM111.176 55.5506H106.225C106.029 57.2079 105.833 58.6645 105.644 59.9232C105.451 61.182 105.261 62.2859 105.068 63.2321C104.875 64.1812 104.683 64.9983 104.487 65.6836C104.291 66.3689 104.09 66.9624 103.889 67.4642C103.687 67.966 103.477 68.3961 103.259 68.7545C103.04 69.1129 102.816 69.4398 102.585 69.7351H111.179V55.5477L111.176 55.5506Z" fill="#003C77"/>
<path d="M134.99 67.3983C134.51 68.6198 134.035 69.6262 133.572 70.4233C133.106 71.2176 132.611 71.8484 132.079 72.31C131.55 72.7745 130.968 73.0957 130.341 73.2734C129.714 73.4512 128.995 73.5429 128.187 73.5429C127.89 73.5429 127.603 73.5229 127.318 73.4856C127.033 73.4483 126.765 73.3967 126.515 73.3308C126.262 73.2648 126.043 73.1903 125.859 73.1014C125.672 73.0154 125.537 72.9322 125.451 72.8548C125.361 72.7774 125.295 72.6942 125.246 72.6025C125.197 72.5107 125.157 72.3874 125.123 72.2355C125.088 72.0835 125.065 71.8885 125.048 71.6563C125.031 71.4212 125.025 71.1316 125.025 70.7817C125.025 70.1509 125.071 69.7008 125.163 69.4341C125.255 69.1675 125.402 69.0327 125.597 69.0327C125.695 69.0327 125.805 69.07 125.925 69.1474C126.046 69.2248 126.19 69.3051 126.36 69.394C126.529 69.48 126.725 69.5603 126.949 69.632C127.174 69.7036 127.439 69.738 127.743 69.738C127.974 69.738 128.187 69.7122 128.382 69.6635C128.578 69.6148 128.765 69.5201 128.94 69.3768C129.116 69.2334 129.291 69.0356 129.464 68.7804C129.639 68.5252 129.823 68.1897 130.022 67.774L123.037 53.6038C122.884 53.2654 122.792 52.9902 122.767 52.778C122.738 52.5658 122.792 52.3995 122.922 52.2791C123.051 52.1587 123.276 52.0813 123.586 52.0411C123.897 52.0038 124.317 51.9838 124.841 51.9838C125.364 51.9838 125.764 51.9952 126.069 52.0153C126.374 52.0354 126.622 52.0841 126.806 52.1529C126.993 52.2246 127.134 52.3278 127.231 52.4626C127.329 52.6002 127.427 52.7751 127.528 52.9931L130.511 59.3986C130.839 60.0839 131.15 60.7692 131.446 61.4487C131.742 62.1282 132.024 62.8193 132.298 63.516H132.346C132.565 62.7877 132.798 62.0766 133.043 61.3828C133.29 60.6917 133.56 59.9634 133.854 59.2007L136.296 52.6949C136.351 52.5429 136.423 52.4196 136.509 52.3278C136.596 52.2361 136.728 52.1615 136.903 52.1071C137.079 52.0526 137.318 52.0182 137.625 52.001C137.93 51.9838 138.33 51.978 138.822 51.978C139.314 51.978 139.723 51.9952 140.019 52.0268C140.315 52.0583 140.528 52.1214 140.658 52.216C140.79 52.3078 140.848 52.4368 140.839 52.6002C140.827 52.7637 140.773 52.9758 140.675 53.2368L134.985 67.3897L134.99 67.3983Z" fill="#003C77"/>
</g>
<defs>
<clipPath id="clip0_99_293">
<rect width="141" height="92" fill="white"/>
</clipPath>
</defs>
</svg>
