<svg width="907" height="1229" viewBox="0 0 907 1229" fill="none" xmlns="http://www.w3.org/2000/svg">
<g opacity="0.3">
<mask id="path-1-inside-1_53_37" fill="white">
<path d="M854.954 696.977C841.771 688.622 827.797 684.313 815.273 683.791C804.463 683.399 793.917 681.049 784.557 675.958C777.043 671.91 769.397 668.385 761.619 665.252C769.265 659.899 776.779 654.677 784.293 649.585C793.39 643.318 804.595 640.185 815.537 642.012C830.434 644.493 849.285 641.099 867.082 631.437C898.326 614.334 914.673 584.436 903.467 564.461C892.394 544.616 858.118 542.266 826.874 559.369C807.232 570.075 793.521 585.873 788.776 601.017C785.744 610.679 778.888 618.643 770.188 623.996C761.75 629.218 752.654 634.832 744.481 639.924C728.925 649.585 711.128 655.199 692.804 656.896C679.225 658.202 665.647 660.03 652.2 662.771C653.387 657.549 654.705 652.457 656.155 647.365C660.637 631.568 671.315 617.729 686.212 610.679C699.131 604.542 711.919 592.662 721.279 576.603C739.076 545.922 737.23 511.977 717.456 500.618C697.681 489.26 667.097 504.927 649.3 535.608C639.413 552.581 635.59 570.597 637.567 585.22C639.017 596.448 636.512 607.937 631.898 618.382C628.998 625.04 626.361 631.698 623.857 638.357C616.079 659.507 599.995 676.349 579.43 685.749C575.343 687.577 571.257 689.535 567.17 691.624C539.617 705.202 514.57 723.219 492.291 744.239L491.236 664.991C490.841 638.357 498.618 612.115 514.043 590.312C541.068 552.319 574.289 516.677 606.455 484.429C609.224 481.818 611.86 479.207 614.629 476.465C632.03 459.754 654.573 448.918 678.566 446.045C696.363 443.956 714.16 442.52 731.825 442.39C749.754 442.259 767.419 450.223 777.966 464.715C786.666 476.465 801.695 486.91 820.283 492.654C854.295 503.099 887.516 494.091 894.239 472.418C901.094 450.746 878.947 424.634 844.935 414.189C827.533 408.836 810.264 408.575 796.685 412.492C787.589 415.103 778.229 416.278 768.869 414.973C741.976 411.056 713.105 411.578 685.553 413.536C701.241 400.872 727.475 382.072 746.063 369.016C757.664 360.922 771.77 357.919 785.743 359.355C800.245 360.791 817.778 356.874 834.389 347.474C865.237 329.849 881.056 299.56 869.587 279.845C858.118 260.131 823.842 258.565 792.862 276.19C775.197 286.373 762.41 300.604 757.005 314.574C752.522 326.193 743.822 335.593 732.88 341.73C720.883 348.519 706.25 356.874 696.89 362.88C696.099 345.124 695.967 327.238 696.758 309.613V308.568C697.418 298.123 703.614 289.245 712.578 283.762C726.816 275.015 738.68 256.084 742.899 232.714C748.963 197.986 735.648 166.521 713.105 162.604C690.562 158.688 667.229 183.755 661.164 218.483C657.869 236.892 660.11 254.387 666.306 267.312C669.074 273.056 670.261 279.323 669.338 285.72C668.415 292.901 667.492 300.082 666.569 307.524C664.197 333.243 663.537 358.833 664.065 384.553C663.274 385.075 662.351 385.728 661.56 386.25C639.544 401.656 618.188 417.584 597.359 434.426L596.304 404.136C595.909 391.472 599.732 378.939 607.51 368.755C616.474 357.005 622.011 339.641 622.011 320.188C622.011 284.937 603.423 256.214 580.485 256.214C557.546 256.214 538.958 284.807 538.958 320.188C538.958 339.641 544.627 357.005 553.46 368.755C561.238 378.939 565.061 391.342 564.665 404.136L563.083 449.701C562.82 458.579 558.733 466.935 552.141 472.94C533.026 490.043 514.57 507.93 496.773 526.599C494.136 529.341 491.632 532.083 489.127 534.955L485.436 266.267C485.172 246.814 492.95 228.144 507.187 214.828C517.075 205.427 527.621 196.55 538.431 188.063C545.55 182.449 554.251 179.316 563.347 178.663C578.771 177.749 597.754 169.524 614.76 155.293C643.499 131.271 655.628 98.8924 642.181 82.9644C628.603 67.0363 594.327 73.6948 565.72 97.8479C548.846 111.948 537.772 128.921 534.081 143.804C531.971 152.552 527.357 160.385 520.634 166.391C518.393 168.349 516.284 170.307 514.043 172.266C500.2 184.277 486.226 195.897 471.066 205.95C468.034 186.366 467.77 166.521 468.166 146.546C468.166 143.804 468.166 140.932 468.43 138.19C468.693 129.704 471.593 121.479 476.735 114.69C485.304 103.07 490.972 84.6615 490.972 63.9029C490.972 27.7384 473.966 -1.50655 453.401 0.0601453C432.836 -1.37599 415.83 27.7384 415.83 63.9029C415.83 84.6615 421.366 103.07 430.067 114.69C435.208 121.609 438.109 129.704 438.372 138.19C438.372 140.932 438.504 143.804 438.636 146.546C439.031 166.521 438.768 186.236 435.736 205.95C420.575 195.897 406.601 184.277 392.759 172.266C390.518 170.307 388.277 168.349 386.168 166.391C379.445 160.385 374.83 152.421 372.721 143.804C369.162 128.921 357.956 111.948 341.082 97.8479C312.343 73.8253 278.199 67.1669 264.621 82.9644C251.042 98.8924 263.303 131.14 292.041 155.293C309.047 169.524 328.031 177.749 343.455 178.663C352.551 179.185 361.12 182.449 368.371 188.063C379.181 196.55 389.727 205.427 399.614 214.828C413.72 228.275 421.63 246.945 421.366 266.267L417.675 534.955C415.17 532.213 412.534 529.472 410.029 526.599C392.232 507.93 373.644 490.043 354.661 472.94C347.937 466.935 343.982 458.579 343.719 449.701L342.137 404.136C341.741 391.472 345.564 378.939 353.342 368.755C362.307 357.005 367.844 339.641 367.844 320.188C367.844 284.937 349.256 256.214 326.317 256.214C303.379 256.214 284.791 284.807 284.791 320.188C284.791 339.641 290.459 357.005 299.292 368.755C307.07 378.939 310.893 391.342 310.498 404.136L309.443 434.426C288.614 417.714 267.257 401.656 245.242 386.25C244.451 385.728 243.528 385.075 242.737 384.553C243.396 358.833 242.737 333.243 240.232 307.524C239.31 300.212 238.519 292.901 237.464 285.72C236.541 279.454 237.728 273.056 240.496 267.312C246.692 254.387 248.933 236.892 245.637 218.483C239.573 183.755 216.239 158.688 193.696 162.604C171.154 166.521 157.707 197.855 163.903 232.714C167.99 256.084 179.986 275.145 194.224 283.762C203.188 289.245 209.384 298.123 210.043 308.568V309.613C210.834 327.238 210.703 345.124 210.043 362.88C200.683 356.874 186.05 348.519 174.054 341.73C163.244 335.593 154.411 326.193 149.929 314.574C144.524 300.604 131.737 286.243 114.071 276.19C83.2232 258.565 48.8157 260.131 37.3465 279.845C25.8773 299.56 41.5651 329.718 72.5451 347.474C89.1556 357.005 106.689 360.922 121.19 359.355C135.296 357.919 149.402 360.922 160.871 369.016C179.459 382.072 205.693 400.872 221.381 413.536C193.96 411.578 164.958 411.056 138.064 414.973C128.704 416.278 119.345 415.103 110.248 412.492C96.6699 408.575 79.532 408.706 61.9987 414.189C27.9866 424.634 5.83923 450.746 12.6944 472.418C19.5495 494.091 52.6388 503.23 86.6508 492.654C105.239 486.91 120.267 476.465 128.968 464.715C139.514 450.354 157.18 442.259 175.109 442.39C192.774 442.52 210.571 443.956 228.368 446.045C252.493 448.918 274.904 459.623 292.305 476.465C295.074 479.077 297.71 481.688 300.479 484.429C332.645 516.677 365.866 552.319 392.891 590.312C408.447 612.115 416.093 638.357 415.698 664.991L414.643 744.239C392.364 723.219 367.316 705.202 339.764 691.624C335.677 689.535 331.722 687.577 327.504 685.749C306.806 676.349 290.723 659.507 283.077 638.357C280.572 631.698 277.936 624.909 275.035 618.382C270.421 607.937 267.917 596.578 269.367 585.22C271.344 570.597 267.389 552.581 257.634 535.608C239.837 504.927 209.384 489.26 189.478 500.618C169.572 511.977 167.858 545.922 185.655 576.603C195.015 592.662 207.802 604.542 220.722 610.679C235.618 617.729 246.297 631.568 250.779 647.365C252.229 652.457 253.547 657.549 254.734 662.771C241.287 660.16 227.709 658.202 214.13 656.896C195.806 655.199 178.009 649.716 162.453 639.924C154.279 634.832 145.183 629.218 136.746 623.996C128.045 618.643 121.19 610.679 118.158 601.017C113.412 585.873 99.702 570.075 80.0593 559.369C48.8157 542.266 14.54 544.616 3.46629 564.461C-7.6074 584.306 8.7395 614.334 39.8513 631.437C57.6483 641.229 76.3681 644.624 91.3967 642.012C102.339 640.185 113.544 643.318 122.64 649.585C130.155 654.807 137.669 660.029 145.315 665.252C137.537 668.385 129.759 672.041 122.377 675.958C112.885 681.049 102.339 683.399 91.6604 683.791C79.2684 684.313 65.2944 688.622 51.9796 696.977C23.5044 714.864 9.92598 744.109 21.527 762.256C33.128 780.404 65.6899 780.534 94.1651 762.648C109.457 752.987 120.399 740.192 125.541 727.528C133.055 709.119 147.82 694.497 167.331 689.666L169.572 689.144C178.272 686.924 187.369 686.533 196.333 687.838C211.23 689.927 225.863 692.799 240.101 696.716C253.679 700.241 266.862 704.811 279.649 710.294C271.476 713.558 263.434 717.083 255.525 721.13C243.528 727.267 231.136 732.62 217.953 735.231C203.452 738.103 187.501 747.503 174.449 761.995C150.852 788.368 145.579 822.052 162.717 837.066C179.854 852.08 212.944 842.941 236.673 816.568C247.351 804.688 254.338 791.24 257.107 778.706C261.061 761.212 273.585 746.85 290.855 741.759C292.305 741.367 293.755 740.975 295.205 740.584C313.002 735.622 332.249 739.148 346.487 750.898C357.561 760.037 367.975 769.959 377.599 780.665C400.801 806.515 413.325 840.069 412.929 874.666C412.006 938.248 378.258 998.174 321.571 1028.07C292.569 1043.48 259.743 1051.05 223.095 1051.05C134.109 1051.05 103.393 1094.26 102.075 1096.09C96.8017 1103.8 98.7792 1114.24 106.425 1119.59C109.457 1121.68 112.885 1122.73 116.312 1122.73C121.718 1122.73 126.991 1120.25 130.418 1115.68C131.341 1114.5 153.752 1085.26 222.963 1085.26C235.223 1085.26 246.956 1084.47 258.293 1083.04C263.83 1082.38 267.389 1088.52 263.83 1092.83L203.056 1167.38C196.992 1174.95 197.52 1186.7 205.298 1192.57C208.461 1194.92 212.153 1196.1 215.844 1196.1C220.853 1196.1 225.863 1193.88 229.291 1189.7L317.616 1081.08C333.568 1064.24 362.57 1044.91 362.57 1044.91C368.766 1041.52 375.621 1048.05 372.589 1054.31C349.519 1100.53 324.34 1148.58 302.456 1190.62C292.305 1210.2 321.176 1226 332.645 1207.33C362.966 1156.67 393.023 1106.01 421.894 1054.44C424.135 1050.4 430.331 1051.83 430.594 1056.53L435.868 1212.55C436.527 1223.52 444.832 1228.87 453.137 1229H453.269C461.574 1229 469.88 1223.52 470.539 1212.55L475.812 1056.53C475.944 1051.83 482.14 1050.4 484.513 1054.44C513.515 1105.88 543.441 1156.54 573.761 1207.33C585.362 1226 614.101 1210.2 603.95 1190.62C582.067 1148.58 556.755 1100.53 533.817 1054.31C530.653 1048.05 537.64 1041.52 543.836 1044.91C543.836 1044.91 572.839 1064.37 588.79 1081.08L677.116 1189.7C680.543 1193.88 685.553 1196.1 690.562 1196.1C694.254 1196.1 697.945 1194.92 701.109 1192.57C708.887 1186.7 709.414 1174.82 703.35 1167.38L642.576 1092.83C639.149 1088.52 642.576 1082.25 648.113 1083.04C659.582 1084.47 671.315 1085.26 683.444 1085.26C752.654 1085.26 775.065 1114.37 775.988 1115.68C779.416 1120.25 784.689 1122.73 790.094 1122.73C793.521 1122.73 796.949 1121.68 799.981 1119.59C807.627 1114.24 809.737 1103.8 804.332 1096.09C803.013 1094.26 772.297 1051.05 683.312 1051.05C646.663 1051.05 613.838 1043.48 584.835 1028.07C528.148 998.174 494.4 938.117 493.477 874.666C492.95 840.069 505.605 806.515 528.807 780.665C538.431 769.959 548.846 760.037 559.919 750.898C574.157 739.278 593.404 735.622 611.201 740.584C612.651 740.975 614.101 741.367 615.551 741.759C632.953 746.85 645.477 761.212 649.3 778.706C652.068 791.24 659.055 804.557 669.733 816.568C693.331 842.941 726.552 852.21 743.69 837.066C760.828 821.921 755.554 788.368 731.957 761.995C718.906 747.373 702.955 738.103 688.453 735.231C675.27 732.62 662.878 727.267 650.882 721.13C643.104 717.083 634.93 713.558 626.757 710.294C639.544 704.811 652.727 700.241 666.306 696.716C680.675 692.799 695.308 690.058 710.073 687.838C719.038 686.533 728.134 686.924 736.835 689.144L739.076 689.666C758.587 694.497 773.483 709.119 780.866 727.528C786.007 740.192 796.949 752.987 812.241 762.648C840.716 780.534 873.278 780.404 884.879 762.256C896.48 744.109 882.902 714.864 854.427 696.977H854.954Z"/>
</mask>
<path d="M854.954 696.977C841.771 688.622 827.797 684.313 815.273 683.791C804.463 683.399 793.917 681.049 784.557 675.958C777.043 671.91 769.397 668.385 761.619 665.252C769.265 659.899 776.779 654.677 784.293 649.585C793.39 643.318 804.595 640.185 815.537 642.012C830.434 644.493 849.285 641.099 867.082 631.437C898.326 614.334 914.673 584.436 903.467 564.461C892.394 544.616 858.118 542.266 826.874 559.369C807.232 570.075 793.521 585.873 788.776 601.017C785.744 610.679 778.888 618.643 770.188 623.996C761.75 629.218 752.654 634.832 744.481 639.924C728.925 649.585 711.128 655.199 692.804 656.896C679.225 658.202 665.647 660.03 652.2 662.771C653.387 657.549 654.705 652.457 656.155 647.365C660.637 631.568 671.315 617.729 686.212 610.679C699.131 604.542 711.919 592.662 721.279 576.603C739.076 545.922 737.23 511.977 717.456 500.618C697.681 489.26 667.097 504.927 649.3 535.608C639.413 552.581 635.59 570.597 637.567 585.22C639.017 596.448 636.512 607.937 631.898 618.382C628.998 625.04 626.361 631.698 623.857 638.357C616.079 659.507 599.995 676.349 579.43 685.749C575.343 687.577 571.257 689.535 567.17 691.624C539.617 705.202 514.57 723.219 492.291 744.239L491.236 664.991C490.841 638.357 498.618 612.115 514.043 590.312C541.068 552.319 574.289 516.677 606.455 484.429C609.224 481.818 611.86 479.207 614.629 476.465C632.03 459.754 654.573 448.918 678.566 446.045C696.363 443.956 714.16 442.52 731.825 442.39C749.754 442.259 767.419 450.223 777.966 464.715C786.666 476.465 801.695 486.91 820.283 492.654C854.295 503.099 887.516 494.091 894.239 472.418C901.094 450.746 878.947 424.634 844.935 414.189C827.533 408.836 810.264 408.575 796.685 412.492C787.589 415.103 778.229 416.278 768.869 414.973C741.976 411.056 713.105 411.578 685.553 413.536C701.241 400.872 727.475 382.072 746.063 369.016C757.664 360.922 771.77 357.919 785.743 359.355C800.245 360.791 817.778 356.874 834.389 347.474C865.237 329.849 881.056 299.56 869.587 279.845C858.118 260.131 823.842 258.565 792.862 276.19C775.197 286.373 762.41 300.604 757.005 314.574C752.522 326.193 743.822 335.593 732.88 341.73C720.883 348.519 706.25 356.874 696.89 362.88C696.099 345.124 695.967 327.238 696.758 309.613V308.568C697.418 298.123 703.614 289.245 712.578 283.762C726.816 275.015 738.68 256.084 742.899 232.714C748.963 197.986 735.648 166.521 713.105 162.604C690.562 158.688 667.229 183.755 661.164 218.483C657.869 236.892 660.11 254.387 666.306 267.312C669.074 273.056 670.261 279.323 669.338 285.72C668.415 292.901 667.492 300.082 666.569 307.524C664.197 333.243 663.537 358.833 664.065 384.553C663.274 385.075 662.351 385.728 661.56 386.25C639.544 401.656 618.188 417.584 597.359 434.426L596.304 404.136C595.909 391.472 599.732 378.939 607.51 368.755C616.474 357.005 622.011 339.641 622.011 320.188C622.011 284.937 603.423 256.214 580.485 256.214C557.546 256.214 538.958 284.807 538.958 320.188C538.958 339.641 544.627 357.005 553.46 368.755C561.238 378.939 565.061 391.342 564.665 404.136L563.083 449.701C562.82 458.579 558.733 466.935 552.141 472.94C533.026 490.043 514.57 507.93 496.773 526.599C494.136 529.341 491.632 532.083 489.127 534.955L485.436 266.267C485.172 246.814 492.95 228.144 507.187 214.828C517.075 205.427 527.621 196.55 538.431 188.063C545.55 182.449 554.251 179.316 563.347 178.663C578.771 177.749 597.754 169.524 614.76 155.293C643.499 131.271 655.628 98.8924 642.181 82.9644C628.603 67.0363 594.327 73.6948 565.72 97.8479C548.846 111.948 537.772 128.921 534.081 143.804C531.971 152.552 527.357 160.385 520.634 166.391C518.393 168.349 516.284 170.307 514.043 172.266C500.2 184.277 486.226 195.897 471.066 205.95C468.034 186.366 467.77 166.521 468.166 146.546C468.166 143.804 468.166 140.932 468.43 138.19C468.693 129.704 471.593 121.479 476.735 114.69C485.304 103.07 490.972 84.6615 490.972 63.9029C490.972 27.7384 473.966 -1.50655 453.401 0.0601453C432.836 -1.37599 415.83 27.7384 415.83 63.9029C415.83 84.6615 421.366 103.07 430.067 114.69C435.208 121.609 438.109 129.704 438.372 138.19C438.372 140.932 438.504 143.804 438.636 146.546C439.031 166.521 438.768 186.236 435.736 205.95C420.575 195.897 406.601 184.277 392.759 172.266C390.518 170.307 388.277 168.349 386.168 166.391C379.445 160.385 374.83 152.421 372.721 143.804C369.162 128.921 357.956 111.948 341.082 97.8479C312.343 73.8253 278.199 67.1669 264.621 82.9644C251.042 98.8924 263.303 131.14 292.041 155.293C309.047 169.524 328.031 177.749 343.455 178.663C352.551 179.185 361.12 182.449 368.371 188.063C379.181 196.55 389.727 205.427 399.614 214.828C413.72 228.275 421.63 246.945 421.366 266.267L417.675 534.955C415.17 532.213 412.534 529.472 410.029 526.599C392.232 507.93 373.644 490.043 354.661 472.94C347.937 466.935 343.982 458.579 343.719 449.701L342.137 404.136C341.741 391.472 345.564 378.939 353.342 368.755C362.307 357.005 367.844 339.641 367.844 320.188C367.844 284.937 349.256 256.214 326.317 256.214C303.379 256.214 284.791 284.807 284.791 320.188C284.791 339.641 290.459 357.005 299.292 368.755C307.07 378.939 310.893 391.342 310.498 404.136L309.443 434.426C288.614 417.714 267.257 401.656 245.242 386.25C244.451 385.728 243.528 385.075 242.737 384.553C243.396 358.833 242.737 333.243 240.232 307.524C239.31 300.212 238.519 292.901 237.464 285.72C236.541 279.454 237.728 273.056 240.496 267.312C246.692 254.387 248.933 236.892 245.637 218.483C239.573 183.755 216.239 158.688 193.696 162.604C171.154 166.521 157.707 197.855 163.903 232.714C167.99 256.084 179.986 275.145 194.224 283.762C203.188 289.245 209.384 298.123 210.043 308.568V309.613C210.834 327.238 210.703 345.124 210.043 362.88C200.683 356.874 186.05 348.519 174.054 341.73C163.244 335.593 154.411 326.193 149.929 314.574C144.524 300.604 131.737 286.243 114.071 276.19C83.2232 258.565 48.8157 260.131 37.3465 279.845C25.8773 299.56 41.5651 329.718 72.5451 347.474C89.1556 357.005 106.689 360.922 121.19 359.355C135.296 357.919 149.402 360.922 160.871 369.016C179.459 382.072 205.693 400.872 221.381 413.536C193.96 411.578 164.958 411.056 138.064 414.973C128.704 416.278 119.345 415.103 110.248 412.492C96.6699 408.575 79.532 408.706 61.9987 414.189C27.9866 424.634 5.83923 450.746 12.6944 472.418C19.5495 494.091 52.6388 503.23 86.6508 492.654C105.239 486.91 120.267 476.465 128.968 464.715C139.514 450.354 157.18 442.259 175.109 442.39C192.774 442.52 210.571 443.956 228.368 446.045C252.493 448.918 274.904 459.623 292.305 476.465C295.074 479.077 297.71 481.688 300.479 484.429C332.645 516.677 365.866 552.319 392.891 590.312C408.447 612.115 416.093 638.357 415.698 664.991L414.643 744.239C392.364 723.219 367.316 705.202 339.764 691.624C335.677 689.535 331.722 687.577 327.504 685.749C306.806 676.349 290.723 659.507 283.077 638.357C280.572 631.698 277.936 624.909 275.035 618.382C270.421 607.937 267.917 596.578 269.367 585.22C271.344 570.597 267.389 552.581 257.634 535.608C239.837 504.927 209.384 489.26 189.478 500.618C169.572 511.977 167.858 545.922 185.655 576.603C195.015 592.662 207.802 604.542 220.722 610.679C235.618 617.729 246.297 631.568 250.779 647.365C252.229 652.457 253.547 657.549 254.734 662.771C241.287 660.16 227.709 658.202 214.13 656.896C195.806 655.199 178.009 649.716 162.453 639.924C154.279 634.832 145.183 629.218 136.746 623.996C128.045 618.643 121.19 610.679 118.158 601.017C113.412 585.873 99.702 570.075 80.0593 559.369C48.8157 542.266 14.54 544.616 3.46629 564.461C-7.6074 584.306 8.7395 614.334 39.8513 631.437C57.6483 641.229 76.3681 644.624 91.3967 642.012C102.339 640.185 113.544 643.318 122.64 649.585C130.155 654.807 137.669 660.029 145.315 665.252C137.537 668.385 129.759 672.041 122.377 675.958C112.885 681.049 102.339 683.399 91.6604 683.791C79.2684 684.313 65.2944 688.622 51.9796 696.977C23.5044 714.864 9.92598 744.109 21.527 762.256C33.128 780.404 65.6899 780.534 94.1651 762.648C109.457 752.987 120.399 740.192 125.541 727.528C133.055 709.119 147.82 694.497 167.331 689.666L169.572 689.144C178.272 686.924 187.369 686.533 196.333 687.838C211.23 689.927 225.863 692.799 240.101 696.716C253.679 700.241 266.862 704.811 279.649 710.294C271.476 713.558 263.434 717.083 255.525 721.13C243.528 727.267 231.136 732.62 217.953 735.231C203.452 738.103 187.501 747.503 174.449 761.995C150.852 788.368 145.579 822.052 162.717 837.066C179.854 852.08 212.944 842.941 236.673 816.568C247.351 804.688 254.338 791.24 257.107 778.706C261.061 761.212 273.585 746.85 290.855 741.759C292.305 741.367 293.755 740.975 295.205 740.584C313.002 735.622 332.249 739.148 346.487 750.898C357.561 760.037 367.975 769.959 377.599 780.665C400.801 806.515 413.325 840.069 412.929 874.666C412.006 938.248 378.258 998.174 321.571 1028.07C292.569 1043.48 259.743 1051.05 223.095 1051.05C134.109 1051.05 103.393 1094.26 102.075 1096.09C96.8017 1103.8 98.7792 1114.24 106.425 1119.59C109.457 1121.68 112.885 1122.73 116.312 1122.73C121.718 1122.73 126.991 1120.25 130.418 1115.68C131.341 1114.5 153.752 1085.26 222.963 1085.26C235.223 1085.26 246.956 1084.47 258.293 1083.04C263.83 1082.38 267.389 1088.52 263.83 1092.83L203.056 1167.38C196.992 1174.95 197.52 1186.7 205.298 1192.57C208.461 1194.92 212.153 1196.1 215.844 1196.1C220.853 1196.1 225.863 1193.88 229.291 1189.7L317.616 1081.08C333.568 1064.24 362.57 1044.91 362.57 1044.91C368.766 1041.52 375.621 1048.05 372.589 1054.31C349.519 1100.53 324.34 1148.58 302.456 1190.62C292.305 1210.2 321.176 1226 332.645 1207.33C362.966 1156.67 393.023 1106.01 421.894 1054.44C424.135 1050.4 430.331 1051.83 430.594 1056.53L435.868 1212.55C436.527 1223.52 444.832 1228.87 453.137 1229H453.269C461.574 1229 469.88 1223.52 470.539 1212.55L475.812 1056.53C475.944 1051.83 482.14 1050.4 484.513 1054.44C513.515 1105.88 543.441 1156.54 573.761 1207.33C585.362 1226 614.101 1210.2 603.95 1190.62C582.067 1148.58 556.755 1100.53 533.817 1054.31C530.653 1048.05 537.64 1041.52 543.836 1044.91C543.836 1044.91 572.839 1064.37 588.79 1081.08L677.116 1189.7C680.543 1193.88 685.553 1196.1 690.562 1196.1C694.254 1196.1 697.945 1194.92 701.109 1192.57C708.887 1186.7 709.414 1174.82 703.35 1167.38L642.576 1092.83C639.149 1088.52 642.576 1082.25 648.113 1083.04C659.582 1084.47 671.315 1085.26 683.444 1085.26C752.654 1085.26 775.065 1114.37 775.988 1115.68C779.416 1120.25 784.689 1122.73 790.094 1122.73C793.521 1122.73 796.949 1121.68 799.981 1119.59C807.627 1114.24 809.737 1103.8 804.332 1096.09C803.013 1094.26 772.297 1051.05 683.312 1051.05C646.663 1051.05 613.838 1043.48 584.835 1028.07C528.148 998.174 494.4 938.117 493.477 874.666C492.95 840.069 505.605 806.515 528.807 780.665C538.431 769.959 548.846 760.037 559.919 750.898C574.157 739.278 593.404 735.622 611.201 740.584C612.651 740.975 614.101 741.367 615.551 741.759C632.953 746.85 645.477 761.212 649.3 778.706C652.068 791.24 659.055 804.557 669.733 816.568C693.331 842.941 726.552 852.21 743.69 837.066C760.828 821.921 755.554 788.368 731.957 761.995C718.906 747.373 702.955 738.103 688.453 735.231C675.27 732.62 662.878 727.267 650.882 721.13C643.104 717.083 634.93 713.558 626.757 710.294C639.544 704.811 652.727 700.241 666.306 696.716C680.675 692.799 695.308 690.058 710.073 687.838C719.038 686.533 728.134 686.924 736.835 689.144L739.076 689.666C758.587 694.497 773.483 709.119 780.866 727.528C786.007 740.192 796.949 752.987 812.241 762.648C840.716 780.534 873.278 780.404 884.879 762.256C896.48 744.109 882.902 714.864 854.427 696.977H854.954Z" stroke="white" stroke-width="20" mask="url(#path-1-inside-1_53_37)"/>
</g>
</svg>
