<svg width="40" height="40" viewBox="0 0 40 40" fill="none" xmlns="http://www.w3.org/2000/svg">
<path d="M31.8341 18C31.9432 18.6504 32 19.3186 32 20C32 24.0151 30.0281 27.5695 27 29.7479C25.0298 31.1652 22.6124 32 20 32C13.7093 32 8.54922 27.1595 8.04107 21M31.8341 18C30.8819 12.3246 25.946 8 20 8C17.3876 8 14.9702 8.83476 13 10.2521C9.97186 12.4305 8 15.9849 8 20C8 20.3368 8.01387 20.6703 8.04107 21M8.04107 21H9H11C12.1356 21 13.1239 20.3964 13.6333 19.5064C14.0311 18.8113 14.6716 18.1304 15.5 18.1304H16.5C17.8807 18.1304 19 17.0598 19 15.7391C19 14.4184 17.8807 13.3478 16.5 13.3478H16C14.3431 13.3478 13 12.0631 13 10.4783V10.2521M31.8341 18H31H29C27.8644 18 26.8761 18.631 26.3667 19.5615C25.9689 20.2882 25.3284 21 24.5 21H23.5C22.1193 21 21 22.1193 21 23.5C21 24.8807 22.1193 26 23.5 26H24C25.6569 26 27 27.3431 27 29V29.7479" stroke="black" stroke-width="2"/>
</svg>
