<svg width="936" height="398" viewBox="0 0 936 398" fill="none" xmlns="http://www.w3.org/2000/svg">
<path d="M943.5 374.743C826.5 403.574 795.172 360.685 795.172 294.135C795.172 256.66 839.072 256.191 856.549 283.917C871.546 307.709 872.851 367.022 840.068 378.717C769.2 403.998 693.542 377.924 626.385 354.591C528.337 320.526 428.545 247.339 373.489 157.612C352.101 122.756 275.202 10.1437 367.806 7.57413C514.651 3.49947 553.399 168.499 495.959 270.01C471.89 312.545 414.138 339.749 367.806 346.36C316.626 353.663 237.747 315.169 227.719 260.076C219.472 214.767 269.264 232.574 280.855 262.346C297.852 306.002 258.73 338.084 218.341 338.981C152.244 340.448 99.5942 303.406 55.806 257.237C42.885 243.614 17.111 207.2 12.8987 188.266C9.06784 171.047 9.74877 181.77 12.3305 193.375C14.7492 204.247 7.5 215.236 7.5 226.583C7.5 230.574 12.6146 205.835 12.6146 198.484C12.6146 163.525 59.4916 192.011 79.1066 195.93" stroke="#FED33F" stroke-width="15" stroke-linecap="round"/>
</svg>
