<svg width="936" height="398" viewBox="0 0 936 398" fill="none" xmlns="http://www.w3.org/2000/svg">
<path d="M944 375.169C827 404 795.672 361.111 795.672 294.561C795.672 257.086 839.572 256.617 857.049 284.343C872.046 308.135 873.351 367.448 840.568 379.143C795.712 395.145 748.937 390.572 703.613 379.143C677.33 372.515 651.535 363.582 626.885 355.017C528.837 320.952 429.045 247.765 373.989 158.038C352.601 123.182 275.702 10.5696 368.306 8.00006M228.219 260.502C219.972 215.193 269.764 233 281.355 262.772C298.352 306.427 259.23 338.51 218.841 339.407C152.744 340.874 100.094 303.832 56.306 257.663C43.385 244.04 17.611 207.626 13.3987 188.692C9.56784 171.473 10.2488 182.196 12.8305 193.801C15.2492 204.673 8 215.662 8 227.009C8 231 13.1146 206.261 13.1146 198.91C13.1146 163.951 59.9916 192.437 79.6066 196.355" stroke="#FED33F" stroke-width="16" stroke-linecap="round"/>
</svg>
