<svg width="345" height="147" viewBox="0 0 345 147" fill="none" xmlns="http://www.w3.org/2000/svg">
<path d="M348.404 138.243C305.228 148.862 293.667 133.064 293.667 108.552C293.667 94.748 309.867 94.5753 316.317 104.788C321.851 113.551 322.333 135.399 310.235 139.706C293.682 145.6 276.421 143.916 259.696 139.706C249.997 137.265 240.478 133.975 231.382 130.82C195.2 118.272 158.374 91.3149 138.058 58.2649C130.165 45.4259 101.788 3.94651 135.96 3.00003M84.2653 96.0062C81.2219 79.3174 99.5964 85.8764 103.874 96.8425C110.146 112.922 95.7091 124.74 80.8049 125.07C56.4134 125.61 36.9847 111.967 20.8259 94.9607C16.0578 89.9426 6.54666 76.53 4.99224 69.556C3.57856 63.2133 3.82983 67.1633 4.78255 71.4378C5.6751 75.4423 2.99999 79.4899 2.99999 83.6696C2.99999 85.1394 4.8874 76.0273 4.8874 73.3196C4.8874 60.4427 22.186 70.9353 29.4243 72.3787" stroke="#FED33F" stroke-width="6" stroke-linecap="round"/>
</svg>
