<svg width="152" height="77" viewBox="0 0 152 77" fill="none" xmlns="http://www.w3.org/2000/svg">
<g clip-path="url(#clip0_162_1187)">
<path d="M14.4641 72.3204C14.3 72.3204 14.1336 72.3132 13.9671 72.2964C12.9114 72.186 12.4144 71.97 11.9746 71.7804C11.606 71.6196 11.2874 71.4829 10.574 71.3845C9.70615 71.2645 9.24248 71.3461 8.70747 71.4397C8.12492 71.5405 7.46389 71.658 6.30353 71.5453C5.41424 71.4589 4.88875 71.3005 4.42746 71.1613C4.00184 71.0341 3.60237 70.9117 2.90092 70.8421C2.38732 70.7917 1.86658 70.7821 1.3506 70.8181L1.25549 69.3806C1.84756 69.3398 2.44914 69.3494 3.04121 69.4094C3.87819 69.4934 4.36564 69.6398 4.83406 69.7814C5.27395 69.9134 5.68769 70.0382 6.43907 70.1102C7.4092 70.2038 7.92281 70.1126 8.46494 70.019C9.06414 69.9134 9.68237 69.8054 10.769 69.9566C11.6726 70.0814 12.1339 70.2806 12.5381 70.4581C12.9328 70.6285 13.2728 70.7773 14.1122 70.8661C14.7161 70.9285 15.37 70.8109 16.1238 70.6765C16.9417 70.5301 17.8715 70.3622 19.0152 70.3622C20.2421 70.3622 21.1837 70.5325 22.0112 70.6837C22.7649 70.8205 23.3641 70.9285 23.9562 70.8685C24.7932 70.7821 25.1332 70.6333 25.5279 70.4629C25.9322 70.2878 26.3911 70.0862 27.297 69.9614C28.3837 69.8102 29.0043 69.9182 29.6035 70.0238C30.1456 70.1198 30.6616 70.2086 31.6293 70.115C32.3783 70.043 32.7944 69.9182 33.232 69.7862C33.7028 69.6446 34.1902 69.4982 35.0272 69.4142C35.6525 69.3518 36.2874 69.3446 36.9104 69.3926L36.8034 70.8277C36.2636 70.7869 35.7144 70.7917 35.1699 70.8469C34.4684 70.9165 34.0666 71.0389 33.6433 71.1661C33.1797 71.3053 32.6565 71.4637 31.7672 71.5477C30.6045 71.6581 29.9435 71.5429 29.3609 71.4421C28.8235 71.3485 28.3623 71.2669 27.492 71.3869C26.7787 71.4853 26.4624 71.6244 26.0938 71.7828C25.6563 71.9724 25.1594 72.1884 24.1036 72.2988C23.3071 72.3804 22.5557 72.2436 21.7591 72.0996C20.9887 71.9604 20.1161 71.802 19.0152 71.802C17.9975 71.802 17.1343 71.958 16.3735 72.0948C15.7196 72.2124 15.0942 72.3252 14.4617 72.3252L14.4641 72.3204Z" fill="#ED1C24"/>
<path d="M19.9639 4.38444H18.5372V16.3858H19.9639V4.38444Z" fill="#003C77"/>
<path d="M25.1974 8.50009H13.4178V9.93997H25.1974V8.50009Z" fill="#003C77"/>
<path d="M24.2772 39.0688C22.7245 39.0688 21.5832 38.6752 20.7296 37.8713L20.915 36.6906C22.5129 35.9418 23.1478 34.9243 23.1549 34.9147L23.4735 34.7323L23.4307 34.6507L23.5686 34.5931C25.2378 34.1036 26.6788 33.5156 27.8534 32.8461C31.3155 30.8758 32.6423 28.1209 31.9099 24.4204V24.4036H31.9075C31.9028 24.3772 31.898 24.3508 31.8909 24.3244L31.8766 24.2548L33.0988 23.6236L33.2201 23.7628C33.2866 23.8372 33.415 23.962 33.5648 24.106C34.9891 25.4931 39.3238 29.7167 35.3672 35.1163C32.2594 39.3591 28.4098 38.8408 27.5039 38.6488C26.265 38.9248 25.195 39.064 24.2725 39.064L24.2772 39.0688ZM22.6223 37.3745C23.678 37.7609 25.2188 37.7033 27.3541 37.2137L27.7084 37.2233C27.8534 37.2641 31.3583 38.1784 34.2235 34.2668C36.6631 30.9358 35.3743 28.2361 33.5316 26.1458C33.5934 29.5176 31.9242 32.1885 28.5548 34.106C27.3422 34.7971 25.8798 35.4043 24.2035 35.9106C23.9633 36.2298 23.4593 36.8105 22.6199 37.3769L22.6223 37.3745Z" fill="#003C77"/>
<path d="M23.9515 35.9802L23.7993 35.3395L23.766 35.2747L23.2524 34.7971L23.3404 34.7011L23.4854 34.6267L23.5187 34.6099C23.8349 34.4371 25.5897 33.4604 27.083 32.3229C27.083 32.3229 27.0901 32.3157 27.0949 32.3133L27.4944 32.8365L28.0508 33.3764L28.0198 33.4052L27.9556 33.4628C26.4291 34.6291 24.6505 35.6274 24.2154 35.8674L24.2082 35.8746L24.0917 35.9346C24.0561 35.9514 24.0061 35.9706 23.9467 35.985L23.9515 35.9802Z" fill="#003C77"/>
<path d="M23.766 36.009H23.1454L23.0598 35.3875C22.9861 34.8715 22.6722 33.5204 22.0302 32.6853C21.324 33.0501 20.273 33.4532 19.0817 33.4532C17.774 33.4532 16.6279 33.1533 15.6791 32.5629C12.336 30.4871 12.5833 25.6467 12.5951 25.4403C12.6189 25.0443 12.9613 24.7395 13.3489 24.7635C13.7412 24.7875 14.0408 25.1283 14.0194 25.5243C14.0194 25.5651 13.815 29.7119 16.4281 31.3342C17.151 31.783 18.0427 32.0109 19.0841 32.0109C20.2469 32.0109 21.2669 31.4926 21.7782 31.1782C21.7877 31.1734 21.7972 31.1662 21.8067 31.1614C21.9874 31.051 22.1087 30.9622 22.1562 30.9262C22.2276 30.8566 22.4107 30.6839 22.677 30.4535C23.6067 29.6495 25.4399 28.2601 27.2613 27.9841C27.9247 27.8833 28.5382 27.9361 29.0899 28.1425C29.9459 28.464 30.4713 29.3016 30.3691 30.1799C30.255 31.1734 29.4798 32.2341 28.0032 33.4196L27.9699 33.446C26.3697 34.7227 24.4413 35.745 24.1488 35.8962L24.0941 35.925L23.9515 36.0042H23.766V36.009ZM23.2191 31.891C23.7541 32.6253 24.0775 33.5252 24.2606 34.1996C24.9834 33.7868 26.0843 33.1149 27.0545 32.3421L27.0949 32.3085C28.619 31.0894 28.9115 30.3479 28.9496 30.0143C28.9757 29.7959 28.8283 29.5823 28.5905 29.4936C28.2671 29.3736 27.8914 29.3448 27.4706 29.4096C25.944 29.6399 24.2558 30.9838 23.5995 31.5502C23.4307 31.6942 23.2999 31.8142 23.2191 31.891Z" fill="#003C77"/>
<path d="M30.79 25.4091C28.5572 25.4091 27.0331 24.7923 26.1343 23.5228C25.5493 22.6973 25.2545 21.603 25.2545 20.2687C25.2545 19.6784 25.3591 19.0832 25.566 18.5001L25.585 18.4425C26.422 16.1555 28.6119 14.4948 30.79 14.4948C34.0594 14.4948 36.1709 16.6378 36.1709 19.9543C36.1709 21.8814 35.1009 23.6908 33.4079 24.6795V24.7011L32.9989 24.8979C32.9775 24.9075 32.9561 24.9171 32.9324 24.9291L32.9038 24.9411C32.2214 25.2531 31.5104 25.4115 30.7876 25.4115L30.79 25.4091ZM26.9356 18.908L26.9189 18.9608C26.762 19.3952 26.6812 19.8368 26.6812 20.2687C26.6812 21.2982 26.888 22.1118 27.2946 22.6853C27.9152 23.5612 29.0257 23.9692 30.79 23.9692C31.168 23.9692 31.5437 23.9068 31.9123 23.7868L32.3498 23.6116L32.3855 23.5948C33.8169 22.9085 34.7419 21.4782 34.7419 19.9543C34.7419 17.437 33.2629 15.9347 30.7876 15.9347C29.2206 15.9347 27.5681 17.2114 26.9332 18.908H26.9356Z" fill="#003C77"/>
<path d="M16.654 32.3373L15.4509 31.5646C16.0596 30.5999 16.7111 29.6663 17.3911 28.7952C18.3446 27.5689 19.329 26.4914 20.3206 25.5891L20.5298 25.4043C22.5985 23.5804 24.6577 22.5653 26.655 22.3877L26.781 23.8228C25.0333 23.9788 23.181 24.9339 21.2788 26.6594L21.1409 26.7842C20.2564 27.6049 19.3742 28.5792 18.5158 29.6831C17.8667 30.5183 17.2413 31.411 16.6588 32.3349L16.654 32.3373Z" fill="#003C77"/>
<path d="M26.8595 29.2056C24.2606 26.573 20.9983 26.8298 20.8627 26.8418H20.8009V26.1146L20.7391 25.4067C21.1504 25.3707 24.8598 25.1379 27.8724 28.1881L26.8619 29.2056H26.8595Z" fill="#003C77"/>
<path d="M22.6413 31.5214C21.1908 30.1127 17.9547 29.9615 17.9214 29.9591L17.9785 28.5192C18.133 28.5264 21.7877 28.692 23.6305 30.4823L22.6413 31.519V31.5214Z" fill="#003C77"/>
<path d="M19.524 21.9054C15.0038 21.9054 13.3584 19.0616 13.2918 18.9392L14.5307 18.2265C14.583 18.3177 15.8741 20.4655 19.524 20.4655C22.8268 20.4655 23.5449 18.3081 23.5734 18.2169L24.9382 18.6321C24.8978 18.7664 23.9253 21.9054 19.524 21.9054Z" fill="#003C77"/>
<path d="M27.3231 5.78592C29.4774 10.9023 26.2769 18.6489 26.2413 18.74C22.696 18.8192 21.5998 15.9011 21.5998 15.9011C23.716 14.982 25.1998 12.8581 25.1998 10.3839C25.1998 7.06982 22.5367 4.38444 19.2529 4.38444C15.9692 4.38444 13.3061 7.06982 13.3061 10.3839C13.3061 12.8365 14.7637 14.9436 16.8514 15.8771C16.8228 15.9443 15.9597 18.0009 13.9124 18.5865C11.8295 19.1816 6.97167 21.5982 6.97167 28.0753C6.97167 31.9533 8.65753 34.8283 11.1209 36.5106C10.8023 37.3265 10.486 38.152 10.1722 38.9968L10.0937 38.968C-0.594442 35.3251 4.07077 24.4492 5.73998 21.807C7.78012 18.5745 9.19253 16.3858 10.3529 9.22244C11.7035 0.907127 16.975 0.681546 19.4717 0.724743C20.5797 0.743941 25.3686 1.13991 27.3231 5.78592Z" fill="#FED33F"/>
<path d="M19.2506 17.1058C18.3137 17.1058 17.4102 16.9138 16.5613 16.5346C14.1502 15.4595 12.5904 13.0453 12.5904 10.3839C12.5904 6.67865 15.5769 3.6645 19.2506 3.6645C22.9243 3.6645 25.9108 6.67865 25.9108 10.3839C25.9108 13.0717 24.3271 15.4979 21.878 16.5634C21.0434 16.9234 20.1589 17.1058 19.2506 17.1058ZM19.2506 5.10438C16.3663 5.10438 14.0171 7.47298 14.0171 10.3839C14.0171 12.4742 15.2416 14.3724 17.1367 15.2171C17.8001 15.5147 18.5111 15.6659 19.2482 15.6659C19.9853 15.6659 20.6582 15.5219 21.3121 15.2411C23.2357 14.406 24.4793 12.4982 24.4793 10.3863C24.4793 7.47538 22.1325 5.10678 19.2458 5.10678L19.2506 5.10438Z" fill="#003C77"/>
<path d="M16.8514 38.9488C14.6067 38.9488 12.4858 38.3104 10.7214 37.1033C7.84431 35.1403 6.25833 31.9317 6.25833 28.0729C6.25833 22.131 10.2768 18.8744 13.7174 17.8905C15.4081 17.4058 16.1642 15.6659 16.1951 15.5915L16.849 15.8723H17.5647L17.5076 16.1555C17.4006 16.405 16.4067 18.6153 14.1074 19.2728C13.035 19.58 7.685 21.4446 7.685 28.0705C7.685 31.4374 9.04748 34.2212 11.5204 35.9082C13.0493 36.9521 14.8921 37.5065 16.8514 37.5065C18.3969 37.5065 19.7642 37.2305 20.915 36.6906L21.519 37.996C20.1779 38.6272 18.6086 38.9488 16.8514 38.9488Z" fill="#003C77"/>
<path d="M26.0915 19.46C22.2157 19.46 20.9816 16.2922 20.9293 16.1555L22.2632 15.6443C22.3013 15.7403 23.2548 18.0873 26.2222 18.0177L26.2532 19.4576C26.1985 19.4576 26.1438 19.4576 26.0891 19.4576L26.0915 19.46Z" fill="#003C77"/>
<path d="M26.7454 19.2488L25.7348 18.2313L26.7454 19.2464V19.2488Z" fill="#003C77"/>
<path d="M9.86782 39.6471C6.38199 38.4592 4.11358 36.4194 3.12442 33.5852C1.52893 29.016 3.74502 23.6284 5.14078 21.4182L5.19309 21.3342C7.19995 18.1569 8.52437 16.0595 9.65144 9.10484C11.1494 -0.141587 17.4221 -0.0311969 19.4836 0.00480012C20.5227 0.0215987 25.8204 0.37197 27.9794 5.50274C30.1622 10.6863 27.2423 18.1689 26.9023 19.0064L26.7216 19.4528L26.2413 19.4576V18.7376H25.5255V18.0153H25.7514C26.3839 16.3018 28.4003 10.1824 26.6645 6.0619C24.8503 1.74946 20.3443 1.45428 19.4574 1.43988C16.1523 1.38229 12.2099 2.22462 11.0567 9.33282C9.88209 16.5802 8.41737 18.8984 6.39388 22.1046L6.34157 22.1886C5.32387 23.8012 3.00315 28.9056 4.46787 33.1028C5.30485 35.4978 7.27366 37.2401 10.322 38.2792L9.86544 39.6423L9.86782 39.6471Z" fill="#003C77"/>
<path d="M19.6025 77C9.6776 77 2.06392 74.4874 0.637252 73.9835C0.18785 73.8275 -0.0784616 73.3499 0.0214054 72.8748C3.02931 59.0183 6.13232 47.8544 9.5064 38.7424C9.79886 37.9504 10.1104 37.1345 10.4599 36.2442L11.7867 36.7745C11.4419 37.6553 11.1328 38.464 10.8427 39.2463C7.52808 48.2024 4.47262 59.1695 1.50752 72.7596C3.59522 73.4579 10.6192 75.5577 19.6049 75.5577C28.5905 75.5577 34.8441 73.5491 36.7154 72.8748C33.8193 56.9977 30.6901 45.985 26.8761 38.2336L26.6859 37.8473L26.9332 37.4969C28.3194 35.5219 27.5942 33.8492 27.5633 33.7796L28.8544 33.1676C28.8996 33.2636 29.8864 35.4355 28.3361 37.9672C32.1619 45.8866 35.2959 57.0409 38.192 73.0115C38.2776 73.4651 38.0256 73.9211 37.5928 74.0867C36.3278 74.5714 29.5083 77 19.6072 77H19.6025ZM36.7844 73.2683C36.7844 73.2683 36.7844 73.2731 36.7844 73.2755C36.7844 73.2731 36.7844 73.2707 36.7844 73.2683ZM37.084 72.738H37.0816C37.0816 72.738 37.0816 72.738 37.084 72.738Z" fill="#003C77"/>
<path d="M26.3245 56.7409C26.0867 56.5873 25.8347 56.5081 25.6088 56.4985C25.4138 56.4913 25.2236 56.4481 25.0547 56.3545C24.9192 56.2801 24.7813 56.2153 24.641 56.1577C24.7789 56.0593 24.9145 55.9633 25.05 55.8698C25.2141 55.7546 25.4162 55.697 25.6135 55.7306C25.8822 55.7762 26.2222 55.7138 26.5432 55.5362C27.1068 55.2218 27.4016 54.6723 27.1995 54.3051C26.9998 53.9403 26.3816 53.8971 25.818 54.2115C25.4637 54.4083 25.2164 54.6987 25.1308 54.977C25.0761 55.1546 24.9525 55.301 24.7956 55.3994C24.6434 55.4954 24.4793 55.5986 24.3319 55.6922C24.0513 55.8698 23.7303 55.9729 23.3998 56.0041C23.1549 56.0281 22.91 56.0617 22.6674 56.1121C22.6888 56.0161 22.7126 55.9226 22.7388 55.829C22.8196 55.5386 23.0122 55.2842 23.2809 55.1546C23.5139 55.0418 23.7446 54.8234 23.9134 54.5283C24.2344 53.9643 24.2011 53.3404 23.8445 53.1316C23.4878 52.9228 22.9361 53.2108 22.6151 53.7747C22.4368 54.0867 22.3678 54.4179 22.4035 54.6867C22.4297 54.893 22.3845 55.1042 22.3013 55.2962C22.249 55.4186 22.2014 55.541 22.1562 55.6634C22.0159 56.0521 21.7258 56.3617 21.3549 56.5345C21.2812 56.5681 21.2075 56.6041 21.1338 56.6425C20.6368 56.8921 20.185 57.2232 19.7832 57.6096L19.7642 56.1529C19.757 55.6634 19.8973 55.181 20.1755 54.7802C20.663 54.0819 21.2622 53.4268 21.8424 52.834C21.8923 52.786 21.9398 52.738 21.9898 52.6876C22.3036 52.3804 22.7102 52.1813 23.143 52.1285C23.464 52.0901 23.785 52.0637 24.1036 52.0613C24.427 52.0589 24.7456 52.2053 24.9359 52.4716C25.0928 52.6876 25.3639 52.8796 25.6991 52.9852C26.3126 53.1772 26.9118 53.0116 27.0331 52.6132C27.1567 52.2149 26.7572 51.7349 26.1438 51.5429C25.8299 51.4445 25.5184 51.4397 25.2735 51.5117C25.1094 51.5597 24.9406 51.5813 24.7718 51.5573C24.2867 51.4853 23.766 51.4949 23.269 51.5309C23.552 51.2981 24.0252 50.9526 24.3604 50.7126C24.5697 50.5638 24.8241 50.5086 25.0761 50.535C25.3377 50.5614 25.6539 50.4894 25.9535 50.3166C26.51 49.9926 26.7953 49.4359 26.5884 49.0735C26.3816 48.7112 25.7633 48.6824 25.2045 49.0063C24.8859 49.1935 24.6553 49.4551 24.5578 49.7119C24.4769 49.9254 24.32 50.0982 24.1227 50.211C23.9063 50.3358 23.6423 50.4894 23.4735 50.5998C23.4593 50.2734 23.4569 49.9446 23.4711 49.6207V49.6015C23.483 49.4095 23.5948 49.2463 23.7565 49.1455C24.0133 48.9847 24.2273 48.6368 24.3034 48.2072C24.4127 47.5688 24.1726 46.9905 23.766 46.9185C23.3594 46.8465 22.9385 47.3073 22.8291 47.9456C22.7697 48.284 22.8101 48.6056 22.9219 48.8431C22.9718 48.9487 22.9932 49.0639 22.9766 49.1815C22.9599 49.3135 22.9433 49.4455 22.9266 49.5823C22.8838 50.055 22.8719 50.5254 22.8814 50.9982C22.8672 51.0078 22.8505 51.0198 22.8363 51.0294C22.4392 51.3125 22.054 51.6053 21.6783 51.9149L21.6593 51.3581C21.6521 51.1253 21.7211 50.895 21.8614 50.7078C22.0231 50.4918 22.1229 50.1726 22.1229 49.8151C22.1229 49.1671 21.7877 48.6392 21.3739 48.6392C20.9602 48.6392 20.6249 49.1647 20.6249 49.8151C20.6249 50.1726 20.7272 50.4918 20.8865 50.7078C21.0268 50.895 21.0957 51.1229 21.0886 51.3581L21.0601 52.1957C21.0553 52.3588 20.9816 52.5124 20.8627 52.6228C20.5179 52.9372 20.185 53.266 19.864 53.6091C19.8165 53.6595 19.7713 53.7099 19.7261 53.7627L19.6595 48.8239C19.6548 48.4664 19.7951 48.1232 20.0519 47.8784C20.2302 47.7056 20.4204 47.5424 20.6154 47.3865C20.7438 47.2833 20.9008 47.2257 21.0648 47.2137C21.343 47.1969 21.6854 47.0457 21.9922 46.7841C22.5105 46.3425 22.7293 45.7474 22.4867 45.4546C22.2418 45.1618 21.6236 45.2842 21.1076 45.7282C20.8033 45.9874 20.6035 46.2994 20.537 46.5729C20.4989 46.7337 20.4157 46.8777 20.2944 46.9881C20.254 47.0241 20.2159 47.0601 20.1755 47.0961C19.9259 47.3169 19.6738 47.5304 19.4004 47.7152C19.3457 47.3553 19.3409 46.9905 19.3481 46.6233C19.3481 46.5729 19.3481 46.5201 19.3528 46.4697C19.3576 46.3138 19.4099 46.1626 19.5026 46.0378C19.6572 45.8242 19.7594 45.4858 19.7594 45.1042C19.7594 44.4395 19.4527 43.9019 19.0817 43.9307C18.7108 43.9043 18.4041 44.4395 18.4041 45.1042C18.4041 45.4858 18.5039 45.8242 18.6609 46.0378C18.7536 46.165 18.8059 46.3138 18.8107 46.4697C18.8107 46.5201 18.8131 46.5729 18.8154 46.6233C18.8226 46.9905 18.8178 47.3529 18.7631 47.7152C18.4897 47.5304 18.2376 47.3169 17.988 47.0961C17.9475 47.0601 17.9071 47.0241 17.8691 46.9881C17.7478 46.8777 17.6646 46.7313 17.6265 46.5729C17.5623 46.2994 17.3602 45.9874 17.0559 45.7282C16.5375 45.2866 15.9217 45.1642 15.6768 45.4546C15.4318 45.7474 15.653 46.3401 16.1713 46.7841C16.4781 47.0457 16.8205 47.1969 17.0987 47.2137C17.2627 47.2233 17.4173 47.2833 17.5481 47.3865C17.7431 47.5424 17.9333 47.7056 18.1116 47.8784C18.366 48.1256 18.5087 48.4688 18.5039 48.8239L18.4374 53.7627C18.3922 53.7123 18.3446 53.6619 18.2995 53.6091C17.9785 53.266 17.6432 52.9372 17.3008 52.6228C17.1795 52.5124 17.1082 52.3588 17.1034 52.1957L17.0749 51.3581C17.0678 51.1253 17.1367 50.895 17.277 50.7078C17.4387 50.4918 17.5386 50.1726 17.5386 49.8151C17.5386 49.1671 17.2033 48.6392 16.7896 48.6392C16.3758 48.6392 16.0406 49.1647 16.0406 49.8151C16.0406 50.1726 16.1428 50.4918 16.3021 50.7078C16.4424 50.895 16.5114 51.1229 16.5042 51.3581L16.4852 51.9149C16.1095 51.6077 15.7243 51.3125 15.3272 51.0294C15.313 51.0198 15.2963 51.0078 15.282 50.9982C15.2939 50.5254 15.282 50.055 15.2369 49.5823C15.2202 49.4479 15.206 49.3135 15.1869 49.1815C15.1703 49.0663 15.1917 48.9487 15.2416 48.8431C15.3534 48.6056 15.3938 48.284 15.3344 47.9456C15.225 47.3073 14.8041 46.8465 14.3975 46.9185C13.9909 46.9905 13.7484 47.5664 13.8601 48.2072C13.9338 48.6368 14.1502 48.9871 14.407 49.1455C14.5687 49.2463 14.6805 49.4095 14.6924 49.6015V49.6207C14.7066 49.9446 14.7042 50.2734 14.6924 50.5998C14.5235 50.4894 14.2596 50.3358 14.0432 50.211C13.8482 50.0982 13.6889 49.9254 13.6081 49.7119C13.5106 49.4551 13.2799 49.1911 12.9613 49.0063C12.4049 48.6824 11.7843 48.7112 11.5775 49.0735C11.3706 49.4359 11.6535 49.9902 12.2123 50.3166C12.5119 50.4918 12.8282 50.5638 13.0897 50.535C13.3441 50.5086 13.5986 50.5638 13.8054 50.7126C14.1407 50.9526 14.6139 51.2981 14.8968 51.5309C14.4023 51.4949 13.8791 51.4853 13.3941 51.5573C13.2253 51.5813 13.0564 51.5597 12.8924 51.5117C12.6475 51.4397 12.3383 51.4421 12.0221 51.5429C11.4086 51.7349 11.0092 52.2149 11.1328 52.6132C11.2564 53.0116 11.8533 53.1796 12.4667 52.9852C12.802 52.8796 13.0731 52.6876 13.23 52.4716C13.4202 52.2077 13.7389 52.0589 14.0622 52.0613C14.3809 52.0637 14.7019 52.0901 15.0229 52.1285C15.458 52.1813 15.8622 52.378 16.1761 52.6876C16.226 52.7356 16.2736 52.7836 16.3235 52.834C16.9037 53.4268 17.5029 54.0819 17.9903 54.7802C18.2709 55.181 18.4088 55.6634 18.4017 56.1529L18.3827 57.6096C17.9808 57.2232 17.5291 56.8921 17.0321 56.6425C16.9584 56.6041 16.887 56.5681 16.811 56.5345C16.4376 56.3617 16.1476 56.0521 16.0096 55.6634C15.9645 55.541 15.9169 55.4162 15.8646 55.2962C15.7814 55.1042 15.7362 54.8954 15.7624 54.6867C15.798 54.4179 15.7267 54.0867 15.5507 53.7747C15.2297 53.2108 14.6805 52.9228 14.3214 53.1316C13.9624 53.3404 13.9315 53.9643 14.2525 54.5283C14.4213 54.8234 14.6519 55.0418 14.885 55.1546C15.1536 55.2842 15.3462 55.5386 15.4271 55.829C15.4532 55.9226 15.477 56.0161 15.4984 56.1121C15.2559 56.0641 15.011 56.0281 14.7661 56.0041C14.4356 55.9729 14.1145 55.8722 13.834 55.6922C13.6865 55.5986 13.5225 55.4954 13.3703 55.3994C13.2134 55.301 13.0897 55.1546 13.035 54.977C12.9494 54.6987 12.7021 54.4083 12.3479 54.2115C11.7843 53.8971 11.1661 53.9403 10.9664 54.3051C10.7666 54.6699 11.0615 55.2218 11.6226 55.5362C11.9436 55.7162 12.2813 55.7786 12.5523 55.7306C12.7497 55.697 12.9518 55.7546 13.1159 55.8698C13.2514 55.9657 13.3869 56.0617 13.5249 56.1577C13.3846 56.2153 13.2443 56.2825 13.1111 56.3545C12.9399 56.4481 12.7497 56.4913 12.5571 56.4985C12.3336 56.5081 12.0815 56.5873 11.8414 56.7409C11.3278 57.0697 11.0829 57.6072 11.2921 57.9408C11.5014 58.2744 12.0887 58.2768 12.6023 57.948C12.8781 57.7704 13.0755 57.5352 13.1682 57.3024C13.3037 56.9641 13.57 56.6953 13.9219 56.6065L13.9624 56.5969C14.1193 56.5561 14.2834 56.5489 14.4451 56.5729C14.7138 56.6113 14.9777 56.6641 15.2345 56.7361C15.4794 56.8009 15.7172 56.8849 15.9478 56.9857C15.8004 57.0457 15.6554 57.1105 15.5127 57.1848C15.2963 57.2976 15.0728 57.396 14.835 57.444C14.5735 57.4968 14.2858 57.6696 14.0503 57.936C13.6247 58.4207 13.5296 59.0399 13.8387 59.3159C14.1478 59.5918 14.7447 59.4239 15.1727 58.9391C15.3653 58.7207 15.4913 58.4735 15.5412 58.2432C15.6126 57.9216 15.8384 57.6576 16.1499 57.564C16.1761 57.5568 16.2022 57.5496 16.2284 57.5424C16.5494 57.4512 16.8966 57.516 17.1534 57.732C17.3531 57.9 17.5409 58.0824 17.7145 58.2792C18.133 58.7543 18.3589 59.3711 18.3518 60.007C18.3351 61.1757 17.7264 62.2772 16.704 62.8268C16.1808 63.11 15.5888 63.2491 14.9278 63.2491C13.3227 63.2491 12.7687 64.0435 12.7449 64.0771C12.6498 64.2187 12.6855 64.4106 12.8234 64.509C12.8781 64.5474 12.9399 64.5666 13.0017 64.5666C13.0992 64.5666 13.1943 64.521 13.2562 64.437C13.2728 64.4154 13.677 63.8779 14.9254 63.8779C15.1465 63.8779 15.3581 63.8635 15.5626 63.8371C15.6625 63.8251 15.7267 63.9379 15.6625 64.0171L14.5663 65.3874C14.457 65.5266 14.4665 65.7425 14.6068 65.8505C14.6638 65.8937 14.7304 65.9153 14.797 65.9153C14.8873 65.9153 14.9777 65.8745 15.0395 65.7977L16.6326 63.8011C16.9203 63.4915 17.4435 63.1364 17.4435 63.1364C17.5552 63.074 17.6789 63.1939 17.6242 63.3091C17.2081 64.1587 16.7539 65.0418 16.3592 65.8145C16.1761 66.1745 16.6968 66.4649 16.9037 66.1217C17.4506 65.1906 17.9927 64.2595 18.5135 63.3115C18.5539 63.2371 18.6656 63.2635 18.6704 63.3499L18.7655 66.2177C18.7774 66.4193 18.9272 66.5177 19.077 66.5201H19.0794C19.2292 66.5201 19.379 66.4193 19.3909 66.2177L19.486 63.3499C19.4883 63.2635 19.6001 63.2371 19.6429 63.3115C20.166 64.2571 20.7058 65.1882 21.2527 66.1217C21.4619 66.4649 21.9803 66.1745 21.7972 65.8145C21.4025 65.0418 20.9459 64.1587 20.5322 63.3091C20.4751 63.1939 20.6012 63.074 20.7129 63.1364C20.7129 63.1364 21.236 63.4939 21.5237 63.8011L23.1168 65.7977C23.1787 65.8745 23.269 65.9153 23.3594 65.9153C23.426 65.9153 23.4925 65.8937 23.5496 65.8505C23.6899 65.7425 23.6994 65.5242 23.59 65.3874L22.4939 64.0171C22.432 63.9379 22.4939 63.8227 22.5937 63.8371C22.8006 63.8635 23.0122 63.8779 23.231 63.8779C24.4793 63.8779 24.8835 64.413 24.9002 64.437C24.962 64.521 25.0571 64.5666 25.1546 64.5666C25.2164 64.5666 25.2783 64.5474 25.3329 64.509C25.4709 64.4106 25.5089 64.2187 25.4114 64.0771C25.3876 64.0435 24.8336 63.2491 23.2286 63.2491C22.5676 63.2491 21.9755 63.11 21.4524 62.8268C20.43 62.2772 19.8212 61.1733 19.8046 60.007C19.7951 59.3711 20.0233 58.7543 20.4418 58.2792C20.6154 58.0824 20.8033 57.9 21.003 57.732C21.2598 57.5184 21.607 57.4512 21.928 57.5424C21.9541 57.5496 21.9803 57.5568 22.0064 57.564C22.3203 57.6576 22.5462 57.9216 22.6151 58.2432C22.6651 58.4735 22.7911 58.7183 22.9837 58.9391C23.4093 59.4239 24.0085 59.5942 24.3176 59.3159C24.6267 59.0375 24.5316 58.4207 24.106 57.936C23.8706 57.6672 23.5829 57.4968 23.3213 57.444C23.0836 57.396 22.86 57.2976 22.6437 57.1848C22.5034 57.1105 22.356 57.0457 22.2085 56.9857C22.4392 56.8849 22.677 56.8009 22.9219 56.7361C23.1811 56.6641 23.445 56.6137 23.7113 56.5729C23.873 56.5489 24.0371 56.5561 24.194 56.5969L24.2344 56.6065C24.5863 56.6953 24.855 56.9641 24.9882 57.3024C25.0809 57.5352 25.2783 57.7704 25.5541 57.948C26.0677 58.2768 26.655 58.2744 26.8642 57.9408C27.0735 57.6072 26.8286 57.0697 26.315 56.7409H26.3245Z" fill="#ED1C24"/>
<path d="M75.0525 32.4237C75.0525 32.5149 75.0334 32.5941 74.993 32.6613C74.955 32.7261 74.8908 32.7837 74.8075 32.8293C74.7219 32.8749 74.6054 32.9109 74.4556 32.9373C74.3058 32.9637 74.1132 32.9757 73.8802 32.9757C73.6068 32.9757 73.388 32.9589 73.2263 32.9253C73.0622 32.8917 72.9362 32.8461 72.8459 32.7861C72.7555 32.7261 72.6866 32.6541 72.6414 32.5701C72.5962 32.4837 72.5534 32.3829 72.513 32.2653L70.266 25.4619C70.0044 24.6604 69.6834 23.9668 69.2982 23.3813C68.913 22.7957 68.4565 22.3109 67.931 21.9222C67.4031 21.5334 66.792 21.2478 66.0953 21.0631C65.3986 20.8783 64.614 20.7871 63.7413 20.7871H62.5096V32.4621C62.5096 32.5413 62.4906 32.6133 62.4502 32.6781C62.4098 32.7429 62.3456 32.7957 62.2552 32.8365C62.1649 32.8749 62.0412 32.9085 61.8843 32.9349C61.7273 32.9613 61.5395 32.9733 61.3184 32.9733C61.0972 32.9733 60.9118 32.9589 60.762 32.9349C60.6122 32.9085 60.4909 32.8749 60.4005 32.8365C60.3102 32.7981 60.2484 32.7453 60.2151 32.6781C60.1818 32.6133 60.1651 32.5389 60.1651 32.4621V20.7871H58.9334C57.9704 20.7871 57.1287 20.8999 56.413 21.123C55.6973 21.3462 55.0767 21.663 54.5559 22.0686C54.0352 22.4765 53.5977 22.9685 53.2458 23.5468C52.8939 24.1252 52.6014 24.7635 52.366 25.4595L50.157 32.2629C50.1166 32.3805 50.0762 32.4837 50.031 32.5677C49.9858 32.6541 49.9169 32.7261 49.8265 32.7837C49.7362 32.8437 49.6078 32.8893 49.4461 32.9229C49.282 32.9565 49.0656 32.9733 48.7922 32.9733C48.5568 32.9733 48.3666 32.9589 48.2168 32.9349C48.067 32.9085 47.9504 32.8725 47.8648 32.8269C47.7792 32.7813 47.7174 32.7261 47.6794 32.6589C47.639 32.5941 47.6199 32.5149 47.6199 32.4213C47.6199 32.3829 47.6223 32.3349 47.6294 32.2821C47.6366 32.2293 47.6461 32.1669 47.658 32.0949C47.6699 32.0229 47.6865 31.9461 47.7079 31.8694C47.7269 31.7902 47.7578 31.7062 47.7959 31.6126L49.8669 25.4403C50.1547 24.586 50.4638 23.842 50.7943 23.2109C51.1272 22.5797 51.4981 22.0374 51.9071 21.5838C52.3184 21.1302 52.7869 20.7559 53.3147 20.4607C53.8426 20.1655 54.4442 19.9183 55.1219 19.7216V19.7024C54.5607 19.5848 54.059 19.4 53.6167 19.1504C53.1744 18.9008 52.7726 18.5577 52.4159 18.1257C52.0569 17.6913 51.7287 17.1634 51.4291 16.537C51.1295 15.9131 50.8371 15.1739 50.5494 14.3172L48.6352 8.57929C48.5829 8.4473 48.5401 8.31291 48.5092 8.17612C48.4759 8.03693 48.4593 7.90254 48.4593 7.77295C48.4593 7.68176 48.4712 7.60257 48.4973 7.53537C48.5235 7.47058 48.5782 7.41298 48.6638 7.36739C48.7494 7.32179 48.8611 7.2858 49.0062 7.2594C49.1489 7.233 49.3391 7.221 49.5721 7.221C49.8455 7.221 50.0643 7.2378 50.226 7.2714C50.3877 7.30499 50.5161 7.35059 50.6064 7.41058C50.6968 7.47058 50.7634 7.54497 50.8014 7.63617C50.8395 7.72736 50.8799 7.83295 50.9179 7.95054L52.8725 14.3196C53.0936 15.03 53.3575 15.6515 53.6643 16.1843C53.971 16.717 54.3586 17.1682 54.827 17.5353C55.2954 17.9025 55.8637 18.1785 56.5271 18.3633C57.1905 18.5481 57.9918 18.6393 58.9311 18.6393H60.1628V7.73216C60.1628 7.65297 60.1794 7.58097 60.2127 7.51618C60.246 7.45138 60.3078 7.39859 60.3982 7.35779C60.4885 7.31939 60.6098 7.2858 60.7596 7.2594C60.9094 7.233 61.0948 7.221 61.316 7.221C61.5371 7.221 61.7273 7.2354 61.8819 7.2594C62.0388 7.2858 62.1625 7.31939 62.2528 7.35779C62.3432 7.39619 62.4098 7.44898 62.4478 7.51618C62.4859 7.58097 62.5073 7.65536 62.5073 7.73216V18.6393H63.7389C64.6378 18.6393 65.4224 18.5337 66.093 18.3249C66.7635 18.1137 67.3413 17.8161 67.8216 17.4274C68.3043 17.0386 68.7038 16.5802 69.0224 16.0475C69.341 15.5147 69.6002 14.9268 69.7952 14.2836L71.7497 7.95294C71.7878 7.83535 71.8282 7.72976 71.8662 7.63857C71.9043 7.54737 71.9708 7.47058 72.0612 7.41298C72.1516 7.35539 72.28 7.30739 72.4416 7.2738C72.6033 7.2402 72.8221 7.2234 73.0955 7.2234C73.3309 7.2234 73.5188 7.2378 73.6615 7.2618C73.8041 7.2882 73.9183 7.32419 74.0039 7.36979C74.0895 7.41538 74.1441 7.47298 74.1703 7.53777C74.1965 7.60257 74.2083 7.68176 74.2083 7.77535C74.2083 7.90734 74.1846 8.04173 74.1394 8.17852C74.0942 8.31771 74.0585 8.4521 74.0324 8.58169L72.1373 14.1828C71.8757 14.958 71.6094 15.6395 71.336 16.2251C71.0625 16.8106 70.7487 17.3122 70.3967 17.7345C70.0448 18.1545 69.6382 18.5097 69.1746 18.8C68.7109 19.0904 68.1688 19.3256 67.5434 19.5104V19.5488C68.2591 19.772 68.8821 20.0455 69.41 20.3671C69.9378 20.6887 70.4063 21.0847 70.8176 21.5502C71.2266 22.0182 71.5904 22.5701 71.9019 23.2061C72.2134 23.8444 72.513 24.5908 72.8007 25.4451L74.8527 31.6174C74.8789 31.7086 74.905 31.795 74.9312 31.8742C74.9573 31.9534 74.9811 32.0277 75.0001 32.0997C75.0192 32.1717 75.0334 32.2341 75.0382 32.2869C75.0453 32.3397 75.0477 32.3853 75.0477 32.4261L75.0525 32.4237Z" fill="#003C77"/>
<path d="M82.0836 32.4645C82.0836 32.5437 82.0645 32.6157 82.0241 32.6805C81.9861 32.7453 81.9195 32.7981 81.8291 32.8389C81.7388 32.8773 81.6175 32.9109 81.4677 32.9373C81.3179 32.9637 81.1253 32.9757 80.8923 32.9757C80.6712 32.9757 80.4809 32.9613 80.3264 32.9373C80.1694 32.9109 80.0458 32.8773 79.9554 32.8389C79.8651 32.8005 79.7985 32.7477 79.7605 32.6805C79.7224 32.6157 79.701 32.5413 79.701 32.4645V7.73216C79.701 7.65297 79.7224 7.58097 79.77 7.51618C79.8152 7.45138 79.8865 7.39859 79.984 7.35779C80.0815 7.31939 80.2051 7.2858 80.3549 7.2594C80.5047 7.233 80.683 7.221 80.8923 7.221C81.1277 7.221 81.3179 7.2354 81.4677 7.2594C81.6175 7.2858 81.7388 7.31939 81.8291 7.35779C81.9195 7.39619 81.9861 7.44898 82.0241 7.51618C82.0645 7.58097 82.0836 7.65536 82.0836 7.73216V32.4645Z" fill="#003C77"/>
<path d="M105.861 32.4645C105.861 32.5437 105.842 32.6157 105.802 32.6805C105.764 32.7453 105.697 32.7981 105.607 32.8389C105.517 32.8773 105.393 32.9109 105.236 32.9373C105.079 32.9637 104.891 32.9757 104.67 32.9757C104.435 32.9757 104.245 32.9613 104.095 32.9373C103.945 32.9109 103.824 32.8773 103.733 32.8389C103.643 32.8005 103.576 32.7477 103.538 32.6805C103.5 32.6157 103.479 32.5413 103.479 32.4645V20.5711H90.8552V32.4645C90.8552 32.5437 90.8362 32.6157 90.7958 32.6805C90.7577 32.7453 90.6912 32.7981 90.6008 32.8389C90.5105 32.8773 90.3892 32.9109 90.2394 32.9373C90.0896 32.9637 89.897 32.9757 89.664 32.9757C89.4428 32.9757 89.2526 32.9613 89.098 32.9373C88.9411 32.9109 88.8175 32.8773 88.7271 32.8389C88.6368 32.8005 88.5702 32.7477 88.5321 32.6805C88.4941 32.6157 88.4727 32.5413 88.4727 32.4645V7.73216C88.4727 7.65297 88.4917 7.58097 88.5321 7.51618C88.5726 7.45138 88.6368 7.39859 88.7271 7.35779C88.8175 7.31939 88.9411 7.2858 89.098 7.2594C89.255 7.233 89.4428 7.221 89.664 7.221C89.8994 7.221 90.0896 7.2354 90.2394 7.2594C90.3892 7.2858 90.5105 7.31939 90.6008 7.35779C90.6912 7.39619 90.7577 7.44898 90.7958 7.51618C90.8362 7.58097 90.8552 7.65536 90.8552 7.73216V18.4209H103.479V7.73216C103.479 7.65297 103.498 7.58097 103.538 7.51618C103.579 7.45138 103.643 7.39859 103.733 7.35779C103.824 7.31939 103.945 7.2858 104.095 7.2594C104.245 7.233 104.437 7.221 104.67 7.221C104.891 7.221 105.082 7.2354 105.236 7.2594C105.393 7.2858 105.517 7.31939 105.607 7.35779C105.697 7.39619 105.764 7.44898 105.802 7.51618C105.84 7.58097 105.861 7.65536 105.861 7.73216V32.4645Z" fill="#003C77"/>
<path d="M128.037 32.4237C128.037 32.5149 128.018 32.5941 127.977 32.6613C127.937 32.7261 127.875 32.7837 127.792 32.8293C127.706 32.8749 127.59 32.9109 127.44 32.9373C127.29 32.9637 127.105 32.9757 126.883 32.9757C126.61 32.9757 126.391 32.9589 126.23 32.9253C126.065 32.8917 125.937 32.8461 125.84 32.7861C125.742 32.7261 125.666 32.6541 125.614 32.5701C125.561 32.4837 125.516 32.3829 125.476 32.2653L122.974 25.7187C122.663 24.8763 122.297 24.1468 121.881 23.53C121.464 22.9133 120.982 22.3997 120.435 21.9918C119.888 21.5838 119.263 21.2814 118.559 21.0846C117.855 20.8879 117.068 20.7895 116.195 20.7895H114.633V32.4645C114.633 32.5437 114.614 32.6157 114.574 32.6805C114.536 32.7453 114.469 32.7981 114.379 32.8389C114.288 32.8773 114.167 32.9109 114.017 32.9373C113.867 32.9637 113.675 32.9757 113.442 32.9757C113.221 32.9757 113.03 32.9613 112.876 32.9373C112.719 32.9109 112.595 32.8773 112.505 32.8389C112.415 32.8005 112.348 32.7477 112.31 32.6805C112.272 32.6157 112.251 32.5413 112.251 32.4645V7.73216C112.251 7.65297 112.27 7.58097 112.31 7.51618C112.35 7.45138 112.415 7.39859 112.505 7.35779C112.595 7.31939 112.719 7.2858 112.876 7.2594C113.033 7.233 113.221 7.221 113.442 7.221C113.677 7.221 113.867 7.2354 114.017 7.2594C114.167 7.2858 114.288 7.31939 114.379 7.35779C114.469 7.39619 114.536 7.44898 114.574 7.51618C114.614 7.58097 114.633 7.65536 114.633 7.73216V18.6393H116.195C117.068 18.6393 117.836 18.5337 118.502 18.3249C119.165 18.1137 119.75 17.8065 120.252 17.3986C120.754 16.9906 121.189 16.4842 121.562 15.8795C121.933 15.2747 122.261 14.5716 122.549 13.7701L124.56 7.95294C124.598 7.83535 124.641 7.72976 124.686 7.63857C124.732 7.54737 124.803 7.47058 124.9 7.41298C124.998 7.35299 125.129 7.30739 125.29 7.2738C125.452 7.2402 125.671 7.2234 125.944 7.2234C126.18 7.2234 126.367 7.2378 126.51 7.2618C126.653 7.2882 126.767 7.32419 126.853 7.36979C126.938 7.41538 126.993 7.47298 127.019 7.53777C127.045 7.60257 127.057 7.68176 127.057 7.77535C127.057 7.90734 127.04 8.04173 127.007 8.17852C126.974 8.31771 126.931 8.4521 126.881 8.58169L124.713 14.3196C124.425 15.0947 124.13 15.7691 123.823 16.3402C123.517 16.9114 123.179 17.4058 122.808 17.8185C122.437 18.2313 122.026 18.5769 121.576 18.8528C121.127 19.1288 120.616 19.3448 120.043 19.5032V19.5416C120.694 19.7528 121.274 20.0095 121.781 20.3119C122.29 20.6143 122.751 20.9863 123.167 21.4254C123.583 21.867 123.966 22.3853 124.311 22.9829C124.655 23.5804 124.984 24.2884 125.297 25.1019L127.858 31.6102C127.937 31.8334 127.984 32.0013 128.006 32.1141C128.025 32.2269 128.034 32.3277 128.034 32.4189L128.037 32.4237Z" fill="#003C77"/>
<path d="M150.621 32.4645C150.621 32.5437 150.602 32.6157 150.561 32.6805C150.523 32.7453 150.457 32.7981 150.366 32.8389C150.276 32.8773 150.152 32.9109 149.996 32.9373C149.839 32.9637 149.651 32.9757 149.43 32.9757C149.208 32.9757 149.018 32.9613 148.864 32.9373C148.707 32.9109 148.583 32.8773 148.493 32.8389C148.402 32.8005 148.336 32.7477 148.298 32.6805C148.257 32.6157 148.238 32.5413 148.238 32.4645V13.926C148.238 13.5709 148.245 13.1893 148.257 12.7813C148.269 12.3734 148.291 11.999 148.317 11.6582H148.279C148.188 11.8286 148.084 12.0134 147.965 12.2102C147.846 12.407 147.725 12.6086 147.594 12.8125C147.463 13.0165 147.332 13.2205 147.204 13.4245C147.073 13.6285 146.95 13.8277 146.833 14.0268L134.718 32.4861C134.666 32.5653 134.606 32.6373 134.542 32.7021C134.476 32.7669 134.4 32.8197 134.307 32.8605C134.217 32.8989 134.107 32.9301 133.984 32.9493C133.86 32.9685 133.708 32.9781 133.525 32.9781C133.33 32.9781 133.17 32.9637 133.047 32.9397C132.923 32.9133 132.826 32.8773 132.754 32.8317C132.683 32.7861 132.631 32.7261 132.597 32.6541C132.564 32.5821 132.547 32.4933 132.547 32.3877V7.73216C132.547 7.65297 132.569 7.58097 132.616 7.51618C132.661 7.45138 132.733 7.39859 132.83 7.35779C132.928 7.31939 133.051 7.2858 133.201 7.2594C133.351 7.233 133.529 7.221 133.739 7.221C133.974 7.221 134.164 7.2354 134.314 7.2594C134.464 7.2858 134.585 7.31939 134.675 7.35779C134.766 7.39619 134.832 7.44898 134.87 7.51618C134.911 7.58097 134.93 7.65536 134.93 7.73216V26.3882C134.93 26.717 134.927 27.065 134.92 27.4345C134.913 27.8017 134.897 28.1569 134.87 28.5H134.911C135.094 28.2121 135.31 27.8569 135.565 27.4345C135.819 27.0146 136.083 26.5922 136.357 26.1722L148.452 7.69376C148.505 7.61457 148.562 7.54497 148.628 7.48738C148.693 7.42738 148.771 7.37939 148.864 7.33859C148.954 7.30019 149.061 7.269 149.187 7.2498C149.311 7.2306 149.463 7.221 149.646 7.221C149.841 7.221 150 7.2354 150.124 7.2594C150.248 7.2858 150.345 7.32179 150.416 7.36739C150.488 7.41298 150.54 7.47058 150.573 7.53537C150.607 7.60017 150.623 7.67936 150.623 7.77295V32.4645H150.621Z" fill="#003C77"/>
<path d="M63.9149 48.0464C63.9149 49.2295 63.7152 50.3142 63.3181 51.3005C62.921 52.2869 62.3503 53.134 61.6084 53.8443C60.8666 54.5547 59.9606 55.1066 58.893 55.5002C57.8254 55.8938 56.5343 56.0929 55.0244 56.0929H51.7406V65.8553C51.7406 65.9345 51.7216 66.0065 51.6812 66.0713C51.6408 66.1361 51.5766 66.1889 51.4862 66.2297C51.3959 66.2681 51.2746 66.3017 51.1248 66.3281C50.975 66.3545 50.7824 66.3665 50.5494 66.3665C50.3282 66.3665 50.138 66.3521 49.9835 66.3281C49.8265 66.3017 49.7029 66.2681 49.6125 66.2297C49.5222 66.1913 49.4556 66.1385 49.4175 66.0713C49.3771 66.0065 49.3581 65.9321 49.3581 65.8553V41.9725C49.3581 41.4998 49.4817 41.1734 49.729 40.9958C49.9763 40.8182 50.2165 40.7294 50.4519 40.7294H55.5903C56.0991 40.7294 56.5937 40.7534 57.0764 40.799C57.5591 40.8446 58.1226 40.943 58.767 41.0942C59.4114 41.2454 60.07 41.5286 60.7406 41.9413C61.4111 42.3565 61.9818 42.8628 62.4502 43.4604C62.9186 44.0579 63.28 44.7419 63.5345 45.5122C63.7889 46.2826 63.9149 47.1273 63.9149 48.0464ZM61.3945 48.2648C61.3945 47.1609 61.1804 46.2226 60.7501 45.4546C60.3197 44.6867 59.7966 44.1131 59.176 43.7388C58.5577 43.3644 57.9134 43.1268 57.2405 43.0284C56.5699 42.93 55.9351 42.8796 55.3358 42.8796H51.7406V53.9643H55.1789C56.287 53.9643 57.2119 53.8227 57.9538 53.5396C58.6957 53.2564 59.321 52.8652 59.8299 52.3661C60.3387 51.8669 60.7263 51.2645 60.9926 50.5614C61.2589 49.8583 61.3921 49.0927 61.3921 48.2648H61.3945Z" fill="#003C77"/>
<path d="M95.2232 53.194C95.2232 55.2314 94.9926 57.0769 94.5289 58.7255C94.0652 60.3766 93.3733 61.7829 92.4483 62.9468C91.5234 64.1107 90.3583 65.0082 88.9506 65.6393C87.543 66.2705 85.9023 66.5849 84.0262 66.5849C82.1502 66.5849 80.538 66.2849 79.1898 65.6873C77.8416 65.0898 76.7336 64.2355 75.868 63.1244C75.0025 62.0132 74.3629 60.655 73.9539 59.0519C73.5426 57.4488 73.3381 55.6394 73.3381 53.6283C73.3381 51.6173 73.5663 49.8151 74.0229 48.1856C74.4794 46.5561 75.1713 45.1642 76.1034 44.0147C77.0355 42.8652 78.2006 41.9725 79.6012 41.3414C81.0017 40.7102 82.6471 40.3958 84.5351 40.3958C86.423 40.3958 87.9615 40.691 89.3025 41.2838C90.6436 41.8765 91.754 42.7237 92.6338 43.8276C93.5136 44.9315 94.1651 46.273 94.5883 47.852C95.0116 49.4287 95.2232 51.2117 95.2232 53.1964V53.194ZM92.6837 53.4124C92.6837 51.9005 92.5435 50.4846 92.2629 49.1623C91.9823 47.84 91.521 46.6905 90.8766 45.7114C90.2322 44.7323 89.3739 43.9619 88.3062 43.4028C87.2386 42.8436 85.9166 42.5653 84.3401 42.5653C82.7636 42.5653 81.4582 42.858 80.3835 43.4436C79.3087 44.0291 78.436 44.8139 77.7655 45.8002C77.095 46.7865 76.6123 47.936 76.3198 49.2511C76.0274 50.5662 75.8799 51.9533 75.8799 53.4124C75.8799 54.965 76.0131 56.4073 76.2794 57.7416C76.5457 59.0759 76.9999 60.2374 77.6371 61.2213C78.2744 62.2076 79.128 62.9804 80.198 63.5395C81.2656 64.0987 82.6019 64.3771 84.2046 64.3771C85.8072 64.3771 87.1292 64.0771 88.2111 63.4795C89.293 62.882 90.1657 62.0804 90.8291 61.0725C91.4925 60.067 91.968 58.9031 92.2557 57.5808C92.5435 56.2585 92.6861 54.869 92.6861 53.41L92.6837 53.4124Z" fill="#003C77"/>
<path d="M125.849 72.582C125.849 72.6612 125.837 72.726 125.811 72.7788C125.785 72.8316 125.735 72.8748 125.664 72.9059C125.592 72.9395 125.49 72.966 125.362 72.9851C125.231 73.0043 125.055 73.0139 124.834 73.0139C124.651 73.0139 124.499 73.0043 124.375 72.9851C124.251 72.966 124.149 72.9395 124.073 72.9059C123.994 72.8724 123.94 72.8292 123.906 72.7788C123.873 72.726 123.857 72.6612 123.857 72.582V66.2513H103.631V72.582C103.631 72.6612 103.614 72.726 103.581 72.7788C103.548 72.8316 103.493 72.8748 103.415 72.9059C103.336 72.9395 103.236 72.966 103.113 72.9851C102.989 73.0043 102.835 73.0139 102.654 73.0139C102.445 73.0139 102.276 73.0043 102.145 72.9851C102.014 72.966 101.91 72.9395 101.833 72.9059C101.755 72.8724 101.703 72.8292 101.677 72.7788C101.65 72.726 101.636 72.6612 101.636 72.582V65.049C101.61 64.7346 101.653 64.4995 101.762 64.3483C101.872 64.1971 102.045 64.1227 102.28 64.1227H103.921C104.299 63.6235 104.654 63.1244 104.986 62.6228C105.319 62.1236 105.633 61.5285 105.935 60.8374C106.235 60.1462 106.527 59.3087 106.815 58.3224C107.1 57.336 107.386 56.1073 107.666 54.6339C107.947 53.1604 108.23 51.3965 108.515 49.3375C108.803 47.2809 109.102 44.8235 109.414 41.9725C109.478 41.5526 109.599 41.2406 109.775 41.0366C109.951 40.8326 110.182 40.7318 110.47 40.7318H121.453C121.752 40.7318 121.997 40.8326 122.185 41.0366C122.373 41.2406 122.468 41.5526 122.468 41.9725V64.1203H125.202C125.438 64.1203 125.604 64.1971 125.702 64.3459C125.799 64.4971 125.849 64.7298 125.849 65.0466V72.5796V72.582ZM120.085 42.9204H111.701C111.402 45.6034 111.109 47.9336 110.822 49.9111C110.534 51.8909 110.256 53.5996 109.982 55.0394C109.709 56.4793 109.435 57.6912 109.162 58.6775C108.888 59.6638 108.613 60.4942 108.332 61.1733C108.051 61.8501 107.766 62.4164 107.471 62.87C107.176 63.3235 106.874 63.7411 106.563 64.1227H120.085V42.9228V42.9204Z" fill="#003C77"/>
<path d="M144.574 59.1119C143.949 60.6766 143.385 61.9413 142.884 62.9084C142.382 63.8755 141.878 64.6242 141.369 65.157C140.86 65.6898 140.32 66.0473 139.747 66.2321C139.174 66.4169 138.504 66.5081 137.736 66.5081C137.474 66.5081 137.21 66.4889 136.944 66.4481C136.678 66.4097 136.423 66.3569 136.181 66.2897C135.94 66.2249 135.724 66.1481 135.536 66.0617C135.348 65.9753 135.213 65.9009 135.137 65.8361C135.058 65.7713 134.999 65.7018 134.961 65.6298C134.923 65.5578 134.889 65.4714 134.863 65.373C134.837 65.2746 134.818 65.1522 134.804 65.0082C134.792 64.8642 134.785 64.6938 134.785 64.4946C134.785 64.1275 134.83 63.8563 134.923 63.6859C135.013 63.5155 135.137 63.4291 135.294 63.4291C135.398 63.4291 135.52 63.4675 135.655 63.5467C135.791 63.6259 135.957 63.7147 136.154 63.8131C136.349 63.9115 136.587 64.0003 136.868 64.0795C137.148 64.1587 137.484 64.1971 137.874 64.1971C138.237 64.1971 138.57 64.1587 138.87 64.0795C139.169 64.0003 139.46 63.8275 139.74 63.5563C140.021 63.2875 140.313 62.9036 140.62 62.402C140.927 61.9029 141.267 61.2261 141.645 60.3718L132.264 41.5382C132.174 41.3414 132.124 41.183 132.117 41.0654C132.11 40.9478 132.15 40.8542 132.233 40.7894C132.319 40.7246 132.452 40.679 132.633 40.6502C132.816 40.6238 133.049 40.6118 133.337 40.6118C133.572 40.6118 133.767 40.6262 133.922 40.6502C134.079 40.6766 134.209 40.7126 134.312 40.7582C134.416 40.8038 134.497 40.8614 134.557 40.9262C134.616 40.991 134.671 41.0702 134.723 41.1638L139.745 51.3413C140.318 52.486 140.858 53.5804 141.367 54.6243C141.875 55.6682 142.363 56.7049 142.831 57.7296H142.91C143.3 56.6785 143.704 55.613 144.12 54.5355C144.536 53.458 145.012 52.2557 145.547 50.9262L149.415 41.1254C149.453 41.0342 149.501 40.955 149.553 40.8878C149.606 40.823 149.679 40.7702 149.779 40.7294C149.877 40.691 150.01 40.6598 150.179 40.6406C150.347 40.6214 150.569 40.6118 150.842 40.6118C151.115 40.6118 151.337 40.6286 151.505 40.6622C151.674 40.6958 151.798 40.7438 151.876 40.811C151.955 40.8758 151.993 40.955 151.993 41.0486C151.993 41.1422 151.967 41.2526 151.914 41.3846L144.567 59.1143L144.574 59.1119Z" fill="#003C77"/>
</g>
<defs>
<clipPath id="clip0_162_1187">
<rect width="152" height="77" fill="white"/>
</clipPath>
</defs>
</svg>
