<svg width="31" height="31" viewBox="0 0 31 31" fill="none" xmlns="http://www.w3.org/2000/svg">
<path d="M16.0283 7.52266L12.382 11.0902C11.8977 11.5747 11.6256 12.2317 11.6256 12.9167C11.6256 13.6017 11.8977 14.2586 12.382 14.7431C12.8664 15.2274 13.5234 15.4994 14.2084 15.4994C14.8934 15.4994 15.5503 15.2274 16.0348 14.7431L18.2435 12.5343C18.5326 12.2451 18.8758 12.0157 19.2536 11.8592C19.6314 11.7027 20.0363 11.6221 20.4452 11.6221C20.8541 11.6221 21.259 11.7027 21.6368 11.8592C22.0145 12.0157 22.3578 12.2451 22.6468 12.5343L25.0765 14.9652C25.5608 15.4497 25.8328 16.1067 25.8328 16.7917C25.8328 17.4767 25.5608 18.1336 25.0765 18.6181C27.125 16.5695 28.4167 14.8542 28.4167 12.2708C28.4167 10.8335 27.9806 9.42992 27.1662 8.24556C26.3518 7.06121 25.1972 6.15176 23.855 5.63735C22.5129 5.12293 21.0463 5.02774 19.6489 5.36435C18.2515 5.70095 16.989 6.45353 16.0283 7.52266ZM25.0765 18.6181C24.8217 18.8729 24.5192 19.075 24.1864 19.2129C23.8535 19.3508 23.4967 19.4218 23.1364 19.4218C22.7761 19.4218 22.4193 19.3508 22.0864 19.2129C21.7535 19.075 21.4511 18.8729 21.1963 18.6181C21.4721 18.8675 21.6944 19.1704 21.8495 19.5084C22.0047 19.8463 22.0895 20.2123 22.0988 20.5841C22.1082 20.9559 22.0418 21.3256 21.9039 21.671C21.7659 22.0163 21.5591 22.33 21.2962 22.5929C21.0332 22.8559 20.7195 23.0627 20.3742 23.2006C20.0289 23.3386 19.6591 23.405 19.2873 23.3956C18.9155 23.3863 18.5496 23.3015 18.2116 23.1463C17.8736 22.9912 17.5707 22.7689 17.3213 22.4931C17.5763 22.7471 17.7787 23.0488 17.917 23.3811C18.0552 23.7134 18.1266 24.0696 18.1271 24.4295C18.1276 24.7894 18.0571 25.1459 17.9197 25.4785C17.7824 25.8111 17.5808 26.1134 17.3265 26.3681C17.081 26.6136 16.7886 26.8071 16.4667 26.9371C16.1448 27.0671 15.7999 27.1309 15.4528 27.1246C15.1057 27.1183 14.7634 27.0421 14.4464 26.9006C14.1294 26.7591 13.8442 26.5551 13.6077 26.3009L6.45837 19.375C4.52087 17.4375 2.58337 15.2417 2.58337 12.2708C2.58366 10.8336 3.01988 9.43021 3.83443 8.24606C4.64897 7.0619 5.80353 6.15266 7.14564 5.63841C8.48774 5.12415 9.95426 5.02907 11.3515 5.36571C12.7488 5.70236 14.0111 6.4549 14.9717 7.52396C15.1154 7.65743 15.3042 7.73151 15.5003 7.73127C15.6964 7.73103 15.885 7.65649 16.0283 7.52266" stroke="#003C77" stroke-width="3" stroke-linecap="round" stroke-linejoin="round"/>
</svg>
