<svg width="32" height="32" viewBox="0 0 32 32" fill="none" xmlns="http://www.w3.org/2000/svg">
<path d="M3.33398 15.9999C3.33398 10.0288 3.33398 7.04324 5.18897 5.18824C7.04397 3.33325 10.0295 3.33325 16.0007 3.33325C21.9717 3.33325 24.9573 3.33325 26.8124 5.18824C28.6673 7.04324 28.6673 10.0288 28.6673 15.9999C28.6673 21.971 28.6673 24.9566 26.8124 26.8117C24.9573 28.6666 21.9717 28.6666 16.0007 28.6666C10.0295 28.6666 7.04397 28.6666 5.18897 26.8117C3.33398 24.9566 3.33398 21.971 3.33398 15.9999Z" stroke="#0E0E0E" stroke-width="2" stroke-linejoin="round"/>
<path d="M22 16C22 19.3137 19.3137 22 16 22C12.6863 22 10 19.3137 10 16C10 12.6863 12.6863 10 16 10C19.3137 10 22 12.6863 22 16Z" stroke="#0E0E0E" stroke-width="2"/>
</svg>
