<svg width="1070" height="358" viewBox="0 0 1070 358" fill="none" xmlns="http://www.w3.org/2000/svg">
<path d="M973.903 145.406C993.013 145.406 1028.81 143.779 1045.84 136.589C1069.44 126.622 1060.23 163.93 1060.23 181.477C1060.23 208.761 1053.03 224.776 1053.03 188.691C1053.03 178.848 1056.81 139.491 1049.44 145.406C963.362 214.464 878.953 265.526 765.285 244.801C643.619 222.617 554.042 96.31 419.586 127.771C369.522 139.486 297.13 163.965 272.915 214.742C250.494 261.754 276.651 329.519 327.267 343.795C458.561 380.826 541.99 244.762 486.328 130.978C414.643 -15.5623 198.077 -16.6845 39.7215 52.3753C-143.705 132.369 -213.487 201.667 -299 327.109" stroke="#F0F2F4" stroke-width="16" stroke-linecap="round"/>
</svg>
