<svg width="344" height="335" viewBox="0 0 344 335" fill="none" xmlns="http://www.w3.org/2000/svg">
<circle cx="171.956" cy="158.671" r="158.671" fill="#FED33F"/>
<path d="M343.871 159.201C343.631 168.22 342.706 177.18 341.102 185.995C327.66 266.451 252.069 328.942 171.966 327.499C91.8639 328.942 16.2727 266.451 2.83071 185.995C1.22601 177.18 0.301414 168.22 0.0612793 159.201C-0.179479 168.22 0.288507 177.254 1.4769 186.208C10.7535 268.033 88.1341 336.422 171.966 334.712C171.966 334.712 171.966 334.712 171.966 334.712C255.798 336.422 333.179 268.033 342.455 186.208C343.644 177.254 344.112 168.22 343.871 159.201Z" fill="#FED33F"/>
</svg>
