<svg width="37" height="73" viewBox="0 0 37 73" fill="none" xmlns="http://www.w3.org/2000/svg">
<path d="M13.721 68.4862C13.5644 68.4862 13.4077 68.4794 13.2511 68.4636C12.2486 68.36 11.7787 68.1548 11.3625 67.9745C11.0134 67.8235 10.7091 67.6928 10.0333 67.5981C9.20981 67.4831 8.76898 67.562 8.25878 67.6499C7.70607 67.7469 7.07951 67.8551 5.97856 67.7514C5.13495 67.6702 4.63818 67.5215 4.19959 67.3885C3.7968 67.2668 3.4164 67.1541 2.74956 67.0864C2.26174 67.0369 1.76721 67.0301 1.27939 67.0639L1.18988 65.7138C1.75154 65.6754 2.32216 65.6845 2.88382 65.7408C3.6782 65.8197 4.13917 65.9594 4.58448 66.0924C5.00069 66.2187 5.39452 66.3359 6.10835 66.4057C7.02805 66.4936 7.51587 66.408 8.03278 66.3178C8.60115 66.2187 9.18743 66.115 10.219 66.2592C11.0761 66.3787 11.5124 66.5658 11.8973 66.7326C12.2732 66.8949 12.5955 67.0346 13.3921 67.118C13.9672 67.1766 14.587 67.0662 15.3031 66.9377C16.0796 66.7979 16.9612 66.6401 18.0465 66.6401C19.2123 66.6401 20.1029 66.8024 20.8884 66.9444C21.6044 67.0752 22.1706 67.1766 22.7367 67.118C23.5333 67.0346 23.8556 66.8949 24.2293 66.7326C24.6142 66.5658 25.0483 66.3764 25.9053 66.2592C26.9369 66.1172 27.5232 66.2187 28.0915 66.3178C28.6085 66.408 29.094 66.4936 30.016 66.4057C30.7276 66.3381 31.1214 66.2187 31.5376 66.0947C31.9852 65.9617 32.4461 65.8219 33.2405 65.7431C33.8335 65.6845 34.4354 65.6777 35.0262 65.7228L34.9255 67.0707C34.4131 67.0323 33.8894 67.0369 33.3748 67.0887C32.7079 67.1541 32.3275 67.269 31.9247 67.3907C31.4638 67.5282 30.9894 67.6725 30.1458 67.7536C29.0448 67.8596 28.4183 67.7491 27.8633 67.6522C27.3531 67.5643 26.9123 67.4877 26.0888 67.6004C25.413 67.695 25.1109 67.8258 24.7596 67.9768C24.3434 68.1571 23.8735 68.3622 22.8732 68.4659C22.1191 68.5448 21.4053 68.4141 20.6489 68.2766C19.9172 68.1436 19.0893 67.9948 18.0443 67.9948C17.0776 67.9948 16.2586 68.1413 15.5358 68.2721C14.9159 68.3825 14.3207 68.4907 13.721 68.4907V68.4862Z" fill="#ED1C24"/>
<path d="M18.9349 4.14792H17.5923V15.5149H18.9349V4.14792Z" fill="#003C77"/>
<path d="M23.9071 8.05186H12.7297V9.40426H23.9071V8.05186Z" fill="#003C77"/>
<path d="M23.0343 36.9933C21.5619 36.9933 20.4789 36.6191 19.6711 35.8617L19.8456 34.7528C21.365 34.0428 21.967 33.0781 21.9737 33.0668L22.2825 32.891L22.2444 32.8143L22.3653 32.7647C23.9496 32.3004 25.319 31.7437 26.4334 31.1103C29.7228 29.244 30.9827 26.6316 30.2845 23.1244V23.1063H30.2823C30.2778 23.0816 30.2733 23.0568 30.2666 23.0297L30.2532 22.9666L31.4034 22.3738L31.5197 22.5045H31.522C31.5869 22.5744 31.7077 22.6939 31.8487 22.8314C33.2002 24.1454 37.3109 28.1418 33.5583 33.2539C30.609 37.2728 26.957 36.7791 26.1 36.5966C24.923 36.858 23.9093 36.991 23.0321 36.991L23.0343 36.9933ZM21.4523 35.3952C22.4548 35.7648 23.9227 35.713 25.9568 35.2464L26.2902 35.2554C26.4267 35.2937 29.7586 36.1615 32.4797 32.4537C34.8024 29.2913 33.5672 26.7263 31.8129 24.7428C31.8755 27.9412 30.2935 30.4747 27.0935 32.2914C25.9434 32.9451 24.556 33.5198 22.965 33.9999C22.7367 34.3042 22.2556 34.8565 21.4523 35.3952Z" fill="#003C77"/>
<path d="M22.7188 34.0676L22.5846 33.4928L22.5286 33.3846L22.0833 32.9361L22.1572 32.8617L22.325 32.7738C22.6584 32.5912 24.2964 31.6783 25.7017 30.6122L25.7062 30.6077C25.7062 30.6077 25.7106 30.6032 25.7129 30.6032L26.0888 31.0923L26.6035 31.6107L26.5229 31.6806C25.055 32.7986 23.3499 33.752 22.9605 33.9639L22.9538 33.9706L22.8531 34.0202C22.8195 34.036 22.7748 34.054 22.7188 34.0676Z" fill="#003C77"/>
<path d="M22.5488 34.0946H21.9647L21.8842 33.5108C21.8148 33.0194 21.5149 31.7369 20.9018 30.9435C20.2327 31.2884 19.2347 31.6716 18.1024 31.6716C16.8628 31.6716 15.7752 31.3876 14.8757 30.8286C11.7049 28.8653 11.9398 24.2829 11.951 24.0891C11.9734 23.7172 12.2934 23.4332 12.6604 23.4535C13.0296 23.476 13.3115 23.7961 13.2914 24.168C13.2914 24.2063 13.0989 28.1395 15.5806 29.6768C16.2675 30.1028 17.1156 30.3192 18.1024 30.3192C19.2079 30.3192 20.1768 29.8278 20.6624 29.5303C20.6713 29.5257 20.6803 29.519 20.6892 29.5145C20.8615 29.4085 20.9757 29.3229 21.0204 29.2891C21.0875 29.2237 21.2621 29.0592 21.5149 28.8428C22.3966 28.0832 24.1353 26.7668 25.8628 26.5054C26.4894 26.4107 27.0734 26.4603 27.5948 26.6564C28.4048 26.9584 28.9016 27.7496 28.8054 28.5813C28.6957 29.519 27.9662 30.5175 26.5744 31.6377L26.5319 31.6716C25.017 32.8797 23.182 33.8489 22.9046 33.9932L22.8397 34.027L22.7009 34.0946H22.5443H22.5488ZM22.0229 30.1997C22.5331 30.8984 22.8397 31.755 23.0142 32.3973C23.7012 32.0051 24.7529 31.365 25.6793 30.6302L25.7129 30.6032C27.1607 29.4469 27.4381 28.7414 27.4762 28.4258C27.5008 28.2162 27.3598 28.0111 27.1316 27.9254C26.825 27.8104 26.467 27.7834 26.0664 27.8443C24.6164 28.0629 23.012 29.3364 22.3899 29.8729C22.2265 30.0126 22.1012 30.1276 22.0251 30.1997H22.0229Z" fill="#003C77"/>
<path d="M29.2149 24.0553C27.098 24.0553 25.6547 23.4715 24.8021 22.2701C24.2472 21.4902 23.9675 20.4534 23.9675 19.1889C23.9675 18.6321 24.0659 18.0709 24.2606 17.5232L24.2875 17.4465C25.0751 15.2985 27.1495 13.7274 29.2149 13.7274C32.3141 13.7274 34.3146 15.7538 34.3146 18.8914C34.3146 20.7148 33.2987 22.4279 31.692 23.3633V23.3836L31.3071 23.5684C31.287 23.5774 31.2669 23.5864 31.2467 23.5955L31.2199 23.609C30.5732 23.9043 29.8974 24.0553 29.2149 24.0553ZM25.5518 17.9019L25.5361 17.9514C25.3862 18.3639 25.3101 18.7809 25.3101 19.1911C25.3101 20.1671 25.507 20.938 25.8941 21.4835C26.4849 22.3152 27.5388 22.7029 29.2149 22.7029C29.5707 22.7029 29.9242 22.6465 30.2711 22.5316L30.6985 22.3625L30.732 22.3467C32.0926 21.6953 32.972 20.3384 32.972 18.8936C32.972 16.5066 31.5667 15.0821 29.2149 15.0821C27.7246 15.0821 26.1559 16.2925 25.5518 17.9019Z" fill="#003C77"/>
<path d="M15.7954 30.6189L14.6631 29.8931C15.2404 28.978 15.8603 28.0967 16.5025 27.2717C17.4065 26.1109 18.3419 25.0899 19.2817 24.2356L19.4786 24.062C21.4411 22.3332 23.3946 21.373 25.2899 21.204L25.4085 22.5519C23.7482 22.6984 21.9893 23.6045 20.1835 25.2409L20.0515 25.3603C19.2123 26.138 18.3732 27.0599 17.5587 28.1057C16.9433 28.8969 16.3481 29.7421 15.7954 30.6189Z" fill="#003C77"/>
<path d="M25.4891 27.6527C23.0187 25.1575 19.924 25.3987 19.7919 25.4122H19.7338V24.7247L19.6756 24.0643C20.0672 24.0305 23.5826 23.8096 26.4401 26.6992L25.4891 27.6549V27.6527Z" fill="#003C77"/>
<path d="M21.4859 29.8458C20.1075 28.5092 17.0351 28.3672 17.0038 28.3649L17.0575 27.0125C17.2052 27.0193 20.6714 27.1771 22.4168 28.8698L21.4859 29.8436V29.8458Z" fill="#003C77"/>
<path d="M18.5231 20.7351C14.2379 20.7351 12.676 18.0439 12.6134 17.9289L13.7792 17.2595C13.8307 17.3451 15.0569 19.3827 18.5231 19.3827C21.6604 19.3827 22.3429 17.3361 22.372 17.2482L23.6564 17.6381C23.6184 17.7644 22.6965 20.7351 18.5231 20.7351Z" fill="#003C77"/>
<path d="M25.9232 5.47553C27.9662 10.3216 24.9297 17.6607 24.8961 17.7441C21.5306 17.8207 20.4901 15.055 20.4901 15.055C22.4995 14.1827 23.907 12.1722 23.907 9.83027C23.907 6.69044 21.3807 4.14792 18.2636 4.14792C15.1464 4.14792 12.6201 6.69044 12.6201 9.83027C12.6201 12.1519 14.003 14.1489 15.9856 15.0325C15.9587 15.0956 15.1397 17.0431 13.1974 17.5976C11.2215 18.1611 6.61184 20.4489 6.61184 26.5865C6.61184 30.2605 8.2118 32.9834 10.548 34.5747C10.2459 35.3456 9.94378 36.13 9.6484 36.9301L9.57456 36.9008C-0.568949 33.4522 3.85947 23.1492 5.44152 20.6472C7.37713 17.5863 8.71752 15.5126 9.8207 8.72806C11.1007 0.852573 16.1042 0.640696 18.4739 0.681268C19.5234 0.6993 24.0704 1.07572 25.9255 5.47328L25.9232 5.47553Z" fill="#FED33F"/>
<path d="M18.2636 16.1911C17.3752 16.1911 16.5182 16.0085 15.7148 15.6501C13.4279 14.6313 11.9488 12.348 11.9488 9.83026C11.9488 6.32304 14.7817 3.47172 18.2636 3.47172C21.7454 3.47172 24.5784 6.32304 24.5784 9.83026C24.5784 12.375 23.0769 14.6696 20.7564 15.6771C19.9642 16.0175 19.1273 16.1911 18.2658 16.1911H18.2636ZM18.2636 4.82412C15.5224 4.82412 13.2914 7.06911 13.2914 9.83026C13.2914 11.8138 14.455 13.6125 16.2563 14.4127C16.8874 14.6944 17.5632 14.8364 18.2613 14.8364C18.9595 14.8364 19.6017 14.7012 20.2238 14.4329C22.052 13.6395 23.2335 11.8318 23.2335 9.83026C23.2335 7.06911 21.0025 4.82412 18.2613 4.82412H18.2636Z" fill="#003C77"/>
<path d="M15.9856 36.8806C13.8553 36.8806 11.8458 36.2765 10.1698 35.1337C7.44203 33.2741 5.93829 30.238 5.93829 26.5865C5.93829 20.9628 9.7491 17.8793 13.0139 16.9484C14.6206 16.4886 15.3389 14.8387 15.368 14.7688L15.9833 15.0325H16.6569L16.6032 15.2985C16.5025 15.5351 15.5604 17.6269 13.3809 18.249C12.3627 18.5397 7.28315 20.3069 7.28315 26.5865C7.28315 29.7759 8.57655 32.4154 10.9239 34.0157C12.3762 35.0052 14.126 35.5304 15.9856 35.5304C17.4535 35.5304 18.7514 35.2689 19.8456 34.7573L20.414 35.9835C19.143 36.5808 17.6527 36.8851 15.9878 36.8851L15.9856 36.8806Z" fill="#003C77"/>
<path d="M24.7552 18.4225C21.0808 18.4225 19.9105 15.4247 19.8613 15.2962L21.1166 14.8161C21.1524 14.9063 22.052 17.1355 24.8782 17.0679L24.9073 18.4203C24.8558 18.4203 24.8044 18.4203 24.7529 18.4203L24.7552 18.4225Z" fill="#003C77"/>
<path d="M25.3705 18.2219L24.4217 17.2662L25.3727 18.2197L25.3705 18.2219Z" fill="#003C77"/>
<path d="M9.35974 37.541C6.05465 36.4162 3.90198 34.4868 2.96214 31.8023C1.44722 27.4746 3.55066 22.376 4.87538 20.2843L4.92461 20.2054C6.8289 17.1963 8.08648 15.2083 9.15611 8.61987C10.5815 -0.132428 16.5293 -0.0287443 18.4851 0.00506572C19.4719 0.0208437 24.4933 0.352182 26.5408 5.20956C28.6107 10.1165 25.8427 17.2009 25.5204 17.9943L25.3504 18.4135L24.8984 18.4203V17.7441H24.2248V17.0656H24.4374C25.0348 15.445 26.9526 9.64318 25.3056 5.737C23.5826 1.64823 19.3019 1.37099 18.4627 1.35521C15.321 1.30112 11.5795 2.09903 10.4853 8.834C9.37092 15.6974 7.98131 17.8928 6.05912 20.929L6.00989 21.0079C5.04321 22.5361 2.83907 27.3732 4.23092 31.3515C5.02531 33.6235 6.89603 35.2734 9.79162 36.2584L9.36198 37.5387L9.35974 37.541Z" fill="#003C77"/>
<path d="M18.597 72.9198C9.17848 72.9198 1.95294 70.5418 0.601365 70.064C0.178439 69.9175 -0.0744194 69.4689 0.0195641 69.0204C2.87487 55.8953 5.81969 45.324 9.0196 36.6935C9.29708 35.9451 9.59246 35.172 9.92364 34.3268L11.1723 34.8249C10.8433 35.6611 10.5524 36.4275 10.2772 37.1668C7.13098 45.6509 4.23092 56.0396 1.41589 68.9144C3.39178 69.5749 10.0624 71.5674 18.597 71.5674C27.1316 71.5674 33.0704 69.6628 34.8427 69.0226C32.0948 53.9817 29.1231 43.5501 25.5025 36.2066L25.3235 35.8437L25.5562 35.5146C26.8944 33.6122 26.1649 32.0074 26.1559 31.9916L27.3688 31.4123C27.4113 31.5025 28.3489 33.5582 26.8742 35.9542C30.5038 43.4555 33.4799 54.02 36.2278 69.1466C36.3084 69.5749 36.0712 70.0031 35.6617 70.1587C34.4623 70.6185 27.9886 72.9175 18.5947 72.9175L18.597 72.9198ZM34.9098 69.39C34.9098 69.39 34.9098 69.3945 34.9098 69.3968C34.9098 69.3945 34.9098 69.3923 34.9098 69.39ZM35.1895 68.8942C35.1895 68.8942 35.1895 68.8942 35.1873 68.8942C35.1873 68.8942 35.1873 68.8942 35.1895 68.8942ZM1.03996 68.786C1.03996 68.786 1.04443 68.786 1.04667 68.786C1.04667 68.786 1.04219 68.786 1.03996 68.786Z" fill="#003C77"/>
<path d="M24.9767 53.7382C24.7507 53.594 24.5112 53.5173 24.2987 53.5083C24.1152 53.5016 23.9339 53.461 23.7728 53.3731C23.6452 53.3032 23.5132 53.2401 23.379 53.186C23.5088 53.0936 23.6385 53.0034 23.7661 52.9133C23.9227 52.8051 24.1129 52.751 24.3009 52.7825C24.556 52.8276 24.8782 52.7668 25.1826 52.5977C25.7174 52.3002 25.9971 51.7795 25.8069 51.4324C25.6167 51.0853 25.0304 51.047 24.4956 51.3445C24.1599 51.5316 23.925 51.8066 23.8444 52.0703C23.7929 52.2393 23.6743 52.3768 23.5267 52.4715C23.3812 52.5616 23.2268 52.6608 23.0858 52.7487C22.8195 52.9178 22.5152 53.0147 22.2019 53.044C21.9692 53.0665 21.7365 53.1004 21.506 53.1454C21.5261 53.0553 21.5485 52.9651 21.5731 52.8772C21.6492 52.6022 21.8327 52.361 22.0878 52.2393C22.3093 52.1334 22.5286 51.926 22.6875 51.6465C22.9918 51.1123 22.9605 50.5218 22.6204 50.3257C22.2802 50.1296 21.7566 50.4023 21.4545 50.9343C21.2867 51.2295 21.2196 51.5428 21.2531 51.7975C21.2778 51.9936 21.2352 52.192 21.1569 52.3746C21.1077 52.4895 21.0629 52.6067 21.0204 52.7217C20.8884 53.0891 20.6132 53.3844 20.2596 53.5466C20.1902 53.5782 20.1186 53.6143 20.0515 53.6481C19.5816 53.8847 19.1519 54.1981 18.7693 54.5632L18.7514 53.1838C18.7447 52.7194 18.8767 52.2619 19.143 51.8832C19.6062 51.2228 20.1746 50.6029 20.725 50.0394C20.772 49.9943 20.8168 49.947 20.8638 49.9019C21.1614 49.6112 21.5463 49.4218 21.9603 49.3722C22.2646 49.3362 22.5689 49.3114 22.8732 49.3069C23.182 49.3046 23.4819 49.4444 23.6631 49.6946C23.8108 49.8997 24.0682 50.0822 24.3882 50.1814C24.97 50.364 25.5383 50.2062 25.6547 49.8298C25.7711 49.4511 25.3929 48.9981 24.8111 48.8155C24.5112 48.7208 24.2181 48.7186 23.9854 48.7862C23.831 48.8335 23.6699 48.8538 23.5087 48.829C23.0478 48.7614 22.5533 48.7704 22.0833 48.8042C22.3519 48.5833 22.8016 48.2565 23.1194 48.0289C23.3163 47.8868 23.558 47.835 23.7997 47.8598C24.048 47.8846 24.3479 47.817 24.6321 47.6524C25.1602 47.3459 25.4309 46.8185 25.234 46.4758C25.0371 46.1332 24.4508 46.1039 23.9205 46.4127C23.6184 46.5885 23.4013 46.8365 23.3074 47.0822C23.2313 47.2828 23.0813 47.4473 22.8956 47.5533C22.6898 47.6727 22.4414 47.817 22.2803 47.9207C22.2668 47.6119 22.2646 47.3008 22.278 46.9943V46.9762C22.2892 46.7959 22.3966 46.6404 22.5488 46.5435C22.7927 46.3924 22.9963 46.0611 23.0679 45.6531C23.1731 45.0468 22.9448 44.5013 22.5577 44.4337C22.1706 44.3661 21.7723 44.8011 21.6671 45.4074C21.6112 45.7298 21.6492 46.0318 21.7566 46.2572C21.8036 46.3564 21.8238 46.4668 21.8081 46.5773C21.7924 46.7012 21.7768 46.8275 21.7611 46.9559C21.7208 47.4045 21.7074 47.8508 21.7186 48.2971C21.7052 48.3083 21.6895 48.3174 21.6738 48.3264C21.2979 48.5946 20.9309 48.8718 20.5751 49.1649L20.5572 48.6374C20.5505 48.4165 20.6154 48.1979 20.7474 48.0221C20.8996 47.8192 20.9958 47.5149 20.9958 47.1768C20.9958 46.5615 20.6781 46.0634 20.2842 46.0634C19.8904 46.0634 19.5726 46.5615 19.5726 47.1768C19.5726 47.5149 19.6689 47.8192 19.821 48.0221C19.953 48.1979 20.0202 48.4165 20.0112 48.6374L19.9844 49.4308C19.9799 49.5864 19.9105 49.7306 19.7964 49.8366C19.4697 50.1363 19.1519 50.4451 18.8476 50.772C18.8029 50.8193 18.7603 50.8689 18.7156 50.9162L18.6529 46.2369C18.6485 45.8988 18.7827 45.5742 19.0244 45.3398C19.1945 45.1753 19.3735 45.022 19.5592 44.8732C19.6823 44.7763 19.83 44.72 19.9844 44.711C20.2484 44.6952 20.5729 44.5532 20.866 44.3052C21.3561 43.886 21.5664 43.3225 21.3337 43.0475C21.101 42.7703 20.5147 42.8875 20.0246 43.3045C19.736 43.5501 19.5458 43.8454 19.4831 44.1046C19.4473 44.2556 19.3668 44.3931 19.2526 44.4991C19.2146 44.5329 19.1766 44.5667 19.1385 44.6005C18.9013 44.8101 18.6619 45.0107 18.4023 45.1866C18.3508 44.8439 18.3464 44.5013 18.3531 44.152C18.3531 44.1046 18.3531 44.055 18.3576 44.0077C18.362 43.8589 18.4113 43.7169 18.4985 43.5975C18.6462 43.3946 18.7424 43.0746 18.7424 42.7117C18.7424 42.0805 18.4515 41.5734 18.1002 41.6004C17.7467 41.5756 17.458 42.0828 17.458 42.7117C17.458 43.0723 17.5542 43.3924 17.7019 43.5975C17.7892 43.7169 17.8384 43.8589 17.8429 44.0077C17.8429 44.055 17.8451 44.1046 17.8474 44.152C17.8541 44.4991 17.8496 44.8439 17.7981 45.1866C17.5386 45.013 17.2991 44.8101 17.0619 44.6005C17.0239 44.5667 16.9858 44.5329 16.9478 44.4991C16.8314 44.3954 16.7531 44.2579 16.7173 44.1046C16.6547 43.8454 16.4645 43.5501 16.1758 43.3045C15.6857 42.8852 15.0995 42.7703 14.8667 43.0475C14.634 43.3247 14.8444 43.8882 15.3344 44.3052C15.6253 44.5532 15.9498 44.6952 16.2161 44.711C16.3705 44.72 16.5204 44.7763 16.6412 44.8732C16.827 45.0198 17.006 45.1753 17.1761 45.3398C17.4177 45.5742 17.552 45.8988 17.5475 46.2369L17.4849 50.9162C17.4423 50.8689 17.3976 50.8193 17.3528 50.772C17.0485 50.4474 16.7307 50.1363 16.404 49.8366C16.2899 49.7329 16.2205 49.5864 16.2161 49.4308L16.1892 48.6374C16.1825 48.4165 16.2474 48.1979 16.3794 48.0221C16.5316 47.8192 16.6278 47.5149 16.6278 47.1768C16.6278 46.5615 16.3101 46.0634 15.9162 46.0634C15.5224 46.0634 15.2046 46.5615 15.2046 47.1768C15.2046 47.5149 15.3009 47.8192 15.453 48.0221C15.585 48.1979 15.6522 48.4165 15.6432 48.6374L15.6253 49.1649C15.2695 48.8741 14.9025 48.5946 14.5266 48.3264C14.5132 48.3151 14.4975 48.3061 14.4819 48.2971C14.493 47.8485 14.4819 47.4045 14.4393 46.9559C14.4237 46.8275 14.4102 46.7012 14.3923 46.5773C14.3767 46.4668 14.3968 46.3586 14.4438 46.2572C14.549 46.0318 14.5893 45.7275 14.5333 45.4074C14.4282 44.8011 14.0298 44.3661 13.6427 44.4337C13.2556 44.5013 13.0273 45.0468 13.1325 45.6531C13.2041 46.0611 13.4078 46.3902 13.6517 46.5435C13.8038 46.6381 13.9112 46.7937 13.9224 46.9762V46.9943C13.9359 47.3008 13.9336 47.6119 13.9224 47.9207C13.7613 47.817 13.5129 47.6705 13.3071 47.5533C13.1213 47.4473 12.9714 47.2828 12.8953 47.0822C12.8013 46.8387 12.5843 46.5885 12.2822 46.4127C11.7541 46.1062 11.1656 46.1332 10.9687 46.4758C10.7717 46.8185 11.0425 47.3459 11.5706 47.6524C11.8548 47.817 12.1546 47.8846 12.403 47.8598C12.6447 47.835 12.8864 47.8868 13.0833 48.0289C13.4033 48.2565 13.8508 48.5833 14.1193 48.8042C13.6494 48.7704 13.1549 48.7614 12.6939 48.829C12.5328 48.8538 12.3717 48.8313 12.2173 48.7862C11.9846 48.7163 11.6914 48.7208 11.3916 48.8155C10.8098 48.9981 10.4316 49.4534 10.548 49.8298C10.6643 50.2085 11.2327 50.3663 11.8145 50.1814C12.1323 50.0822 12.3896 49.8997 12.5395 49.6946C12.7208 49.4444 13.0206 49.3046 13.3294 49.3069C13.6338 49.3091 13.9381 49.3339 14.2424 49.3722C14.6542 49.4218 15.039 49.6089 15.3389 49.9019C15.3859 49.947 15.4329 49.9943 15.4776 50.0394C16.0281 50.6007 16.5965 51.2228 17.0597 51.8832C17.3237 52.2619 17.458 52.7194 17.4513 53.1838L17.4334 54.5632C17.0507 54.1981 16.6233 53.8847 16.1512 53.6481C16.0818 53.612 16.0124 53.5782 15.9431 53.5466C15.5895 53.3844 15.3143 53.0891 15.1823 52.7217C15.1397 52.6045 15.095 52.4895 15.0458 52.3746C14.9674 52.192 14.9249 51.9936 14.9495 51.7975C14.9831 51.5428 14.916 51.2295 14.7481 50.9343C14.4438 50.4001 13.9224 50.1273 13.5823 50.3257C13.2422 50.524 13.2131 51.1146 13.5152 51.6465C13.674 51.926 13.8933 52.1334 14.1149 52.2393C14.37 52.361 14.5535 52.6022 14.6295 52.8772C14.6542 52.9651 14.6765 53.0553 14.6967 53.1454C14.4662 53.0981 14.2357 53.0665 14.0007 53.044C13.6875 53.0147 13.3831 52.9178 13.1169 52.7487C12.9781 52.6608 12.8215 52.5616 12.676 52.4715C12.5283 52.3791 12.4097 52.2393 12.3583 52.0703C12.2777 51.8066 12.0428 51.5316 11.7071 51.3445C11.1723 51.047 10.586 51.0875 10.3958 51.4324C10.2056 51.7795 10.4853 52.3002 11.0201 52.5977C11.3245 52.7668 11.6467 52.8276 11.9018 52.7825C12.0875 52.751 12.28 52.8051 12.4366 52.9133C12.5664 53.0034 12.6939 53.0959 12.8237 53.186C12.6895 53.2401 12.5574 53.3032 12.4299 53.3731C12.2688 53.461 12.0875 53.5016 11.904 53.5083C11.6914 53.5173 11.452 53.5917 11.226 53.7382C10.7382 54.0515 10.5055 54.5587 10.7046 54.8765C10.9038 55.1921 11.461 55.1943 11.9488 54.8833C12.2106 54.7165 12.3986 54.4911 12.4858 54.2724C12.6134 53.9501 12.8685 53.6977 13.2019 53.612L13.2422 53.603C13.3921 53.5647 13.5465 53.5579 13.7009 53.5805C13.956 53.6165 14.2066 53.6661 14.4505 53.7337C14.6833 53.7946 14.9093 53.8757 15.1263 53.9704C14.9853 54.0268 14.8488 54.0899 14.7146 54.1597C14.5109 54.2657 14.2984 54.3581 14.0724 54.4054C13.824 54.455 13.551 54.6173 13.3272 54.872C12.9222 55.3318 12.8327 55.9179 13.1258 56.1793C13.4189 56.4408 13.9851 56.2808 14.3901 55.8209C14.5736 55.6136 14.6922 55.3792 14.7392 55.1628C14.8063 54.8585 15.0211 54.6083 15.3188 54.5204C15.3434 54.5136 15.368 54.5069 15.3926 54.4978C15.6969 54.4099 16.0259 54.473 16.2698 54.6759C16.46 54.8337 16.639 55.0072 16.8024 55.1943C17.2007 55.6451 17.4155 56.2289 17.4065 56.8307C17.3909 57.9374 16.8135 58.9811 15.8446 59.5017C15.3478 59.77 14.7862 59.9007 14.1596 59.9007C12.638 59.9007 12.1099 60.6535 12.0897 60.6851C11.998 60.8203 12.0338 61.0006 12.1658 61.0953C12.2173 61.1314 12.2755 61.1494 12.3359 61.1494C12.4276 61.1494 12.5194 61.1066 12.5776 61.0254C12.5932 61.0029 12.9781 60.4957 14.1619 60.4957C14.37 60.4957 14.5714 60.4822 14.7683 60.4574C14.8623 60.4462 14.9227 60.5543 14.8645 60.6287L13.8262 61.927C13.721 62.0578 13.7322 62.2629 13.8642 62.3666C13.918 62.4071 13.9806 62.4274 14.0455 62.4274C14.1328 62.4274 14.2178 62.3891 14.276 62.317L15.7887 60.4259C16.0617 60.1328 16.5584 59.7947 16.5584 59.7947C16.6636 59.7361 16.7822 59.8488 16.7285 59.9593C16.3347 60.764 15.9028 61.6002 15.5269 62.3305C15.3546 62.6731 15.8469 62.9481 16.0438 62.6213C16.5629 61.74 17.0776 60.8564 17.5721 59.9615C17.6124 59.8917 17.7176 59.9165 17.7198 59.9976L17.8093 62.7137C17.8205 62.903 17.9615 62.9977 18.1047 62.9999H18.1069C18.2501 62.9999 18.3911 62.9053 18.4023 62.7137L18.4918 59.9976C18.4941 59.9165 18.6015 59.8917 18.6395 59.9615C19.134 60.8586 19.6487 61.74 20.1679 62.6213C20.3648 62.9458 20.8571 62.6709 20.6848 62.3305C20.3111 61.6002 19.877 60.764 19.4831 59.9593C19.4294 59.8488 19.548 59.7361 19.6532 59.7947C19.6532 59.7947 20.15 60.1328 20.423 60.4259L21.9356 62.317C21.9938 62.3891 22.0811 62.4274 22.1661 62.4274C22.2288 62.4274 22.2937 62.4071 22.3474 62.3666C22.4794 62.2651 22.4906 62.0578 22.3854 61.927L21.3471 60.6287C21.2867 60.5543 21.3471 60.4462 21.4434 60.4574C21.638 60.4822 21.8394 60.4957 22.0498 60.4957C23.2335 60.4957 23.6184 61.0029 23.6341 61.0254C23.6922 61.1066 23.784 61.1494 23.8757 61.1494C23.9339 61.1494 23.9943 61.1314 24.0458 61.0953C24.1778 61.0006 24.2114 60.8203 24.1219 60.6851C24.0995 60.6535 23.5736 59.9007 22.052 59.9007C21.4232 59.9007 20.8638 59.7677 20.367 59.5017C19.3981 58.9811 18.8185 57.9374 18.8051 56.8307C18.7961 56.2289 19.011 55.6451 19.4093 55.1943C19.5726 55.0095 19.7516 54.8359 19.9418 54.6759C20.1858 54.473 20.5147 54.4099 20.819 54.4978C20.8436 54.5046 20.8683 54.5114 20.8929 54.5204C21.1905 54.6083 21.4053 54.8585 21.4724 55.1628C21.5194 55.3814 21.638 55.6136 21.8215 55.8209C22.2265 56.2808 22.7927 56.4408 23.0858 56.1793C23.379 55.9179 23.2895 55.3318 22.8844 54.872C22.6607 54.6173 22.3877 54.455 22.1393 54.4054C21.9133 54.3603 21.7007 54.2679 21.4971 54.1597C21.3628 54.0899 21.2241 54.0268 21.0853 53.9704C21.3024 53.8757 21.5284 53.7946 21.7611 53.7337C22.005 53.6661 22.2556 53.6165 22.5107 53.5805C22.6629 53.5579 22.8195 53.5647 22.9695 53.603L23.0097 53.612C23.3432 53.6977 23.5983 53.9501 23.7258 54.2724C23.8131 54.4933 24.001 54.7165 24.2629 54.8833C24.7507 55.1966 25.3079 55.1921 25.507 54.8765C25.7062 54.561 25.4735 54.0515 24.9856 53.7382H24.9767Z" fill="#ED1C24"/>
</svg>
