<svg width="167" height="26" viewBox="0 0 167 26" fill="none" xmlns="http://www.w3.org/2000/svg">
<path d="M21.7655 20.13C21.7655 20.2027 21.7511 20.2667 21.7194 20.3161C21.6876 20.3685 21.6385 20.4121 21.5721 20.4499C21.5057 20.4848 21.4134 20.5138 21.2921 20.5342C21.1738 20.5546 21.0208 20.5662 20.836 20.5662C20.6195 20.5662 20.4463 20.5546 20.3164 20.5284C20.1865 20.5022 20.0855 20.4673 20.0133 20.4179C19.9412 20.3714 19.8863 20.3132 19.8517 20.2463C19.8141 20.1795 19.7824 20.098 19.7506 20.005L17.9667 14.617C17.7588 13.9831 17.5048 13.4336 17.1988 12.9684C16.8928 12.506 16.532 12.1193 16.1134 11.814C15.6949 11.5058 15.2099 11.2819 14.6557 11.1336C14.1014 10.9882 13.4808 10.9155 12.788 10.9155H11.8123V20.162C11.8123 20.2231 11.7978 20.2812 11.7661 20.3336C11.7343 20.3859 11.6824 20.4266 11.6102 20.4586C11.538 20.4906 11.4399 20.5168 11.3158 20.5371C11.1916 20.5575 11.0415 20.5691 10.8654 20.5691C10.6894 20.5691 10.5421 20.5575 10.4238 20.5371C10.3054 20.5168 10.2102 20.4906 10.138 20.4586C10.0658 20.4266 10.0168 20.3859 9.99079 20.3336C9.96481 20.2812 9.95326 20.2231 9.95326 20.162V10.9155H8.97756C8.21259 10.9155 7.54577 11.0027 6.9771 11.1801C6.40842 11.3575 5.91769 11.6076 5.50489 11.9303C5.0921 12.2531 4.7457 12.6427 4.46569 13.1021C4.18568 13.5615 3.95475 14.0646 3.76711 14.617L2.0149 20.005C1.98315 20.098 1.95139 20.1795 1.91387 20.2463C1.87634 20.3132 1.82438 20.3714 1.75221 20.4179C1.68005 20.4644 1.57901 20.5022 1.44911 20.5284C1.31921 20.5546 1.14601 20.5662 0.92951 20.5662C0.744762 20.5662 0.591769 20.5546 0.473415 20.5342C0.355061 20.5138 0.262688 20.4848 0.193407 20.4499C0.127014 20.4121 0.0779403 20.3685 0.0461868 20.3161C0.0144334 20.2638 0 20.2027 0 20.13C0 20.098 0 20.0632 0.00866003 20.0195C0.0144334 19.9788 0.0202067 19.9294 0.0317534 19.8712C0.0433001 19.8131 0.0548468 19.7549 0.0692802 19.691C0.0837136 19.627 0.106807 19.5601 0.13856 19.4874L1.78108 14.5996C2.00913 13.9221 2.25449 13.3347 2.51718 12.8346C2.77987 12.3345 3.07431 11.9041 3.4005 11.5465C3.7267 11.1859 4.09908 10.8893 4.51765 10.6567C4.93622 10.4241 5.4154 10.2264 5.95233 10.0723V10.0577C5.50778 9.9647 5.10942 9.81931 4.75724 9.62159C4.40507 9.42387 4.08753 9.15345 3.80464 8.81034C3.51886 8.46723 3.25906 8.04852 3.02235 7.55421C2.78564 7.0599 2.55182 6.47546 2.32377 5.79796L0.805383 1.25322C0.764969 1.14854 0.730329 1.04096 0.704349 0.933373C0.678369 0.82288 0.666822 0.718201 0.666822 0.613524C0.666822 0.540831 0.678369 0.479774 0.698576 0.427435C0.718782 0.375097 0.762083 0.331484 0.831363 0.293683C0.897756 0.258791 0.99013 0.229711 1.10271 0.209358C1.21529 0.189004 1.3654 0.177368 1.55303 0.177368C1.76953 0.177368 1.94273 0.189 2.07263 0.21517C2.20253 0.241339 2.30357 0.276233 2.37573 0.325664C2.4479 0.372187 2.49986 0.433247 2.53161 0.50594C2.56337 0.578633 2.59224 0.662961 2.62399 0.756007L4.17413 5.80087C4.35022 6.36205 4.55806 6.85346 4.80343 7.27798C5.04591 7.6996 5.35478 8.05725 5.72717 8.34802C6.09955 8.63879 6.54987 8.85687 7.07524 9.00516C7.60351 9.15055 8.23857 9.22324 8.98334 9.22324H9.95903V0.587355C9.95903 0.526294 9.97058 0.468141 9.99656 0.415802C10.0225 0.363463 10.0716 0.322758 10.1438 0.290773C10.2159 0.258788 10.3112 0.232613 10.4296 0.212259C10.5479 0.191905 10.6951 0.180279 10.8712 0.180279C11.0473 0.180279 11.1974 0.191905 11.3215 0.212259C11.4457 0.232613 11.5438 0.258788 11.616 0.290773C11.6882 0.322758 11.7401 0.363463 11.7719 0.415802C11.8036 0.468141 11.8181 0.526294 11.8181 0.587355V9.22324H12.7937C13.5068 9.22324 14.1303 9.13891 14.6614 8.97317C15.1926 8.80743 15.6516 8.569 16.0326 8.26369C16.4136 7.95547 16.7341 7.59202 16.9852 7.1704C17.2392 6.74878 17.4413 6.28355 17.5972 5.7718L19.1473 0.758909C19.1791 0.665862 19.2079 0.581543 19.2397 0.508851C19.2715 0.436158 19.3234 0.375098 19.3956 0.328574C19.4677 0.282051 19.5688 0.24425 19.6987 0.21808C19.8286 0.191911 20.0018 0.180279 20.2183 0.180279C20.403 0.180279 20.5531 0.191905 20.6686 0.212259C20.7812 0.232613 20.8736 0.261693 20.9399 0.296585C21.0063 0.334385 21.0496 0.377998 21.0727 0.430337C21.0929 0.482676 21.1045 0.543742 21.1045 0.616434C21.1045 0.721112 21.0872 0.825791 21.0496 0.936283C21.015 1.04678 20.9861 1.15146 20.9659 1.25613L19.462 5.69038C19.2541 6.30391 19.0434 6.84474 18.8269 7.30706C18.6104 7.76939 18.3621 8.16774 18.0821 8.50212C17.8021 8.83651 17.4788 9.11565 17.1122 9.34536C16.7456 9.57506 16.3126 9.76116 15.819 9.90655V9.93853C16.3877 10.1159 16.8813 10.3311 17.2999 10.587C17.7184 10.8428 18.0908 11.154 18.417 11.5232C18.7432 11.8925 19.029 12.3287 19.2772 12.8346C19.5255 13.3405 19.7622 13.9308 19.9902 14.6083L21.6183 19.4961C21.6385 19.5688 21.6587 19.6357 21.6789 19.6997C21.6991 19.7608 21.7165 19.8218 21.7338 19.88C21.7482 19.9381 21.7598 19.9876 21.7655 20.0283C21.7713 20.069 21.7742 20.1068 21.7742 20.1388L21.7655 20.13Z" fill="#003C77"/>
<path d="M28.1393 20.1591C28.1393 20.2202 28.1249 20.2783 28.0931 20.3307C28.0614 20.383 28.0094 20.4237 27.9372 20.4557C27.8651 20.4877 27.7698 20.5138 27.6515 20.5342C27.5331 20.5546 27.3801 20.5662 27.1954 20.5662C27.0193 20.5662 26.8692 20.5546 26.745 20.5342C26.6209 20.5138 26.5228 20.4877 26.4506 20.4557C26.3784 20.4237 26.3265 20.383 26.2947 20.3307C26.263 20.2783 26.2485 20.2202 26.2485 20.1591V0.575717C26.2485 0.514655 26.2659 0.456502 26.3034 0.404163C26.338 0.351825 26.3958 0.311119 26.4737 0.279134C26.5516 0.24715 26.6498 0.220983 26.7681 0.200629C26.8865 0.180276 27.0279 0.16864 27.1954 0.16864C27.3801 0.16864 27.5331 0.180276 27.6515 0.200629C27.7698 0.220983 27.8651 0.24715 27.9372 0.279134C28.0094 0.311119 28.0614 0.351825 28.0931 0.404163C28.1249 0.456502 28.1393 0.514655 28.1393 0.575717V20.1591Z" fill="#003C77"/>
<path d="M47.7976 20.1591C47.7976 20.2202 47.7831 20.2783 47.7514 20.3307C47.7196 20.383 47.6677 20.4237 47.5955 20.4557C47.5233 20.4877 47.4252 20.5138 47.3011 20.5342C47.1769 20.5546 47.0268 20.5662 46.8507 20.5662C46.666 20.5662 46.513 20.5546 46.3947 20.5342C46.2763 20.5138 46.181 20.4877 46.1089 20.4557C46.0367 20.4237 45.9847 20.383 45.953 20.3307C45.9212 20.2783 45.9068 20.2202 45.9068 20.1591V10.7411H35.89V20.1591C35.89 20.2202 35.8756 20.2783 35.8439 20.3307C35.8121 20.383 35.7601 20.4237 35.688 20.4557C35.6158 20.4877 35.5205 20.5138 35.4022 20.5342C35.2838 20.5546 35.1308 20.5662 34.9461 20.5662C34.77 20.5662 34.6199 20.5546 34.4958 20.5342C34.3716 20.5138 34.2735 20.4877 34.2013 20.4557C34.1292 20.4237 34.0772 20.383 34.0455 20.3307C34.0137 20.2783 33.9993 20.2202 33.9993 20.1591V0.575717C33.9993 0.514655 34.0137 0.456502 34.0455 0.404163C34.0772 0.351825 34.1292 0.311119 34.2013 0.279134C34.2735 0.24715 34.3716 0.220983 34.4958 0.200629C34.6199 0.180276 34.77 0.16864 34.9461 0.16864C35.1308 0.16864 35.2838 0.180276 35.4022 0.200629C35.5205 0.220983 35.6158 0.24715 35.688 0.279134C35.7601 0.311119 35.8121 0.351825 35.8439 0.404163C35.8756 0.456502 35.89 0.514655 35.89 0.575717V9.04005H45.9068V0.575717C45.9068 0.514655 45.9212 0.456502 45.953 0.404163C45.9847 0.351825 46.0367 0.311119 46.1089 0.279134C46.181 0.24715 46.2763 0.220983 46.3947 0.200629C46.513 0.180276 46.666 0.16864 46.8507 0.16864C47.0268 0.16864 47.1769 0.180276 47.3011 0.200629C47.4252 0.220983 47.5233 0.24715 47.5955 0.279134C47.6677 0.311119 47.7196 0.351825 47.7514 0.404163C47.7831 0.456502 47.7976 0.514655 47.7976 0.575717V20.1591Z" fill="#003C77"/>
<path d="M66.1857 20.13C66.1857 20.2027 66.1713 20.2667 66.1395 20.3161C66.1078 20.3685 66.0587 20.4121 65.9923 20.4499C65.9259 20.4848 65.8307 20.5138 65.7123 20.5342C65.594 20.5546 65.4467 20.5662 65.2706 20.5662C65.0541 20.5662 64.8809 20.5546 64.751 20.5284C64.6211 20.5022 64.5172 20.4673 64.4422 20.4179C64.3642 20.3714 64.3036 20.3132 64.2632 20.2463C64.2228 20.1795 64.1853 20.098 64.1535 20.005L62.1675 14.8206C61.9192 14.1547 61.6305 13.5761 61.2986 13.0876C60.9666 12.5991 60.5856 12.192 60.1526 11.8692C59.7196 11.5465 59.2231 11.3081 58.663 11.151C58.103 10.994 57.4795 10.9155 56.7867 10.9155H55.5454V20.162C55.5454 20.2231 55.531 20.2812 55.4992 20.3336C55.4675 20.3859 55.4155 20.4266 55.3434 20.4586C55.2712 20.4906 55.1759 20.5168 55.0576 20.5371C54.9392 20.5575 54.7862 20.5691 54.6015 20.5691C54.4254 20.5691 54.2753 20.5575 54.1512 20.5371C54.027 20.5168 53.9289 20.4906 53.8567 20.4586C53.7846 20.4266 53.7326 20.3859 53.7008 20.3336C53.6691 20.2812 53.6547 20.2231 53.6547 20.162V0.578631C53.6547 0.517569 53.6691 0.459416 53.7008 0.407078C53.7326 0.354739 53.7846 0.314033 53.8567 0.282049C53.9289 0.250064 54.027 0.223889 54.1512 0.203535C54.2753 0.183181 54.4254 0.171555 54.6015 0.171555C54.7862 0.171555 54.9392 0.183181 55.0576 0.203535C55.1759 0.223889 55.2712 0.250064 55.3434 0.282049C55.4155 0.314033 55.4675 0.354739 55.4992 0.407078C55.531 0.459416 55.5454 0.517569 55.5454 0.578631V9.21451H56.7867C57.4795 9.21451 58.0886 9.13019 58.6169 8.96445C59.1451 8.79871 59.607 8.55446 60.0054 8.23171C60.4037 7.90895 60.7501 7.50769 61.0446 7.02792C61.339 6.54814 61.5988 5.99277 61.8268 5.35599L63.4232 0.750185C63.4549 0.657138 63.4867 0.572819 63.5242 0.500126C63.5617 0.427434 63.6166 0.366374 63.6945 0.31985C63.7725 0.273327 63.8764 0.235525 64.0034 0.209356C64.1333 0.183187 64.3065 0.171555 64.523 0.171555C64.7077 0.171555 64.8579 0.183181 64.9733 0.203535C65.0859 0.223889 65.1783 0.252968 65.2447 0.287861C65.3111 0.325661 65.3544 0.369274 65.3775 0.421613C65.3977 0.473951 65.4092 0.535017 65.4092 0.60771C65.4092 0.712387 65.3977 0.817066 65.3717 0.927559C65.3457 1.03805 65.3111 1.14273 65.2706 1.24741L63.5502 5.79214C63.3221 6.40567 63.0883 6.94069 62.8458 7.39429C62.6034 7.84789 62.3349 8.23752 62.0405 8.56609C61.746 8.89466 61.4198 9.16799 61.0648 9.38607C60.7068 9.60414 60.3027 9.7757 59.8466 9.90073V9.93272C60.3633 10.0985 60.8223 10.302 61.2264 10.5404C61.6305 10.7789 61.9972 11.0725 62.3262 11.4244C62.6582 11.7733 62.9584 12.1833 63.2327 12.6572C63.5069 13.1312 63.7667 13.6895 64.0149 14.335L66.0472 19.4874C66.1078 19.6648 66.1482 19.7985 66.1626 19.8858C66.1771 19.973 66.1857 20.0544 66.1857 20.1271V20.13Z" fill="#003C77"/>
<path d="M84.9 20.1591C84.9 20.2202 84.8856 20.2783 84.8538 20.3307C84.8221 20.383 84.7701 20.4237 84.698 20.4557C84.6258 20.4877 84.5276 20.5138 84.4035 20.5342C84.2794 20.5546 84.1293 20.5662 83.9532 20.5662C83.7771 20.5662 83.627 20.5546 83.5029 20.5342C83.3787 20.5138 83.2806 20.4877 83.2084 20.4557C83.1363 20.4237 83.0843 20.383 83.0525 20.3307C83.0208 20.2783 83.0064 20.2202 83.0064 20.1591V5.47811C83.0064 5.19606 83.0121 4.89657 83.0208 4.57091C83.0323 4.24815 83.0468 3.95157 83.067 3.68115H83.0352C82.9631 3.81781 82.8793 3.9632 82.787 4.11731C82.6946 4.27141 82.5964 4.43133 82.4925 4.59416C82.3886 4.757 82.2847 4.91692 82.1837 5.07976C82.0797 5.23968 81.9816 5.3996 81.8892 5.55661L72.2766 20.1736C72.2362 20.2347 72.19 20.2929 72.138 20.3452C72.0861 20.3975 72.0254 20.4382 71.9533 20.4702C71.8811 20.5022 71.7945 20.5255 71.6964 20.54C71.5982 20.5545 71.477 20.5633 71.3326 20.5633C71.1768 20.5633 71.0497 20.5516 70.9516 20.5313C70.8535 20.5109 70.7755 20.4819 70.7178 20.447C70.66 20.4092 70.6196 20.3626 70.5937 20.3074C70.5677 20.2492 70.5561 20.1795 70.5561 20.098V0.575717C70.5561 0.514655 70.5734 0.456502 70.611 0.404163C70.6456 0.351825 70.7033 0.311119 70.7813 0.279134C70.8592 0.24715 70.9574 0.220983 71.0757 0.200629C71.1941 0.180276 71.3355 0.16864 71.503 0.16864C71.6877 0.16864 71.8407 0.180276 71.959 0.200629C72.0774 0.220983 72.1727 0.24715 72.2448 0.279134C72.317 0.311119 72.369 0.351825 72.4007 0.404163C72.4325 0.456502 72.4469 0.514655 72.4469 0.575717V15.3498C72.4469 15.6115 72.4469 15.8848 72.4382 16.1785C72.4325 16.4692 72.4209 16.7513 72.4007 17.0217H72.4325C72.5768 16.792 72.75 16.5128 72.9521 16.1785C73.1541 15.8441 73.362 15.5126 73.5814 15.1782L83.1796 0.543736C83.22 0.482675 83.2662 0.427429 83.3181 0.380906C83.3701 0.334382 83.4307 0.296584 83.5029 0.264599C83.575 0.232615 83.6616 0.209347 83.7598 0.194808C83.8579 0.18027 83.9792 0.171551 84.1235 0.171551C84.2794 0.171551 84.4064 0.183177 84.5045 0.203531C84.6027 0.223885 84.6806 0.252965 84.7355 0.287857C84.7932 0.325657 84.8336 0.36927 84.8596 0.421609C84.8856 0.473948 84.8971 0.535014 84.8971 0.607706V20.162L84.9 20.1591Z" fill="#003C77"/>
<path d="M109.492 6.05674C109.492 6.99302 109.333 7.85371 109.018 8.63297C108.704 9.41514 108.25 10.0868 107.661 10.648C107.073 11.2092 106.354 11.6483 105.505 11.9594C104.656 12.2705 103.635 12.4275 102.437 12.4275H99.8328V20.1591C99.8328 20.2202 99.8184 20.2783 99.7866 20.3307C99.7549 20.383 99.7029 20.4237 99.6307 20.4557C99.5586 20.4877 99.4633 20.5138 99.345 20.5342C99.2266 20.5546 99.0736 20.5662 98.8889 20.5662C98.7128 20.5662 98.5627 20.5546 98.4385 20.5342C98.3144 20.5138 98.2163 20.4877 98.1441 20.4557C98.0719 20.4237 98.02 20.383 97.9882 20.3307C97.9565 20.2783 97.942 20.2202 97.942 20.1591V1.24741C97.942 0.872314 98.0402 0.616435 98.2365 0.473958C98.4328 0.334388 98.6233 0.264603 98.8109 0.264603H102.89C103.294 0.264603 103.687 0.28205 104.068 0.31985C104.449 0.35765 104.896 0.433249 105.41 0.555373C105.921 0.674589 106.443 0.898481 106.974 1.22705C107.506 1.55562 107.959 1.95688 108.331 2.43084C108.704 2.90479 108.989 3.44562 109.191 4.05624C109.393 4.66395 109.495 5.33564 109.495 6.06256L109.492 6.05674ZM107.491 6.2283C107.491 5.35308 107.321 4.61161 106.98 4.0039C106.64 3.39619 106.224 2.9426 105.733 2.64601C105.242 2.34943 104.731 2.16042 104.197 2.08482C103.666 2.00631 103.161 1.96851 102.685 1.96851H99.8328V10.7469H102.561C103.438 10.7469 104.174 10.6364 104.763 10.4096C105.352 10.1857 105.849 9.87747 106.253 9.47911C106.657 9.08367 106.963 8.6068 107.177 8.05143C107.387 7.49315 107.494 6.88835 107.494 6.23121L107.491 6.2283Z" fill="#003C77"/>
<path d="M130.204 10.1333C130.204 11.7471 130.019 13.2068 129.652 14.5152C129.286 15.8208 128.734 16.9345 128.001 17.8562C127.268 18.7779 126.341 19.4874 125.227 19.9875C124.113 20.4877 122.808 20.7377 121.318 20.7377C119.829 20.7377 118.55 20.5022 117.482 20.0283C116.411 19.5543 115.533 18.8768 114.846 17.9987C114.159 17.1176 113.654 16.0447 113.328 14.774C113.002 13.5034 112.84 12.0728 112.84 10.4794C112.84 8.88594 113.022 7.46117 113.383 6.17015C113.744 4.87913 114.295 3.7771 115.034 2.86699C115.773 1.95688 116.7 1.25031 117.811 0.750184C118.922 0.250059 120.227 0 121.725 0C123.224 0 124.445 0.235519 125.51 0.703659C126.575 1.1718 127.455 1.84349 128.154 2.7187C128.853 3.59392 129.369 4.65523 129.704 5.90554C130.039 7.15586 130.209 8.56609 130.209 10.1392L130.204 10.1333ZM128.189 10.3049C128.189 9.10693 128.079 7.98455 127.857 6.93778C127.634 5.891 127.268 4.98089 126.757 4.20454C126.246 3.42818 125.565 2.82047 124.719 2.37559C123.87 1.93362 122.822 1.71263 121.572 1.71263C120.322 1.71263 119.286 1.94525 118.432 2.40758C117.577 2.8699 116.887 3.49215 116.353 4.27432C115.822 5.05649 115.438 5.96661 115.207 7.00757C114.973 8.04852 114.858 9.14763 114.858 10.302C114.858 11.5319 114.965 12.6747 115.175 13.7302C115.386 14.7857 115.747 15.7045 116.252 16.4867C116.757 17.2688 117.436 17.8795 118.284 18.3214C119.133 18.7634 120.193 18.9844 121.463 18.9844C122.733 18.9844 123.784 18.7489 124.641 18.2749C125.498 17.801 126.191 17.1671 126.719 16.3704C127.248 15.5737 127.623 14.6519 127.851 13.6051C128.079 12.5584 128.192 11.4563 128.192 10.302L128.189 10.3049Z" fill="#003C77"/>
<path d="M150.376 25.486C150.376 25.5471 150.364 25.5994 150.344 25.643C150.324 25.6837 150.283 25.7186 150.228 25.7448C150.171 25.771 150.093 25.7913 149.989 25.8059C149.885 25.8204 149.746 25.8291 149.57 25.8291C149.426 25.8291 149.305 25.8204 149.207 25.8059C149.108 25.7913 149.028 25.771 148.967 25.7448C148.906 25.7186 148.86 25.6837 148.834 25.643C148.808 25.6023 148.797 25.55 148.797 25.486V20.4731H132.75V25.486C132.75 25.5471 132.738 25.5994 132.712 25.643C132.686 25.6837 132.643 25.7186 132.579 25.7448C132.519 25.771 132.438 25.7913 132.34 25.8059C132.242 25.8204 132.12 25.8291 131.976 25.8291C131.811 25.8291 131.676 25.8204 131.572 25.8059C131.468 25.7913 131.387 25.771 131.324 25.7448C131.263 25.7186 131.22 25.6837 131.199 25.643C131.179 25.6023 131.168 25.55 131.168 25.486V19.5194C131.147 19.2694 131.179 19.0833 131.269 18.964C131.355 18.8448 131.494 18.7838 131.679 18.7838H132.981C133.281 18.3883 133.561 17.9929 133.826 17.5974C134.089 17.202 134.34 16.7309 134.58 16.1843C134.816 15.6376 135.05 14.9747 135.278 14.1925C135.506 13.4103 135.732 12.4392 135.954 11.2732C136.176 10.1072 136.401 8.70857 136.629 7.08026C136.857 5.45195 137.094 3.50669 137.342 1.24741C137.394 0.913022 137.49 0.665862 137.628 0.505938C137.767 0.346014 137.951 0.264603 138.179 0.264603H146.894C147.131 0.264603 147.327 0.346014 147.475 0.505938C147.625 0.66877 147.7 0.91593 147.7 1.24741V18.7867H149.87C150.055 18.7867 150.188 18.8477 150.266 18.9669C150.344 19.0862 150.381 19.2723 150.381 19.5223V25.4889L150.376 25.486ZM145.803 1.99759H139.152C138.916 4.12021 138.682 5.96661 138.454 7.53386C138.226 9.10111 138.003 10.4532 137.787 11.593C137.57 12.7328 137.354 13.6924 137.134 14.4745C136.915 15.2567 136.699 15.9139 136.476 16.4489C136.254 16.9839 136.026 17.4317 135.795 17.7922C135.561 18.1499 135.322 18.4814 135.073 18.7838H145.803V1.99468V1.99759Z" fill="#003C77"/>
<path d="M161.105 14.8206C160.609 16.0592 160.161 17.0624 159.763 17.8271C159.365 18.5919 158.963 19.185 158.562 19.6066C158.158 20.0283 157.731 20.3132 157.275 20.4586C156.819 20.604 156.288 20.6767 155.678 20.6767C155.471 20.6767 155.263 20.6621 155.052 20.6301C154.841 20.5982 154.639 20.5575 154.446 20.5051C154.255 20.4528 154.085 20.3946 153.935 20.3248C153.785 20.258 153.678 20.1969 153.617 20.1446C153.557 20.0922 153.508 20.037 153.479 19.9817C153.447 19.9236 153.421 19.8567 153.401 19.7782C153.381 19.6997 153.363 19.6037 153.355 19.4903C153.343 19.3769 153.34 19.2403 153.34 19.0833C153.34 18.7925 153.375 18.5773 153.45 18.4436C153.522 18.3098 153.62 18.24 153.744 18.24C153.828 18.24 153.923 18.272 154.03 18.3331C154.14 18.3941 154.27 18.4668 154.426 18.5453C154.582 18.6238 154.769 18.6936 154.991 18.7547C155.214 18.8157 155.479 18.8477 155.791 18.8477C156.08 18.8477 156.345 18.8157 156.582 18.7547C156.819 18.6936 157.05 18.5541 157.272 18.3418C157.494 18.1295 157.728 17.8242 157.97 17.4288C158.213 17.0333 158.484 16.4983 158.785 15.8208L151.343 0.907203C151.27 0.750187 151.233 0.625153 151.227 0.532107C151.221 0.43906 151.253 0.366368 151.32 0.314029C151.386 0.261691 151.493 0.226797 151.637 0.203535C151.781 0.183181 151.969 0.171555 152.194 0.171555C152.379 0.171555 152.535 0.183181 152.659 0.203535C152.783 0.223889 152.887 0.252968 152.968 0.287861C153.052 0.325661 153.115 0.369274 153.161 0.421613C153.207 0.473951 153.251 0.535017 153.294 0.60771L157.278 8.66495C157.734 9.57216 158.161 10.4387 158.565 11.2644C158.969 12.0931 159.356 12.9131 159.728 13.7244H159.789C160.098 12.8928 160.418 12.0495 160.75 11.1947C161.082 10.3398 161.458 9.38897 161.882 8.33638L164.95 0.575721C164.982 0.503028 165.017 0.441971 165.06 0.389632C165.101 0.337294 165.161 0.296588 165.239 0.264603C165.317 0.232618 165.424 0.209351 165.557 0.194812C165.689 0.180274 165.866 0.171555 166.085 0.171555C166.304 0.171555 166.478 0.183187 166.613 0.209356C166.746 0.235525 166.847 0.273324 166.908 0.325662C166.968 0.378001 167 0.439067 167 0.51176C167 0.584452 166.98 0.674583 166.939 0.776353L161.108 14.8177L161.105 14.8206Z" fill="#003C77"/>
</svg>
