<svg width="167" height="120" viewBox="0 0 167 120" fill="none" xmlns="http://www.w3.org/2000/svg">
<g clip-path="url(#clip0_246_1288)">
<path d="M78.4775 71.0595C78.3209 71.0595 78.1643 71.0527 78.0076 71.0369C77.0051 70.9332 76.5352 70.7281 76.119 70.5478C75.7699 70.3968 75.4656 70.2661 74.7898 70.1714C73.9663 70.0564 73.5255 70.1353 73.0153 70.2232C72.4626 70.3202 71.836 70.4283 70.7351 70.3247C69.8915 70.2435 69.3947 70.0948 68.9561 69.9618C68.5533 69.8401 68.1729 69.7274 67.5061 69.6597C67.0183 69.6101 66.5237 69.6034 66.0359 69.6372L65.9464 68.287C66.5081 68.2487 67.0787 68.2577 67.6404 68.3141C68.4347 68.393 68.8957 68.5327 69.341 68.6657C69.7572 68.7919 70.1511 68.9091 70.8649 68.979C71.7846 69.0669 72.2724 68.9813 72.7893 68.8911C73.3577 68.7919 73.944 68.6883 74.9755 68.8325C75.8326 68.952 76.2689 69.1391 76.6538 69.3059C77.0298 69.4681 77.352 69.6079 78.1486 69.6913C78.7237 69.7499 79.3435 69.6394 80.0596 69.511C80.8361 69.3712 81.7177 69.2134 82.803 69.2134C83.9689 69.2134 84.8595 69.3757 85.6449 69.5177C86.361 69.6485 86.9271 69.7499 87.4933 69.6913C88.2899 69.6079 88.6121 69.4681 88.9858 69.3059C89.3707 69.1391 89.8048 68.9497 90.6618 68.8325C91.6934 68.6905 92.2797 68.7919 92.8481 68.8911C93.365 68.9813 93.8506 69.0669 94.7725 68.979C95.4841 68.9114 95.8779 68.7919 96.2941 68.668C96.7417 68.535 97.2027 68.3952 97.997 68.3163C98.59 68.2577 99.192 68.251 99.7827 68.2961L99.682 69.644C99.1696 69.6056 98.646 69.6101 98.1313 69.662C97.4645 69.7274 97.0841 69.8423 96.6813 69.964C96.2203 70.1015 95.7459 70.2458 94.9023 70.3269C93.8013 70.4329 93.1748 70.3224 92.6198 70.2255C92.1096 70.1376 91.6688 70.0609 90.8453 70.1736C90.1695 70.2683 89.8675 70.399 89.5161 70.5501C89.0999 70.7304 88.63 70.9355 87.6298 71.0392C86.8756 71.1181 86.1618 70.9873 85.4055 70.8498C84.6737 70.7169 83.8458 70.5681 82.8008 70.5681C81.8341 70.5681 81.0151 70.7146 80.2923 70.8453C79.6725 70.9558 79.0773 71.064 78.4775 71.064V71.0595Z" fill="#ED1C24"/>
<path d="M83.6914 6.72121H82.3488V18.0882H83.6914V6.72121Z" fill="#003C77"/>
<path d="M88.6636 10.6251H77.4863V11.9776H88.6636V10.6251Z" fill="#003C77"/>
<path d="M87.7909 39.5665C86.3185 39.5665 85.2354 39.1924 84.4276 38.435L84.6022 37.3261C86.1216 36.6161 86.7235 35.6513 86.7302 35.6401L87.039 35.4643L87.001 35.3876L87.1218 35.338C88.7061 34.8737 90.0756 34.317 91.19 33.6836C94.4794 31.8173 95.7392 29.2049 95.041 25.6977V25.6796H95.0388C95.0343 25.6548 95.0299 25.63 95.0231 25.603L95.0097 25.5399L96.1599 24.9471L96.2763 25.0778H96.2785C96.3434 25.1477 96.4642 25.2672 96.6052 25.4046C97.9568 26.7187 102.067 30.7151 98.3148 35.8272C95.3655 39.846 91.7136 39.3524 90.8565 39.1698C89.6795 39.4313 88.6658 39.5643 87.7886 39.5643L87.7909 39.5665ZM86.2088 37.9685C87.2113 38.3381 88.6792 38.2863 90.7133 37.8197L91.0467 37.8287C91.1832 37.867 94.5152 38.7348 97.2362 35.027C99.559 31.8646 98.3238 29.2996 96.5694 27.316C96.632 30.5145 95.05 33.048 91.8501 34.8647C90.6999 35.5184 89.3125 36.0931 87.7215 36.5732C87.4933 36.8775 87.0122 37.4298 86.2088 37.9685Z" fill="#003C77"/>
<path d="M87.4754 36.6409L87.3411 36.0661L87.2852 35.9579L86.8399 35.5093L86.9137 35.435L87.0815 35.3471C87.415 35.1645 89.053 34.2516 90.4582 33.1855L90.4627 33.181C90.4627 33.181 90.4672 33.1764 90.4694 33.1764L90.8453 33.6656L91.36 34.184L91.2795 34.2539C89.8115 35.3718 88.1064 36.3253 87.717 36.5372L87.7103 36.5439L87.6096 36.5935C87.5761 36.6093 87.5313 36.6273 87.4754 36.6409Z" fill="#003C77"/>
<path d="M87.3053 36.6679H86.7213L86.6407 36.0841C86.5713 35.5927 86.2715 34.3102 85.6583 33.5168C84.9893 33.8617 83.9913 34.2448 82.859 34.2448C81.6193 34.2448 80.5318 33.9608 79.6322 33.4018C76.4614 31.4386 76.6963 26.8562 76.7075 26.6624C76.7299 26.2905 77.0499 26.0065 77.4169 26.0267C77.7861 26.0493 78.0681 26.3694 78.0479 26.7413C78.0479 26.7796 77.8555 30.7128 80.3371 32.2501C81.0241 32.6761 81.8721 32.8924 82.859 32.8924C83.9644 32.8924 84.9333 32.4011 85.4189 32.1035C85.4279 32.099 85.4368 32.0923 85.4458 32.0878C85.6181 31.9818 85.7322 31.8962 85.7769 31.8624C85.8441 31.797 86.0186 31.6325 86.2715 31.4161C87.1531 30.6565 88.8918 29.3401 90.6193 29.0787C91.2459 28.984 91.8299 29.0336 92.3513 29.2297C93.1614 29.5317 93.6581 30.3229 93.5619 31.1546C93.4523 32.0923 92.7228 33.0908 91.3309 34.211L91.2884 34.2448C89.7735 35.453 87.9386 36.4222 87.6611 36.5665L87.5962 36.6003L87.4575 36.6679H87.3008H87.3053ZM86.7794 32.773C87.2896 33.4717 87.5962 34.3282 87.7707 34.9706C88.4577 34.5784 89.5094 33.9383 90.4358 33.2035L90.4694 33.1764C91.9172 32.0201 92.1947 31.3146 92.2327 30.9991C92.2573 30.7895 92.1164 30.5843 91.8881 30.4987C91.5815 30.3837 91.2235 30.3567 90.823 30.4175C89.3729 30.6362 87.7685 31.9097 87.1464 32.4461C86.9831 32.5859 86.8578 32.7009 86.7817 32.773H86.7794Z" fill="#003C77"/>
<path d="M93.9714 26.6286C91.8545 26.6286 90.4112 26.0448 89.5587 24.8434C89.0037 24.0635 88.724 23.0267 88.724 21.7622C88.724 21.2054 88.8225 20.6442 89.0171 20.0965L89.044 20.0198C89.8317 17.8718 91.906 16.3007 93.9714 16.3007C97.0706 16.3007 99.0711 18.3271 99.0711 21.4646C99.0711 23.2881 98.0552 25.0012 96.4485 25.9366V25.9569L96.0637 26.1417C96.0435 26.1507 96.0234 26.1597 96.0032 26.1688L95.9764 26.1823C95.3297 26.4776 94.6539 26.6286 93.9714 26.6286ZM90.3083 20.4751L90.2926 20.5247C90.1427 20.9372 90.0666 21.3542 90.0666 21.7644C90.0666 22.7404 90.2635 23.5113 90.6507 24.0568C91.2414 24.8885 92.2954 25.2762 93.9714 25.2762C94.3272 25.2762 94.6808 25.2198 95.0276 25.1049L95.455 24.9358L95.4886 24.92C96.8491 24.2686 97.7285 22.9117 97.7285 21.4669C97.7285 19.0799 96.3232 17.6554 93.9714 17.6554C92.4811 17.6554 90.9125 18.8658 90.3083 20.4751Z" fill="#003C77"/>
<path d="M80.5519 33.1922L79.4196 32.4664C79.9969 31.5513 80.6168 30.67 81.259 29.845C82.163 28.6842 83.0984 27.6632 84.0382 26.8089L84.2352 26.6353C86.1976 24.9065 88.1511 23.9463 90.0465 23.7773L90.1651 25.1251C88.5047 25.2717 86.7459 26.1778 84.94 27.8142L84.808 27.9336C83.9689 28.7113 83.1297 29.6332 82.3152 30.679C81.6998 31.4702 81.1046 32.3154 80.5519 33.1922Z" fill="#003C77"/>
<path d="M90.2457 30.226C87.7752 27.7308 84.6805 27.972 84.5485 27.9855H84.4903V27.298L84.4321 26.6376C84.8237 26.6038 88.3391 26.3829 91.1967 29.2725L90.2457 30.2282V30.226Z" fill="#003C77"/>
<path d="M86.2424 32.4191C84.864 31.0825 81.7916 30.9405 81.7603 30.9382L81.814 29.5858C81.9617 29.5926 85.4279 29.7504 87.1733 31.4431L86.2424 32.4168V32.4191Z" fill="#003C77"/>
<path d="M83.2797 23.3084C78.9945 23.3084 77.4326 20.6171 77.3699 20.5022L78.5358 19.8328C78.5872 19.9184 79.8135 21.956 83.2797 21.956C86.4169 21.956 87.0994 19.9094 87.1285 19.8215L88.413 20.2114C88.3749 20.3376 87.453 23.3084 83.2797 23.3084Z" fill="#003C77"/>
<path d="M90.6797 8.04882C92.7228 12.8949 89.6862 20.234 89.6526 20.3174C86.2871 20.394 85.2466 17.6283 85.2466 17.6283C87.2561 16.756 88.6636 14.7455 88.6636 12.4036C88.6636 9.26373 86.1372 6.72121 83.0201 6.72121C79.903 6.72121 77.3766 9.26373 77.3766 12.4036C77.3766 14.7252 78.7595 16.7222 80.7421 17.6058C80.7153 17.6689 79.8963 19.6164 77.9539 20.1708C75.978 20.7344 71.3684 23.0222 71.3684 29.1598C71.3684 32.8338 72.9683 35.5567 75.3045 37.148C75.0024 37.9189 74.7003 38.7033 74.4049 39.5034L74.3311 39.4741C64.1876 36.0255 68.616 25.7225 70.1981 23.2205C72.1337 20.1596 73.474 18.0859 74.5772 11.3013C75.8572 3.42586 80.8607 3.21398 83.2304 3.25456C84.2799 3.27259 88.8269 3.64901 90.682 8.04657L90.6797 8.04882Z" fill="#FED33F"/>
<path d="M83.0201 18.7643C82.1317 18.7643 81.2747 18.5818 80.4714 18.2234C78.1844 17.2046 76.7053 14.9213 76.7053 12.4036C76.7053 8.89632 79.5382 6.04501 83.0201 6.04501C86.502 6.04501 89.3349 8.89632 89.3349 12.4036C89.3349 14.9483 87.8334 17.2429 85.5129 18.2504C84.7207 18.5908 83.8838 18.7643 83.0223 18.7643H83.0201ZM83.0201 7.39741C80.2789 7.39741 78.0479 9.6424 78.0479 12.4036C78.0479 14.3871 79.2115 16.1858 81.0129 16.9859C81.6439 17.2677 82.3197 17.4097 83.0179 17.4097C83.716 17.4097 84.3582 17.2745 84.9803 17.0062C86.8085 16.2128 87.99 14.4051 87.99 12.4036C87.99 9.6424 85.759 7.39741 83.0179 7.39741H83.0201Z" fill="#003C77"/>
<path d="M80.7421 39.4538C78.6118 39.4538 76.6024 38.8498 74.9263 37.707C72.1986 35.8474 70.6948 32.8113 70.6948 29.1598C70.6948 23.5361 74.5056 20.4526 77.7704 19.5217C79.3771 19.0619 80.0954 17.4119 80.1245 17.3421L80.7399 17.6058H81.4134L81.3597 17.8718C81.259 18.1084 80.317 20.2001 78.1374 20.8223C77.1193 21.113 72.0397 22.8802 72.0397 29.1598C72.0397 32.3492 73.3331 34.9887 75.6804 36.589C77.1327 37.5785 78.8826 38.1037 80.7421 38.1037C82.21 38.1037 83.5079 37.8422 84.6021 37.3306L85.1705 38.5567C83.8995 39.1541 82.4092 39.4583 80.7444 39.4583L80.7421 39.4538Z" fill="#003C77"/>
<path d="M89.5117 20.9958C85.8374 20.9958 84.6671 17.998 84.6178 17.8695L85.8732 17.3894C85.909 17.4796 86.8085 19.7088 89.6348 19.6412L89.6638 20.9936C89.6124 20.9936 89.5609 20.9936 89.5094 20.9936L89.5117 20.9958Z" fill="#003C77"/>
<path d="M90.127 20.7952L89.1783 19.8395L90.1293 20.793L90.127 20.7952Z" fill="#003C77"/>
<path d="M74.1163 40.1143C70.8112 38.9895 68.6585 37.0601 67.7187 34.3756C66.2037 30.0479 68.3072 24.9493 69.6319 22.8576L69.6811 22.7787C71.5854 19.7696 72.843 17.7816 73.9126 11.1932C75.3381 2.44086 81.2859 2.54454 83.2416 2.57835C84.2285 2.59413 89.2499 2.92547 91.2974 7.78285C93.3672 12.6898 90.5992 19.7741 90.277 20.5676L90.1069 20.9868L89.6549 20.9936V20.3174H88.9813V19.6389H89.1939C89.7914 18.0183 91.7091 12.2165 90.0621 8.31028C88.3391 4.22152 84.0584 3.94428 83.2192 3.9285C80.0775 3.87441 76.3361 4.67232 75.2418 11.4073C74.1275 18.2707 72.7378 20.4661 70.8157 23.5023L70.7664 23.5812C69.7997 25.1094 67.5956 29.9465 68.9875 33.9248C69.7818 36.1968 71.6526 37.8467 74.5481 38.8317L74.1185 40.112L74.1163 40.1143Z" fill="#003C77"/>
<path d="M83.3535 75.4931C73.935 75.4931 66.7095 73.1151 65.3579 72.6373C64.935 72.4908 64.6821 72.0422 64.7761 71.5937C67.6314 58.4686 70.5762 47.8973 73.7761 39.2668C74.0536 38.5184 74.349 37.7453 74.6802 36.9001L75.9288 37.3982C75.5999 38.2344 75.309 39.0008 75.0337 39.7401C71.8875 48.2242 68.9875 58.6129 66.1724 71.4877C68.1483 72.1482 74.8189 74.1407 83.3535 74.1407C91.8881 74.1407 97.827 72.2361 99.5992 71.5959C96.8513 56.555 93.8797 46.1234 90.2591 38.7799L90.08 38.417L90.3128 38.0879C91.6509 36.1855 90.9214 34.5807 90.9125 34.5649L92.1253 33.9856C92.1678 34.0758 93.1054 36.1314 91.6308 38.5274C95.2603 46.0288 98.2365 56.5933 100.984 71.7199C101.065 72.1481 100.828 72.5764 100.418 72.7319C99.2188 73.1918 92.7451 75.4908 83.3513 75.4908L83.3535 75.4931ZM99.6664 71.9633C99.6664 71.9633 99.6664 71.9678 99.6664 71.9701C99.6664 71.9678 99.6664 71.9656 99.6664 71.9633ZM99.9461 71.4674C99.9461 71.4674 99.9461 71.4674 99.9438 71.4674C99.9438 71.4674 99.9438 71.4674 99.9461 71.4674ZM65.7965 71.3593C65.7965 71.3593 65.801 71.3593 65.8032 71.3593C65.8032 71.3593 65.7987 71.3593 65.7965 71.3593Z" fill="#003C77"/>
<path d="M89.7332 56.3115C89.5072 56.1673 89.2678 56.0906 89.0552 56.0816C88.8717 56.0749 88.6904 56.0343 88.5293 55.9464C88.4018 55.8765 88.2698 55.8134 88.1355 55.7593C88.2653 55.6669 88.3951 55.5767 88.5226 55.4866C88.6793 55.3784 88.8695 55.3243 89.0574 55.3558C89.3125 55.4009 89.6348 55.3401 89.9391 55.171C90.4739 54.8735 90.7536 54.3528 90.5634 54.0057C90.3732 53.6586 89.7869 53.6202 89.2521 53.9178C88.9165 54.1049 88.6815 54.3798 88.6009 54.6436C88.5495 54.8126 88.4309 54.9501 88.2832 55.0448C88.1377 55.1349 87.9833 55.2341 87.8424 55.322C87.5761 55.4911 87.2717 55.588 86.9585 55.6173C86.7257 55.6398 86.493 55.6736 86.2625 55.7187C86.2827 55.6286 86.3051 55.5384 86.3297 55.4505C86.4057 55.1755 86.5892 54.9343 86.8443 54.8126C87.0659 54.7067 87.2852 54.4993 87.444 54.2198C87.7484 53.6856 87.717 53.0951 87.3769 52.899C87.0368 52.7029 86.5132 52.9756 86.2111 53.5075C86.0432 53.8028 85.9761 54.1161 86.0097 54.3708C86.0343 54.5669 85.9918 54.7653 85.9135 54.9479C85.8642 55.0628 85.8195 55.18 85.777 55.295C85.6449 55.6624 85.3697 55.9576 85.0161 56.1199C84.9468 56.1515 84.8752 56.1876 84.808 56.2214C84.3381 56.458 83.9085 56.7713 83.5258 57.1365L83.5079 55.757C83.5012 55.2927 83.6332 54.8352 83.8995 54.4565C84.3627 53.7961 84.9311 53.1762 85.4816 52.6127C85.5286 52.5676 85.5733 52.5203 85.6203 52.4752C85.9179 52.1844 86.3028 51.9951 86.7168 51.9455C87.0211 51.9095 87.3254 51.8847 87.6298 51.8802C87.9386 51.8779 88.2384 52.0177 88.4197 52.2678C88.5674 52.473 88.8247 52.6555 89.1447 52.7547C89.7265 52.9373 90.2949 52.7795 90.4112 52.4031C90.5276 52.0244 90.1494 51.5714 89.5676 51.3888C89.2678 51.2941 88.9746 51.2919 88.7419 51.3595C88.5875 51.4068 88.4264 51.4271 88.2653 51.4023C87.8043 51.3347 87.3098 51.3437 86.8399 51.3775C87.1084 51.1566 87.5582 50.8298 87.8759 50.6021C88.0728 50.4601 88.3145 50.4083 88.5562 50.4331C88.8046 50.4579 89.1044 50.3903 89.3886 50.2257C89.9167 49.9192 90.1875 49.3917 89.9906 49.0491C89.7936 48.7065 89.2074 48.6772 88.677 48.986C88.3749 49.1618 88.1579 49.4098 88.0639 49.6555C87.9878 49.8561 87.8379 50.0206 87.6522 50.1265C87.4463 50.246 87.1979 50.3903 87.0368 50.4939C87.0234 50.1851 87.0211 49.8741 87.0345 49.5676V49.5495C87.0457 49.3692 87.1531 49.2137 87.3053 49.1168C87.5492 48.9657 87.7528 48.6344 87.8245 48.2264C87.9296 47.6201 87.7014 47.0746 87.3143 47.007C86.9271 46.9394 86.5288 47.3744 86.4237 47.9807C86.3677 48.3031 86.4058 48.6051 86.5132 48.8305C86.5602 48.9297 86.5803 49.0401 86.5646 49.1506C86.549 49.2745 86.5333 49.4008 86.5176 49.5292C86.4774 49.9778 86.4639 50.4241 86.4751 50.8704C86.4617 50.8816 86.446 50.8906 86.4304 50.8997C86.0544 51.1679 85.6874 51.4451 85.3317 51.7382L85.3137 51.2107C85.307 50.9898 85.3719 50.7712 85.504 50.5954C85.6561 50.3925 85.7523 50.0882 85.7523 49.7501C85.7523 49.1348 85.4346 48.6366 85.0407 48.6366C84.6469 48.6366 84.3292 49.1348 84.3292 49.7501C84.3292 50.0882 84.4254 50.3925 84.5775 50.5954C84.7096 50.7712 84.7767 50.9898 84.7677 51.2107L84.7409 52.0041C84.7364 52.1597 84.6671 52.3039 84.5529 52.4099C84.2262 52.7096 83.9085 53.0184 83.6041 53.3453C83.5594 53.3926 83.5169 53.4422 83.4721 53.4895L83.4095 48.8102C83.405 48.4721 83.5393 48.1475 83.7809 47.9131C83.951 47.7486 84.13 47.5953 84.3157 47.4465C84.4388 47.3496 84.5865 47.2933 84.7409 47.2842C85.0049 47.2685 85.3294 47.1265 85.6226 46.8785C86.1126 46.4593 86.323 45.8958 86.0902 45.6208C85.8575 45.3435 85.2712 45.4608 84.7812 45.8777C84.4925 46.1234 84.3023 46.4187 84.2397 46.6779C84.2038 46.8289 84.1233 46.9664 84.0092 47.0724C83.9711 47.1062 83.9331 47.14 83.895 47.1738C83.6578 47.3834 83.4184 47.584 83.1588 47.7598C83.1074 47.4172 83.1029 47.0746 83.1096 46.7253C83.1096 46.6779 83.1096 46.6283 83.1141 46.581C83.1186 46.4322 83.1678 46.2902 83.2551 46.1708C83.4028 45.9679 83.499 45.6478 83.499 45.2849C83.499 44.6538 83.2081 44.1467 82.8568 44.1737C82.5032 44.1489 82.2145 44.6561 82.2145 45.2849C82.2145 45.6456 82.3108 45.9657 82.4584 46.1708C82.5457 46.2902 82.5949 46.4322 82.5994 46.581C82.5994 46.6283 82.6017 46.6779 82.6039 46.7253C82.6106 47.0724 82.6061 47.4172 82.5547 47.7598C82.2951 47.5863 82.0557 47.3834 81.8185 47.1738C81.7804 47.14 81.7424 47.1062 81.7043 47.0724C81.588 46.9687 81.5097 46.8312 81.4738 46.6779C81.4112 46.4187 81.221 46.1234 80.9323 45.8777C80.4423 45.4585 79.856 45.3435 79.6233 45.6208C79.3905 45.898 79.6009 46.4615 80.0909 46.8785C80.3819 47.1265 80.7063 47.2685 80.9726 47.2842C81.127 47.2933 81.2769 47.3496 81.3978 47.4465C81.5835 47.593 81.7625 47.7486 81.9326 47.9131C82.1743 48.1475 82.3085 48.4721 82.304 48.8102L82.2414 53.4895C82.1989 53.4422 82.1541 53.3926 82.1094 53.3453C81.805 53.0207 81.4873 52.7096 81.1606 52.4099C81.0464 52.3062 80.9771 52.1597 80.9726 52.0041L80.9458 51.2107C80.939 50.9898 81.0039 50.7712 81.136 50.5954C81.2881 50.3925 81.3843 50.0882 81.3843 49.7501C81.3843 49.1348 81.0666 48.6366 80.6728 48.6366C80.2789 48.6366 79.9612 49.1348 79.9612 49.7501C79.9612 50.0882 80.0574 50.3925 80.2095 50.5954C80.3416 50.7712 80.4087 50.9898 80.3998 51.2107L80.3819 51.7382C80.0261 51.4474 79.6591 51.1679 79.2831 50.8997C79.2697 50.8884 79.254 50.8794 79.2384 50.8704C79.2496 50.4218 79.2384 49.9778 79.1959 49.5292C79.1802 49.4008 79.1668 49.2745 79.1489 49.1506C79.1332 49.0401 79.1534 48.9319 79.2003 48.8305C79.3055 48.6051 79.3458 48.3008 79.2899 47.9807C79.1847 47.3744 78.7864 46.9394 78.3992 47.007C78.0121 47.0746 77.7839 47.6201 77.8891 48.2264C77.9607 48.6344 78.1643 48.9635 78.4082 49.1168C78.5604 49.2114 78.6678 49.3669 78.679 49.5495V49.5676C78.6924 49.8741 78.6901 50.1851 78.679 50.4939C78.5178 50.3903 78.2695 50.2438 78.0636 50.1265C77.8779 50.0206 77.7279 49.8561 77.6519 49.6555C77.5579 49.412 77.3408 49.1618 77.0387 48.986C76.5106 48.6795 75.9221 48.7065 75.7252 49.0491C75.5283 49.3917 75.799 49.9192 76.3271 50.2257C76.6113 50.3903 76.9112 50.4579 77.1596 50.4331C77.4012 50.4083 77.6429 50.4601 77.8398 50.6021C78.1598 50.8298 78.6074 51.1566 78.8759 51.3775C78.406 51.3437 77.9114 51.3347 77.4505 51.4023C77.2893 51.4271 77.1282 51.4046 76.9738 51.3595C76.7411 51.2896 76.448 51.2941 76.1481 51.3888C75.5663 51.5714 75.1881 52.0267 75.3045 52.4031C75.4209 52.7818 75.9892 52.9395 76.571 52.7547C76.8888 52.6555 77.1461 52.473 77.2961 52.2678C77.4773 52.0177 77.7772 51.8779 78.086 51.8802C78.3903 51.8824 78.6946 51.9072 78.9989 51.9455C79.4107 51.9951 79.7956 52.1822 80.0954 52.4752C80.1424 52.5203 80.1894 52.5676 80.2342 52.6127C80.7846 53.174 81.353 53.7961 81.8162 54.4565C82.0803 54.8352 82.2145 55.2927 82.2078 55.757L82.1899 57.1365C81.8073 56.7713 81.3799 56.458 80.9077 56.2214C80.8383 56.1853 80.769 56.1515 80.6996 56.1199C80.346 55.9576 80.0708 55.6624 79.9388 55.295C79.8963 55.1778 79.8515 55.0628 79.8023 54.9479C79.724 54.7653 79.6814 54.5669 79.7061 54.3708C79.7396 54.1161 79.6725 53.8028 79.5047 53.5075C79.2003 52.9734 78.679 52.7006 78.3388 52.899C77.9987 53.0973 77.9696 53.6879 78.2717 54.2198C78.4306 54.4993 78.6499 54.7067 78.8714 54.8126C79.1265 54.9343 79.31 55.1755 79.3861 55.4505C79.4107 55.5384 79.4331 55.6286 79.4532 55.7187C79.2227 55.6714 78.9922 55.6398 78.7573 55.6173C78.444 55.588 78.1397 55.4911 77.8734 55.322C77.7346 55.2341 77.578 55.1349 77.4326 55.0448C77.2849 54.9524 77.1663 54.8126 77.1148 54.6436C77.0342 54.3798 76.7993 54.1049 76.4636 53.9178C75.9288 53.6202 75.3425 53.6608 75.1523 54.0057C74.9621 54.3528 75.2418 54.8735 75.7767 55.171C76.081 55.3401 76.4032 55.4009 76.6583 55.3558C76.844 55.3243 77.0365 55.3784 77.1931 55.4866C77.3229 55.5767 77.4505 55.6691 77.5802 55.7593C77.446 55.8134 77.314 55.8765 77.1864 55.9464C77.0253 56.0343 76.844 56.0749 76.6606 56.0816C76.448 56.0906 76.2085 56.165 75.9825 56.3115C75.4947 56.6248 75.262 57.132 75.4611 57.4498C75.6603 57.7654 76.2175 57.7676 76.7053 57.4566C76.9671 57.2898 77.1551 57.0644 77.2424 56.8457C77.3699 56.5234 77.625 56.271 77.9584 56.1853L77.9987 56.1763C78.1486 56.138 78.303 56.1312 78.4574 56.1537C78.7125 56.1898 78.9632 56.2394 79.2071 56.307C79.4398 56.3679 79.6658 56.449 79.8828 56.5437C79.7419 56.6 79.6054 56.6632 79.4711 56.733C79.2675 56.839 79.0549 56.9314 78.8289 56.9787C78.5805 57.0283 78.3075 57.1906 78.0837 57.4453C77.6787 57.9051 77.5892 58.4912 77.8823 58.7526C78.1755 59.0141 78.7416 58.854 79.1466 58.3942C79.3301 58.1869 79.4487 57.9524 79.4957 57.7361C79.5629 57.4318 79.7777 57.1816 80.0753 57.0937C80.0999 57.0869 80.1245 57.0801 80.1491 57.0711C80.4535 56.9832 80.7824 57.0463 81.0263 57.2492C81.2165 57.407 81.3955 57.5805 81.5589 57.7676C81.9572 58.2184 82.172 58.8022 82.1631 59.404C82.1474 60.5107 81.5701 61.5543 80.6011 62.075C80.1044 62.3432 79.5427 62.474 78.9162 62.474C77.3945 62.474 76.8664 63.2268 76.8463 63.2584C76.7545 63.3936 76.7903 63.5739 76.9224 63.6686C76.9738 63.7047 77.032 63.7227 77.0924 63.7227C77.1842 63.7227 77.2759 63.6799 77.3341 63.5987C77.3498 63.5762 77.7346 63.069 78.9184 63.069C79.1265 63.069 79.3279 63.0555 79.5248 63.0307C79.6188 63.0194 79.6792 63.1276 79.621 63.202L78.5827 64.5003C78.4776 64.6311 78.4888 64.8362 78.6208 64.9399C78.6745 64.9804 78.7371 65.0007 78.802 65.0007C78.8893 65.0007 78.9743 64.9624 79.0325 64.8903L80.5452 62.9992C80.8182 62.7061 81.315 62.368 81.315 62.368C81.4201 62.3094 81.5387 62.4221 81.485 62.5326C81.0912 63.3373 80.6593 64.1735 80.2834 64.9038C80.1111 65.2464 80.6034 65.5214 80.8003 65.1946C81.3195 64.3132 81.8341 63.4297 82.3287 62.5348C82.3689 62.465 82.4741 62.4897 82.4763 62.5709L82.5658 65.287C82.577 65.4763 82.718 65.571 82.8612 65.5732H82.8635C83.0067 65.5732 83.1476 65.4786 83.1588 65.287L83.2484 62.5709C83.2506 62.4897 83.358 62.465 83.396 62.5348C83.8906 63.4319 84.4052 64.3132 84.9244 65.1946C85.1213 65.5191 85.6136 65.2441 85.4413 64.9038C85.0676 64.1735 84.6335 63.3373 84.2397 62.5326C84.1859 62.4221 84.3045 62.3094 84.4097 62.368C84.4097 62.368 84.9065 62.7061 85.1795 62.9992L86.6922 64.8903C86.7504 64.9624 86.8376 65.0007 86.9227 65.0007C86.9853 65.0007 87.0502 64.9804 87.1039 64.9399C87.2359 64.8384 87.2471 64.6311 87.142 64.5003L86.1037 63.202C86.0432 63.1276 86.1037 63.0194 86.1999 63.0307C86.3946 63.0555 86.596 63.069 86.8063 63.069C87.99 63.069 88.3749 63.5762 88.3906 63.5987C88.4488 63.6799 88.5405 63.7227 88.6323 63.7227C88.6904 63.7227 88.7509 63.7047 88.8023 63.6686C88.9344 63.5739 88.9679 63.3936 88.8784 63.2584C88.856 63.2268 88.3302 62.474 86.8085 62.474C86.1797 62.474 85.6203 62.341 85.1235 62.075C84.1546 61.5543 83.5751 60.5107 83.5616 59.404C83.5527 58.8022 83.7675 58.2184 84.1658 57.7676C84.3292 57.5828 84.5082 57.4092 84.6984 57.2492C84.9423 57.0463 85.2712 56.9832 85.5756 57.0711C85.6002 57.0779 85.6248 57.0847 85.6494 57.0937C85.947 57.1816 86.1618 57.4318 86.229 57.7361C86.276 57.9547 86.3946 58.1869 86.5781 58.3942C86.9831 58.854 87.5492 59.0141 87.8424 58.7526C88.1355 58.4912 88.046 57.9051 87.641 57.4453C87.4172 57.1906 87.1442 57.0283 86.8958 56.9787C86.6698 56.9336 86.4572 56.8412 86.2536 56.733C86.1193 56.6632 85.9806 56.6 85.8418 56.5437C86.0589 56.449 86.2849 56.3679 86.5176 56.307C86.7615 56.2394 87.0122 56.1898 87.2673 56.1537C87.4194 56.1312 87.5761 56.138 87.726 56.1763L87.7663 56.1853C88.0997 56.271 88.3548 56.5234 88.4823 56.8457C88.5696 57.0666 88.7576 57.2898 89.0194 57.4566C89.5072 57.7699 90.0644 57.7654 90.2635 57.4498C90.4627 57.1342 90.23 56.6248 89.7422 56.3115H89.7332Z" fill="#ED1C24"/>
<path d="M21.7684 103.623C21.7684 103.696 21.754 103.76 21.7222 103.809C21.6905 103.862 21.6414 103.905 21.575 103.943C21.5086 103.978 21.4163 104.007 21.295 104.027C21.1767 104.048 21.0237 104.059 20.8389 104.059C20.6224 104.059 20.4492 104.048 20.3193 104.021C20.1894 103.995 20.0884 103.96 20.0162 103.911C19.9441 103.864 19.8892 103.806 19.8546 103.739C19.817 103.673 19.7853 103.591 19.7535 103.498L17.9696 98.1101C17.7617 97.4762 17.5077 96.9267 17.2017 96.4615C16.8957 95.9991 16.5349 95.6124 16.1163 95.3071C15.6978 94.9989 15.2128 94.775 14.6586 94.6267C14.1043 94.4813 13.4837 94.4086 12.7909 94.4086H11.8152V103.655C11.8152 103.716 11.8007 103.774 11.769 103.827C11.7372 103.879 11.6853 103.92 11.6131 103.952C11.5409 103.984 11.4428 104.01 11.3187 104.03C11.1945 104.051 11.0444 104.062 10.8683 104.062C10.6923 104.062 10.545 104.051 10.4267 104.03C10.3083 104.01 10.2131 103.984 10.1409 103.952C10.0687 103.92 10.0197 103.879 9.99369 103.827C9.96771 103.774 9.95616 103.716 9.95616 103.655V94.4086H8.98046C8.21549 94.4086 7.54867 94.4958 6.98 94.6732C6.41132 94.8506 5.92059 95.1007 5.50779 95.4234C5.095 95.7462 4.74859 96.1358 4.46859 96.5952C4.18858 97.0546 3.95765 97.5577 3.77001 98.1101L2.0178 103.498C1.98605 103.591 1.95429 103.673 1.91677 103.739C1.87924 103.806 1.82728 103.864 1.75511 103.911C1.68294 103.958 1.58191 103.995 1.45201 104.021C1.32211 104.048 1.14891 104.059 0.932409 104.059C0.747662 104.059 0.594668 104.048 0.476314 104.027C0.35796 104.007 0.265587 103.978 0.196306 103.943C0.129913 103.905 0.0808394 103.862 0.049086 103.809C0.0173326 103.757 0.00289917 103.696 0.00289917 103.623C0.00289917 103.591 0.00289917 103.556 0.0115592 103.513C0.0173326 103.472 0.0231059 103.423 0.0346526 103.364C0.0461993 103.306 0.057746 103.248 0.0721794 103.184C0.0866128 103.12 0.109706 103.053 0.14146 102.981L1.78398 98.0927C2.01203 97.4152 2.25739 96.8278 2.52008 96.3277C2.78277 95.8276 3.07721 95.3972 3.4034 95.0396C3.7296 94.679 4.10198 94.3825 4.52055 94.1498C4.93912 93.9172 5.4183 93.7195 5.95522 93.5654V93.5508C5.51068 93.4578 5.11232 93.3124 4.76014 93.1147C4.40797 92.917 4.09043 92.6466 3.80754 92.3034C3.52176 91.9603 3.26196 91.5416 3.02525 91.0473C2.78854 90.553 2.55472 89.9686 2.32667 89.2911L0.808282 84.7463C0.767868 84.6416 0.733228 84.5341 0.707248 84.4265C0.681268 84.316 0.669721 84.2113 0.669721 84.1066C0.669721 84.0339 0.681268 83.9729 0.701475 83.9205C0.721682 83.8682 0.764982 83.8246 0.834262 83.7868C0.900656 83.7519 0.993029 83.7228 1.10561 83.7025C1.21819 83.6821 1.3683 83.6705 1.55593 83.6705C1.77243 83.6705 1.94563 83.6821 2.07553 83.7083C2.20543 83.7344 2.30647 83.7693 2.37863 83.8188C2.4508 83.8653 2.50276 83.9264 2.53451 83.999C2.56627 84.0717 2.59513 84.1561 2.62689 84.2491L4.17703 89.294C4.35312 89.8552 4.56096 90.3466 4.80633 90.7711C5.04881 91.1927 5.35768 91.5503 5.73006 91.8411C6.10245 92.1319 6.55277 92.35 7.07814 92.4983C7.6064 92.6436 8.24147 92.7163 8.98624 92.7163H9.96193V84.0805C9.96193 84.0194 9.97348 83.9612 9.99946 83.9089C10.0254 83.8566 10.0745 83.8159 10.1467 83.7839C10.2188 83.7519 10.3141 83.7257 10.4325 83.7054C10.5508 83.685 10.698 83.6734 10.8741 83.6734C11.0502 83.6734 11.2003 83.685 11.3244 83.7054C11.4486 83.7257 11.5467 83.7519 11.6189 83.7839C11.6911 83.8159 11.743 83.8566 11.7748 83.9089C11.8065 83.9612 11.821 84.0194 11.821 84.0805V92.7163H12.7966C13.5097 92.7163 14.1332 92.632 14.6643 92.4663C15.1955 92.3005 15.6545 92.0621 16.0355 91.7568C16.4165 91.4486 16.737 91.0851 16.9881 90.6635C17.2421 90.2419 17.4442 89.7767 17.6001 89.2649L19.1502 84.252C19.182 84.159 19.2108 84.0746 19.2426 84.002C19.2743 83.9293 19.3263 83.8682 19.3985 83.8217C19.4706 83.7752 19.5717 83.7374 19.7016 83.7112C19.8315 83.685 20.0047 83.6734 20.2212 83.6734C20.4059 83.6734 20.556 83.685 20.6715 83.7054C20.7841 83.7257 20.8765 83.7548 20.9428 83.7897C21.0092 83.8275 21.0525 83.8711 21.0756 83.9234C21.0958 83.9758 21.1074 84.0368 21.1074 84.1095C21.1074 84.2142 21.0901 84.3189 21.0525 84.4294C21.0179 84.5399 20.989 84.6446 20.9688 84.7492L19.4649 89.1835C19.257 89.797 19.0463 90.3378 18.8298 90.8002C18.6133 91.2625 18.365 91.6608 18.085 91.9952C17.805 92.3296 17.4817 92.6088 17.1151 92.8385C16.7485 93.0682 16.3155 93.2543 15.8219 93.3997V93.4316C16.3906 93.609 16.8842 93.8242 17.3027 94.0801C17.7213 94.3359 18.0937 94.6471 18.4199 95.0163C18.7461 95.3856 19.0319 95.8218 19.2801 96.3277C19.5284 96.8336 19.7651 97.4239 19.9931 98.1014L21.6212 102.989C21.6414 103.062 21.6616 103.129 21.6818 103.193C21.702 103.254 21.7194 103.315 21.7367 103.373C21.7511 103.431 21.7627 103.481 21.7684 103.521C21.7742 103.562 21.7771 103.6 21.7771 103.632L21.7684 103.623Z" fill="#003C77"/>
<path d="M28.1422 103.652C28.1422 103.713 28.1278 103.771 28.096 103.824C28.0643 103.876 28.0123 103.917 27.9401 103.949C27.868 103.981 27.7727 104.007 27.6544 104.027C27.536 104.048 27.383 104.059 27.1983 104.059C27.0222 104.059 26.8721 104.048 26.7479 104.027C26.6238 104.007 26.5257 103.981 26.4535 103.949C26.3813 103.917 26.3294 103.876 26.2976 103.824C26.2659 103.771 26.2514 103.713 26.2514 103.652V84.0688C26.2514 84.0078 26.2688 83.9496 26.3063 83.8973C26.3409 83.8449 26.3987 83.8042 26.4766 83.7722C26.5545 83.7403 26.6527 83.7141 26.771 83.6937C26.8894 83.6734 27.0308 83.6617 27.1983 83.6617C27.383 83.6617 27.536 83.6734 27.6544 83.6937C27.7727 83.7141 27.868 83.7403 27.9401 83.7722C28.0123 83.8042 28.0643 83.8449 28.096 83.8973C28.1278 83.9496 28.1422 84.0078 28.1422 84.0688V103.652Z" fill="#003C77"/>
<path d="M47.8005 103.652C47.8005 103.713 47.786 103.771 47.7543 103.824C47.7225 103.876 47.6706 103.917 47.5984 103.949C47.5262 103.981 47.4281 104.007 47.304 104.027C47.1798 104.048 47.0297 104.059 46.8536 104.059C46.6689 104.059 46.5159 104.048 46.3976 104.027C46.2792 104.007 46.1839 103.981 46.1118 103.949C46.0396 103.917 45.9876 103.876 45.9559 103.824C45.9241 103.771 45.9097 103.713 45.9097 103.652V94.2342H35.8929V103.652C35.8929 103.713 35.8785 103.771 35.8468 103.824C35.815 103.876 35.763 103.917 35.6909 103.949C35.6187 103.981 35.5234 104.007 35.4051 104.027C35.2867 104.048 35.1337 104.059 34.949 104.059C34.7729 104.059 34.6228 104.048 34.4987 104.027C34.3745 104.007 34.2764 103.981 34.2042 103.949C34.1321 103.917 34.0801 103.876 34.0484 103.824C34.0166 103.771 34.0022 103.713 34.0022 103.652V84.0688C34.0022 84.0078 34.0166 83.9496 34.0484 83.8973C34.0801 83.8449 34.1321 83.8042 34.2042 83.7722C34.2764 83.7403 34.3745 83.7141 34.4987 83.6937C34.6228 83.6734 34.7729 83.6617 34.949 83.6617C35.1337 83.6617 35.2867 83.6734 35.4051 83.6937C35.5234 83.7141 35.6187 83.7403 35.6909 83.7722C35.763 83.8042 35.815 83.8449 35.8468 83.8973C35.8785 83.9496 35.8929 84.0078 35.8929 84.0688V92.5331H45.9097V84.0688C45.9097 84.0078 45.9241 83.9496 45.9559 83.8973C45.9876 83.8449 46.0396 83.8042 46.1118 83.7722C46.1839 83.7403 46.2792 83.7141 46.3976 83.6937C46.5159 83.6734 46.6689 83.6617 46.8536 83.6617C47.0297 83.6617 47.1798 83.6734 47.304 83.6937C47.4281 83.7141 47.5262 83.7403 47.5984 83.7722C47.6706 83.8042 47.7225 83.8449 47.7543 83.8973C47.786 83.9496 47.8005 84.0078 47.8005 84.0688V103.652Z" fill="#003C77"/>
<path d="M66.1886 103.623C66.1886 103.696 66.1742 103.76 66.1424 103.809C66.1107 103.862 66.0616 103.905 65.9952 103.943C65.9288 103.978 65.8336 104.007 65.7152 104.027C65.5969 104.048 65.4496 104.059 65.2735 104.059C65.057 104.059 64.8838 104.048 64.7539 104.021C64.624 103.995 64.5201 103.96 64.4451 103.911C64.3671 103.864 64.3065 103.806 64.2661 103.739C64.2257 103.673 64.1882 103.591 64.1564 103.498L62.1704 98.3137C61.9221 97.6478 61.6334 97.0692 61.3015 96.5807C60.9695 96.0922 60.5885 95.6851 60.1555 95.3624C59.7225 95.0396 59.226 94.8012 58.6659 94.6441C58.1059 94.4871 57.4824 94.4086 56.7896 94.4086H55.5483V103.655C55.5483 103.716 55.5339 103.774 55.5021 103.827C55.4704 103.879 55.4184 103.92 55.3463 103.952C55.2741 103.984 55.1788 104.01 55.0605 104.03C54.9421 104.051 54.7891 104.062 54.6044 104.062C54.4283 104.062 54.2782 104.051 54.1541 104.03C54.0299 104.01 53.9318 103.984 53.8596 103.952C53.7875 103.92 53.7355 103.879 53.7037 103.827C53.672 103.774 53.6576 103.716 53.6576 103.655V84.0717C53.6576 84.0107 53.672 83.9525 53.7037 83.9002C53.7355 83.8478 53.7875 83.8071 53.8596 83.7752C53.9318 83.7432 54.0299 83.717 54.1541 83.6966C54.2782 83.6763 54.4283 83.6647 54.6044 83.6647C54.7891 83.6647 54.9421 83.6763 55.0605 83.6966C55.1788 83.717 55.2741 83.7432 55.3463 83.7752C55.4184 83.8071 55.4704 83.8478 55.5021 83.9002C55.5339 83.9525 55.5483 84.0107 55.5483 84.0717V92.7076H56.7896C57.4824 92.7076 58.0915 92.6233 58.6198 92.4575C59.148 92.2918 59.6099 92.0476 60.0082 91.7248C60.4066 91.4021 60.753 91.0008 61.0475 90.521C61.3419 90.0412 61.6017 89.4859 61.8297 88.8491L63.4261 84.2433C63.4578 84.1502 63.4896 84.0659 63.5271 83.9932C63.5646 83.9205 63.6195 83.8595 63.6974 83.813C63.7754 83.7664 63.8793 83.7286 64.0063 83.7025C64.1362 83.6763 64.3094 83.6647 64.5259 83.6647C64.7106 83.6647 64.8608 83.6763 64.9762 83.6966C65.0888 83.717 65.1812 83.7461 65.2476 83.781C65.314 83.8188 65.3573 83.8624 65.3804 83.9147C65.4006 83.9671 65.4121 84.0281 65.4121 84.1008C65.4121 84.2055 65.4006 84.3102 65.3746 84.4207C65.3486 84.5312 65.314 84.6358 65.2735 84.7405L63.5531 89.2852C63.325 89.8988 63.0912 90.4338 62.8487 90.8874C62.6063 91.341 62.3378 91.7306 62.0434 92.0592C61.7489 92.3878 61.4227 92.6611 61.0677 92.8792C60.7097 93.0972 60.3056 93.2688 59.8495 93.3938V93.4258C60.3662 93.5916 60.8252 93.7951 61.2293 94.0335C61.6334 94.272 62.0001 94.5656 62.3291 94.9175C62.6611 95.2664 62.9613 95.6764 63.2356 96.1503C63.5098 96.6243 63.7696 97.1826 64.0178 97.8281L66.0501 102.981C66.1107 103.158 66.1511 103.292 66.1655 103.379C66.18 103.466 66.1886 103.548 66.1886 103.62V103.623Z" fill="#003C77"/>
<path d="M84.9029 103.652C84.9029 103.713 84.8885 103.771 84.8567 103.824C84.825 103.876 84.773 103.917 84.7009 103.949C84.6287 103.981 84.5305 104.007 84.4064 104.027C84.2823 104.048 84.1322 104.059 83.9561 104.059C83.78 104.059 83.6299 104.048 83.5058 104.027C83.3816 104.007 83.2835 103.981 83.2113 103.949C83.1392 103.917 83.0872 103.876 83.0554 103.824C83.0237 103.771 83.0093 103.713 83.0093 103.652V88.9712C83.0093 88.6892 83.015 88.3897 83.0237 88.064C83.0352 87.7413 83.0497 87.4447 83.0699 87.1743H83.0381C82.966 87.3109 82.8822 87.4563 82.7899 87.6104C82.6975 87.7645 82.5993 87.9244 82.4954 88.0873C82.3915 88.2501 82.2876 88.41 82.1866 88.5729C82.0826 88.7328 81.9845 88.8927 81.8921 89.0497L72.2795 103.667C72.2391 103.728 72.1929 103.786 72.1409 103.838C72.089 103.891 72.0283 103.931 71.9562 103.963C71.884 103.995 71.7974 104.019 71.6993 104.033C71.6011 104.048 71.4799 104.056 71.3355 104.056C71.1797 104.056 71.0526 104.045 70.9545 104.024C70.8564 104.004 70.7784 103.975 70.7207 103.94C70.6629 103.902 70.6225 103.856 70.5965 103.8C70.5706 103.742 70.559 103.673 70.559 103.591V84.0688C70.559 84.0078 70.5763 83.9496 70.6139 83.8973C70.6485 83.8449 70.7062 83.8042 70.7842 83.7722C70.8621 83.7403 70.9603 83.7141 71.0786 83.6937C71.197 83.6734 71.3384 83.6617 71.5059 83.6617C71.6906 83.6617 71.8436 83.6734 71.9619 83.6937C72.0803 83.7141 72.1756 83.7403 72.2477 83.7722C72.3199 83.8042 72.3719 83.8449 72.4036 83.8973C72.4354 83.9496 72.4498 84.0078 72.4498 84.0688V98.8429C72.4498 99.1046 72.4498 99.3779 72.4411 99.6716C72.4354 99.9623 72.4238 100.244 72.4036 100.515H72.4354C72.5797 100.285 72.7529 100.006 72.955 99.6716C73.157 99.3372 73.3649 99.0057 73.5843 98.6713L83.1825 84.0368C83.2229 83.9758 83.2691 83.9205 83.321 83.874C83.373 83.8275 83.4336 83.7897 83.5058 83.7577C83.5779 83.7257 83.6645 83.7024 83.7627 83.6879C83.8608 83.6734 83.9821 83.6647 84.1264 83.6647C84.2823 83.6647 84.4093 83.6763 84.5074 83.6966C84.6056 83.717 84.6835 83.7461 84.7384 83.781C84.7961 83.8188 84.8365 83.8624 84.8625 83.9147C84.8885 83.9671 84.9 84.0281 84.9 84.1008V103.655L84.9029 103.652Z" fill="#003C77"/>
<path d="M109.495 89.5498C109.495 90.4861 109.336 91.3468 109.021 92.1261C108.706 92.9082 108.253 93.5799 107.664 94.1411C107.075 94.7023 106.357 95.1414 105.508 95.4525C104.659 95.7636 103.637 95.9206 102.439 95.9206H99.8357V103.652C99.8357 103.713 99.8213 103.771 99.7895 103.824C99.7578 103.876 99.7058 103.917 99.6336 103.949C99.5615 103.981 99.4662 104.007 99.3479 104.027C99.2295 104.048 99.0765 104.059 98.8918 104.059C98.7157 104.059 98.5656 104.048 98.4414 104.027C98.3173 104.007 98.2192 103.981 98.147 103.949C98.0748 103.917 98.0229 103.876 97.9911 103.824C97.9594 103.771 97.9449 103.713 97.9449 103.652V84.7405C97.9449 84.3654 98.0431 84.1095 98.2394 83.9671C98.4357 83.8275 98.6262 83.7577 98.8138 83.7577H102.893C103.297 83.7577 103.689 83.7752 104.07 83.813C104.451 83.8508 104.899 83.9264 105.413 84.0485C105.924 84.1677 106.446 84.3916 106.977 84.7202C107.508 85.0487 107.962 85.45 108.334 85.9239C108.706 86.3979 108.992 86.9387 109.194 87.5493C109.396 88.1571 109.497 88.8287 109.497 89.5557L109.495 89.5498ZM107.494 89.7214C107.494 88.8462 107.324 88.1047 106.983 87.497C106.642 86.8893 106.227 86.4357 105.736 86.1391C105.245 85.8425 104.734 85.6535 104.2 85.5779C103.669 85.4994 103.164 85.4616 102.688 85.4616H99.8357V94.24H102.564C103.441 94.24 104.177 94.1295 104.766 93.9027C105.355 93.6788 105.852 93.3706 106.256 92.9722C106.66 92.5768 106.966 92.0999 107.179 91.5445C107.39 90.9863 107.497 90.3815 107.497 89.7243L107.494 89.7214Z" fill="#003C77"/>
<path d="M130.206 93.6265C130.206 95.2402 130.022 96.6999 129.655 98.0084C129.288 99.3139 128.737 100.428 128.004 101.349C127.271 102.271 126.344 102.981 125.23 103.481C124.116 103.981 122.811 104.231 121.321 104.231C119.832 104.231 118.553 103.995 117.485 103.521C116.414 103.047 115.536 102.37 114.849 101.492C114.162 100.611 113.657 99.5378 113.331 98.2671C113.005 96.9965 112.843 95.5659 112.843 93.9725C112.843 92.379 113.025 90.9543 113.386 89.6632C113.747 88.3722 114.298 87.2702 115.037 86.3601C115.776 85.45 116.703 84.7434 117.814 84.2433C118.925 83.7432 120.23 83.4931 121.728 83.4931C123.226 83.4931 124.448 83.7286 125.513 84.1968C126.578 84.6649 127.458 85.3366 128.157 86.2118C128.855 87.087 129.372 88.1483 129.707 89.3986C130.042 90.649 130.212 92.0592 130.212 93.6323L130.206 93.6265ZM128.192 93.798C128.192 92.6 128.082 91.4777 127.86 90.4309C127.637 89.3841 127.271 88.474 126.76 87.6976C126.249 86.9213 125.568 86.3136 124.722 85.8687C123.873 85.4267 122.825 85.2057 121.575 85.2057C120.325 85.2057 119.289 85.4384 118.435 85.9007C117.58 86.363 116.89 86.9852 116.356 87.7674C115.825 88.5496 115.441 89.4597 115.21 90.5007C114.976 91.5416 114.861 92.6407 114.861 93.7951C114.861 95.0251 114.968 96.1678 115.178 97.2233C115.389 98.2788 115.75 99.1976 116.255 99.9798C116.76 100.762 117.439 101.373 118.287 101.815C119.136 102.257 120.195 102.477 121.466 102.477C122.736 102.477 123.786 102.242 124.644 101.768C125.501 101.294 126.194 100.66 126.722 99.8635C127.25 99.0668 127.626 98.145 127.854 97.0982C128.082 96.0515 128.194 94.9495 128.194 93.7951L128.192 93.798Z" fill="#003C77"/>
<path d="M150.379 108.979C150.379 109.04 150.367 109.093 150.347 109.136C150.327 109.177 150.286 109.212 150.231 109.238C150.174 109.264 150.096 109.284 149.992 109.299C149.888 109.314 149.749 109.322 149.573 109.322C149.429 109.322 149.308 109.314 149.209 109.299C149.111 109.284 149.03 109.264 148.97 109.238C148.909 109.212 148.863 109.177 148.837 109.136C148.811 109.095 148.8 109.043 148.8 108.979V103.966H132.752V108.979C132.752 109.04 132.741 109.093 132.715 109.136C132.689 109.177 132.646 109.212 132.582 109.238C132.522 109.264 132.441 109.284 132.343 109.299C132.244 109.314 132.123 109.322 131.979 109.322C131.814 109.322 131.679 109.314 131.575 109.299C131.471 109.284 131.39 109.264 131.326 109.238C131.266 109.212 131.223 109.177 131.202 109.136C131.182 109.095 131.171 109.043 131.171 108.979V103.013C131.15 102.762 131.182 102.576 131.272 102.457C131.358 102.338 131.497 102.277 131.682 102.277H132.983C133.284 101.881 133.564 101.486 133.829 101.091C134.092 100.695 134.343 100.224 134.583 99.6774C134.819 99.1307 135.053 98.4678 135.281 97.6856C135.509 96.9034 135.734 95.9323 135.957 94.7663C136.179 93.6003 136.404 92.2017 136.632 90.5734C136.86 88.945 137.097 86.9998 137.345 84.7405C137.397 84.4061 137.492 84.159 137.631 83.999C137.77 83.8391 137.954 83.7577 138.182 83.7577H146.897C147.134 83.7577 147.33 83.8391 147.477 83.999C147.628 84.1619 147.703 84.409 147.703 84.7405V102.28H149.873C150.058 102.28 150.191 102.341 150.269 102.46C150.347 102.579 150.384 102.765 150.384 103.015V108.982L150.379 108.979ZM145.806 85.4907H139.155C138.918 87.6133 138.685 89.4597 138.457 91.027C138.229 92.5942 138.006 93.9463 137.79 95.0861C137.573 96.2259 137.357 97.1855 137.137 97.9676C136.918 98.7498 136.701 99.407 136.479 99.942C136.257 100.477 136.029 100.925 135.798 101.285C135.564 101.643 135.325 101.974 135.076 102.277H145.806V85.4878V85.4907Z" fill="#003C77"/>
<path d="M161.108 98.3137C160.612 99.5523 160.164 100.556 159.766 101.32C159.368 102.085 158.966 102.678 158.565 103.1C158.161 103.521 157.734 103.806 157.278 103.952C156.822 104.097 156.29 104.17 155.681 104.17C155.474 104.17 155.266 104.155 155.055 104.123C154.844 104.091 154.642 104.051 154.449 103.998C154.258 103.946 154.088 103.888 153.938 103.818C153.788 103.751 153.681 103.69 153.62 103.638C153.56 103.585 153.511 103.53 153.482 103.475C153.45 103.417 153.424 103.35 153.404 103.271C153.384 103.193 153.366 103.097 153.358 102.983C153.346 102.87 153.343 102.733 153.343 102.576C153.343 102.286 153.378 102.07 153.453 101.937C153.525 101.803 153.623 101.733 153.747 101.733C153.831 101.733 153.926 101.765 154.033 101.826C154.143 101.887 154.273 101.96 154.429 102.038C154.584 102.117 154.772 102.187 154.994 102.248C155.217 102.309 155.482 102.341 155.794 102.341C156.083 102.341 156.348 102.309 156.585 102.248C156.822 102.187 157.053 102.047 157.275 101.835C157.497 101.623 157.731 101.317 157.973 100.922C158.216 100.526 158.487 99.9914 158.787 99.3139L151.346 84.4003C151.273 84.2433 151.236 84.1183 151.23 84.0252C151.224 83.9322 151.256 83.8595 151.322 83.8071C151.389 83.7548 151.496 83.7199 151.64 83.6966C151.784 83.6763 151.972 83.6647 152.197 83.6647C152.382 83.6647 152.538 83.6763 152.662 83.6966C152.786 83.717 152.89 83.7461 152.971 83.781C153.054 83.8188 153.118 83.8624 153.164 83.9147C153.21 83.9671 153.254 84.0281 153.297 84.1008L157.281 92.1581C157.737 93.0653 158.164 93.9318 158.568 94.7575C158.972 95.5862 159.359 96.4062 159.731 97.2175H159.792C160.101 96.3859 160.421 95.5426 160.753 94.6878C161.085 93.8329 161.46 92.8821 161.885 91.8295L164.953 84.0688C164.985 83.9961 165.02 83.9351 165.063 83.8827C165.103 83.8304 165.164 83.7897 165.242 83.7577C165.32 83.7257 165.427 83.7025 165.56 83.6879C165.692 83.6734 165.868 83.6647 166.088 83.6647C166.307 83.6647 166.48 83.6763 166.616 83.7025C166.749 83.7286 166.85 83.7664 166.911 83.8188C166.971 83.8711 167.003 83.9322 167.003 84.0049C167.003 84.0776 166.983 84.1677 166.942 84.2695L161.111 98.3108L161.108 98.3137Z" fill="#003C77"/>
</g>
<defs>
<clipPath id="clip0_246_1288">
<rect width="167" height="120" fill="white"/>
</clipPath>
</defs>
</svg>
