<svg width="36" height="36" viewBox="0 0 36 36" fill="none" xmlns="http://www.w3.org/2000/svg">
<path d="M11.25 12.6L15.0046 15.1031C16.4565 16.071 17.1825 16.555 18 16.555C18.8175 16.555 19.5434 16.071 20.9954 15.1031L24.75 12.6M15.84 27.9H21.06C24.0843 27.9 25.5964 27.9 26.7515 27.3114C27.7676 26.7937 28.5937 25.9676 29.1114 24.9515C29.7 23.7964 29.7 22.2843 29.7 19.26V16.74C29.7 13.7157 29.7 12.2036 29.1114 11.0484C28.5937 10.0324 27.7676 9.20628 26.7515 8.68856C25.5964 8.1 24.0843 8.1 21.06 8.1H15.84C12.8157 8.1 10.4036 8.1 9.24844 8.68856C8.23236 9.20628 7.40627 10.0324 6.88855 11.0484C6.29999 12.2036 6.29999 13.7157 6.29999 16.74V19.26C6.29999 22.2843 6.29999 23.7964 6.88855 24.9515C7.40627 25.9676 8.23236 26.7937 9.24844 27.3114C10.4036 27.9 12.8157 27.9 15.84 27.9Z" stroke="black" stroke-width="2" stroke-linecap="round"/>
</svg>
