<svg width="265" height="277" viewBox="0 0 265 277" fill="none" xmlns="http://www.w3.org/2000/svg">
<path d="M175.714 93.0852C183.715 92.2793 191.808 93.6676 199.101 97.0989C206.393 100.53 212.602 105.868 217.047 112.527L217.047 112.528C221.344 118.996 223.978 126.389 224.72 134.059C225.462 141.729 224.291 149.445 221.309 156.532L221.302 156.546C215.885 169.82 207.403 181.643 196.525 191.077C181.142 203.759 164.334 214.663 146.424 223.579L146.35 223.615L146.281 223.661C135.005 230.927 122.922 236.905 110.264 241.485C102.7 243.936 94.505 243.852 86.9453 241.245C81.5157 238.723 76.9445 234.689 73.7997 229.645L73.7744 229.605L73.7456 229.565C71.1584 225.952 68.7272 221.541 66.5346 217.352C64.3717 213.219 62.4031 209.224 60.8187 206.643L60.801 206.615L60.7821 206.586L59.5471 204.743C46.9059 185.655 37.5688 164.637 31.925 142.558C28.8107 125.216 32.6493 107.418 42.6285 92.9371C52.925 79.1063 68.3809 69.8948 85.6339 67.3193L85.6595 67.3159L85.6844 67.3113C91.716 66.2018 97.9449 66.566 103.829 68.3729C109.698 70.1751 115.046 73.3575 119.41 77.6438C123.618 82.3199 126.948 87.6959 129.24 93.5159L129.244 93.5272L129.248 93.5376C131.146 98.1486 132.567 102.933 133.49 107.818L133.901 109.998L135.771 108.804C141.937 104.867 148.364 101.34 155.009 98.2445L155.008 98.2432C161.494 95.2724 168.495 93.5252 175.654 93.0894L175.684 93.0875L175.714 93.0852ZM110.583 85.666C106.948 82.5877 102.5 80.5991 97.7681 79.9411C92.9105 79.2657 87.9692 80.0224 83.5665 82.1193C73.6143 85.6026 65.1233 92.237 59.4113 101.003L59.2966 101.18L59.0782 101.892C52.7781 113.124 51.164 126.373 54.5791 138.839L54.5808 138.847C60.2492 159.101 69.3394 178.289 81.4635 195.602L95.3377 219.57L95.6328 220.08L96.1958 220.253C97.3089 220.595 98.3239 220.772 99.3745 220.736C100.422 220.701 101.418 220.455 102.493 220.06C103.55 219.672 104.744 219.116 106.174 218.433C107.621 217.741 109.346 216.899 111.536 215.898C120.402 211.842 128.907 206.678 134.432 203.618C151.283 195.844 167.226 186.301 181.988 175.153L182.017 175.129C190.766 168.169 197.89 159.433 202.917 149.508L203.397 148.544C205.528 144.185 206.528 139.364 206.308 134.511C206.089 129.659 204.656 124.928 202.141 120.74L202.136 120.732L202.132 120.724L201.883 120.33C199.285 116.28 195.67 112.959 191.393 110.692C187.117 108.425 182.328 107.294 177.498 107.404L177.031 107.418C171.549 107.523 166.144 108.652 161.101 110.745L161.098 110.746C152.638 114.278 144.453 118.413 136.606 123.116C135.524 123.749 134.266 124.041 132.999 123.948L132.802 123.934L132.609 123.97C131.886 124.108 131.141 124.101 130.417 123.949C129.693 123.797 129.006 123.504 128.397 123.087C127.788 122.669 127.269 122.138 126.872 121.523C126.475 120.909 126.207 120.225 126.083 119.513L126.081 119.499L126.078 119.486C124.624 111.947 122.302 104.59 119.158 97.5596L119.149 97.5406L119.141 97.5226L118.749 96.7303C116.753 92.7892 114.139 89.1787 111.004 86.0343L110.969 86L110.932 85.9672L110.583 85.666Z" fill="#FED33F" stroke="white" stroke-width="3"/>
<path d="M163.521 117.984C165.263 120.844 167.838 126.831 170.824 131.03C172.689 134.043 175.405 136.447 178.632 137.94C183.085 139.487 187.921 139.529 192.387 138.061C199.598 135.426 206.483 131.989 212.91 127.816C223.084 122.708 232.636 116.465 241.381 109.208C247.638 103.752 252.522 96.9181 255.647 89.2474C257.393 85.0914 258.084 80.5692 257.66 76.0765C257.236 71.5837 255.711 67.2572 253.217 63.4755C250.63 59.5707 247.013 56.4443 242.762 54.4395C238.512 52.4347 233.793 51.6291 229.123 52.1111C224.978 52.373 220.921 53.3996 217.16 55.1385C213.373 56.9185 209.71 58.9458 206.194 61.207C205.669 58.3785 204.856 55.6088 203.768 52.9405C202.441 49.5373 200.509 46.3963 198.064 43.6677C195.506 41.1338 192.366 39.2557 188.918 38.1968C185.469 37.1378 181.817 36.9301 178.277 37.5916C168.315 39.1062 159.38 44.4732 153.418 52.5224C147.63 60.9483 145.391 71.3001 147.179 81.3757C150.465 94.4126 155.994 106.798 163.521 117.984ZM164.273 58.0437C167.412 53.2076 172.076 49.5439 177.542 47.6222C179.887 46.4856 182.524 46.0696 185.116 46.4271C187.708 46.7847 190.138 47.8996 192.096 49.6299C193.913 51.4626 195.406 53.5855 196.512 55.909C198.252 59.8367 199.535 63.9471 200.336 68.1601C200.424 68.6776 200.617 69.1727 200.901 69.6161C201.185 70.0595 201.556 70.4422 201.991 70.7416C202.427 71.041 202.918 71.251 203.435 71.3591C203.952 71.4673 204.486 71.4715 205.004 71.3714C205.888 71.4348 206.77 71.2283 207.53 70.7797C211.931 68.1211 216.521 65.7829 221.264 63.7831C224.019 62.6288 226.972 62.0043 229.966 61.9426C232.631 61.8317 235.281 62.4342 237.638 63.6873C239.995 64.9403 241.973 66.7977 243.364 69.0651C244.707 71.3191 245.469 73.8655 245.581 76.4772C245.694 79.0889 245.153 81.6845 244.009 84.0324C241.204 89.7828 237.154 94.8426 232.148 98.852C223.845 105.166 214.879 110.573 205.404 114.982C202.242 116.746 197.485 119.661 192.504 121.96C187.522 124.26 186.711 125.105 184.442 124.408L176.624 110.794C169.843 101.05 164.768 90.2436 161.613 78.8337C159.75 71.9466 160.663 64.622 164.158 58.4186L164.273 58.0437Z" fill="white"/>
</svg>
