<svg width="244" height="230" viewBox="0 0 244 230" fill="none" xmlns="http://www.w3.org/2000/svg">
<path d="M212.582 79.5493C204.182 40.7493 155.082 60.7159 131.582 75.5493C124.582 44.0492 107.582 29.5493 87.0825 28.0493C66.5825 26.5493 44.0825 59.5493 36.5825 90.0493C30.5825 114.449 72.4158 169.216 94.0825 193.549L176.082 153.049C191.749 144.716 220.982 118.349 212.582 79.5493Z" fill="#FED33F"/>
<path d="M179.804 44.8613C187.893 44.0262 196.07 45.4218 203.434 48.8954C210.799 52.3691 217.066 57.7855 221.547 64.5483L221.547 64.5473C225.88 71.12 228.53 78.6383 229.265 86.4427C230.001 94.248 228.801 102.104 225.769 109.323L225.761 109.343C220.226 122.928 211.577 135.034 200.497 144.702C184.787 157.737 167.629 168.951 149.351 178.129L149.252 178.178L149.159 178.239C137.664 185.702 125.35 191.85 112.453 196.567C104.824 199.071 96.5637 199.007 88.9476 196.385C83.4988 193.843 78.9143 189.773 75.7634 184.681L75.73 184.626L75.6929 184.574L75.2037 183.875C72.7695 180.334 70.4742 176.124 68.3829 172.094C66.1919 167.873 64.1749 163.743 62.5506 161.077L62.5268 161.038L62.5015 161L61.2462 159.113C48.4 139.571 38.9241 118.045 33.2148 95.4236C30.0969 77.7361 34.0303 59.5716 44.1819 44.778C54.6568 30.6501 70.3528 21.2263 87.8552 18.5653L87.8884 18.5602L87.9219 18.5541C94.0107 17.4162 100.295 17.773 106.23 19.5951C112.145 21.4115 117.531 24.6286 121.924 28.9666C126.171 33.7174 129.528 39.1817 131.836 45.0995L131.841 45.1133L131.847 45.1274C133.765 49.8323 135.198 54.7163 136.125 59.703L136.669 62.6296L139.173 61.0193C145.46 56.9759 152.01 53.3497 158.782 50.1662L158.782 50.1674C165.364 47.1238 172.466 45.326 179.725 44.8675L179.764 44.8653L179.804 44.8613ZM113.531 36.5663C109.756 33.3524 105.131 31.2797 100.208 30.6006C95.1644 29.9048 90.0313 30.7031 85.4538 32.896C75.1911 36.5307 66.4302 43.4266 60.527 52.5226L60.3744 52.7567L60.1457 53.5017C53.6494 65.1482 51.9672 78.8672 55.4581 91.7685L55.4611 91.7786C61.2235 112.62 70.4898 132.359 82.8654 150.162L96.9806 174.742L97.3741 175.427L98.1284 175.659C99.2996 176.018 100.391 176.211 101.533 176.17C102.67 176.129 103.738 175.858 104.866 175.439C105.971 175.029 107.21 174.447 108.67 173.743C110.153 173.028 111.912 172.162 114.147 171.131C123.226 166.94 131.95 161.604 137.578 158.461C154.832 150.427 171.161 140.576 186.285 129.076L186.305 129.061L186.324 129.044C195.616 121.602 203.134 112.209 208.341 101.534L208.342 101.533C210.56 96.9832 211.607 91.9538 211.389 86.8938C211.171 81.8339 209.695 76.9024 207.095 72.5388L207.081 72.5163L206.824 72.1054C204.135 67.8823 200.388 64.4199 195.951 62.061C191.383 59.6325 186.249 58.4615 181.083 58.6691C175.411 58.786 169.817 59.9684 164.598 62.1555L164.594 62.1574C155.925 65.812 147.537 70.0855 139.494 74.9435C138.468 75.5484 137.277 75.8279 136.08 75.7421L135.817 75.7237L135.557 75.7737C134.88 75.9043 134.183 75.8993 133.505 75.7577C132.913 75.6338 132.347 75.4078 131.834 75.0911L131.617 74.9489C131.048 74.5574 130.563 74.0577 130.192 73.4797C129.822 72.9018 129.572 72.2576 129.457 71.5857L129.453 71.5682L129.45 71.551L129.163 70.0948C127.674 62.8265 125.404 55.7325 122.392 48.9359L122.381 48.9112L122.369 48.887L121.967 48.0647C119.913 43.9759 117.221 40.2313 113.99 36.9718L113.944 36.925L113.894 36.8811L113.531 36.5663Z" fill="white" stroke="#FED33F" stroke-width="4"/>
</svg>
