<svg width="318" height="111" viewBox="0 0 318 111" fill="none" xmlns="http://www.w3.org/2000/svg">
<path d="M108.295 82.4388C121.392 84.1179 134.547 85.7023 147.751 86.5937C166.378 87.8403 185.254 87.8445 203.815 84.6853C218.144 82.2205 232.386 77.9862 245.11 70.5716C250.864 67.1872 256.889 63.661 261.791 58.1863C266.969 53.1362 269.011 42.9623 264.614 36.217C247.935 10.7461 217.298 8.36841 192.245 3.74653C154.442 -2.23881 115.832 -0.918496 78.7667 6.74811C51.9744 12.9062 21.4292 18.2701 3.14533 42.8393C-0.718875 48.0787 -1.32333 56.6731 3.02869 62.145C7.18826 67.7668 12.2164 70.7096 17.7259 73.6575C28.4231 79.0765 39.3945 82.3586 50.6118 85.334C73.045 91.1047 95.6487 94.7309 118.305 97.8317C163.641 103.887 209.203 107.365 254.597 110.056C262.396 110.513 270.144 110.8 277.745 110.923C290.815 111.179 304.503 110.775 317.224 110.445C304.575 108.252 290.902 106.927 277.878 105.74C270.3 105.073 262.574 104.513 254.79 104.058C209.487 101.372 164.03 97.8986 118.951 91.877C96.4372 88.798 73.9799 85.1838 51.9749 79.5206C40.9992 76.6194 30.2609 73.359 20.3586 68.331C10.4891 63.5028 1.48884 54.9639 8.18914 46.2136C23.7694 24.7968 53.6498 18.4862 80.1264 12.6338C116.518 5.1047 154.434 3.81654 191.46 9.68075C216.366 13.9192 246.049 17.8061 259.383 39.0086C266.141 49.8417 252.85 59.2808 241.997 65.3574C230.085 72.3041 216.511 76.3816 202.655 78.7619C184.72 81.8177 166.268 82.5187 147.769 82.6453C134.664 82.7295 121.46 82.4608 108.295 82.4388Z" fill="white"/>
</svg>
