<svg width="251" height="125" viewBox="0 0 251 125" fill="none" xmlns="http://www.w3.org/2000/svg">
<path d="M51.8294 109.672C51.8294 109.672 51.8294 109.672 51.8294 109.672C63.6324 111.712 75.6026 112.956 87.6201 113.36C95.2095 113.615 102.816 113.534 110.414 113.103C146.93 110.984 183.677 104.477 217.918 90.1862C225.646 86.9082 233.525 83.2952 240.359 77.4365C247.282 71.9688 252.155 61.4018 249.315 52.3144C239.903 26.0126 211.763 20.1344 189.415 14.4654C152.073 6.52031 113.172 7.82739 75.707 14.863C59.0788 17.9886 42.436 22.2169 26.6835 29.2005C20.9494 31.7675 15.2946 34.7288 10.107 38.7411C5.20501 42.6492 -0.72581 48.4324 0.0727713 56.7115C3.26866 69.5285 13.7607 73.9124 22.2145 79.1761C41.3904 89.6473 62.5912 94.7097 83.3878 99.2636C108.724 104.763 134.383 108.663 160.117 111.638C167.148 112.452 174.204 113.059 181.275 113.475C193.229 114.178 205.225 114.333 217.247 114.011C205.462 111.826 193.668 109.954 181.865 108.325C174.883 107.361 167.898 106.482 160.905 105.674C135.311 102.715 109.847 98.8415 84.7525 93.3947C64.0799 88.8827 43.3588 83.8532 25.1745 73.9049C17.0926 69.3374 7.43202 63.2637 6.02962 55.926C5.52211 46.5927 18.8231 39.3465 29.0359 34.6823C44.1488 27.979 60.3482 23.8374 76.7133 20.7639C113.578 13.8398 151.68 12.5938 188.075 20.3397C209.849 25.4409 236.652 32.9679 243.504 53.8917C247.908 68.9533 229.998 78.8019 215.682 84.6541C182.31 98.5884 146.185 105.024 110.176 107.109C102.684 107.534 95.19 107.911 87.6768 108.255C75.7805 108.8 63.8411 109.264 51.8294 109.672Z" fill="white"/>
<path d="M185.392 8.35808C183.598 7.76202 181.794 7.19847 179.977 6.6667C164.487 2.12918 148.219 -0.0393727 131.962 0.000585583C113.881 0.0389662 95.8212 2.6089 78.3683 7.26613C76.5258 7.7576 74.6896 8.27233 72.8605 8.80973C74.7536 8.64785 76.6449 8.49181 78.5342 8.34195C96.4372 6.92386 114.171 6.04555 131.87 6.00483C147.792 5.97169 163.689 6.47758 179.738 7.84114C181.621 8.00139 183.504 8.17324 185.392 8.35808Z" fill="white"/>
</svg>
