<svg width="31" height="31" viewBox="0 0 31 31" fill="none" xmlns="http://www.w3.org/2000/svg">
<path d="M16.0283 7.52266L12.3819 11.0902C11.8976 11.5747 11.6255 12.2317 11.6255 12.9167C11.6255 13.6017 11.8976 14.2586 12.3819 14.7431C12.8664 15.2274 13.5233 15.4994 14.2083 15.4994C14.8933 15.4994 15.5503 15.2274 16.0347 14.7431L18.2435 12.5343C18.5326 12.2451 18.8758 12.0157 19.2536 11.8592C19.6313 11.7027 20.0362 11.6221 20.4451 11.6221C20.8541 11.6221 21.259 11.7027 21.6367 11.8592C22.0145 12.0157 22.3577 12.2451 22.6468 12.5343L25.0764 14.9652C25.5607 15.4497 25.8328 16.1067 25.8328 16.7917C25.8328 17.4767 25.5607 18.1336 25.0764 18.6181C27.125 16.5695 28.4167 14.8542 28.4167 12.2708C28.4166 10.8335 27.9806 9.42992 27.1662 8.24556C26.3517 7.06121 25.1972 6.15176 23.855 5.63735C22.5128 5.12293 21.0462 5.02774 19.6488 5.36435C18.2514 5.70095 16.989 6.45353 16.0283 7.52266ZM25.0764 18.6181C24.8216 18.8729 24.5192 19.075 24.1863 19.2129C23.8534 19.3508 23.4966 19.4218 23.1363 19.4218C22.776 19.4218 22.4192 19.3508 22.0863 19.2129C21.7535 19.075 21.451 18.8729 21.1962 18.6181C21.4721 18.8675 21.6943 19.1704 21.8495 19.5084C22.0046 19.8463 22.0895 20.2123 22.0988 20.5841C22.1081 20.9559 22.0418 21.3256 21.9038 21.671C21.7658 22.0163 21.5591 22.33 21.2961 22.5929C21.0331 22.8559 20.7195 23.0627 20.3741 23.2006C20.0288 23.3386 19.659 23.405 19.2873 23.3956C18.9155 23.3863 18.5495 23.3015 18.2115 23.1463C17.8736 22.9912 17.5707 22.7689 17.3212 22.4931C17.5762 22.7471 17.7786 23.0488 17.9169 23.3811C18.0552 23.7134 18.1266 24.0696 18.1271 24.4295C18.1276 24.7894 18.0571 25.1459 17.9197 25.4785C17.7823 25.8111 17.5807 26.1134 17.3264 26.3681C17.081 26.6136 16.7885 26.8071 16.4666 26.9371C16.1447 27.0671 15.7999 27.1309 15.4528 27.1246C15.1057 27.1183 14.7634 27.0421 14.4464 26.9006C14.1294 26.7591 13.8441 26.5551 13.6077 26.3009L6.45833 19.375C4.52083 17.4375 2.58333 15.2417 2.58333 12.2708C2.58362 10.8336 3.01984 9.43021 3.83438 8.24606C4.64893 7.0619 5.80349 6.15266 7.14559 5.63841C8.4877 5.12415 9.95422 5.02907 11.3515 5.36571C12.7488 5.70236 14.0111 6.4549 14.9717 7.52396C15.1153 7.65743 15.3042 7.73151 15.5002 7.73127C15.6963 7.73103 15.885 7.65649 16.0283 7.52266" stroke="#003C77" stroke-width="2" stroke-linecap="round" stroke-linejoin="round"/>
</svg>
