<svg width="368" height="499" viewBox="0 0 368 499" fill="none" xmlns="http://www.w3.org/2000/svg">
<path d="M346.632 282.988C341.288 279.595 335.622 277.846 330.544 277.634C326.161 277.475 321.886 276.52 318.091 274.453C315.044 272.81 311.944 271.378 308.791 270.106C311.891 267.933 314.937 265.813 317.984 263.745C321.672 261.201 326.215 259.928 330.651 260.671C336.691 261.678 344.334 260.3 351.55 256.377C364.217 249.433 370.845 237.294 366.302 229.183C361.812 221.126 347.915 220.172 335.248 227.116C327.284 231.463 321.725 237.877 319.801 244.026C318.572 247.948 315.792 251.182 312.265 253.355C308.844 255.476 305.156 257.755 301.842 259.823C295.535 263.745 288.32 266.025 280.89 266.714C275.385 267.244 269.88 267.986 264.428 269.099C264.909 266.979 265.443 264.911 266.031 262.844C267.849 256.43 272.178 250.811 278.218 247.948C283.456 245.457 288.64 240.633 292.435 234.113C299.651 221.656 298.902 207.873 290.885 203.262C282.868 198.65 270.468 205.011 263.252 217.468C259.243 224.359 257.693 231.675 258.495 237.612C259.083 242.17 258.067 246.835 256.197 251.076C255.021 253.779 253.952 256.483 252.936 259.186C249.783 267.774 243.262 274.612 234.924 278.429C233.267 279.171 231.61 279.966 229.953 280.814C218.782 286.327 208.627 293.642 199.594 302.177L199.167 270C199.006 259.186 202.16 248.532 208.413 239.679C219.37 224.253 232.84 209.782 245.881 196.689C247.004 195.628 248.073 194.568 249.195 193.455C256.25 186.67 265.39 182.27 275.118 181.104C282.333 180.256 289.549 179.673 296.711 179.62C303.98 179.567 311.142 182.8 315.418 188.684C318.946 193.455 325.039 197.696 332.575 200.028C346.365 204.269 359.834 200.611 362.56 191.812C365.34 183.012 356.36 172.41 342.57 168.17C335.515 165.996 328.513 165.89 323.008 167.48C319.32 168.541 315.525 169.018 311.73 168.488C300.827 166.897 289.121 167.109 277.95 167.905C284.311 162.763 294.947 155.129 302.484 149.828C307.187 146.542 312.906 145.323 318.572 145.906C324.451 146.489 331.56 144.899 338.294 141.082C350.801 133.926 357.215 121.628 352.565 113.623C347.915 105.619 334.018 104.983 321.458 112.139C314.296 116.274 309.111 122.052 306.92 127.724C305.103 132.441 301.575 136.258 297.139 138.749C292.275 141.506 286.342 144.899 282.547 147.337C282.226 140.128 282.173 132.865 282.494 125.709V125.285C282.761 121.044 285.273 117.44 288.908 115.213C294.68 111.662 299.49 103.975 301.201 94.4868C303.659 80.3864 298.261 67.6111 289.121 66.0209C279.982 64.4306 270.521 74.6083 268.062 88.7088C266.726 96.1831 267.635 103.286 270.147 108.534C271.269 110.867 271.75 113.411 271.376 116.009C271.002 118.924 270.628 121.84 270.254 124.861C269.292 135.304 269.025 145.694 269.238 156.136C268.918 156.349 268.543 156.614 268.223 156.826C259.297 163.081 250.638 169.548 242.193 176.386L241.765 164.088C241.605 158.946 243.155 153.857 246.309 149.722C249.943 144.952 252.188 137.901 252.188 130.003C252.188 115.691 244.652 104.028 235.352 104.028C226.051 104.028 218.515 115.637 218.515 130.003C218.515 137.901 220.813 144.952 224.395 149.722C227.548 153.857 229.098 158.893 228.938 164.088L228.296 182.588C228.189 186.193 226.533 189.585 223.86 192.024C216.11 198.968 208.627 206.23 201.412 213.811C200.343 214.924 199.327 216.037 198.311 217.203L196.815 108.11C196.708 100.212 199.862 92.6315 205.634 87.2245C209.643 83.4079 213.919 79.8033 218.301 76.3577C221.188 74.0783 224.715 72.8061 228.403 72.541C234.657 72.17 242.353 68.8304 249.248 63.0524C260.9 53.2987 265.818 40.1524 260.366 33.6853C254.861 27.2182 240.964 29.9216 229.365 39.7283C222.524 45.4533 218.034 52.3446 216.538 58.3876C215.682 61.9392 213.812 65.1197 211.086 67.5582C210.177 68.3533 209.322 69.1484 208.413 69.9436C202.801 74.8204 197.136 79.5382 190.989 83.6199C189.76 75.6686 189.653 67.6112 189.813 59.5007C189.813 58.3876 189.813 57.2214 189.92 56.1082C190.027 52.6626 191.203 49.323 193.287 46.5665C196.761 41.8487 199.06 34.3744 199.06 25.9459C199.06 11.2624 192.165 -0.61169 183.827 0.0244203C175.489 -0.558681 168.594 11.2624 168.594 25.9459C168.594 34.3744 170.839 41.8487 174.366 46.5665C176.451 49.376 177.627 52.6626 177.734 56.1082C177.734 57.2214 177.787 58.3876 177.84 59.5007C178.001 67.6112 177.894 75.6156 176.665 83.6199C170.518 79.5382 164.852 74.8204 159.24 69.9436C158.332 69.1484 157.423 68.3533 156.568 67.5582C153.842 65.1197 151.971 61.8862 151.116 58.3876C149.673 52.3446 145.13 45.4533 138.288 39.7283C126.636 29.9746 112.793 27.2712 107.288 33.6853C101.783 40.1524 106.753 53.2457 118.405 63.0524C125.3 68.8304 132.997 72.17 139.25 72.541C142.938 72.7531 146.413 74.0783 149.352 76.3577C153.735 79.8033 158.011 83.4079 162.02 87.2245C167.739 92.6845 170.946 100.265 170.839 108.11L169.342 217.203C168.327 216.09 167.258 214.977 166.242 213.811C159.026 206.23 151.49 198.968 143.794 192.024C141.068 189.585 139.464 186.193 139.357 182.588L138.716 164.088C138.555 158.946 140.106 153.857 143.259 149.722C146.894 144.952 149.138 137.901 149.138 130.003C149.138 115.691 141.602 104.028 132.302 104.028C123.002 104.028 115.466 115.637 115.466 130.003C115.466 137.901 117.764 144.952 121.345 149.722C124.498 153.857 126.048 158.893 125.888 164.088L125.461 176.386C117.016 169.601 108.357 163.081 99.4308 156.826C99.1101 156.614 98.736 156.349 98.4153 156.136C98.6825 145.694 98.4153 135.304 97.3998 124.861C97.0256 121.893 96.7049 118.924 96.2773 116.009C95.9032 113.464 96.3842 110.867 97.5067 108.534C100.019 103.286 100.927 96.1831 99.5912 88.7088C97.1325 74.6083 87.6721 64.4306 78.5323 66.0209C69.3925 67.6111 63.9407 80.3334 66.4528 94.4868C68.1097 103.975 72.9736 111.715 78.7461 115.213C82.3806 117.44 84.8927 121.044 85.16 125.285V125.709C85.4807 132.865 85.4272 140.128 85.16 147.337C81.3651 144.899 75.4322 141.506 70.5684 138.749C66.1856 136.258 62.6045 132.441 60.7872 127.724C58.5958 122.052 53.4112 116.221 46.2491 112.139C33.742 104.983 19.7918 105.619 15.1418 113.623C10.4917 121.628 16.8521 133.873 29.4127 141.082C36.1472 144.952 43.2559 146.542 49.1353 145.906C54.8544 145.323 60.5734 146.542 65.2235 149.828C72.7598 155.129 83.3961 162.763 89.7566 167.905C78.6392 167.109 66.8804 166.897 55.9768 168.488C52.1819 169.018 48.3871 168.541 44.6991 167.48C39.1938 165.89 32.2455 165.943 25.1367 168.17C11.3469 172.41 2.36746 183.012 5.1468 191.812C7.92615 200.611 21.3419 204.322 35.1317 200.028C42.668 197.696 48.7612 193.455 52.2888 188.684C56.5647 182.853 63.7269 179.567 70.996 179.62C78.1581 179.673 85.3738 180.256 92.5894 181.104C102.371 182.27 111.457 186.617 118.512 193.455C119.635 194.515 120.704 195.575 121.826 196.689C134.868 209.782 148.337 224.253 159.294 239.679C165.601 248.532 168.701 259.186 168.54 270L168.113 302.177C159.08 293.642 148.925 286.327 137.754 280.814C136.097 279.966 134.493 279.171 132.783 278.429C124.392 274.612 117.871 267.774 114.771 259.186C113.755 256.483 112.686 253.726 111.51 251.076C109.64 246.835 108.624 242.223 109.212 237.612C110.014 231.675 108.41 224.359 104.455 217.468C97.2394 205.011 84.8927 198.65 76.8219 203.262C68.7511 207.873 68.0563 221.656 75.2719 234.113C79.0668 240.633 84.2513 245.457 89.4893 247.948C95.5291 250.811 99.8584 256.43 101.676 262.844C102.264 264.911 102.798 266.979 103.279 269.099C97.8274 268.039 92.3221 267.244 86.8169 266.714C79.3875 266.025 72.1718 263.798 65.8649 259.823C62.551 257.755 58.863 255.476 55.4423 253.355C51.9147 251.182 49.1353 247.948 47.906 244.026C45.9818 237.877 40.4231 231.463 32.4592 227.116C19.7918 220.172 5.89509 221.126 1.40537 229.183C-3.08434 237.241 3.54334 249.433 16.1573 256.377C23.3729 260.353 30.9627 261.731 37.0559 260.671C41.4921 259.928 46.0353 261.201 49.7233 263.745C52.7699 265.866 55.8165 267.986 58.9165 270.106C55.763 271.378 52.6095 272.863 49.6164 274.453C45.768 276.52 41.4921 277.475 37.1628 277.634C32.1386 277.846 26.473 279.595 21.0746 282.988C9.52962 290.25 4.02439 302.124 8.7279 309.492C13.4314 316.86 26.6333 316.913 38.1783 309.651C44.3784 305.728 48.8146 300.534 50.8992 295.392C53.9457 287.917 59.932 281.98 67.8425 280.019L68.7511 279.807C72.2788 278.906 75.9667 278.747 79.6013 279.277C85.641 280.125 91.5738 281.291 97.3463 282.882C102.852 284.313 108.196 286.168 113.381 288.395C110.067 289.72 106.807 291.151 103.6 292.794C98.736 295.286 93.7118 297.459 88.3669 298.519C82.4875 299.685 76.0202 303.502 70.7287 309.386C61.1614 320.094 59.0234 333.77 65.9718 339.866C72.9201 345.962 86.3358 342.252 95.9567 331.544C100.286 326.72 103.119 321.26 104.241 316.171C105.845 309.068 110.922 303.237 117.924 301.17C118.512 301.011 119.1 300.852 119.688 300.693C126.904 298.678 134.707 300.11 140.48 304.88C144.969 308.591 149.192 312.62 153.094 316.966C162.501 327.462 167.578 341.086 167.418 355.133C167.044 380.949 153.361 405.28 130.378 417.419C118.619 423.674 105.31 426.748 90.4514 426.748C54.3733 426.748 41.9197 444.295 41.3852 445.037C39.2473 448.164 40.049 452.405 43.149 454.578C44.3784 455.426 45.768 455.85 47.1577 455.85C49.3491 455.85 51.4871 454.843 52.8768 452.988C53.2509 452.511 62.3372 440.637 90.398 440.637C95.3687 440.637 100.126 440.319 104.722 439.736C106.967 439.471 108.41 441.962 106.967 443.711L82.3271 473.98C79.8685 477.054 80.0823 481.825 83.2358 484.21C84.5186 485.165 86.0151 485.642 87.5117 485.642C89.5428 485.642 91.5738 484.74 92.9635 483.044L128.774 438.94C135.242 432.102 147 424.257 147 424.257C149.513 422.879 152.292 425.529 151.063 428.074C141.709 446.839 131.5 466.346 122.628 483.415C118.512 491.367 130.217 497.781 134.868 490.2C147.161 469.633 159.347 449.065 171.052 428.127C171.961 426.483 174.473 427.067 174.58 428.975L176.718 492.321C176.985 496.774 180.353 498.947 183.72 499H183.773C187.141 499 190.508 496.774 190.775 492.321L192.913 428.975C192.967 427.067 195.479 426.483 196.441 428.127C208.2 449.012 220.332 469.58 232.626 490.2C237.329 497.781 248.981 491.367 244.866 483.415C235.993 466.346 225.731 446.839 216.431 428.074C215.148 425.529 217.981 422.879 220.493 424.257C220.493 424.257 232.252 432.155 238.719 438.94L274.53 483.044C275.919 484.74 277.95 485.642 279.982 485.642C281.478 485.642 282.975 485.165 284.257 484.21C287.411 481.825 287.625 477.001 285.166 473.98L260.526 443.711C259.136 441.962 260.526 439.418 262.771 439.736C267.421 440.319 272.178 440.637 277.095 440.637C305.156 440.637 314.242 452.458 314.616 452.988C316.006 454.843 318.144 455.85 320.336 455.85C321.725 455.85 323.115 455.426 324.344 454.578C327.444 452.405 328.299 448.164 326.108 445.037C325.574 444.295 313.12 426.748 277.042 426.748C262.183 426.748 248.874 423.674 237.115 417.419C214.132 405.28 200.449 380.896 200.075 355.133C199.861 341.086 204.993 327.462 214.4 316.966C218.301 312.62 222.524 308.591 227.014 304.88C232.786 300.163 240.59 298.678 247.805 300.693C248.393 300.852 248.981 301.011 249.569 301.17C256.624 303.237 261.702 309.068 263.252 316.171C264.374 321.26 267.207 326.667 271.537 331.544C281.104 342.252 294.573 346.015 301.521 339.866C308.47 333.717 306.332 320.094 296.764 309.386C291.473 303.449 285.006 299.685 279.126 298.519C273.781 297.459 268.757 295.286 263.893 292.794C260.74 291.151 257.426 289.72 254.112 288.395C259.297 286.168 264.642 284.313 270.147 282.882C275.973 281.291 281.906 280.178 287.892 279.277C291.527 278.747 295.215 278.906 298.742 279.807L299.651 280.019C307.561 281.98 313.601 287.917 316.594 295.392C318.679 300.534 323.115 305.728 329.315 309.651C340.86 316.913 354.062 316.86 358.765 309.492C363.469 302.124 357.964 290.25 346.419 282.988H346.632Z" fill="white"/>
</svg>
