<svg width="54" height="54" viewBox="0 0 54 54" fill="none" xmlns="http://www.w3.org/2000/svg">
<path d="M17.1375 0.674805H36.1697L51.9753 16.4805V46.9697C51.9753 50.4417 48.9567 53.3252 45.1443 53.3252H16.9695C13.142 53.325 10.1248 50.4407 10.1248 46.9697V7.03027C10.1247 3.57769 13.2898 0.674923 17.1375 0.674805Z" fill="white" stroke="#DBDBDB" stroke-width="1.35"/>
<path d="M36.4846 11.016V0L52.65 16.2H41.873C37.0234 16.2 36.2601 12.744 36.4846 11.016Z" fill="#D4D4D8"/>
<rect x="1.34998" y="25.6499" width="34.8" height="20.4" rx="4.05" fill="#D92D20"/>
<path d="M7.61124 40.3499V31.5135H11.0975C11.7677 31.5135 12.3386 31.6415 12.8104 31.8975C13.2821 32.1506 13.6417 32.503 13.889 32.9546C14.1393 33.4033 14.2644 33.9211 14.2644 34.5078C14.2644 35.0946 14.1378 35.6124 13.8847 36.0611C13.6316 36.5098 13.2648 36.8593 12.7845 37.1096C12.307 37.3598 11.7288 37.4849 11.05 37.4849H8.82797V35.9878H10.748C11.1075 35.9878 11.4038 35.9259 11.6368 35.8022C11.8727 35.6757 12.0481 35.5016 12.1632 35.2802C12.2811 35.0558 12.3401 34.7984 12.3401 34.5078C12.3401 34.2144 12.2811 33.9584 12.1632 33.7398C12.0481 33.5184 11.8727 33.3472 11.6368 33.2264C11.4009 33.1027 11.1018 33.0409 10.7393 33.0409H9.47948V40.3499H7.61124ZM18.6103 40.3499H15.4779V31.5135H18.6362C19.525 31.5135 20.2901 31.6904 20.9316 32.0442C21.573 32.3951 22.0663 32.8999 22.4115 33.5586C22.7596 34.2173 22.9336 35.0055 22.9336 35.923C22.9336 36.8435 22.7596 37.6345 22.4115 38.2961C22.0663 38.9577 21.5702 39.4654 20.923 39.8192C20.2786 40.173 19.5078 40.3499 18.6103 40.3499ZM17.3461 38.7491H18.5327C19.0849 38.7491 19.5495 38.6513 19.9263 38.4557C20.306 38.2573 20.5907 37.9509 20.7806 37.5367C20.9733 37.1196 21.0697 36.5817 21.0697 35.923C21.0697 35.2701 20.9733 34.7365 20.7806 34.3223C20.5907 33.9081 20.3074 33.6032 19.9306 33.4076C19.5538 33.212 19.0892 33.1142 18.537 33.1142H17.3461V38.7491ZM24.3175 40.3499V31.5135H30.1681V33.0538H26.1857V35.1594H29.7798V36.6997H26.1857V40.3499H24.3175Z" fill="white"/>
</svg>
