<svg width="36" height="36" viewBox="0 0 36 36" fill="none" xmlns="http://www.w3.org/2000/svg">
<path d="M16.7356 10.1541L16.4585 9.68396C16.2715 9.36635 16.1781 9.20762 16.0824 9.08392C15.3767 8.17195 14.1199 7.85067 13.0315 8.30354C12.8838 8.36496 12.7199 8.45707 12.3918 8.64287C10.6107 9.754 10.7448 13.5462 10.8594 14.1081C10.8594 14.1081 10.8826 15.966 13.4659 20.3546C16.0492 24.7433 17.9547 26.1626 17.9547 26.1626C19.0388 27.0385 21.6748 28.5508 23.5464 27.5935C23.8745 27.4077 24.0384 27.3146 24.1664 27.22C25.1105 26.5219 25.455 25.2932 25.0026 24.2378C24.9413 24.0946 24.848 23.9357 24.661 23.6181L24.3843 23.1479C24.0833 22.6366 23.8839 22.2984 23.7007 22.0547C23.5444 21.847 23.3185 21.7037 23.0793 21.5889C22.0459 21.0929 20.0053 21.5623 18.9312 21.1487C18.82 21.1059 18.7114 21.0559 18.6057 20.9991C18.4977 20.9411 18.3943 20.8769 18.3011 20.7982C18.0113 20.5534 17.3267 19.9108 16.6959 18.8392C15.8794 17.4519 15.8139 16.4726 15.8123 16.4467V16.445C15.7953 16.1409 15.8249 15.8395 15.8964 15.5484C16.1603 14.4737 17.5072 12.9887 17.4907 11.8935C17.4882 11.7314 17.4729 11.569 17.4157 11.4182C17.3004 11.114 17.0877 10.7523 16.7356 10.1541Z" stroke="black" stroke-width="2"/>
</svg>
