<svg width="214" height="500" viewBox="0 0 214 500" fill="none" xmlns="http://www.w3.org/2000/svg">
<path d="M406.268 331.759C400.004 327.782 393.363 325.731 387.412 325.482C382.275 325.296 377.264 324.177 372.816 321.754C369.245 319.827 365.612 318.149 361.916 316.658C365.549 314.11 369.12 311.624 372.691 309.2C377.013 306.217 382.338 304.726 387.537 305.596C394.616 306.777 403.574 305.161 412.031 300.562C426.878 292.421 434.646 278.19 429.321 268.682C424.059 259.236 407.772 258.117 392.925 266.258C383.591 271.354 377.076 278.873 374.821 286.082C373.38 290.681 370.122 294.472 365.988 297.02C361.978 299.506 357.656 302.178 353.772 304.602C346.38 309.2 337.923 311.872 329.215 312.68C322.763 313.302 316.311 314.172 309.921 315.477C310.485 312.991 311.111 310.567 311.8 308.144C313.93 300.624 319.004 294.037 326.083 290.681C332.222 287.76 338.299 282.105 342.747 274.461C351.204 259.857 350.327 243.699 340.93 238.293C331.533 232.886 317 240.344 308.543 254.948C303.844 263.026 302.028 271.603 302.967 278.563C303.656 283.907 302.466 289.376 300.274 294.348C298.895 297.517 297.643 300.686 296.452 303.856C292.756 313.923 285.114 321.94 275.341 326.414C273.399 327.284 271.457 328.217 269.515 329.211C256.422 335.674 244.52 344.25 233.933 354.255L233.432 316.533C233.244 303.856 236.94 291.365 244.269 280.986C257.112 262.902 272.898 245.937 288.183 230.587C289.499 229.344 290.752 228.101 292.067 226.796C300.336 218.841 311.048 213.683 322.45 212.316C330.907 211.322 339.364 210.638 347.758 210.576C356.278 210.514 364.672 214.305 369.684 221.203C373.818 226.796 380.96 231.767 389.793 234.502C405.955 239.473 421.741 235.186 424.936 224.869C428.194 214.553 417.669 202.124 401.507 197.153C393.238 194.605 385.032 194.48 378.579 196.345C374.257 197.588 369.809 198.147 365.361 197.526C352.582 195.661 338.863 195.91 325.77 196.842C333.225 190.814 345.691 181.865 354.524 175.651C360.036 171.798 366.739 170.368 373.38 171.052C380.271 171.735 388.602 169.871 396.496 165.397C411.154 157.007 418.672 142.589 413.222 133.206C407.772 123.822 391.484 123.076 376.763 131.465C368.368 136.313 362.292 143.087 359.723 149.736C357.593 155.267 353.459 159.741 348.259 162.662C342.559 165.894 335.605 169.871 331.157 172.73C330.781 164.278 330.719 155.764 331.095 147.375V146.877C331.408 141.906 334.352 137.68 338.612 135.07C345.378 130.906 351.016 121.895 353.02 110.771C355.902 94.2406 349.575 79.2635 338.863 77.3992C328.15 75.5348 317.062 87.4667 314.181 103.997C312.615 112.76 313.68 121.087 316.624 127.24C317.939 129.974 318.503 132.957 318.065 136.002C317.626 139.42 317.188 142.838 316.749 146.38C315.621 158.623 315.308 170.803 315.559 183.046C315.183 183.294 314.745 183.605 314.369 183.854C303.907 191.187 293.759 198.769 283.861 206.785L283.36 192.368C283.172 186.339 284.988 180.374 288.684 175.526C292.944 169.933 295.575 161.668 295.575 152.408C295.575 135.629 286.742 121.957 275.842 121.957C264.942 121.957 256.109 135.567 256.109 152.408C256.109 161.668 258.803 169.933 263 175.526C266.696 180.374 268.513 186.277 268.325 192.368L267.573 214.056C267.448 218.282 265.506 222.259 262.374 225.118C253.29 233.259 244.52 241.773 236.063 250.66C234.81 251.965 233.62 253.27 232.43 254.637L230.676 126.742C230.55 117.483 234.246 108.596 241.012 102.257C245.71 97.7828 250.722 93.557 255.859 89.5176C259.241 86.8453 263.376 85.3538 267.698 85.0431C275.028 84.6081 284.049 80.6929 292.13 73.9191C305.786 62.4844 311.55 47.0725 305.16 39.4908C298.707 31.9091 282.42 35.0785 268.826 46.5753C260.808 53.287 255.545 61.3659 253.791 68.4504C252.789 72.6141 250.596 76.3428 247.402 79.2015C246.337 80.1336 245.334 81.0658 244.269 81.998C237.692 87.7153 231.051 93.2462 223.847 98.0314C222.406 88.7096 222.281 79.2636 222.469 69.7554C222.469 68.4503 222.469 67.0831 222.594 65.7781C222.72 61.7387 224.098 57.8235 226.541 54.592C230.613 49.0611 233.307 40.2986 233.307 30.4176C233.307 13.2034 225.225 -0.717112 215.453 0.028629C205.68 -0.654967 197.599 13.2034 197.599 30.4176C197.599 40.2986 200.23 49.0611 204.365 54.592C206.808 57.8857 208.186 61.7387 208.311 65.7781C208.311 67.0831 208.374 68.4503 208.437 69.7554C208.625 79.2636 208.499 88.6475 207.059 98.0314C199.854 93.2462 193.214 87.7153 186.636 81.998C185.572 81.0658 184.507 80.1336 183.504 79.2015C180.309 76.3428 178.117 72.552 177.114 68.4504C175.423 61.3659 170.098 53.287 162.08 46.5753C148.423 35.1406 132.198 31.9712 125.746 39.4908C119.294 47.0725 125.12 62.4223 138.776 73.9191C146.857 80.6929 155.878 84.6081 163.207 85.0431C167.53 85.2917 171.602 86.8453 175.047 89.5176C180.184 93.557 185.196 97.7828 189.894 102.257C196.597 108.658 200.356 117.545 200.23 126.742L198.476 254.637C197.286 253.332 196.033 252.027 194.843 250.66C186.386 241.773 177.553 233.259 168.532 225.118C165.337 222.259 163.458 218.282 163.333 214.056L162.581 192.368C162.393 186.339 164.21 180.374 167.906 175.526C172.166 169.933 174.797 161.668 174.797 152.408C174.797 135.629 165.964 121.957 155.064 121.957C144.163 121.957 135.331 135.567 135.331 152.408C135.331 161.668 138.024 169.933 142.221 175.526C145.917 180.374 147.734 186.277 147.546 192.368L147.045 206.785C137.147 198.831 126.999 191.187 116.537 183.854C116.161 183.605 115.723 183.294 115.347 183.046C115.66 170.803 115.347 158.623 114.157 146.38C113.718 142.9 113.342 139.42 112.841 136.002C112.403 133.019 112.966 129.974 114.282 127.24C117.226 121.087 118.291 112.76 116.725 103.997C113.843 87.4667 102.755 75.5348 92.0432 77.3992C81.331 79.2635 74.9413 94.1784 77.8856 110.771C79.8275 121.895 85.5282 130.968 92.2938 135.07C96.5536 137.68 99.4979 141.906 99.8111 146.877V147.375C100.187 155.764 100.124 164.278 99.8111 172.73C95.3634 169.871 88.4098 165.894 82.7092 162.662C77.5723 159.741 73.3751 155.267 71.2452 149.736C68.6768 143.087 62.6003 136.251 54.2059 131.465C39.5471 123.076 23.1969 123.822 17.7468 133.206C12.2967 142.589 19.7514 156.945 34.4729 165.397C42.3661 169.933 50.6978 171.798 57.5887 171.052C64.2917 170.368 70.9947 171.798 76.4447 175.651C85.2776 181.865 97.7439 190.814 105.199 196.842C92.1685 195.91 78.3867 195.661 65.6072 197.526C61.1595 198.147 56.7117 197.588 52.3892 196.345C45.9368 194.48 37.7931 194.543 29.4613 197.153C13.2991 202.124 2.77476 214.553 6.03228 224.869C9.28979 235.186 25.0136 239.536 41.1759 234.502C50.0087 231.767 57.1502 226.796 61.2847 221.203C66.2963 214.367 74.6907 210.514 83.2103 210.576C91.6047 210.638 100.062 211.322 108.519 212.316C119.983 213.683 130.632 218.779 138.901 226.796C140.217 228.039 141.47 229.282 142.785 230.587C158.071 245.937 173.857 262.902 186.699 280.986C194.091 291.365 197.725 303.856 197.537 316.533L197.035 354.255C186.449 344.25 174.546 335.674 161.453 329.211C159.511 328.217 157.632 327.284 155.627 326.414C145.792 321.94 138.15 313.923 134.516 303.856C133.326 300.686 132.073 297.455 130.695 294.348C128.502 289.376 127.312 283.969 128.001 278.563C128.941 271.603 127.062 263.026 122.426 254.948C113.969 240.344 99.4979 232.886 90.0386 238.293C80.5793 243.699 79.7649 259.857 88.2219 274.461C92.6696 282.105 98.7462 287.76 104.885 290.681C111.964 294.037 117.038 300.624 119.168 308.144C119.857 310.567 120.484 312.991 121.048 315.477C114.658 314.234 108.205 313.302 101.753 312.68C93.0455 311.872 84.5885 309.262 77.1965 304.602C73.3125 302.178 68.99 299.506 64.9808 297.02C60.8462 294.472 57.5887 290.681 56.1479 286.082C53.8927 278.873 47.3777 271.354 38.0436 266.258C23.1969 258.117 6.90929 259.236 1.64715 268.682C-3.61498 278.128 4.15295 292.421 18.9371 300.562C27.3941 305.223 36.2896 306.839 43.4311 305.596C48.6306 304.726 53.9553 306.217 58.2778 309.2C61.8485 311.686 65.4193 314.172 69.0527 316.658C65.3567 318.149 61.6606 319.889 58.1525 321.754C53.6421 324.177 48.6306 325.296 43.5564 325.482C37.6678 325.731 31.0274 327.782 24.7003 331.759C11.1691 340.273 4.71675 354.193 10.2295 362.831C15.7422 371.47 31.2154 371.532 44.7466 363.018C52.0134 358.419 57.2129 352.329 59.656 346.301C63.2267 337.538 70.2429 330.578 79.5143 328.279L80.5793 328.03C84.7138 326.974 89.0363 326.787 93.2961 327.409C100.375 328.403 107.328 329.77 114.094 331.635C120.546 333.313 126.811 335.488 132.887 338.098C129.003 339.651 125.182 341.329 121.423 343.256C115.723 346.177 109.834 348.724 103.57 349.967C96.6789 351.335 89.0989 355.809 82.8971 362.707C71.6837 375.26 69.178 391.294 77.3218 398.441C85.4655 405.587 101.189 401.237 112.465 388.684C117.54 383.029 120.86 376.628 122.175 370.662C124.055 362.334 130.006 355.498 138.212 353.075C138.901 352.888 139.59 352.702 140.279 352.515C148.737 350.154 157.883 351.832 164.648 357.425C169.91 361.775 174.859 366.498 179.432 371.594C190.458 383.899 196.409 399.87 196.221 416.338C195.783 446.603 179.746 475.127 152.808 489.359C139.027 496.692 123.428 500.296 106.013 500.296C63.7279 500.296 49.1317 520.866 48.5053 521.736C45.9995 525.403 46.9392 530.374 50.5725 532.922C52.0134 533.917 53.6421 534.414 55.2709 534.414C57.8393 534.414 60.3451 533.233 61.9738 531.058C62.4123 530.499 73.0619 516.578 105.95 516.578C111.776 516.578 117.352 516.206 122.739 515.522C125.37 515.211 127.062 518.132 125.37 520.183L96.491 555.668C93.6093 559.272 93.8599 564.865 97.5559 567.661C99.0594 568.78 100.813 569.34 102.567 569.34C104.948 569.34 107.328 568.283 108.957 566.294L150.929 514.59C158.509 506.573 172.291 497.375 172.291 497.375C175.235 495.76 178.493 498.867 177.052 501.85C166.089 523.849 154.124 546.719 143.725 566.729C138.901 576.051 152.62 583.571 158.071 574.684C172.479 550.572 186.762 526.459 200.481 501.912C201.546 499.986 204.49 500.669 204.615 502.906L207.121 577.17C207.434 582.39 211.381 584.938 215.328 585H215.39C219.337 585 223.284 582.39 223.597 577.17L226.102 502.906C226.165 500.669 229.109 499.986 230.237 501.912C244.019 526.397 258.239 550.509 272.647 574.684C278.16 583.571 291.817 576.051 286.993 566.729C276.594 546.719 264.566 523.849 253.666 501.85C252.163 498.867 255.483 495.76 258.427 497.375C258.427 497.375 272.209 506.635 279.789 514.59L321.761 566.294C323.389 568.283 325.77 569.34 328.15 569.34C329.904 569.34 331.659 568.78 333.162 567.661C336.858 564.865 337.109 559.21 334.227 555.668L305.348 520.183C303.719 518.132 305.348 515.149 307.979 515.522C313.429 516.206 319.004 516.578 324.768 516.578C357.656 516.578 368.306 530.437 368.744 531.058C370.373 533.233 372.879 534.414 375.447 534.414C377.076 534.414 378.705 533.917 380.145 532.922C383.779 530.374 384.781 525.403 382.213 521.736C381.586 520.866 366.99 500.296 324.705 500.296C307.29 500.296 291.691 496.692 277.91 489.359C250.972 475.127 234.935 446.541 234.497 416.338C234.246 399.87 240.26 383.899 251.286 371.594C255.859 366.498 260.808 361.775 266.07 357.425C272.835 351.894 281.981 350.154 290.438 352.515C291.128 352.702 291.817 352.888 292.506 353.075C300.775 355.498 306.726 362.334 308.543 370.662C309.858 376.628 313.178 382.966 318.253 388.684C329.466 401.237 345.252 405.649 353.396 398.441C361.54 391.232 359.034 375.26 347.821 362.707C341.619 355.747 334.039 351.335 327.148 349.967C320.884 348.724 314.995 346.177 309.294 343.256C305.598 341.329 301.714 339.651 297.83 338.098C303.907 335.488 310.171 333.313 316.624 331.635C323.452 329.77 330.406 328.465 337.422 327.409C341.682 326.787 346.004 326.974 350.139 328.03L351.204 328.279C360.475 330.578 367.554 337.538 371.062 346.301C373.505 352.329 378.705 358.419 385.971 363.018C399.503 371.532 414.976 371.47 420.488 362.831C426.001 354.193 419.549 340.273 406.018 331.759H406.268Z" fill="white"/>
</svg>
