<svg width="40" height="40" viewBox="0 0 40 40" fill="none" xmlns="http://www.w3.org/2000/svg">
<path d="M27.1394 31C27.1394 31.8284 27.811 32.5 28.6394 32.5C29.4678 32.5 30.1394 31.8284 30.1394 31H28.6394H27.1394ZM9.52173 31C9.52173 31.8284 10.1933 32.5 11.0217 32.5C11.8502 32.5 12.5217 31.8284 12.5217 31H11.0217H9.52173ZM31.4751 24.8783V23.3783C30.6527 23.3783 29.9837 24.0403 29.9751 24.8626C29.9665 25.6848 30.6216 26.3607 31.4437 26.3779L31.4751 24.8783ZM30.9734 14.1957C30.145 14.1957 29.4734 14.8672 29.4734 15.6957C29.4734 16.5241 30.145 17.1957 30.9734 17.1957V15.6957V14.1957ZM35.4589 31C35.4589 31.8284 36.1305 32.5 36.9589 32.5C37.7873 32.5 38.4589 31.8284 38.4589 31H36.9589H35.4589ZM8.52461 24.8783L8.55598 26.3779C9.37811 26.3607 10.0331 25.6848 10.0245 24.8626C10.0159 24.0403 9.34692 23.3783 8.52461 23.3783V24.8783ZM9.02659 17.1957C9.85502 17.1957 10.5266 16.5241 10.5266 15.6957C10.5266 14.8672 9.85502 14.1957 9.02659 14.1957V15.6957V17.1957ZM1.54109 31C1.54109 31.8284 2.21267 32.5 3.04109 32.5C3.86952 32.5 4.54109 31.8284 4.54109 31H3.04109H1.54109ZM26.4372 15.6H24.9372C24.9372 18.4152 22.6523 20.7 19.8306 20.7V22.2V23.7C24.3063 23.7 27.9372 20.0749 27.9372 15.6H26.4372ZM19.8306 22.2V20.7C17.0088 20.7 14.7239 18.4152 14.7239 15.6H13.2239H11.7239C11.7239 20.0749 15.3548 23.7 19.8306 23.7V22.2ZM13.2239 15.6H14.7239C14.7239 12.7848 17.0088 10.5 19.8306 10.5V9V7.5C15.3548 7.5 11.7239 11.1251 11.7239 15.6H13.2239ZM19.8306 9V10.5C22.6523 10.5 24.9372 12.7848 24.9372 15.6H26.4372H27.9372C27.9372 11.1251 24.3063 7.5 19.8306 7.5V9ZM11.0217 31H12.5217C12.5217 29.7611 12.5241 28.7066 12.6467 27.7691C12.7675 26.8451 12.9924 26.1573 13.3566 25.6305C14.0244 24.6648 15.5676 23.7 19.8306 23.7V22.2V20.7C15.2847 20.7 12.4235 21.7052 10.889 23.9244C10.1522 24.9901 9.82651 26.1985 9.67203 27.3802C9.51932 28.5483 9.52173 29.8089 9.52173 31H11.0217ZM19.8306 22.2L19.798 23.6996C24.0777 23.7926 25.6374 24.752 26.3106 25.711C26.6719 26.2256 26.8948 26.8938 27.0148 27.7987C27.1369 28.7195 27.1394 29.7602 27.1394 31H28.6394H30.1394C30.1394 29.8097 30.1419 28.5593 29.9888 27.4043C29.8335 26.2335 29.5059 25.0413 28.766 23.9874C27.237 21.8093 24.3923 20.7987 19.8631 20.7004L19.8306 22.2ZM35.3684 20.287H33.8684C33.8684 21.3299 33.607 22.1208 33.2243 22.6146C32.8804 23.0584 32.3555 23.3783 31.4751 23.3783V24.8783V26.3783C33.2298 26.3783 34.6516 25.6704 35.5955 24.4524C36.5007 23.2845 36.8684 21.7797 36.8684 20.287H35.3684ZM30.9734 15.6957V17.1957C32.6736 17.1957 33.8684 18.469 33.8684 20.287H35.3684H36.8684C36.8684 17.0335 34.5436 14.1957 30.9734 14.1957V15.6957ZM31.4751 24.8783L31.4437 26.3779C34.565 26.4432 35.1204 27.1262 35.276 27.4211C35.3998 27.6557 35.4817 28.0209 35.4971 28.6713C35.5046 28.9877 35.4965 29.3307 35.4849 29.7278C35.4735 30.1135 35.4589 30.5501 35.4589 31H36.9589H38.4589C38.4589 30.6046 38.4717 30.2202 38.4836 29.8157C38.4951 29.4225 38.5059 29.006 38.4963 28.6004C38.4775 27.8068 38.3813 26.8778 37.9294 26.0212C36.9335 24.1338 34.747 23.4464 31.5064 23.3786L31.4751 24.8783ZM4.63158 20.287H3.13158C3.13158 21.7796 3.49917 23.2844 4.40423 24.4523C5.34813 25.6704 6.76984 26.3783 8.52461 26.3783V24.8783V23.3783C7.64418 23.3783 7.11937 23.0584 6.77556 22.6147C6.3929 22.1209 6.13158 21.33 6.13158 20.287H4.63158ZM9.02659 15.6957V14.1957C5.45641 14.1957 3.13158 17.0335 3.13158 20.287H4.63158H6.13158C6.13158 18.4689 7.32637 17.1957 9.02659 17.1957V15.6957ZM8.52461 24.8783L8.49324 23.3786C5.25268 23.4464 3.06614 24.1338 2.07041 26.0213C1.61852 26.8779 1.52241 27.8069 1.50366 28.6004C1.49408 29.0061 1.50488 29.4225 1.51642 29.8157C1.52829 30.2202 1.54109 30.6046 1.54109 31H3.04109H4.54109C4.54109 30.5501 4.52645 30.1135 4.51513 29.7277C4.50348 29.3306 4.49535 28.9876 4.50283 28.6713C4.51819 28.0208 4.60009 27.6556 4.72383 27.4211C4.87938 27.1262 5.4346 26.4432 8.55598 26.3779L8.52461 24.8783Z" fill="#003C77"/>
</svg>
