<svg width="745" height="866" viewBox="0 0 745 866" fill="none" xmlns="http://www.w3.org/2000/svg">
<path d="M702.25 573.347C691.422 566.474 679.944 562.93 669.657 562.5C660.777 562.178 652.115 560.245 644.427 556.056C638.255 552.727 631.974 549.827 625.585 547.249C631.866 542.846 638.038 538.55 644.21 534.361C651.682 529.206 660.886 526.629 669.873 528.132C682.109 530.173 697.594 527.38 712.212 519.433C737.875 505.364 751.302 480.769 742.098 464.337C733.003 448.012 704.849 446.079 679.186 460.148C663.051 468.955 651.79 481.951 647.892 494.409C645.401 502.356 639.771 508.908 632.624 513.311C625.694 517.607 618.222 522.225 611.509 526.414C598.731 534.362 584.113 538.98 569.061 540.376C557.908 541.45 546.755 542.953 535.71 545.209C536.685 540.913 537.767 536.724 538.959 532.536C542.64 519.54 551.411 508.156 563.647 502.356C574.259 497.309 584.763 487.535 592.451 474.325C607.069 449.086 605.553 421.162 589.31 411.819C573.068 402.475 547.946 415.363 533.328 440.602C525.207 454.564 522.066 469.385 523.691 481.414C524.882 490.65 522.824 500.101 519.034 508.693C516.652 514.17 514.487 519.648 512.429 525.125C506.04 542.524 492.83 556.378 475.938 564.111C472.581 565.615 469.224 567.226 465.867 568.944C443.236 580.114 422.662 594.935 404.362 612.226L403.496 547.035C403.171 525.125 409.56 503.538 422.229 485.602C444.427 454.349 471.715 425.029 498.136 398.501C500.41 396.353 502.575 394.205 504.849 391.95C519.143 378.203 537.659 369.289 557.367 366.926C571.985 365.207 586.603 364.026 601.113 363.919C615.84 363.811 630.35 370.363 639.013 382.284C646.159 391.95 658.504 400.542 673.772 405.267C701.709 413.859 728.996 406.449 734.519 388.621C740.149 370.792 721.958 349.312 694.021 340.72C679.727 336.317 665.542 336.102 654.389 339.324C646.917 341.472 639.229 342.439 631.541 341.365C609.451 338.143 585.737 338.572 563.106 340.183C575.992 329.766 597.54 314.3 612.808 303.56C622.337 296.901 633.923 294.431 645.401 295.613C657.312 296.794 671.714 293.572 685.358 285.839C710.696 271.34 723.69 246.424 714.27 230.206C704.849 213.989 676.695 212.7 651.249 227.199C636.739 235.576 626.235 247.283 621.795 258.775C618.114 268.333 610.967 276.066 601.98 281.114C592.126 286.698 580.106 293.572 572.418 298.512C571.768 283.906 571.66 269.192 572.31 254.693V253.834C572.851 245.242 577.941 237.939 585.304 233.428C596.999 226.233 606.744 210.66 610.209 191.435C615.19 162.867 604.253 136.984 585.737 133.762C567.221 130.54 548.054 151.16 543.073 179.729C540.366 194.872 542.207 209.263 547.296 219.896C549.57 224.622 550.545 229.777 549.787 235.039C549.029 240.946 548.271 246.853 547.513 252.975C545.564 274.133 545.023 295.183 545.456 316.341C544.806 316.77 544.048 317.307 543.398 317.737C525.315 330.41 507.773 343.513 490.664 357.367L489.798 332.451C489.473 322.033 492.613 311.723 499.002 303.345C506.365 293.679 510.913 279.395 510.913 263.393C510.913 234.395 495.645 210.767 476.804 210.767C457.963 210.767 442.695 234.288 442.695 263.393C442.695 279.395 447.351 293.679 454.606 303.345C460.994 311.723 464.135 321.925 463.81 332.451L462.51 369.933C462.294 377.236 458.937 384.11 453.523 389.05C437.822 403.119 422.662 417.833 408.044 433.191C405.878 435.447 403.821 437.702 401.763 440.065L398.732 219.037C398.515 203.034 404.904 187.676 416.598 176.721C424.72 168.989 433.382 161.686 442.261 154.705C448.109 150.087 455.255 147.509 462.727 146.972C475.396 146.22 490.989 139.454 504.958 127.747C528.563 107.986 538.525 81.3509 527.481 68.2482C516.327 55.1454 488.174 60.6228 464.676 80.4917C450.816 92.0908 441.72 106.053 438.688 118.296C436.956 125.492 433.166 131.936 427.643 136.876C425.802 138.487 424.07 140.098 422.229 141.709C410.859 151.59 399.381 161.149 386.929 169.418C384.438 153.308 384.222 136.984 384.546 120.552C384.546 118.296 384.546 115.933 384.763 113.678C384.979 106.697 387.362 99.9309 391.585 94.3461C398.623 84.7876 403.279 69.6443 403.279 52.5678C403.279 22.8181 389.311 -1.23932 372.419 0.0494767C355.526 -1.13192 341.558 22.8181 341.558 52.5678C341.558 69.6443 346.106 84.7876 353.253 94.3461C357.476 100.038 359.858 106.697 360.074 113.678C360.074 115.933 360.183 118.296 360.291 120.552C360.616 136.984 360.399 153.201 357.909 169.418C345.456 161.149 333.978 151.59 322.608 141.709C320.767 140.098 318.927 138.487 317.194 136.876C311.672 131.936 307.882 125.385 306.149 118.296C303.225 106.053 294.021 92.0908 280.161 80.4917C256.555 60.7302 228.51 55.2528 217.357 68.2482C206.204 81.3509 216.274 107.878 239.88 127.747C253.848 139.454 269.441 146.22 282.11 146.972C289.582 147.402 296.62 150.087 302.576 154.705C311.455 161.686 320.118 168.989 328.239 176.721C339.825 187.784 346.322 203.142 346.106 219.037L343.074 440.065C341.016 437.809 338.851 435.554 336.793 433.191C322.175 417.833 306.907 403.119 291.314 389.05C285.792 384.11 282.543 377.236 282.327 369.933L281.027 332.451C280.703 322.033 283.843 311.723 290.232 303.345C297.595 293.679 302.143 279.395 302.143 263.393C302.143 234.395 286.875 210.767 268.033 210.767C249.192 210.767 233.924 234.288 233.924 263.393C233.924 279.395 238.58 293.679 245.835 303.345C252.224 311.723 255.364 321.925 255.039 332.451L254.173 357.367C237.064 343.62 219.522 330.41 201.439 317.737C200.789 317.307 200.031 316.77 199.382 316.341C199.923 295.183 199.382 274.133 197.324 252.975C196.566 246.961 195.917 240.946 195.05 235.039C194.292 229.884 195.267 224.622 197.541 219.896C202.63 209.263 204.471 194.872 201.764 179.729C196.783 151.16 177.617 130.54 159.1 133.762C140.584 136.984 129.539 162.76 134.628 191.435C137.985 210.66 147.839 226.34 159.533 233.428C166.897 237.939 171.986 245.242 172.527 253.834V254.693C173.177 269.192 173.069 283.906 172.527 298.512C164.839 293.572 152.82 286.698 142.966 281.114C134.087 276.066 126.832 268.333 123.15 258.775C118.71 247.283 108.207 235.469 93.697 227.199C68.3587 212.7 40.0967 213.989 30.676 230.206C21.2554 246.424 34.1411 271.233 59.5877 285.839C73.2314 293.679 87.6331 296.901 99.5443 295.613C111.131 294.431 122.717 296.901 132.138 303.56C147.406 314.3 168.954 329.766 181.84 340.183C159.317 338.572 135.494 338.143 113.405 341.365C105.716 342.439 98.0284 341.472 90.5568 339.324C79.4036 336.102 65.3268 336.21 50.9251 340.72C22.9879 349.312 4.79628 370.792 10.427 388.621C16.0578 406.449 43.2369 413.967 71.174 405.267C86.442 400.542 98.7863 391.95 105.933 382.284C114.596 370.47 129.106 363.811 143.832 363.919C158.342 364.026 172.961 365.207 187.579 366.926C207.395 369.289 225.803 378.095 240.096 391.95C242.37 394.098 244.536 396.246 246.81 398.501C273.231 425.029 300.518 454.349 322.717 485.602C335.494 503.538 341.774 525.125 341.45 547.035L340.583 612.226C322.283 594.935 301.71 580.114 279.078 568.944C275.721 567.226 272.473 565.615 269.008 564.111C252.007 556.378 238.797 542.524 232.516 525.125C230.459 519.648 228.293 514.063 225.911 508.693C222.121 500.101 220.064 490.757 221.255 481.414C222.879 469.385 219.631 454.564 211.618 440.602C196.999 415.363 171.986 402.475 155.635 411.819C139.284 421.162 137.877 449.086 152.495 474.325C160.183 487.535 170.687 497.309 181.298 502.356C193.534 508.156 202.305 519.54 205.987 532.536C207.178 536.724 208.261 540.913 209.235 545.209C198.191 543.061 187.037 541.45 175.884 540.376C160.833 538.98 146.214 534.469 133.437 526.414C126.723 522.225 119.252 517.607 112.322 513.311C105.175 508.908 99.5443 502.356 97.0538 494.409C93.1556 481.951 81.8941 468.955 65.7599 460.148C40.0967 446.079 11.943 448.012 2.84717 464.337C-6.24864 480.662 7.17853 505.364 32.7334 519.433C47.3517 527.488 62.7279 530.28 75.0723 528.132C84.0598 526.629 93.2639 529.206 100.735 534.361C106.908 538.657 113.08 542.953 119.36 547.249C112.971 549.827 106.583 552.834 100.519 556.056C92.7225 560.245 84.0598 562.178 75.2888 562.5C65.1102 562.93 53.6321 566.474 42.6955 573.347C19.3063 588.061 8.15309 612.119 17.682 627.047C27.211 641.976 53.957 642.083 77.3462 627.369C89.9071 619.422 98.8946 608.897 103.118 598.479C109.29 583.336 121.418 571.307 137.444 567.333L139.284 566.903C146.431 565.078 153.903 564.756 161.266 565.83C173.502 567.548 185.521 569.911 197.216 573.133C208.369 576.032 219.198 579.791 229.701 584.302C222.987 586.987 216.382 589.887 209.885 593.216C200.031 598.264 189.853 602.667 179.024 604.815C167.113 607.178 154.011 614.911 143.291 626.832C123.908 648.527 119.577 676.236 133.654 688.587C147.73 700.938 174.91 693.42 194.401 671.725C203.172 661.952 208.911 650.89 211.185 640.579C214.433 626.188 224.72 614.374 238.905 610.185C240.096 609.863 241.287 609.541 242.479 609.219C257.097 605.138 272.906 608.038 284.601 617.703C293.697 625.221 302.251 633.384 310.156 642.19C329.214 663.456 339.5 691.057 339.176 719.518C338.418 771.822 310.697 821.118 264.135 845.712C240.313 858.385 213.35 864.615 183.247 864.615C110.156 864.615 84.926 900.164 83.8432 901.667C79.5119 908.004 81.1361 916.596 87.4166 920.999C89.9071 922.718 92.7225 923.577 95.5378 923.577C99.9774 923.577 104.309 921.536 107.124 917.777C107.882 916.811 126.29 892.753 183.139 892.753C193.21 892.753 202.847 892.109 212.159 890.928C216.707 890.391 219.631 895.438 216.707 898.982L166.788 960.307C161.807 966.537 162.24 976.203 168.629 981.035C171.228 982.969 174.26 983.935 177.292 983.935C181.407 983.935 185.521 982.109 188.337 978.673L260.887 889.316C273.989 875.462 293.285 867.407 293.285 867.407C298.5 867.407 300.5 867.3 306.041 867.3C287.091 905.319 266.409 944.842 248.434 979.425C240.096 995.534 263.81 1008.53 273.231 993.172C298.136 951.501 322.825 909.83 346.539 867.407C351 867.407 348.5 867.407 353.686 867.407L358.017 997.468C358.558 1006.49 365.38 1010.89 372.202 1011H372.31C379.132 1011 385.954 1006.49 386.496 997.468L391.287 867.407C394.96 867.407 393.5 867.407 397.974 867.407C421.796 909.722 446.376 951.393 471.281 993.172C480.81 1008.53 504.416 995.534 496.078 979.425C478.103 944.842 457.341 904.019 438.5 866C443.5 866 448 866 450 866C450 866 470.523 875.569 483.626 889.316L556.176 978.673C558.991 982.109 563.106 983.935 567.221 983.935C570.253 983.935 573.284 982.969 575.883 981.035C582.272 976.203 582.705 966.429 577.724 960.307L527.805 898.982C524.99 895.438 527.805 890.283 532.353 890.928C541.774 892.109 551.411 892.753 561.373 892.753C618.222 892.753 636.63 916.703 637.388 917.777C640.204 921.536 644.535 923.577 648.975 923.577C651.79 923.577 654.605 922.718 657.096 920.999C663.376 916.596 665.109 908.004 660.669 901.667C659.586 900.164 634.356 864.615 561.265 864.615C531.162 864.615 504.2 858.385 480.377 845.712C433.815 821.118 406.095 771.714 405.337 719.518C404.904 691.057 415.299 663.456 434.357 642.19C442.261 633.384 450.816 625.221 459.912 617.703C471.606 608.145 487.416 605.138 502.034 609.219C503.225 609.541 504.416 609.863 505.607 610.185C519.901 614.374 530.188 626.188 533.328 640.579C535.602 650.89 541.341 661.845 550.112 671.725C569.495 693.42 596.782 701.045 610.859 688.587C624.936 676.129 620.604 648.527 601.222 626.832C590.501 614.804 577.399 607.178 565.488 604.815C554.66 602.667 544.481 598.264 534.627 593.216C528.239 589.887 521.525 586.987 514.811 584.302C525.315 579.791 536.143 576.032 547.296 573.133C559.099 569.911 571.119 567.655 583.247 565.83C590.61 564.756 598.081 565.078 605.228 566.903L607.069 567.333C623.095 571.307 635.331 583.336 641.395 598.479C645.618 608.897 654.605 619.422 667.166 627.369C690.555 642.083 717.302 641.976 726.83 627.047C736.359 612.119 725.206 588.061 701.817 573.347H702.25Z" fill="white"/>
</svg>
