<svg width="32" height="32" viewBox="0 0 32 32" fill="none" xmlns="http://www.w3.org/2000/svg">
<path d="M28.6099 3.27352C28.455 3.13973 28.2665 3.05075 28.0647 3.01617C27.8629 2.98159 27.6556 3.00271 27.4649 3.07727L2.13245 12.991C1.77343 13.1306 1.46948 13.3831 1.26636 13.7104C1.06323 14.0377 0.971932 14.4221 1.00619 14.8058C1.04046 15.1895 1.19844 15.5516 1.45634 15.8378C1.71425 16.1239 2.05813 16.3185 2.4362 16.3923L8.99995 17.681V24.9998C8.99866 25.3984 9.11713 25.7883 9.34 26.1188C9.56288 26.4493 9.87989 26.7053 10.2499 26.8535C10.6194 27.0044 11.0257 27.0406 11.4161 26.9575C11.8064 26.8743 12.1627 26.6756 12.4387 26.3873L15.6037 23.1048L20.6249 27.4998C20.9872 27.8211 21.4544 27.9989 21.9387 27.9998C22.1509 27.9996 22.3617 27.9663 22.5637 27.901C22.8936 27.7963 23.1903 27.607 23.4244 27.352C23.6584 27.0969 23.8215 26.785 23.8974 26.4473L28.9712 4.37477C29.0165 4.17571 29.0069 3.96805 28.9433 3.77405C28.8796 3.58005 28.7644 3.40702 28.6099 3.27352ZM20.9674 7.77352L9.7687 15.7935L3.5687 14.5773L20.9674 7.77352ZM10.9999 24.9998V19.0648L14.0987 21.7823L10.9999 24.9998ZM21.9412 25.9998L11.6062 16.9373L26.4812 6.27602L21.9412 25.9998Z" fill="black"/>
</svg>
