<svg width="549" height="744" viewBox="0 0 549 744" fill="none" xmlns="http://www.w3.org/2000/svg">
<mask id="path-1-inside-1_305_262" fill="white">
<path d="M517.497 421.929C509.517 416.871 501.059 414.263 493.479 413.947C486.935 413.709 480.552 412.287 474.886 409.205C470.338 406.754 465.71 404.62 461.002 402.724C465.63 399.483 470.178 396.322 474.727 393.239C480.232 389.446 487.015 387.549 493.638 388.655C502.655 390.157 514.066 388.102 524.838 382.253C543.75 371.9 553.644 353.8 546.862 341.708C540.159 329.695 519.412 328.272 500.501 338.626C488.611 345.106 480.312 354.67 477.44 363.838C475.604 369.687 471.455 374.508 466.189 377.748C461.082 380.91 455.576 384.308 450.628 387.391C441.213 393.239 430.44 396.638 419.349 397.665C411.13 398.456 402.911 399.562 394.772 401.222C395.49 398.061 396.288 394.978 397.165 391.896C399.878 382.332 406.342 373.955 415.359 369.687C423.179 365.972 430.919 358.78 436.584 349.058C447.357 330.485 446.24 309.936 434.27 303.059C422.301 296.183 403.788 305.668 393.016 324.241C387.031 334.516 384.717 345.423 385.914 354.275C386.792 361.072 385.276 368.027 382.483 374.35C380.728 378.381 379.132 382.411 377.616 386.442C372.908 399.246 363.173 409.442 350.724 415.132C348.251 416.239 345.777 417.424 343.303 418.689C326.626 426.909 311.465 437.815 297.98 450.54L297.341 402.566C297.102 386.442 301.81 370.556 311.146 357.357C327.504 334.358 347.612 312.781 367.083 293.259C368.758 291.678 370.354 290.098 372.03 288.438C382.563 278.321 396.208 271.761 410.731 270.023C421.503 268.758 432.275 267.889 442.968 267.81C453.82 267.731 464.513 272.552 470.896 281.325C476.163 288.438 485.26 294.761 496.511 298.238C517.098 304.561 537.206 299.108 541.276 285.988C545.425 272.868 532.02 257.061 511.433 250.738C500.9 247.497 490.446 247.339 482.227 249.71C476.722 251.291 471.056 252.002 465.391 251.212C449.112 248.841 431.637 249.157 414.96 250.343C424.456 242.676 440.335 231.295 451.586 223.392C458.608 218.491 467.146 216.673 475.604 217.543C484.382 218.412 494.995 216.041 505.049 210.351C523.721 199.681 533.297 181.344 526.354 169.41C519.412 157.476 498.665 156.527 479.913 167.197C469.221 173.362 461.481 181.977 458.209 190.434C455.496 197.468 450.229 203.158 443.606 206.873C436.345 210.983 427.488 216.041 421.822 219.677C421.344 208.928 421.264 198.1 421.742 187.43V186.798C422.141 180.475 425.892 175.101 431.318 171.781C439.936 166.486 447.117 155.026 449.671 140.878C453.341 119.855 445.282 100.807 431.637 98.4359C417.992 96.0648 403.868 111.24 400.198 132.263C398.203 143.407 399.559 153.998 403.31 161.823C404.985 165.3 405.704 169.094 405.145 172.967C404.586 177.314 404.028 181.661 403.469 186.166C402.033 201.736 401.634 217.227 401.953 232.797C401.474 233.113 400.916 233.508 400.437 233.824C387.111 243.15 374.184 252.793 361.577 262.988L360.938 244.652C360.699 236.986 363.013 229.398 367.721 223.233C373.147 216.12 376.498 205.608 376.498 193.832C376.498 172.492 365.247 155.105 351.363 155.105C337.478 155.105 326.227 172.413 326.227 193.832C326.227 205.608 329.658 216.12 335.005 223.233C339.713 229.398 342.027 236.907 341.787 244.652L340.83 272.236C340.67 277.61 338.197 282.668 334.207 286.304C322.636 296.658 311.465 307.486 300.693 318.788C299.097 320.447 297.581 322.107 296.065 323.846L293.83 161.19C293.671 149.414 298.379 138.112 306.997 130.05C312.981 124.36 319.365 118.985 325.908 113.848C330.217 110.449 335.484 108.553 340.989 108.157C350.325 107.604 361.816 102.625 372.11 94.0099C389.505 79.4673 396.846 59.8665 388.707 50.2242C380.488 40.5818 359.741 44.6126 342.426 59.2342C332.212 67.7701 325.509 78.0448 323.275 87.0549C321.998 92.3503 319.205 97.0924 315.136 100.728C313.779 101.914 312.502 103.099 311.146 104.285C302.767 111.556 294.309 118.59 285.133 124.676C283.297 112.82 283.138 100.807 283.377 88.7145C283.377 87.0548 283.377 85.316 283.537 83.6563C283.696 78.5189 285.452 73.5396 288.564 69.4298C293.751 62.3956 297.182 51.2516 297.182 38.6849C297.182 16.792 286.888 -0.912019 274.44 0.0364102C261.992 -0.832983 251.698 16.792 251.698 38.6849C251.698 51.2516 255.05 62.3956 260.316 69.4298C263.428 73.6187 265.184 78.5189 265.343 83.6563C265.343 85.316 265.423 87.0548 265.503 88.7145C265.742 100.807 265.583 112.741 263.747 124.676C254.571 118.59 246.113 111.556 237.734 104.285C236.378 103.099 235.021 101.914 233.744 100.728C229.675 97.0924 226.882 92.2712 225.605 87.0549C223.451 78.0448 216.668 67.7701 206.454 59.2342C189.059 44.6917 168.392 40.6608 160.173 50.2242C151.954 59.8665 159.375 79.3883 176.77 94.0099C187.064 102.625 198.555 107.604 207.891 108.157C213.397 108.474 218.583 110.449 222.972 113.848C229.515 118.985 235.899 124.36 241.883 130.05C250.422 138.191 255.209 149.493 255.05 161.19L252.815 323.846C251.299 322.186 249.703 320.526 248.187 318.788C237.415 307.486 226.164 296.658 214.673 286.304C210.604 282.668 208.21 277.61 208.05 272.236L207.093 244.652C206.853 236.986 209.167 229.398 213.875 223.233C219.301 216.12 222.653 205.608 222.653 193.832C222.653 172.492 211.402 155.105 197.517 155.105C183.633 155.105 172.382 172.413 172.382 193.832C172.382 205.608 175.813 216.12 181.159 223.233C185.867 229.398 188.181 236.907 187.942 244.652L187.303 262.988C174.696 252.872 161.769 243.15 148.443 233.824C147.964 233.508 147.406 233.113 146.927 232.797C147.326 217.227 146.927 201.736 145.411 186.166C144.852 181.74 144.373 177.314 143.735 172.967C143.176 169.173 143.895 165.3 145.57 161.823C149.321 153.998 150.677 143.407 148.682 132.263C145.012 111.24 130.888 96.0648 117.243 98.4359C103.598 100.807 95.4588 119.776 99.2092 140.878C101.683 155.026 108.944 166.565 117.562 171.781C122.988 175.101 126.739 180.475 127.138 186.798V187.43C127.616 198.1 127.537 208.928 127.138 219.677C121.472 216.041 112.615 210.983 105.353 206.873C98.8102 203.158 93.4639 197.468 90.7509 190.434C87.4793 181.977 79.7391 173.283 69.0465 167.197C50.3744 156.527 29.5478 157.476 22.6055 169.41C15.6633 181.344 25.159 199.602 43.9109 210.351C53.9652 216.12 64.578 218.491 73.3555 217.543C81.8936 216.673 90.4317 218.491 97.3739 223.392C108.625 231.295 124.504 242.676 134 250.343C117.403 249.157 99.8476 248.841 83.5693 251.212C77.9038 252.002 72.2383 251.291 66.7325 249.71C58.5135 247.339 48.1401 247.418 37.5273 250.738C16.9401 257.061 3.53444 272.868 7.6838 285.988C11.8332 299.108 31.8618 304.64 52.4491 298.238C63.7002 294.761 72.7969 288.438 78.0634 281.325C84.447 272.631 95.1396 267.731 105.992 267.81C116.684 267.889 127.457 268.758 138.229 270.023C152.832 271.761 166.397 278.242 176.93 288.438C178.606 290.019 180.202 291.599 181.877 293.259C201.347 312.781 221.456 334.358 237.814 357.357C247.23 370.556 251.858 386.442 251.619 402.566L250.98 450.54C237.495 437.815 222.334 426.909 205.656 418.689C203.183 417.424 200.789 416.239 198.235 415.132C185.707 409.442 175.972 399.246 171.344 386.442C169.828 382.411 168.232 378.302 166.477 374.35C163.684 368.027 162.168 361.151 163.046 354.275C164.243 345.423 161.849 334.516 155.944 324.241C145.171 305.668 126.739 296.183 114.69 303.059C102.64 309.936 101.603 330.485 112.375 349.058C118.041 358.78 125.781 365.972 133.601 369.687C142.618 373.955 149.081 382.332 151.794 391.896C152.672 394.978 153.47 398.061 154.188 401.222C146.049 399.641 137.83 398.456 129.611 397.665C118.52 396.638 107.747 393.318 98.3315 387.391C93.3841 384.308 87.8782 380.91 82.7713 377.748C77.5048 374.508 73.3555 369.687 71.5202 363.838C68.6475 354.67 60.3488 345.106 48.4593 338.626C29.5478 328.272 8.80093 329.695 2.09812 341.708C-4.6047 353.721 5.28995 371.9 24.1217 382.253C34.8941 388.181 46.225 390.236 55.3217 388.655C61.9447 387.549 68.7273 389.446 74.2332 393.239C78.7816 396.401 83.3299 399.562 87.958 402.724C83.2501 404.62 78.5422 406.833 74.0736 409.205C68.3284 412.287 61.9447 413.709 55.4813 413.947C47.9805 414.263 39.5222 416.871 31.4628 421.929C14.227 432.757 6.00812 450.461 13.0301 461.447C20.0521 472.433 39.7616 472.512 56.9974 461.684C66.2537 455.836 72.8767 448.09 75.9887 440.424C80.5371 429.28 89.4741 420.428 101.284 417.503L102.64 417.187C107.907 415.844 113.413 415.606 118.839 416.397C127.856 417.661 136.713 419.4 145.331 421.771C153.55 423.905 161.529 426.671 169.27 429.991C164.322 431.967 159.455 434.101 154.667 436.551C147.406 440.266 139.905 443.506 131.925 445.087C123.148 446.826 113.493 452.516 105.593 461.289C91.3094 477.254 88.1176 497.646 98.491 506.735C108.864 515.824 128.893 510.291 143.256 494.326C149.72 487.134 153.949 478.993 155.625 471.406C158.018 460.815 165.599 452.121 176.052 449.038C176.93 448.801 177.808 448.564 178.685 448.327C189.458 445.324 201.108 447.458 209.726 454.571C216.429 460.104 222.733 466.11 228.558 472.591C242.602 488.24 250.182 508.552 249.943 529.497C249.384 567.987 228.957 604.265 194.645 622.364C177.09 631.69 157.22 636.274 135.037 636.274C81.1754 636.274 62.5831 662.435 61.7851 663.542C58.5933 668.205 59.7902 674.528 64.4184 677.768C66.2537 679.033 68.3284 679.665 70.403 679.665C73.6747 679.665 76.8665 678.163 78.9412 675.397C79.4997 674.686 93.065 656.982 134.958 656.982C142.379 656.982 149.48 656.508 156.343 655.638C159.694 655.243 161.849 658.958 159.694 661.566L122.908 706.695C119.238 711.279 119.557 718.392 124.265 721.949C126.18 723.372 128.414 724.083 130.649 724.083C133.681 724.083 136.713 722.739 138.788 720.21L192.251 654.452C201.906 644.257 216.125 638.329 216.125 638.329C219.968 638.329 221.442 638.25 225.525 638.25C211.561 666.229 196.32 695.314 183.074 720.763C176.93 732.619 194.405 742.182 201.347 730.88C219.7 700.214 237.894 669.548 255.369 638.329C258.656 638.329 256.814 638.329 260.635 638.329L263.827 734.041C264.226 740.68 269.253 743.921 274.28 744H274.36C279.387 744 284.414 740.68 284.813 734.041L288.345 638.329C291.051 638.329 289.975 638.329 293.272 638.329C310.827 669.469 328.94 700.135 347.293 730.88C354.315 742.182 371.711 732.619 365.566 720.763C352.32 695.314 337.021 665.272 323.136 637.294C326.821 637.294 330.137 637.294 331.611 637.294C331.611 637.294 346.735 644.336 356.39 654.452L409.853 720.21C411.928 722.739 414.96 724.083 417.992 724.083C420.226 724.083 422.461 723.372 424.376 721.949C429.084 718.392 429.403 711.2 425.732 706.695L388.946 661.566C386.872 658.958 388.947 655.164 392.298 655.638C399.24 656.508 406.342 656.982 413.683 656.982C455.576 656.982 469.141 674.607 469.7 675.397C471.774 678.163 474.966 679.665 478.238 679.665C480.312 679.665 482.387 679.033 484.222 677.768C488.85 674.528 490.127 668.205 486.856 663.542C486.058 662.435 467.465 636.274 413.603 636.274C391.42 636.274 371.551 631.69 353.996 622.364C319.684 604.265 299.256 567.908 298.698 529.497C298.379 508.552 306.039 488.24 320.083 472.591C325.908 466.11 332.212 460.104 338.915 454.571C347.533 447.537 359.183 445.324 369.955 448.327C370.833 448.564 371.711 448.801 372.588 449.038C383.121 452.121 390.702 460.815 393.016 471.406C394.692 478.993 398.921 487.055 405.384 494.326C419.668 510.291 439.776 515.903 450.15 506.735C460.523 497.566 457.331 477.254 443.048 461.289C435.148 452.437 425.493 446.826 416.715 445.087C408.736 443.506 401.235 440.266 393.974 436.551C389.266 434.101 384.318 431.967 379.371 429.991C387.111 426.671 395.091 423.905 403.31 421.771C412.007 419.4 420.865 417.74 429.802 416.397C435.228 415.606 440.734 415.844 446 417.187L447.357 417.503C459.167 420.428 468.183 429.28 472.652 440.424C475.764 448.09 482.387 455.836 491.643 461.684C508.879 472.512 528.589 472.433 535.611 461.447C542.633 450.461 534.414 432.757 517.178 421.929H517.497Z"/>
</mask>
<path d="M517.497 421.929C509.517 416.871 501.059 414.263 493.479 413.947C486.935 413.709 480.552 412.287 474.886 409.205C470.338 406.754 465.71 404.62 461.002 402.724C465.63 399.483 470.178 396.322 474.727 393.239C480.232 389.446 487.015 387.549 493.638 388.655C502.655 390.157 514.066 388.102 524.838 382.253C543.75 371.9 553.644 353.8 546.862 341.708C540.159 329.695 519.412 328.272 500.501 338.626C488.611 345.106 480.312 354.67 477.44 363.838C475.604 369.687 471.455 374.508 466.189 377.748C461.082 380.91 455.576 384.308 450.628 387.391C441.213 393.239 430.44 396.638 419.349 397.665C411.13 398.456 402.911 399.562 394.772 401.222C395.49 398.061 396.288 394.978 397.165 391.896C399.878 382.332 406.342 373.955 415.359 369.687C423.179 365.972 430.919 358.78 436.584 349.058C447.357 330.485 446.24 309.936 434.27 303.059C422.301 296.183 403.788 305.668 393.016 324.241C387.031 334.516 384.717 345.423 385.914 354.275C386.792 361.072 385.276 368.027 382.483 374.35C380.728 378.381 379.132 382.411 377.616 386.442C372.908 399.246 363.173 409.442 350.724 415.132C348.251 416.239 345.777 417.424 343.303 418.689C326.626 426.909 311.465 437.815 297.98 450.54L297.341 402.566C297.102 386.442 301.81 370.556 311.146 357.357C327.504 334.358 347.612 312.781 367.083 293.259C368.758 291.678 370.354 290.098 372.03 288.438C382.563 278.321 396.208 271.761 410.731 270.023C421.503 268.758 432.275 267.889 442.968 267.81C453.82 267.731 464.513 272.552 470.896 281.325C476.163 288.438 485.26 294.761 496.511 298.238C517.098 304.561 537.206 299.108 541.276 285.988C545.425 272.868 532.02 257.061 511.433 250.738C500.9 247.497 490.446 247.339 482.227 249.71C476.722 251.291 471.056 252.002 465.391 251.212C449.112 248.841 431.637 249.157 414.96 250.343C424.456 242.676 440.335 231.295 451.586 223.392C458.608 218.491 467.146 216.673 475.604 217.543C484.382 218.412 494.995 216.041 505.049 210.351C523.721 199.681 533.297 181.344 526.354 169.41C519.412 157.476 498.665 156.527 479.913 167.197C469.221 173.362 461.481 181.977 458.209 190.434C455.496 197.468 450.229 203.158 443.606 206.873C436.345 210.983 427.488 216.041 421.822 219.677C421.344 208.928 421.264 198.1 421.742 187.43V186.798C422.141 180.475 425.892 175.101 431.318 171.781C439.936 166.486 447.117 155.026 449.671 140.878C453.341 119.855 445.282 100.807 431.637 98.4359C417.992 96.0648 403.868 111.24 400.198 132.263C398.203 143.407 399.559 153.998 403.31 161.823C404.985 165.3 405.704 169.094 405.145 172.967C404.586 177.314 404.028 181.661 403.469 186.166C402.033 201.736 401.634 217.227 401.953 232.797C401.474 233.113 400.916 233.508 400.437 233.824C387.111 243.15 374.184 252.793 361.577 262.988L360.938 244.652C360.699 236.986 363.013 229.398 367.721 223.233C373.147 216.12 376.498 205.608 376.498 193.832C376.498 172.492 365.247 155.105 351.363 155.105C337.478 155.105 326.227 172.413 326.227 193.832C326.227 205.608 329.658 216.12 335.005 223.233C339.713 229.398 342.027 236.907 341.787 244.652L340.83 272.236C340.67 277.61 338.197 282.668 334.207 286.304C322.636 296.658 311.465 307.486 300.693 318.788C299.097 320.447 297.581 322.107 296.065 323.846L293.83 161.19C293.671 149.414 298.379 138.112 306.997 130.05C312.981 124.36 319.365 118.985 325.908 113.848C330.217 110.449 335.484 108.553 340.989 108.157C350.325 107.604 361.816 102.625 372.11 94.0099C389.505 79.4673 396.846 59.8665 388.707 50.2242C380.488 40.5818 359.741 44.6126 342.426 59.2342C332.212 67.7701 325.509 78.0448 323.275 87.0549C321.998 92.3503 319.205 97.0924 315.136 100.728C313.779 101.914 312.502 103.099 311.146 104.285C302.767 111.556 294.309 118.59 285.133 124.676C283.297 112.82 283.138 100.807 283.377 88.7145C283.377 87.0548 283.377 85.316 283.537 83.6563C283.696 78.5189 285.452 73.5396 288.564 69.4298C293.751 62.3956 297.182 51.2516 297.182 38.6849C297.182 16.792 286.888 -0.912019 274.44 0.0364102C261.992 -0.832983 251.698 16.792 251.698 38.6849C251.698 51.2516 255.05 62.3956 260.316 69.4298C263.428 73.6187 265.184 78.5189 265.343 83.6563C265.343 85.316 265.423 87.0548 265.503 88.7145C265.742 100.807 265.583 112.741 263.747 124.676C254.571 118.59 246.113 111.556 237.734 104.285C236.378 103.099 235.021 101.914 233.744 100.728C229.675 97.0924 226.882 92.2712 225.605 87.0549C223.451 78.0448 216.668 67.7701 206.454 59.2342C189.059 44.6917 168.392 40.6608 160.173 50.2242C151.954 59.8665 159.375 79.3883 176.77 94.0099C187.064 102.625 198.555 107.604 207.891 108.157C213.397 108.474 218.583 110.449 222.972 113.848C229.515 118.985 235.899 124.36 241.883 130.05C250.422 138.191 255.209 149.493 255.05 161.19L252.815 323.846C251.299 322.186 249.703 320.526 248.187 318.788C237.415 307.486 226.164 296.658 214.673 286.304C210.604 282.668 208.21 277.61 208.05 272.236L207.093 244.652C206.853 236.986 209.167 229.398 213.875 223.233C219.301 216.12 222.653 205.608 222.653 193.832C222.653 172.492 211.402 155.105 197.517 155.105C183.633 155.105 172.382 172.413 172.382 193.832C172.382 205.608 175.813 216.12 181.159 223.233C185.867 229.398 188.181 236.907 187.942 244.652L187.303 262.988C174.696 252.872 161.769 243.15 148.443 233.824C147.964 233.508 147.406 233.113 146.927 232.797C147.326 217.227 146.927 201.736 145.411 186.166C144.852 181.74 144.373 177.314 143.735 172.967C143.176 169.173 143.895 165.3 145.57 161.823C149.321 153.998 150.677 143.407 148.682 132.263C145.012 111.24 130.888 96.0648 117.243 98.4359C103.598 100.807 95.4588 119.776 99.2092 140.878C101.683 155.026 108.944 166.565 117.562 171.781C122.988 175.101 126.739 180.475 127.138 186.798V187.43C127.616 198.1 127.537 208.928 127.138 219.677C121.472 216.041 112.615 210.983 105.353 206.873C98.8102 203.158 93.4639 197.468 90.7509 190.434C87.4793 181.977 79.7391 173.283 69.0465 167.197C50.3744 156.527 29.5478 157.476 22.6055 169.41C15.6633 181.344 25.159 199.602 43.9109 210.351C53.9652 216.12 64.578 218.491 73.3555 217.543C81.8936 216.673 90.4317 218.491 97.3739 223.392C108.625 231.295 124.504 242.676 134 250.343C117.403 249.157 99.8476 248.841 83.5693 251.212C77.9038 252.002 72.2383 251.291 66.7325 249.71C58.5135 247.339 48.1401 247.418 37.5273 250.738C16.9401 257.061 3.53444 272.868 7.6838 285.988C11.8332 299.108 31.8618 304.64 52.4491 298.238C63.7002 294.761 72.7969 288.438 78.0634 281.325C84.447 272.631 95.1396 267.731 105.992 267.81C116.684 267.889 127.457 268.758 138.229 270.023C152.832 271.761 166.397 278.242 176.93 288.438C178.606 290.019 180.202 291.599 181.877 293.259C201.347 312.781 221.456 334.358 237.814 357.357C247.23 370.556 251.858 386.442 251.619 402.566L250.98 450.54C237.495 437.815 222.334 426.909 205.656 418.689C203.183 417.424 200.789 416.239 198.235 415.132C185.707 409.442 175.972 399.246 171.344 386.442C169.828 382.411 168.232 378.302 166.477 374.35C163.684 368.027 162.168 361.151 163.046 354.275C164.243 345.423 161.849 334.516 155.944 324.241C145.171 305.668 126.739 296.183 114.69 303.059C102.64 309.936 101.603 330.485 112.375 349.058C118.041 358.78 125.781 365.972 133.601 369.687C142.618 373.955 149.081 382.332 151.794 391.896C152.672 394.978 153.47 398.061 154.188 401.222C146.049 399.641 137.83 398.456 129.611 397.665C118.52 396.638 107.747 393.318 98.3315 387.391C93.3841 384.308 87.8782 380.91 82.7713 377.748C77.5048 374.508 73.3555 369.687 71.5202 363.838C68.6475 354.67 60.3488 345.106 48.4593 338.626C29.5478 328.272 8.80093 329.695 2.09812 341.708C-4.6047 353.721 5.28995 371.9 24.1217 382.253C34.8941 388.181 46.225 390.236 55.3217 388.655C61.9447 387.549 68.7273 389.446 74.2332 393.239C78.7816 396.401 83.3299 399.562 87.958 402.724C83.2501 404.62 78.5422 406.833 74.0736 409.205C68.3284 412.287 61.9447 413.709 55.4813 413.947C47.9805 414.263 39.5222 416.871 31.4628 421.929C14.227 432.757 6.00812 450.461 13.0301 461.447C20.0521 472.433 39.7616 472.512 56.9974 461.684C66.2537 455.836 72.8767 448.09 75.9887 440.424C80.5371 429.28 89.4741 420.428 101.284 417.503L102.64 417.187C107.907 415.844 113.413 415.606 118.839 416.397C127.856 417.661 136.713 419.4 145.331 421.771C153.55 423.905 161.529 426.671 169.27 429.991C164.322 431.967 159.455 434.101 154.667 436.551C147.406 440.266 139.905 443.506 131.925 445.087C123.148 446.826 113.493 452.516 105.593 461.289C91.3094 477.254 88.1176 497.646 98.491 506.735C108.864 515.824 128.893 510.291 143.256 494.326C149.72 487.134 153.949 478.993 155.625 471.406C158.018 460.815 165.599 452.121 176.052 449.038C176.93 448.801 177.808 448.564 178.685 448.327C189.458 445.324 201.108 447.458 209.726 454.571C216.429 460.104 222.733 466.11 228.558 472.591C242.602 488.24 250.182 508.552 249.943 529.497C249.384 567.987 228.957 604.265 194.645 622.364C177.09 631.69 157.22 636.274 135.037 636.274C81.1754 636.274 62.5831 662.435 61.7851 663.542C58.5933 668.205 59.7902 674.528 64.4184 677.768C66.2537 679.033 68.3284 679.665 70.403 679.665C73.6747 679.665 76.8665 678.163 78.9412 675.397C79.4997 674.686 93.065 656.982 134.958 656.982C142.379 656.982 149.48 656.508 156.343 655.638C159.694 655.243 161.849 658.958 159.694 661.566L122.908 706.695C119.238 711.279 119.557 718.392 124.265 721.949C126.18 723.372 128.414 724.083 130.649 724.083C133.681 724.083 136.713 722.739 138.788 720.21L192.251 654.452C201.906 644.257 216.125 638.329 216.125 638.329C219.968 638.329 221.442 638.25 225.525 638.25C211.561 666.229 196.32 695.314 183.074 720.763C176.93 732.619 194.405 742.182 201.347 730.88C219.7 700.214 237.894 669.548 255.369 638.329C258.656 638.329 256.814 638.329 260.635 638.329L263.827 734.041C264.226 740.68 269.253 743.921 274.28 744H274.36C279.387 744 284.414 740.68 284.813 734.041L288.345 638.329C291.051 638.329 289.975 638.329 293.272 638.329C310.827 669.469 328.94 700.135 347.293 730.88C354.315 742.182 371.711 732.619 365.566 720.763C352.32 695.314 337.021 665.272 323.136 637.294C326.821 637.294 330.137 637.294 331.611 637.294C331.611 637.294 346.735 644.336 356.39 654.452L409.853 720.21C411.928 722.739 414.96 724.083 417.992 724.083C420.226 724.083 422.461 723.372 424.376 721.949C429.084 718.392 429.403 711.2 425.732 706.695L388.946 661.566C386.872 658.958 388.947 655.164 392.298 655.638C399.24 656.508 406.342 656.982 413.683 656.982C455.576 656.982 469.141 674.607 469.7 675.397C471.774 678.163 474.966 679.665 478.238 679.665C480.312 679.665 482.387 679.033 484.222 677.768C488.85 674.528 490.127 668.205 486.856 663.542C486.058 662.435 467.465 636.274 413.603 636.274C391.42 636.274 371.551 631.69 353.996 622.364C319.684 604.265 299.256 567.908 298.698 529.497C298.379 508.552 306.039 488.24 320.083 472.591C325.908 466.11 332.212 460.104 338.915 454.571C347.533 447.537 359.183 445.324 369.955 448.327C370.833 448.564 371.711 448.801 372.588 449.038C383.121 452.121 390.702 460.815 393.016 471.406C394.692 478.993 398.921 487.055 405.384 494.326C419.668 510.291 439.776 515.903 450.15 506.735C460.523 497.566 457.331 477.254 443.048 461.289C435.148 452.437 425.493 446.826 416.715 445.087C408.736 443.506 401.235 440.266 393.974 436.551C389.266 434.101 384.318 431.967 379.371 429.991C387.111 426.671 395.091 423.905 403.31 421.771C412.007 419.4 420.865 417.74 429.802 416.397C435.228 415.606 440.734 415.844 446 417.187L447.357 417.503C459.167 420.428 468.183 429.28 472.652 440.424C475.764 448.09 482.387 455.836 491.643 461.684C508.879 472.512 528.589 472.433 535.611 461.447C542.633 450.461 534.414 432.757 517.178 421.929H517.497Z" stroke="white" stroke-width="6" mask="url(#path-1-inside-1_305_262)"/>
</svg>
