<svg width="80" height="80" viewBox="0 0 80 80" fill="none" xmlns="http://www.w3.org/2000/svg">
<g clip-path="url(#clip0_100_439)">
<path d="M57.123 43.9507C59.1558 34.4285 53.0816 25.0619 43.556 23.03C34.0304 20.998 24.6606 27.07 22.6279 36.5922C20.5952 46.1144 26.6694 55.4809 36.1949 57.5129C45.7205 59.5449 55.0904 53.4729 57.123 43.9507Z" fill="#0057B8"/>
<path d="M30.9903 54.3804L20.3094 78.251L59.5628 78.1799L48.9388 54.4088L30.9903 54.3804Z" fill="#0057B8"/>
<path d="M30.464 22.8327L19.7974 1.59229L59.0365 1.66337L48.4267 22.8043L30.464 22.8327Z" fill="#0057B8"/>
<path d="M24.7324 31.0501L0.853271 20.3872L0.952822 59.6124L24.7182 48.9922L24.7324 31.0501Z" fill="#0057B8"/>
<path d="M56.7609 31.0785L78.7484 20.3872L78.7058 59.6124L56.8035 49.0206L56.7609 31.0785Z" fill="#0057B8"/>
<path d="M2.41777 58.02V29.2303V21.3824L24.7751 32.5571L26.7093 30.9505L0.142212 17.8281V27.2968V61.3326V61.6596L26.7093 48.6794L24.7751 47.144L2.41777 58.02Z" fill="url(#paint0_linear_100_439)"/>
<path d="M21.5468 2.431H50.3468H58.1974L47.0188 24.7804L48.6259 26.7139L61.753 0.15625H52.281H18.233H17.9059L30.8908 26.7139L32.4268 24.7804L21.5468 2.431Z" fill="url(#paint1_linear_100_439)"/>
<path d="M58.3963 77.4834H29.3973H21.6462L32.7537 54.9775L31.1323 53.0298L17.9199 79.7723H27.463H61.7386H62.0657L48.9955 53.0298L47.4453 54.9775L58.3963 77.4834Z" fill="url(#paint2_linear_100_439)"/>
<path d="M77.5112 21.4677V50.2717V58.1054L55.1539 46.9306L53.2196 48.5372L79.7868 61.6596V52.191V18.1551V17.8281L53.2196 30.524L55.1539 32.358L77.5112 21.4677Z" fill="url(#paint3_linear_100_439)"/>
<path d="M40.3057 53.8687C40.2204 53.9397 40.1351 54.025 40.064 54.0961C40.0213 54.0535 39.9787 53.9966 39.9217 53.9539L35.2142 56.9396C35.9822 59.0863 38.9689 58.9015 38.9689 58.9015L39.5947 58.8589H39.6657L39.68 58.8304L39.8933 58.7452L39.9929 58.7025L40.0071 58.7309L40.0782 58.7452L40.6756 58.8304C40.6756 58.8304 43.5627 59.2427 44.544 57.1955L40.3057 53.8687Z" fill="url(#paint4_radial_100_439)"/>
<path d="M27.9751 25.4913L27.9893 26.1453V26.188L28.0462 26.2306L28.6008 26.5576C28.6008 26.5576 31.2604 28.1357 33.0382 26.6145C33.1519 26.387 33.0808 25.9321 32.3698 25.534C33.5786 25.7757 34.9439 25.861 35.7404 24.752C35.8258 24.027 34.8871 23.7568 34.5742 23.7142C35.4702 23.572 36.7218 22.7047 36.1528 21.8091H36.1386" fill="url(#paint5_linear_100_439)"/>
<path d="M23.0682 32.6565L23.3669 33.2252L23.3812 33.2536H23.4522L24.0922 33.2963C24.0922 33.2963 27.1784 33.5095 28.0744 31.3485C28.0602 31.0926 27.8042 30.723 26.9936 30.6803C28.174 30.3533 29.4397 29.813 29.6389 28.4625C29.3971 27.78 28.43 27.9506 28.1313 28.0644C28.8709 27.5383 29.582 26.1877 28.6717 25.6616C28.6717 25.6616 28.6717 25.6759 28.6576 25.6759" fill="url(#paint6_linear_100_439)"/>
<path d="M21.9448 41.2866L22.471 41.6562L22.4994 41.6846L22.5706 41.6562L23.1679 41.4003C23.1679 41.4003 26.0123 40.1919 25.8417 37.8602C25.7137 37.6328 25.3297 37.4195 24.5759 37.7607C25.4861 36.9361 26.3679 35.8983 25.9413 34.5903C25.415 34.0927 24.6328 34.6756 24.4053 34.9173C24.8319 34.1211 24.8603 32.5856 23.8079 32.5288V32.543" fill="url(#paint7_linear_100_439)"/>
<path d="M24.718 49.5325H25.3723H25.4149L25.4576 49.4757L25.7989 48.9354C25.7989 48.9354 27.4629 46.3194 25.998 44.4996C25.7705 44.3859 25.3296 44.4285 24.9029 45.1252C25.1732 43.9309 25.3154 42.5661 24.2203 41.7415C23.5092 41.6278 23.1963 42.5661 23.1394 42.8788C23.0256 41.9832 22.2008 40.7037 21.2905 41.2439V41.2581" fill="url(#paint8_linear_100_439)"/>
<path d="M31.8291 54.9347L32.3126 54.4939L32.3411 54.4655L32.3269 54.3944L32.2131 53.7547C32.2131 53.7547 31.6726 50.7122 29.3545 50.3568C29.1126 50.4279 28.814 50.7691 28.9705 51.5653C28.3589 50.4989 27.5482 49.4043 26.1686 49.5322C25.5713 49.9303 25.9696 50.8259 26.1402 51.0961C25.4576 50.5132 23.9785 50.1294 23.6798 51.1529H23.694" fill="url(#paint9_linear_100_439)"/>
<path d="M37.9306 56.6835L38.2577 56.2144L38.2719 56.1859L38.2434 56.1291L38.0301 55.6173C38.0301 55.6173 36.9777 53.1293 34.9297 53.2856C34.7306 53.3994 34.5457 53.7406 34.8301 54.3946C34.1048 53.6126 33.1946 52.8307 32.0284 53.2145C31.5874 53.6695 32.0994 54.3662 32.2986 54.5509C31.5874 54.1814 30.2506 54.1529 30.1794 55.077H30.1937" fill="url(#paint10_linear_100_439)"/>
<path d="M51.9253 25.4484L51.9111 26.1024V26.145L51.8541 26.1877L51.2995 26.5147C51.2995 26.5147 48.6541 28.0928 46.9048 26.5715C46.7911 26.344 46.8621 25.8891 47.5591 25.491C46.3644 25.7327 45.0132 25.818 44.2168 24.7091C44.1315 23.984 45.056 23.7139 45.3688 23.6712C44.4871 23.529 43.2497 22.6618 43.8186 21.7661H43.8328" fill="url(#paint11_linear_100_439)"/>
<path d="M56.7894 32.6144L56.4908 33.183L56.4765 33.2115H56.4054L55.7512 33.2684C55.7512 33.2684 52.6934 33.4816 51.8117 31.3206C51.8259 31.0647 52.0677 30.695 52.8784 30.6524C51.7121 30.3254 50.4605 29.7851 50.2472 28.4345C50.489 27.7521 51.4419 27.9227 51.7405 28.0365C51.0152 27.5104 50.2899 26.1598 51.2001 25.6338C51.2001 25.6338 51.2001 25.648 51.2144 25.648" fill="url(#paint12_linear_100_439)"/>
<path d="M57.9127 41.2294L57.3866 41.5991L57.3581 41.6275L57.287 41.5991L56.7039 41.3432C56.7039 41.3432 53.8737 40.1347 54.0443 37.8031C54.1582 37.5756 54.5563 37.3623 55.2959 37.7036C54.3999 36.879 53.5182 35.8411 53.9448 34.5332C54.471 34.0356 55.239 34.6184 55.4523 34.8602C55.0399 34.064 54.9972 32.5285 56.0355 32.4717V32.4858" fill="url(#paint13_linear_100_439)"/>
<path d="M55.1537 49.4895H54.5137H54.471L54.4283 49.4327L54.087 48.8925C54.087 48.8925 52.4372 46.2765 53.8879 44.4567C54.1154 44.343 54.5563 44.3856 54.983 45.0823C54.7127 43.888 54.5706 42.5232 55.6514 41.6985C56.3626 41.5849 56.6754 42.5232 56.7181 42.836C56.8319 41.9403 57.6567 40.6607 58.5527 41.201V41.2152" fill="url(#paint14_linear_100_439)"/>
<path d="M48.1137 54.878L47.6444 54.4515L47.616 54.4231L47.6301 54.352L47.744 53.7122C47.744 53.7122 48.2844 50.6697 50.5741 50.3143C50.816 50.3854 51.1146 50.7266 50.9581 51.5227C51.5555 50.4565 52.3661 49.3617 53.7315 49.4897C54.3288 49.8878 53.9306 50.7835 53.76 51.0536C54.4426 50.4707 55.9075 50.0868 56.2061 51.1105H56.192" fill="url(#paint15_linear_100_439)"/>
<path d="M42.0692 56.6269L41.7422 56.1578L41.7279 56.1293L41.7563 56.0724L41.9697 55.5606C41.9697 55.5606 43.0079 53.0726 45.0417 53.229C45.2408 53.3428 45.4257 53.6839 45.1412 54.3379C45.8523 53.556 46.7626 52.774 47.9146 53.1579C48.3554 53.6128 47.8434 54.3095 47.6443 54.4943C48.3412 54.1247 49.6781 54.0963 49.735 55.0203H49.7207" fill="url(#paint16_linear_100_439)"/>
<path d="M22.8976 46.9165C23.2531 47.4 23.694 48.0113 23.054 48.4805C22.4994 48.8927 21.9589 48.3383 21.6176 47.8406C21.0629 47.0871 21.2904 46.5469 21.4611 46.2768C21.7883 46.1915 22.3571 46.163 22.8976 46.9165Z" fill="url(#paint17_linear_100_439)"/>
<path d="M23.3527 47.2578C23.0967 46.9024 22.7981 47.3432 22.4283 47.6132C22.0585 47.8834 21.575 47.9972 21.8452 48.3526C22.1012 48.708 22.6843 48.7507 23.0541 48.4806C23.4238 48.2104 23.6087 47.6275 23.3527 47.2578Z" fill="url(#paint18_radial_100_439)"/>
<path d="M28.4444 53.8829C28.9423 54.2099 29.5823 54.6222 29.1556 55.2905C28.7858 55.8733 28.0889 55.5463 27.5769 55.2194C26.7947 54.7076 26.8089 54.1388 26.8658 53.8118C27.1503 53.6128 27.6623 53.3712 28.4444 53.8829Z" fill="url(#paint19_linear_100_439)"/>
<path d="M28.9848 54.0393C28.615 53.7975 28.5012 54.3236 28.2594 54.7074C28.0177 55.0914 27.6052 55.3614 27.975 55.6032C28.3448 55.8449 28.8994 55.66 29.1554 55.2762C29.3972 54.9065 29.3688 54.2809 28.9848 54.0393Z" fill="url(#paint20_radial_100_439)"/>
<path d="M38.1154 58.2475C37.9021 57.7783 37.6318 57.1812 38.2576 56.8969C38.7981 56.6552 39.1536 57.2097 39.367 57.6931C39.6941 58.4323 39.4096 58.8447 39.2247 59.0437C38.9261 59.0579 38.4425 58.9868 38.1154 58.2475Z" fill="url(#paint21_linear_100_439)"/>
<path d="M37.8025 57.8777C37.959 58.2332 38.2861 57.9062 38.6417 57.7356C38.9972 57.5792 39.4238 57.565 39.2674 57.2238C39.111 56.8683 38.6274 56.7404 38.2718 56.8968C37.9021 57.0532 37.6461 57.5223 37.8025 57.8777Z" fill="url(#paint22_radial_100_439)"/>
<path d="M40.6898 57.7071C40.9317 57.2522 41.2445 56.655 41.8561 56.982C42.3823 57.2663 42.1548 57.8919 41.913 58.3611C41.529 59.0862 41.0312 59.1146 40.7468 59.0862C40.5477 58.8587 40.3058 58.4322 40.6898 57.7071Z" fill="url(#paint23_linear_100_439)"/>
<path d="M40.7894 57.2239C40.6045 57.5651 41.0738 57.622 41.4152 57.8069C41.7708 57.9917 42.0409 58.3328 42.2116 57.9917C42.3965 57.6504 42.1974 57.1813 41.8418 56.9964C41.5005 56.8116 40.9743 56.8827 40.7894 57.2239Z" fill="url(#paint24_radial_100_439)"/>
<path d="M24.7893 30.069C24.6613 30.6519 24.5191 31.4054 23.7369 31.2348C23.0542 31.0927 23.1111 30.3249 23.2249 29.742C23.4098 28.8321 23.9502 28.6331 24.2773 28.5762C24.5759 28.761 24.9884 29.1591 24.7893 30.069Z" fill="url(#paint25_linear_100_439)"/>
<path d="M24.8318 30.6381C24.9172 30.1974 24.3909 30.2969 23.9501 30.1974C23.5092 30.1121 23.0968 29.8277 23.0114 30.2685C22.9261 30.7091 23.2958 31.1641 23.7368 31.2494C24.1918 31.3347 24.7465 31.0788 24.8318 30.6381Z" fill="url(#paint26_radial_100_439)"/>
<path d="M30.4781 23.842C30.1083 24.3112 29.639 24.9083 29.0132 24.4248C28.4727 23.9983 28.8567 23.3302 29.2265 22.861C29.8097 22.1217 30.3785 22.1928 30.6914 22.2781C30.8621 22.5767 31.047 23.1169 30.4781 23.842Z" fill="url(#paint27_linear_100_439)"/>
<path d="M30.2649 24.3682C30.5351 24.0128 30.0231 23.8564 29.6676 23.5862C29.312 23.3019 29.0702 22.8754 28.8 23.2308C28.5298 23.5862 28.6578 24.1549 29.0133 24.4393C29.3689 24.7094 29.9805 24.7236 30.2649 24.3682Z" fill="url(#paint28_radial_100_439)"/>
<path d="M22.0444 38.244C22.1724 38.8268 22.3288 39.5803 21.5466 39.7367C20.8639 39.8789 20.6079 39.1538 20.4942 38.5709C20.3092 37.661 20.7217 37.263 20.9919 37.0781C21.3332 37.135 21.8595 37.3198 22.0444 38.244Z" fill="url(#paint29_linear_100_439)"/>
<path d="M22.3148 38.7413C22.2294 38.3006 21.7743 38.5992 21.3334 38.6844C20.8925 38.784 20.4089 38.6844 20.4942 39.1252C20.5796 39.5659 21.1058 39.836 21.5467 39.7365C22.0018 39.637 22.4143 39.1821 22.3148 38.7413Z" fill="url(#paint30_radial_100_439)"/>
<path d="M57.4151 47.0159C57.0453 47.4993 56.576 48.1107 57.2587 48.5798C57.8418 48.9921 58.3964 48.4377 58.7662 47.94C59.3351 47.1865 59.1075 46.6463 58.9227 46.3761C58.5813 46.305 57.9982 46.2623 57.4151 47.0159Z" fill="url(#paint31_linear_100_439)"/>
<path d="M56.9457 47.3716C57.2159 47.0162 57.5288 47.4569 57.9128 47.727C58.2968 47.9972 58.7946 48.1109 58.5244 48.4663C58.2541 48.8218 57.6425 48.8644 57.2585 48.5943C56.8745 48.3242 56.6754 47.727 56.9457 47.3716Z" fill="url(#paint32_radial_100_439)"/>
<path d="M51.6264 53.9826C51.1002 54.3096 50.2895 54.7218 50.7447 55.3901C51.1428 55.9729 51.8682 55.6459 52.3944 55.319C53.2193 54.8072 53.3473 54.2385 53.2762 53.9115C52.9775 53.7124 52.4513 53.4707 51.6264 53.9826Z" fill="url(#paint33_linear_100_439)"/>
<path d="M51.0579 54.153C51.4419 53.9114 51.5557 54.4374 51.8259 54.8213C52.0819 55.2051 52.3664 55.4753 51.9824 55.7169C51.5842 55.9586 51.0153 55.7738 50.745 55.3899C50.4749 55.0061 50.6597 54.3948 51.0579 54.153Z" fill="url(#paint34_radial_100_439)"/>
<path d="M55.4382 30.1828C55.5662 30.7657 55.7226 31.5192 56.5333 31.3485C57.2445 31.2064 57.1876 30.4387 57.0596 29.8558C56.8605 28.9459 56.2916 28.7469 55.9645 28.6899C55.6658 28.8748 55.2391 29.2586 55.4382 30.1828Z" fill="url(#paint35_linear_100_439)"/>
<path d="M55.3956 30.7372C55.2961 30.2965 55.8508 30.396 56.3201 30.2965C56.7894 30.2112 57.2161 29.9269 57.3014 30.3675C57.4009 30.8083 57.0028 31.2633 56.5476 31.3485C56.0783 31.4481 55.4952 31.178 55.3956 30.7372Z" fill="url(#paint36_radial_100_439)"/>
<path d="M49.5074 23.9558C49.8914 24.4249 50.3892 25.022 51.0434 24.5387C51.6123 24.1121 51.2141 23.4439 50.8158 22.9748C50.2185 22.2354 49.6212 22.3065 49.2798 22.3919C49.0949 22.6904 48.8958 23.2164 49.5074 23.9558Z" fill="url(#paint37_linear_100_439)"/>
<path d="M49.7206 24.4819C49.4362 24.1265 49.9625 23.97 50.3465 23.7C50.7162 23.4156 50.9722 22.9891 51.2566 23.3445C51.5411 23.7 51.4131 24.2686 51.0291 24.553C50.6593 24.8089 50.0193 24.8231 49.7206 24.4819Z" fill="url(#paint38_radial_100_439)"/>
<path d="M58.311 38.3435C58.183 38.9264 58.0123 39.6799 58.8372 39.8363C59.5483 39.9785 59.8186 39.2534 59.9466 38.6705C60.1456 37.7606 59.7047 37.3626 59.4203 37.1777C59.0647 37.2346 58.5101 37.4337 58.311 38.3435Z" fill="url(#paint39_linear_100_439)"/>
<path d="M58.0268 38.8551C58.1263 38.4144 58.5956 38.7129 59.0508 38.7982C59.5201 38.8977 60.0179 38.7982 59.9325 39.239C59.8329 39.6797 59.2925 39.9498 58.8232 39.8503C58.3681 39.7508 57.9414 39.2817 58.0268 38.8551Z" fill="url(#paint40_radial_100_439)"/>
<path d="M40.0879 27.1543C39.4763 27.8083 39.1066 28.6755 39.1066 29.6281C39.1493 31.7038 39.4195 35.0449 39.4337 37.1348C39.4763 39.0683 38.7226 40.4758 37.983 42.2387C37.727 42.7364 37.471 43.2055 37.1866 43.6889L36.5323 43.5325C35.8213 43.3904 35.4942 42.7364 35.6363 42.0681C35.7643 41.471 36.1768 41.2009 36.7883 41.2009L37.0728 41.2293L36.4328 36.0116C36.2195 33.7511 35.5653 31.192 33.7448 29.8982C33.4319 29.685 32.5359 29.4717 32.1804 29.3011V48.3379H36.447C36.7742 50.0298 37.8977 51.0818 39.2773 52.0912C39.6043 52.3045 39.519 52.2334 40.0737 52.6457C40.543 52.3045 40.543 52.3045 40.8702 52.0912C42.2497 51.0818 43.3733 50.0298 43.7003 48.3379H47.967V29.3154C47.6257 29.5001 46.7154 29.6992 46.4026 29.9125C44.5822 31.2062 43.9279 33.7653 43.7146 36.0259L43.0746 41.2435L43.359 41.2151C43.9706 41.2151 44.383 41.4852 44.511 42.0824C44.6533 42.7505 44.3262 43.4045 43.615 43.5467L42.9608 43.7031C42.6906 43.2197 42.4203 42.7364 42.1643 42.253C41.4248 40.4758 40.671 39.0825 40.7137 37.149C40.7422 35.0733 40.9982 31.7323 41.0408 29.6424C41.0693 28.6898 40.6995 27.8225 40.0879 27.1543ZM33.6453 31.9171C34.4986 32.8554 34.783 34.6041 34.9537 35.9121L35.4799 40.1062C34.8115 40.419 34.4417 41.0019 34.2426 41.6985H33.6453V31.9171ZM46.5163 31.9171V41.6985H45.919C45.7199 41.0019 45.2079 40.419 44.6817 40.1062L45.2079 35.9121C45.2363 34.6184 45.8053 32.8696 46.6586 31.9171H46.5163ZM40.0879 41.4568C40.4862 42.324 40.6283 42.8501 41.2399 44.0017C40.671 44.1723 40.4435 44.215 40.0879 44.6415C39.7182 44.2007 39.5048 44.1723 38.9359 44.0017C39.5902 42.7505 39.7039 42.3099 40.0879 41.4568ZM33.6453 43.0775H34.2426C34.4843 43.9306 35.1813 44.613 36.0915 44.8547L36.7173 44.9969C36.5466 45.5798 36.319 46.049 36.319 46.6745H33.6453V42.9354V43.0775ZM45.919 42.9354H46.5163V46.6745H43.8426C43.8426 46.049 43.6008 45.5655 43.4443 44.9969L44.0702 44.8547C44.9662 44.613 45.6773 43.8026 45.919 42.9354ZM38.2959 45.2812C39.0923 45.395 39.2773 45.8925 39.2773 46.6745H38.0683C38.0683 46.1485 38.1537 45.7646 38.2959 45.2812ZM41.8657 45.2812C42.0079 45.7788 42.0933 46.1485 42.0933 46.6745H40.8702C40.8843 45.8925 41.0693 45.3807 41.8657 45.2812ZM38.0826 48.3379H39.4337V50.3994C38.7083 49.6885 38.3243 49.3473 38.0826 48.3379ZM40.7422 48.3379H42.0933C41.8515 49.3331 41.4675 49.6743 40.7422 50.3994V48.3379Z" fill="#FFDE00"/>
<path d="M30.9616 24.6239L31.0612 24.0125C31.0612 24.0125 31.5021 21.0554 33.7492 20.7425C33.991 20.8137 34.2896 21.1406 34.1616 21.9226C34.7163 20.8848 35.4843 19.8327 36.8354 19.9749C37.447 20.373 37.0772 21.2402 36.9066 21.4961C37.5607 20.9274 38.9972 20.5862 39.3243 21.5672H39.3101C39.7226 22.5624 38.4141 23.2305 37.5466 23.2305C37.8452 23.3159 38.6986 23.785 38.5136 24.5101C37.5892 25.5195 36.295 25.1925 35.1856 24.7376C35.8114 25.2636 35.8256 25.747 35.6834 25.9603C33.7776 27.2256 31.4452 25.1641 31.4452 25.1641L30.9616 24.7376L30.9332 24.7092L30.9616 24.6239Z" fill="url(#paint41_linear_100_439)"/>
<path d="M31.2318 24.5388L31.303 24.0127C31.303 24.0127 31.7865 21.3541 33.6923 21.0982C33.8914 21.1551 34.119 21.866 34.0051 22.5341C34.4745 21.6669 35.5554 20.2026 36.6932 20.3163C37.2052 20.6575 36.8923 21.5247 36.7643 21.7522C37.319 21.2831 38.8123 20.8707 39.0825 21.6954C39.0825 21.6954 39.0825 21.6954 39.0683 21.6954C39.4097 22.5341 38.0158 23.174 37.2905 23.1597C37.5323 23.2308 38.3572 23.7426 38.2007 24.354C37.4327 25.207 35.6407 24.7236 34.7021 24.354C35.2283 24.7947 35.527 25.534 35.4132 25.7188C33.8203 26.7851 31.6585 24.9796 31.6585 24.9796L31.2461 24.6241L31.2177 24.5956L31.2318 24.5388Z" fill="url(#paint42_linear_100_439)"/>
<path d="M31.2887 24.1976C31.2887 24.1976 37.0487 22.1218 37.1483 22.4061C37.191 22.7474 31.5305 24.88 31.5305 24.88L31.2177 24.5956L31.2887 24.1976Z" fill="url(#paint43_linear_100_439)"/>
<path d="M25.2729 30.8653L25.0453 30.2824C25.0453 30.2824 23.9786 27.4817 25.7849 26.1168C26.0266 26.0599 26.4533 26.2021 26.7235 26.9414C26.7093 25.7614 26.8657 24.4676 28.103 23.9273C28.8284 23.9843 28.9279 24.9083 28.9137 25.2211C29.2124 24.4108 30.2933 23.4013 31.0613 24.1122C31.0613 24.1122 31.0613 24.1122 31.047 24.1264C31.8862 24.7946 31.0897 26.0173 30.3217 26.4296C30.6204 26.3585 31.6017 26.3443 31.7866 27.0693C31.4737 28.3916 30.1795 28.747 28.999 28.9033C29.7955 29.0598 30.0515 29.4721 30.0373 29.728C28.999 31.761 25.9555 31.0928 25.9555 31.0928L25.3155 30.9507L25.2729 30.9364V30.8653Z" fill="url(#paint44_linear_100_439)"/>
<path d="M25.4577 30.6663L25.2728 30.1686C25.2728 30.1686 24.3911 27.6095 25.9271 26.4579C26.1404 26.4153 26.6808 26.9271 26.9084 27.5527C26.8942 26.5717 27.1217 24.7661 28.1742 24.3112C28.7857 24.3538 28.9422 25.2779 28.928 25.5196C29.184 24.8372 30.2791 23.7424 30.9333 24.3396C30.9333 24.3396 30.9333 24.3396 30.9191 24.3538C31.6302 24.9225 30.72 26.1593 30.08 26.5006C30.336 26.4438 31.2888 26.5006 31.4595 27.0978C31.2035 28.2208 29.4115 28.6758 28.416 28.8038C29.0844 28.9318 29.7102 29.4293 29.696 29.6426C28.8142 31.3487 26.0551 30.8368 26.0551 30.8368L25.5147 30.7231H25.4862L25.4577 30.6663Z" fill="url(#paint45_linear_100_439)"/>
<path d="M25.344 30.3253C25.344 30.3253 29.3547 25.7047 29.5822 25.9037C29.7956 26.188 25.8845 30.8086 25.8845 30.8086L25.4862 30.7091L25.344 30.3253Z" fill="url(#paint46_linear_100_439)"/>
<path d="M22.4428 38.4716L22.0161 38.0024C22.0161 38.0024 19.9965 35.7987 21.1769 33.851C21.3903 33.7088 21.8312 33.6803 22.3574 34.2775C21.9165 33.197 21.5752 31.9316 22.5281 30.9649C23.2249 30.7516 23.6659 31.5762 23.7512 31.8606C23.7228 30.9933 24.3628 29.6569 25.3441 30.0266V30.0407C26.3681 30.3536 26.0694 31.7752 25.5148 32.4435C25.7708 32.2728 26.6809 31.889 27.1219 32.5003C27.3209 33.851 26.2401 34.6471 25.2019 35.2301C25.9983 35.0878 26.3823 35.3722 26.4676 35.6139C26.2401 37.8744 23.1681 38.3862 23.1681 38.3862L22.5281 38.5H22.4854L22.4428 38.4716Z" fill="url(#paint47_linear_100_439)"/>
<path d="M22.542 38.2014L22.1864 37.8176C22.1864 37.8176 20.4371 35.7561 21.4327 34.1211C21.6033 33.9931 22.3003 34.2775 22.7411 34.7751C22.3713 33.8651 21.9163 32.1022 22.7269 31.2918C23.31 31.1071 23.7936 31.9031 23.8789 32.1449C23.8647 31.4198 24.4904 29.9981 25.3011 30.3109C25.3011 30.3109 25.3011 30.3109 25.3011 30.3251C26.1687 30.5952 25.7847 32.0738 25.3153 32.6282C25.5287 32.4861 26.4389 32.1733 26.8087 32.6851C26.9793 33.8225 25.4718 34.903 24.6043 35.3864C25.2727 35.2584 26.0264 35.5001 26.0976 35.6991C25.9127 37.6042 23.1536 38.1445 23.1536 38.1445L22.6131 38.2441H22.5847L22.542 38.2014Z" fill="url(#paint48_linear_100_439)"/>
<path d="M22.3147 37.9452C22.3147 37.9452 24.3484 32.1731 24.6329 32.2868C24.9316 32.4716 22.9974 38.2011 22.9974 38.2011L22.5849 38.2581L22.3147 37.9452Z" fill="url(#paint49_linear_100_439)"/>
<path d="M23.1822 46.7887L22.6275 46.5044C22.6275 46.5044 19.9537 45.1679 20.3519 42.9216C20.4942 42.7084 20.9066 42.5236 21.6035 42.8932C20.7928 42.0402 20.039 40.9739 20.5795 39.737C21.1483 39.282 21.8595 39.9076 22.0443 40.1351C21.7172 39.3389 21.831 37.8604 22.8692 37.8604V37.8745C23.9359 37.8034 24.1777 39.2394 23.8932 40.064C24.0639 39.8081 24.775 39.1399 25.4008 39.5379C26.0692 40.7322 25.3439 41.8554 24.5759 42.7794C25.2728 42.3529 25.7279 42.4951 25.8986 42.6799C26.4959 44.8836 23.8079 46.4475 23.8079 46.4475L23.2532 46.7745L23.2248 46.7887H23.1822Z" fill="url(#paint50_linear_100_439)"/>
<path d="M23.1822 46.5042L22.7129 46.2625C22.7129 46.2625 20.3377 44.9688 20.6791 43.0921C20.7929 42.9215 21.5466 42.9215 22.144 43.2343C21.4613 42.5234 20.4231 41.0306 20.8782 39.9928C21.3617 39.6089 22.1013 40.1776 22.2577 40.3766C21.9733 39.7084 22.0586 38.1587 22.9404 38.1587V38.1729C23.8364 38.1019 24.0213 39.6231 23.7796 40.3198C23.9217 40.1065 24.6756 39.4952 25.2017 39.8364C25.7706 40.8315 24.7466 42.3813 24.1066 43.1489C24.6897 42.7935 25.4862 42.7367 25.6142 42.9073C26.1262 44.7555 23.7369 46.2483 23.7369 46.2483L23.2676 46.5184L23.2391 46.5327L23.1822 46.5042Z" fill="url(#paint51_linear_100_439)"/>
<path d="M22.8692 46.3336C22.8692 46.3336 22.6985 40.2202 22.9972 40.2202C23.3385 40.277 23.5945 46.3194 23.5945 46.3194L23.239 46.5184L22.8692 46.3336Z" fill="url(#paint52_linear_100_439)"/>
<path d="M28.4728 53.3142L27.847 53.3995C27.847 53.3995 24.8745 53.8118 23.9501 51.7361C23.9501 51.4802 24.1918 51.0963 24.9741 51.0111C23.8221 50.7693 22.5989 50.3144 22.3572 48.9922C22.5705 48.2956 23.5092 48.4093 23.7936 48.4946C23.0683 48.0254 22.3288 46.7459 23.1963 46.1487C23.1963 46.1487 23.1963 46.163 23.2105 46.163C24.0496 45.4948 25.0594 46.5468 25.287 47.3857C25.287 47.0729 25.5003 46.1203 26.2398 46.0919C27.463 46.689 27.5057 48.0397 27.3918 49.2197C27.719 48.4804 28.1741 48.324 28.4301 48.3951C30.1652 49.8737 28.8425 52.6887 28.8425 52.6887L28.5723 53.2716L28.5581 53.3L28.4728 53.3142Z" fill="url(#paint53_linear_100_439)"/>
<path d="M28.3023 53.0868L27.7761 53.1578C27.7761 53.1578 25.0881 53.4279 24.3059 51.6934C24.3059 51.4802 24.9317 51.0679 25.5859 50.9826C24.6188 50.7694 22.9121 50.1438 22.713 49.0206C22.8979 48.4377 23.8223 48.4804 24.0641 48.5514C23.4526 48.1534 22.6419 46.8312 23.3673 46.3336C23.3673 46.3336 23.3673 46.3336 23.3673 46.3478C24.0783 45.7791 25.0739 46.9449 25.273 47.6415C25.273 47.3857 25.5433 46.4615 26.169 46.4331C27.2073 46.9449 27.2357 48.7789 27.1503 49.7883C27.4348 49.1628 28.0463 48.6794 28.2597 48.7363C29.7246 49.9732 28.601 52.5465 28.601 52.5465L28.3734 53.0441L28.3593 53.0725L28.3023 53.0868Z" fill="url(#paint54_linear_100_439)"/>
<path d="M27.961 53.1295C27.961 53.1295 24.3627 48.182 24.6046 48.0114C24.9174 47.8692 28.5441 52.7173 28.5441 52.7173L28.3592 53.087L27.961 53.1295Z" fill="url(#paint55_linear_100_439)"/>
<path d="M35.9821 57.082L35.4559 57.409C35.4559 57.409 32.9101 58.9871 31.2177 57.4659C31.1181 57.2384 31.175 56.7834 31.8577 56.3854C30.7057 56.627 29.4114 56.7124 28.6434 55.6034C28.5581 54.8784 29.4541 54.6082 29.7528 54.5655C28.8994 54.4234 27.7048 53.5561 28.2452 52.6605H28.2594C28.7572 51.7079 30.1084 52.2624 30.663 52.9306C30.535 52.6463 30.3359 51.6937 31.0044 51.3667C32.3697 51.4235 32.9528 52.632 33.3368 53.7694C33.3368 52.959 33.6923 52.632 33.9483 52.6036C36.1385 53.2434 36.0674 56.3569 36.0674 56.3569L36.0532 57.011V57.0536L35.9821 57.082Z" fill="url(#paint56_linear_100_439)"/>
<path d="M35.7404 56.9393L35.2995 57.2095C35.2995 57.2095 32.9528 58.5458 31.5306 57.2663C31.4452 57.0673 31.8435 56.4418 32.4124 56.1005C31.4452 56.2996 29.6391 56.4133 28.9848 55.475C28.9137 54.8637 29.7812 54.5367 30.0372 54.5083C29.3119 54.3945 28.0461 53.513 28.5012 52.7738C28.5012 52.7738 28.5012 52.7738 28.5155 52.7738C28.9279 51.9776 30.3217 52.6173 30.7911 53.186C30.6915 52.9443 30.5492 51.9918 31.1181 51.7217C32.2701 51.7643 33.0524 53.4419 33.3652 54.3945C33.3652 53.7121 33.7351 53.0154 33.9484 52.9728C35.7831 53.513 35.8115 56.3138 35.8115 56.3138L35.7972 56.854V56.8825L35.7404 56.9393Z" fill="url(#paint57_linear_100_439)"/>
<path d="M35.4418 57.1101C35.4418 57.1101 30.1511 54.0392 30.3076 53.7833C30.5351 53.5274 35.8116 56.4845 35.8116 56.4845L35.7974 56.8969L35.4418 57.1101Z" fill="url(#paint58_linear_100_439)"/>
<path d="M48.9385 24.681L48.8389 24.0697C48.8389 24.0697 48.3839 21.1125 46.0229 20.7997C45.7669 20.8708 45.454 21.1978 45.5963 21.9798C45.0132 20.9418 44.2025 19.8898 42.7945 20.032C42.1545 20.4301 42.5385 21.2973 42.7092 21.5532C42.0265 20.9845 40.5189 20.6433 40.1776 21.6243H40.1919C39.7652 22.6195 41.1163 23.2877 42.0265 23.2877C41.7136 23.373 40.8176 23.8422 41.0025 24.5673C41.9696 25.5767 43.3207 25.2497 44.4869 24.7948C43.8327 25.3208 43.8185 25.8042 43.9607 26.0174C45.9519 27.2828 48.3839 25.2213 48.3839 25.2213L48.8959 24.7948L48.9243 24.7663L48.9385 24.681Z" fill="url(#paint59_linear_100_439)"/>
<path d="M48.6541 24.5813L48.5688 24.0553C48.5688 24.0553 48.0568 21.3966 46.08 21.1408C45.8666 21.1976 45.6391 21.9085 45.7529 22.5767C45.2551 21.7095 44.1316 20.245 42.9369 20.3588C42.4106 20.7 42.7236 21.5673 42.8657 21.7947C42.2826 21.3255 40.7182 20.9133 40.4337 21.7379H40.448C40.0924 22.5767 41.5431 23.2165 42.3111 23.2022C42.0551 23.2733 41.2017 23.7851 41.3582 24.3965C42.1689 25.2495 44.032 24.7661 45.0133 24.3965C44.4729 24.8372 44.16 25.5765 44.2737 25.7613C45.952 26.8276 48.1991 25.022 48.1991 25.022L48.6257 24.6666L48.6541 24.6382V24.5813Z" fill="url(#paint60_linear_100_439)"/>
<path d="M48.5973 24.24C48.5973 24.24 42.567 22.1642 42.4674 22.4486C42.4106 22.7898 48.3413 24.9224 48.3413 24.9224L48.6684 24.6381L48.5973 24.24Z" fill="url(#paint61_linear_100_439)"/>
<path d="M54.8978 30.922L55.1254 30.3391C55.1254 30.3391 56.2489 27.5383 54.3431 26.1735C54.0871 26.1166 53.6462 26.2587 53.3618 26.9981C53.376 25.818 53.2195 24.5242 51.9111 23.984C51.1573 24.0409 51.0435 24.965 51.0578 25.2777C50.7449 24.4674 49.6071 23.458 48.8106 24.1688C48.8106 24.1688 48.8106 24.1688 48.8249 24.1831C47.9431 24.8512 48.7822 26.0739 49.5786 26.4862C49.2658 26.4152 48.2418 26.4009 48.0426 27.126C48.3698 28.4482 49.7209 28.8037 50.9724 28.96C50.1333 29.1164 49.8773 29.5287 49.8915 29.7847C50.9866 31.8177 54.1724 31.1495 54.1724 31.1495L54.8409 31.0073L54.8835 30.9931L54.8978 30.922Z" fill="url(#paint62_linear_100_439)"/>
<path d="M54.6985 30.7091L54.8977 30.2116C54.8977 30.2116 55.8079 27.6525 54.215 26.5009C54.0017 26.4582 53.4328 26.9701 53.191 27.5956C53.2052 26.6146 52.9634 24.8091 51.8683 24.3541C51.2283 24.3967 51.0577 25.3209 51.0718 25.5626C50.8158 24.8801 49.6497 23.7854 48.9812 24.3826C48.9812 24.3826 48.9812 24.3826 48.9954 24.3967C48.2558 24.9654 49.1945 26.2023 49.863 26.5436C49.5928 26.4866 48.5972 26.5293 48.4265 27.1406C48.6968 28.2638 50.5741 28.7187 51.6123 28.8467C50.9012 28.9746 50.2612 29.4723 50.2754 29.6856C51.1998 31.3916 54.087 30.8798 54.087 30.8798L54.6417 30.7661H54.6701L54.6985 30.7091Z" fill="url(#paint63_linear_100_439)"/>
<path d="M54.8266 30.3819C54.8266 30.3819 50.631 25.7613 50.4034 25.9604C50.1758 26.2447 54.2719 30.8653 54.2719 30.8653L54.6986 30.7658L54.8266 30.3819Z" fill="url(#paint64_linear_100_439)"/>
<path d="M57.8558 38.514L58.2967 38.0449C58.2967 38.0449 60.4158 35.8412 59.1785 33.8934C58.9651 33.7513 58.4958 33.7229 57.9412 34.32C58.4105 33.2395 58.7518 31.9741 57.7562 31.0074C57.0309 30.7941 56.5616 31.6187 56.4762 31.903C56.5047 31.0358 55.8362 29.6994 54.8122 30.069V30.0833C53.7314 30.396 54.0442 31.8178 54.6274 32.4859C54.3572 32.3154 53.4185 31.9314 52.9492 32.5428C52.7358 33.8934 53.8736 34.6896 54.9687 35.2725C54.1296 35.1304 53.7314 35.4147 53.6461 35.6564C53.8878 37.9169 57.1021 38.4287 57.0878 38.4287L57.7562 38.5424H57.7989L57.8558 38.514Z" fill="url(#paint65_linear_100_439)"/>
<path d="M57.7423 38.258L58.112 37.8742C58.112 37.8742 59.9467 35.8127 58.9084 34.1778C58.7236 34.0498 57.9983 34.3341 57.5431 34.8317C57.9413 33.9218 58.4107 32.1589 57.5574 31.3485C56.9458 31.1637 56.4338 31.9598 56.3484 32.2015C56.3627 31.4764 55.7084 30.0548 54.8551 30.3675C54.8551 30.3675 54.8551 30.3675 54.8551 30.3818C53.9449 30.6518 54.3574 32.1304 54.8409 32.6849C54.6134 32.5428 53.6604 32.23 53.2764 32.7418C53.1058 33.8792 54.6703 34.9597 55.5947 35.443C54.8836 35.3151 54.1014 35.5568 54.0303 35.7558C54.2294 37.6609 57.1164 38.2012 57.1164 38.2012L57.6853 38.2865H57.7138L57.7423 38.258Z" fill="url(#paint66_linear_100_439)"/>
<path d="M57.9839 37.9882C57.9839 37.9882 55.8506 32.216 55.5661 32.3298C55.2532 32.5146 57.2728 38.2441 57.2728 38.2441L57.6995 38.301L57.9839 37.9882Z" fill="url(#paint67_linear_100_439)"/>
<path d="M57.0738 46.8312L57.6568 46.5469C57.6568 46.5469 60.4586 45.2105 60.032 42.9642C59.8755 42.7509 59.4488 42.5661 58.7235 42.9357C59.5626 42.0827 60.3733 41.0164 59.7902 39.7795C59.1928 39.3246 58.4533 39.9501 58.2542 40.1776C58.5955 39.3814 58.4818 37.9028 57.3867 37.9028V37.9171C56.2631 37.846 56.0213 39.2819 56.32 40.1065C56.1351 39.8506 55.3955 39.1824 54.7413 39.5804C54.0444 40.7747 54.7982 41.8978 55.5947 42.822C54.8693 42.3955 54.3858 42.5377 54.2151 42.7224C53.5893 44.9261 56.3911 46.49 56.3911 46.49L56.9742 46.817L57.0027 46.8312H57.0738Z" fill="url(#paint68_linear_100_439)"/>
<path d="M57.0738 46.5608L57.5716 46.3191C57.5716 46.3191 60.0605 45.0253 59.6907 43.1487C59.5627 42.9781 58.7805 42.9781 58.1689 43.2908C58.88 42.58 59.9752 41.0872 59.4916 40.0493C58.9938 39.6655 58.2116 40.2342 58.0552 40.4332C58.3538 39.765 58.2685 38.2153 57.344 38.2153V38.2296C56.4053 38.1585 56.2205 39.6797 56.4622 40.3763C56.3058 40.1631 55.5378 39.5517 54.9832 39.8929C54.3858 40.8882 55.4525 42.4378 56.1209 43.2056C55.5093 42.8501 54.6845 42.7932 54.5422 42.9638C54.016 44.8121 56.5049 46.3049 56.5049 46.3049L57.0027 46.575L57.0312 46.5893L57.0738 46.5608Z" fill="url(#paint69_linear_100_439)"/>
<path d="M57.4007 46.3903C57.4007 46.3903 57.5714 40.2769 57.2584 40.2769C56.9029 40.3338 56.6327 46.376 56.6327 46.376L57.0167 46.5751L57.4007 46.3903Z" fill="url(#paint70_linear_100_439)"/>
<path d="M51.5555 53.3709L52.2097 53.4562C52.2097 53.4562 55.3102 53.8685 56.2915 51.7928C56.2915 51.5369 56.0497 51.153 55.2248 51.0678C56.4195 50.826 57.7137 50.3711 57.9697 49.0489C57.7422 48.3523 56.7608 48.466 56.4622 48.5513C57.2159 48.0821 57.9982 46.8026 57.0879 46.2054C57.0879 46.2054 57.0879 46.2197 57.0737 46.2197C56.1919 45.5514 55.1395 46.6035 54.8977 47.4423C54.8977 47.1296 54.6844 46.177 53.9022 46.1486C52.6222 46.7457 52.5795 48.0963 52.6932 49.2763C52.3377 48.5371 51.8684 48.3807 51.6124 48.4518C49.7919 49.9303 51.1857 52.7453 51.1857 52.7453L51.4702 53.3283L51.4844 53.3567L51.5555 53.3709Z" fill="url(#paint71_linear_100_439)"/>
<path d="M51.7119 53.1434L52.2524 53.2144C52.2524 53.2144 55.0684 53.4845 55.879 51.7501C55.879 51.5368 55.2248 51.1245 54.5279 51.0392C55.5377 50.8259 57.3154 50.2004 57.543 49.0773C57.3581 48.4944 56.3768 48.537 56.1208 48.6081C56.7608 48.21 57.6141 46.8878 56.8461 46.3902C56.8461 46.3902 56.8461 46.3902 56.8319 46.4044C56.0924 45.8357 55.0399 47.0015 54.8408 47.6982C54.8408 47.4423 54.5564 46.5182 53.9021 46.4897C52.8213 47.0015 52.7786 48.8355 52.8781 49.8449C52.5794 49.2194 51.9394 48.736 51.7119 48.7929C50.1759 50.0298 51.3564 52.6031 51.3564 52.6031L51.5981 53.1007L51.6123 53.1291L51.7119 53.1434Z" fill="url(#paint72_linear_100_439)"/>
<path d="M52.0819 53.172C52.0819 53.172 55.8508 48.2244 55.5948 48.0538C55.2676 47.9117 51.4703 52.7598 51.4703 52.7598L51.6553 53.1294L52.0819 53.172Z" fill="url(#paint73_linear_100_439)"/>
<path d="M43.6905 57.1245L44.2452 57.4515C44.2452 57.4515 46.9047 59.0296 48.6825 57.5083C48.7963 57.2809 48.7252 56.8259 48.0141 56.4278C49.223 56.6696 50.5883 56.7548 51.3847 55.6459C51.4701 54.9208 50.5314 54.6508 50.2185 54.6081C51.1145 54.4659 52.3661 53.5987 51.7972 52.7029H51.783C51.2567 51.7504 49.8487 52.3048 49.2657 52.9731C49.3937 52.6888 49.607 51.7362 48.8958 51.4092C47.4737 51.4661 46.8621 52.6745 46.4638 53.8119C46.4638 53.0015 46.0941 52.6745 45.8238 52.6461C43.5341 53.2858 43.6052 56.3994 43.6052 56.3994L43.6194 57.0534V57.0961L43.6905 57.1245Z" fill="url(#paint74_linear_100_439)"/>
<path d="M43.9464 56.9823L44.4157 57.2524C44.4157 57.2524 46.8762 58.5888 48.3553 57.3093C48.4406 57.1102 48.0282 56.4847 47.4309 56.1435C48.4406 56.3425 50.3464 56.4562 51.0149 55.5179C51.086 54.9066 50.1757 54.5796 49.9197 54.5512C50.6736 54.4374 52.0104 53.556 51.5269 52.8166C51.5269 52.8166 51.5269 52.8166 51.5126 52.8166C51.0717 52.0205 49.6211 52.6603 49.1376 53.229C49.2513 52.9873 49.3793 52.0347 48.7962 51.7646C47.6016 51.8072 46.7766 53.4849 46.4353 54.4374C46.4353 53.755 46.0513 53.0584 45.8237 53.0157C43.9037 53.556 43.8753 56.3567 43.8753 56.3567L43.8896 56.897V56.9254L43.9464 56.9823Z" fill="url(#paint75_linear_100_439)"/>
<path d="M44.2593 57.153C44.2593 57.153 49.806 54.0821 49.6353 53.8262C49.3936 53.5703 43.8753 56.5274 43.8753 56.5274L43.8896 56.9397L44.2593 57.153Z" fill="url(#paint76_linear_100_439)"/>
<path d="M39.9644 53.8259C39.9644 53.8259 35.1715 53.3852 34.5599 58.8304C37.5039 59.3991 38.0159 59.3564 38.0159 59.3564C38.0159 59.3564 38.1582 55.0344 39.9644 53.8259Z" fill="url(#paint77_linear_100_439)"/>
<path d="M39.9929 53.8259C39.9929 53.8259 44.5867 53.3852 45.184 58.8304C42.368 59.3991 41.8702 59.3564 41.8702 59.3564C41.8702 59.3564 41.7138 55.0344 39.9929 53.8259Z" fill="url(#paint78_linear_100_439)"/>
</g>
<defs>
<linearGradient id="paint0_linear_100_439" x1="0.142212" y1="39.7466" x2="26.7121" y2="39.7466" gradientUnits="userSpaceOnUse">
<stop stop-color="#FFE06E"/>
<stop offset="0.9325" stop-color="#E1BA00"/>
<stop offset="1" stop-color="#967002"/>
</linearGradient>
<linearGradient id="paint1_linear_100_439" x1="39.8295" y1="0.157089" x2="39.8295" y2="26.7174" gradientUnits="userSpaceOnUse">
<stop stop-color="#FFE06E"/>
<stop offset="0.9325" stop-color="#E1BA00"/>
<stop offset="1" stop-color="#967002"/>
</linearGradient>
<linearGradient id="paint2_linear_100_439" x1="39.9913" y1="79.7731" x2="39.9913" y2="53.0281" gradientUnits="userSpaceOnUse">
<stop stop-color="#FFE06E"/>
<stop offset="0.9325" stop-color="#E1BA00"/>
<stop offset="1" stop-color="#967002"/>
</linearGradient>
<linearGradient id="paint3_linear_100_439" x1="79.7869" y1="39.7467" x2="53.2172" y2="39.7467" gradientUnits="userSpaceOnUse">
<stop stop-color="#FFE06E"/>
<stop offset="0.9325" stop-color="#E1BA00"/>
<stop offset="1" stop-color="#967002"/>
</linearGradient>
<radialGradient id="paint4_radial_100_439" cx="0" cy="0" r="1" gradientUnits="userSpaceOnUse" gradientTransform="translate(39.8849 56.388) scale(5.22343 5.22157)">
<stop stop-color="#FFF28A"/>
<stop offset="0.3742" stop-color="#E8D100"/>
<stop offset="0.5153" stop-color="#BA9C16"/>
<stop offset="1" stop-color="#A3931E"/>
</radialGradient>
<linearGradient id="paint5_linear_100_439" x1="31.7888" y1="23.631" x2="34.3988" y2="26.973" gradientUnits="userSpaceOnUse">
<stop stop-color="#A3931E"/>
<stop offset="0.2086" stop-color="#BA9C16"/>
<stop offset="0.9755" stop-color="#F6E77B"/>
</linearGradient>
<linearGradient id="paint6_linear_100_439" x1="25.6375" y1="29.2764" x2="29.4749" y2="31.0827" gradientUnits="userSpaceOnUse">
<stop stop-color="#A3931E"/>
<stop offset="0.2086" stop-color="#BA9C16"/>
<stop offset="0.9755" stop-color="#F6E77B"/>
</linearGradient>
<linearGradient id="paint7_linear_100_439" x1="22.7048" y1="37.1061" x2="26.9443" y2="36.9896" gradientUnits="userSpaceOnUse">
<stop stop-color="#A3931E"/>
<stop offset="0.2086" stop-color="#BA9C16"/>
<stop offset="0.9755" stop-color="#F6E77B"/>
</linearGradient>
<linearGradient id="paint8_linear_100_439" x1="22.971" y1="45.6657" x2="26.3937" y2="43.1618" gradientUnits="userSpaceOnUse">
<stop stop-color="#A3931E"/>
<stop offset="0.2086" stop-color="#BA9C16"/>
<stop offset="0.9755" stop-color="#F6E77B"/>
</linearGradient>
<linearGradient id="paint9_linear_100_439" x1="27.921" y1="53.2624" x2="28.7461" y2="49.1036" gradientUnits="userSpaceOnUse">
<stop stop-color="#A3931E"/>
<stop offset="0.2086" stop-color="#BA9C16"/>
<stop offset="0.9755" stop-color="#F6E77B"/>
</linearGradient>
<linearGradient id="paint10_linear_100_439" x1="34.2474" y1="56.0269" x2="34.1326" y2="52.3275" gradientUnits="userSpaceOnUse">
<stop stop-color="#A3931E"/>
<stop offset="0.2086" stop-color="#BA9C16"/>
<stop offset="0.9755" stop-color="#F6E77B"/>
</linearGradient>
<linearGradient id="paint11_linear_100_439" x1="48.2517" y1="23.3699" x2="45.0913" y2="26.8018" gradientUnits="userSpaceOnUse">
<stop stop-color="#A3931E"/>
<stop offset="0.2086" stop-color="#BA9C16"/>
<stop offset="0.9755" stop-color="#F6E77B"/>
</linearGradient>
<linearGradient id="paint12_linear_100_439" x1="54.3799" y1="29.1187" x2="50.1669" y2="30.8006" gradientUnits="userSpaceOnUse">
<stop stop-color="#A3931E"/>
<stop offset="0.2086" stop-color="#BA9C16"/>
<stop offset="0.9755" stop-color="#F6E77B"/>
</linearGradient>
<linearGradient id="paint13_linear_100_439" x1="57.1392" y1="37.0566" x2="52.9624" y2="36.9593" gradientUnits="userSpaceOnUse">
<stop stop-color="#A3931E"/>
<stop offset="0.2086" stop-color="#BA9C16"/>
<stop offset="0.9755" stop-color="#F6E77B"/>
</linearGradient>
<linearGradient id="paint14_linear_100_439" x1="56.7073" y1="45.505" x2="53.4922" y2="43.51" gradientUnits="userSpaceOnUse">
<stop stop-color="#A3931E"/>
<stop offset="0.2086" stop-color="#BA9C16"/>
<stop offset="0.9755" stop-color="#F6E77B"/>
</linearGradient>
<linearGradient id="paint15_linear_100_439" x1="51.9559" y1="53.1222" x2="51.0337" y2="49.1802" gradientUnits="userSpaceOnUse">
<stop stop-color="#A3931E"/>
<stop offset="0.2086" stop-color="#BA9C16"/>
<stop offset="0.9755" stop-color="#F6E77B"/>
</linearGradient>
<linearGradient id="paint16_linear_100_439" x1="45.7183" y1="55.9898" x2="45.8547" y2="52.2641" gradientUnits="userSpaceOnUse">
<stop stop-color="#A3931E"/>
<stop offset="0.2086" stop-color="#BA9C16"/>
<stop offset="0.9755" stop-color="#F6E77B"/>
</linearGradient>
<linearGradient id="paint17_linear_100_439" x1="21.4129" y1="46.3185" x2="23.1435" y2="48.4147" gradientUnits="userSpaceOnUse">
<stop stop-color="#FCF3A2"/>
<stop offset="0.4356" stop-color="#E8D100"/>
<stop offset="0.7362" stop-color="#BFAE10"/>
<stop offset="1" stop-color="#967002"/>
</linearGradient>
<radialGradient id="paint18_radial_100_439" cx="0" cy="0" r="1" gradientUnits="userSpaceOnUse" gradientTransform="translate(22.4496 47.6078) rotate(-35.9505) scale(2.03112 2.43276)">
<stop stop-color="#FFF28A"/>
<stop offset="0.3742" stop-color="#F6E77B"/>
<stop offset="0.5153" stop-color="#BA9C16"/>
<stop offset="1" stop-color="#A3931E"/>
</radialGradient>
<linearGradient id="paint19_linear_100_439" x1="26.8413" y1="53.8598" x2="29.2124" y2="55.1895" gradientUnits="userSpaceOnUse">
<stop stop-color="#FCF3A2"/>
<stop offset="0.4356" stop-color="#E8D100"/>
<stop offset="0.7362" stop-color="#BFAE10"/>
<stop offset="1" stop-color="#967002"/>
</linearGradient>
<radialGradient id="paint20_radial_100_439" cx="0" cy="0" r="1" gradientUnits="userSpaceOnUse" gradientTransform="translate(28.2734 54.6876) rotate(-57.1234) scale(2.03087 2.43329)">
<stop stop-color="#FFF28A"/>
<stop offset="0.3742" stop-color="#F6E77B"/>
<stop offset="0.5153" stop-color="#BA9C16"/>
<stop offset="1" stop-color="#A3931E"/>
</radialGradient>
<linearGradient id="paint21_linear_100_439" x1="39.263" y1="59.0154" x2="38.1762" y2="56.9391" gradientUnits="userSpaceOnUse">
<stop stop-color="#FCF3A2"/>
<stop offset="0.4356" stop-color="#E8D100"/>
<stop offset="0.7362" stop-color="#BFAE10"/>
<stop offset="1" stop-color="#967002"/>
</linearGradient>
<radialGradient id="paint22_radial_100_439" cx="0" cy="0" r="1" gradientUnits="userSpaceOnUse" gradientTransform="translate(38.6179 57.7432) rotate(155.964) scale(1.75122 2.09743)">
<stop stop-color="#FFF28A"/>
<stop offset="0.3742" stop-color="#F6E77B"/>
<stop offset="0.5153" stop-color="#BA9C16"/>
<stop offset="1" stop-color="#A3931E"/>
</radialGradient>
<linearGradient id="paint23_linear_100_439" x1="40.7842" y1="59.1086" x2="41.7683" y2="56.9541" gradientUnits="userSpaceOnUse">
<stop stop-color="#FCF3A2"/>
<stop offset="0.4356" stop-color="#E8D100"/>
<stop offset="0.7362" stop-color="#BFAE10"/>
<stop offset="1" stop-color="#967002"/>
</linearGradient>
<radialGradient id="paint24_radial_100_439" cx="0" cy="0" r="1" gradientTransform="matrix(-1.56062 -0.834729 0.999848 -1.86933 41.4007 57.8057)" gradientUnits="userSpaceOnUse">
<stop stop-color="#FFF28A"/>
<stop offset="0.3742" stop-color="#F6E77B"/>
<stop offset="0.5153" stop-color="#BA9C16"/>
<stop offset="1" stop-color="#A3931E"/>
</radialGradient>
<linearGradient id="paint25_linear_100_439" x1="24.2294" y1="28.5711" x2="23.8497" y2="31.2624" gradientUnits="userSpaceOnUse">
<stop stop-color="#FCF3A2"/>
<stop offset="0.4356" stop-color="#E8D100"/>
<stop offset="0.7362" stop-color="#BFAE10"/>
<stop offset="1" stop-color="#967002"/>
</linearGradient>
<radialGradient id="paint26_radial_100_439" cx="0" cy="0" r="1" gradientUnits="userSpaceOnUse" gradientTransform="translate(23.9765 30.2061) rotate(11.6209) scale(2.03137 2.43283)">
<stop stop-color="#FFF28A"/>
<stop offset="0.3742" stop-color="#F6E77B"/>
<stop offset="0.5153" stop-color="#BA9C16"/>
<stop offset="1" stop-color="#A3931E"/>
</radialGradient>
<linearGradient id="paint27_linear_100_439" x1="30.6377" y1="22.2513" x2="29.0998" y2="24.4927" gradientUnits="userSpaceOnUse">
<stop stop-color="#FCF3A2"/>
<stop offset="0.4356" stop-color="#E8D100"/>
<stop offset="0.7362" stop-color="#BFAE10"/>
<stop offset="1" stop-color="#967002"/>
</linearGradient>
<radialGradient id="paint28_radial_100_439" cx="0" cy="0" r="1" gradientUnits="userSpaceOnUse" gradientTransform="translate(29.6835 23.6025) rotate(38.0475) scale(2.03112 2.433)">
<stop stop-color="#FFF28A"/>
<stop offset="0.3742" stop-color="#F6E77B"/>
<stop offset="0.5153" stop-color="#BA9C16"/>
<stop offset="1" stop-color="#A3931E"/>
</radialGradient>
<linearGradient id="paint29_linear_100_439" x1="20.9343" y1="37.089" x2="21.6577" y2="39.7089" gradientUnits="userSpaceOnUse">
<stop stop-color="#FCF3A2"/>
<stop offset="0.4356" stop-color="#E8D100"/>
<stop offset="0.7362" stop-color="#BFAE10"/>
<stop offset="1" stop-color="#967002"/>
</linearGradient>
<radialGradient id="paint30_radial_100_439" cx="0" cy="0" r="1" gradientUnits="userSpaceOnUse" gradientTransform="translate(21.3537 38.6888) rotate(-11.8443) scale(2.03141 2.43267)">
<stop stop-color="#FFF28A"/>
<stop offset="0.3742" stop-color="#F6E77B"/>
<stop offset="0.5153" stop-color="#BA9C16"/>
<stop offset="1" stop-color="#A3931E"/>
</radialGradient>
<linearGradient id="paint31_linear_100_439" x1="58.9758" y1="46.4237" x2="57.2613" y2="48.5944" gradientUnits="userSpaceOnUse">
<stop stop-color="#FCF3A2"/>
<stop offset="0.4356" stop-color="#E8D100"/>
<stop offset="0.7362" stop-color="#BFAE10"/>
<stop offset="1" stop-color="#967002"/>
</linearGradient>
<radialGradient id="paint32_radial_100_439" cx="0" cy="0" r="1" gradientTransform="matrix(-1.71865 -1.19235 1.40738 -2.02857 57.8922 47.7132)" gradientUnits="userSpaceOnUse">
<stop stop-color="#FFF28A"/>
<stop offset="0.3742" stop-color="#F6E77B"/>
<stop offset="0.5153" stop-color="#BA9C16"/>
<stop offset="1" stop-color="#A3931E"/>
</radialGradient>
<linearGradient id="paint33_linear_100_439" x1="53.2843" y1="53.9352" x2="50.754" y2="55.4183" gradientUnits="userSpaceOnUse">
<stop stop-color="#FCF3A2"/>
<stop offset="0.4356" stop-color="#E8D100"/>
<stop offset="0.7362" stop-color="#BFAE10"/>
<stop offset="1" stop-color="#967002"/>
</linearGradient>
<radialGradient id="paint34_radial_100_439" cx="0" cy="0" r="1" gradientTransform="matrix(-1.18772 -1.75802 2.14325 -1.44798 51.7801 54.7645)" gradientUnits="userSpaceOnUse">
<stop stop-color="#FFF28A"/>
<stop offset="0.3742" stop-color="#F6E77B"/>
<stop offset="0.5153" stop-color="#BA9C16"/>
<stop offset="1" stop-color="#A3931E"/>
</radialGradient>
<linearGradient id="paint35_linear_100_439" x1="56.0321" y1="28.6764" x2="56.396" y2="31.3721" gradientUnits="userSpaceOnUse">
<stop stop-color="#FCF3A2"/>
<stop offset="0.4356" stop-color="#E8D100"/>
<stop offset="0.7362" stop-color="#BFAE10"/>
<stop offset="1" stop-color="#967002"/>
</linearGradient>
<radialGradient id="paint36_radial_100_439" cx="0" cy="0" r="1" gradientUnits="userSpaceOnUse" gradientTransform="translate(56.2964 30.3109) rotate(168.869) scale(2.11964 2.437)">
<stop stop-color="#FFF28A"/>
<stop offset="0.3742" stop-color="#F6E77B"/>
<stop offset="0.5153" stop-color="#BA9C16"/>
<stop offset="1" stop-color="#A3931E"/>
</radialGradient>
<linearGradient id="paint37_linear_100_439" x1="49.3335" y1="22.3565" x2="50.8459" y2="24.6604" gradientUnits="userSpaceOnUse">
<stop stop-color="#FCF3A2"/>
<stop offset="0.4356" stop-color="#E8D100"/>
<stop offset="0.7362" stop-color="#BFAE10"/>
<stop offset="1" stop-color="#967002"/>
</linearGradient>
<radialGradient id="paint38_radial_100_439" cx="0" cy="0" r="1" gradientUnits="userSpaceOnUse" gradientTransform="translate(50.3311 23.7078) rotate(143.175) scale(2.08845 2.47305)">
<stop stop-color="#FFF28A"/>
<stop offset="0.3742" stop-color="#F6E77B"/>
<stop offset="0.5153" stop-color="#BA9C16"/>
<stop offset="1" stop-color="#A3931E"/>
</radialGradient>
<linearGradient id="paint39_linear_100_439" x1="59.4761" y1="37.1942" x2="58.7798" y2="39.83" gradientUnits="userSpaceOnUse">
<stop stop-color="#FCF3A2"/>
<stop offset="0.4356" stop-color="#E8D100"/>
<stop offset="0.7362" stop-color="#BFAE10"/>
<stop offset="1" stop-color="#967002"/>
</linearGradient>
<radialGradient id="paint40_radial_100_439" cx="0" cy="0" r="1" gradientUnits="userSpaceOnUse" gradientTransform="translate(59.038 38.7941) rotate(-168.654) scale(2.11947 2.43716)">
<stop stop-color="#FFF28A"/>
<stop offset="0.3742" stop-color="#F6E77B"/>
<stop offset="0.5153" stop-color="#BA9C16"/>
<stop offset="1" stop-color="#A3931E"/>
</radialGradient>
<linearGradient id="paint41_linear_100_439" x1="34.2869" y1="20.514" x2="36.0677" y2="25.9274" gradientUnits="userSpaceOnUse">
<stop stop-color="#967002"/>
<stop offset="0.2638" stop-color="#BFAE10"/>
<stop offset="0.5644" stop-color="#E8D100"/>
<stop offset="1" stop-color="#FCF3A2"/>
</linearGradient>
<linearGradient id="paint42_linear_100_439" x1="34.3912" y1="20.8312" x2="35.963" y2="25.6088" gradientUnits="userSpaceOnUse">
<stop stop-color="#FCF3A2"/>
<stop offset="0.4356" stop-color="#E8D100"/>
<stop offset="0.7362" stop-color="#BFAE10"/>
<stop offset="1" stop-color="#967002"/>
</linearGradient>
<linearGradient id="paint43_linear_100_439" x1="34.0842" y1="23.2162" x2="34.3232" y2="23.902" gradientUnits="userSpaceOnUse">
<stop stop-color="#BA9C16"/>
<stop offset="0.1656" stop-color="#C3A624"/>
<stop offset="0.1848" stop-color="#C9AE2E"/>
<stop offset="0.2433" stop-color="#DAC248"/>
<stop offset="0.3104" stop-color="#E7D360"/>
<stop offset="0.3889" stop-color="#F2E173"/>
<stop offset="0.4859" stop-color="#F9EB80"/>
<stop offset="0.6221" stop-color="#FEF088"/>
<stop offset="1" stop-color="#FFF28A"/>
</linearGradient>
<linearGradient id="paint44_linear_100_439" x1="26.1516" y1="25.657" x2="30.3514" y2="29.5101" gradientUnits="userSpaceOnUse">
<stop stop-color="#967002"/>
<stop offset="0.2638" stop-color="#BFAE10"/>
<stop offset="0.5644" stop-color="#E8D100"/>
<stop offset="1" stop-color="#FCF3A2"/>
</linearGradient>
<linearGradient id="paint45_linear_100_439" x1="26.3977" y1="25.8825" x2="30.1043" y2="29.283" gradientUnits="userSpaceOnUse">
<stop stop-color="#FCF3A2"/>
<stop offset="0.4356" stop-color="#E8D100"/>
<stop offset="0.7362" stop-color="#BFAE10"/>
<stop offset="1" stop-color="#967002"/>
</linearGradient>
<linearGradient id="paint46_linear_100_439" x1="27.296" y1="28.1135" x2="27.8397" y2="28.595" gradientUnits="userSpaceOnUse">
<stop stop-color="#BA9C16"/>
<stop offset="0.1656" stop-color="#C3A624"/>
<stop offset="0.1848" stop-color="#C9AE2E"/>
<stop offset="0.2433" stop-color="#DAC248"/>
<stop offset="0.3104" stop-color="#E7D360"/>
<stop offset="0.3889" stop-color="#F2E173"/>
<stop offset="0.4859" stop-color="#F9EB80"/>
<stop offset="0.6221" stop-color="#FEF088"/>
<stop offset="1" stop-color="#FFF28A"/>
</linearGradient>
<linearGradient id="paint47_linear_100_439" x1="21.3557" y1="33.2936" x2="26.6778" y2="35.3354" gradientUnits="userSpaceOnUse">
<stop stop-color="#967002"/>
<stop offset="0.2638" stop-color="#BFAE10"/>
<stop offset="0.5644" stop-color="#E8D100"/>
<stop offset="1" stop-color="#FCF3A2"/>
</linearGradient>
<linearGradient id="paint48_linear_100_439" x1="21.667" y1="33.413" x2="26.3641" y2="35.2151" gradientUnits="userSpaceOnUse">
<stop stop-color="#FCF3A2"/>
<stop offset="0.4356" stop-color="#E8D100"/>
<stop offset="0.7362" stop-color="#BFAE10"/>
<stop offset="1" stop-color="#967002"/>
</linearGradient>
<linearGradient id="paint49_linear_100_439" x1="23.3221" y1="35.158" x2="24.0048" y2="35.4063" gradientUnits="userSpaceOnUse">
<stop stop-color="#BA9C16"/>
<stop offset="0.1656" stop-color="#C3A624"/>
<stop offset="0.1848" stop-color="#C9AE2E"/>
<stop offset="0.2433" stop-color="#DAC248"/>
<stop offset="0.3104" stop-color="#E7D360"/>
<stop offset="0.3889" stop-color="#F2E173"/>
<stop offset="0.4859" stop-color="#F9EB80"/>
<stop offset="0.6221" stop-color="#FEF088"/>
<stop offset="1" stop-color="#FFF28A"/>
</linearGradient>
<linearGradient id="paint50_linear_100_439" x1="20.3142" y1="42.3467" x2="26.0147" y2="42.3467" gradientUnits="userSpaceOnUse">
<stop stop-color="#967002"/>
<stop offset="0.2638" stop-color="#BFAE10"/>
<stop offset="0.5644" stop-color="#E8D100"/>
<stop offset="1" stop-color="#FCF3A2"/>
</linearGradient>
<linearGradient id="paint51_linear_100_439" x1="20.6479" y1="42.3465" x2="25.6791" y2="42.3465" gradientUnits="userSpaceOnUse">
<stop stop-color="#FCF3A2"/>
<stop offset="0.4356" stop-color="#E8D100"/>
<stop offset="0.7362" stop-color="#BFAE10"/>
<stop offset="1" stop-color="#967002"/>
</linearGradient>
<linearGradient id="paint52_linear_100_439" x1="22.8182" y1="43.3835" x2="23.5446" y2="43.3709" gradientUnits="userSpaceOnUse">
<stop stop-color="#BA9C16"/>
<stop offset="0.1656" stop-color="#C3A624"/>
<stop offset="0.1848" stop-color="#C9AE2E"/>
<stop offset="0.2433" stop-color="#DAC248"/>
<stop offset="0.3104" stop-color="#E7D360"/>
<stop offset="0.3889" stop-color="#F2E173"/>
<stop offset="0.4859" stop-color="#F9EB80"/>
<stop offset="0.6221" stop-color="#FEF088"/>
<stop offset="1" stop-color="#FFF28A"/>
</linearGradient>
<linearGradient id="paint53_linear_100_439" x1="23.5869" y1="51.2795" x2="28.2874" y2="48.0556" gradientUnits="userSpaceOnUse">
<stop stop-color="#967002"/>
<stop offset="0.2638" stop-color="#BFAE10"/>
<stop offset="0.5644" stop-color="#E8D100"/>
<stop offset="1" stop-color="#FCF3A2"/>
</linearGradient>
<linearGradient id="paint54_linear_100_439" x1="23.8623" y1="51.0908" x2="28.0109" y2="48.2455" gradientUnits="userSpaceOnUse">
<stop stop-color="#FCF3A2"/>
<stop offset="0.4356" stop-color="#E8D100"/>
<stop offset="0.7362" stop-color="#BFAE10"/>
<stop offset="1" stop-color="#967002"/>
</linearGradient>
<linearGradient id="paint55_linear_100_439" x1="26.2391" y1="50.7196" x2="26.8308" y2="50.2983" gradientUnits="userSpaceOnUse">
<stop stop-color="#BA9C16"/>
<stop offset="0.1656" stop-color="#C3A624"/>
<stop offset="0.1848" stop-color="#C9AE2E"/>
<stop offset="0.2433" stop-color="#DAC248"/>
<stop offset="0.3104" stop-color="#E7D360"/>
<stop offset="0.3889" stop-color="#F2E173"/>
<stop offset="0.4859" stop-color="#F9EB80"/>
<stop offset="0.6221" stop-color="#FEF088"/>
<stop offset="1" stop-color="#FFF28A"/>
</linearGradient>
<linearGradient id="paint56_linear_100_439" x1="30.6918" y1="57.1926" x2="33.6813" y2="52.3405" gradientUnits="userSpaceOnUse">
<stop stop-color="#967002"/>
<stop offset="0.2638" stop-color="#BFAE10"/>
<stop offset="0.5644" stop-color="#E8D100"/>
<stop offset="1" stop-color="#FCF3A2"/>
</linearGradient>
<linearGradient id="paint57_linear_100_439" x1="30.867" y1="56.9081" x2="33.5054" y2="52.6258" gradientUnits="userSpaceOnUse">
<stop stop-color="#FCF3A2"/>
<stop offset="0.4356" stop-color="#E8D100"/>
<stop offset="0.7362" stop-color="#BFAE10"/>
<stop offset="1" stop-color="#967002"/>
</linearGradient>
<linearGradient id="paint58_linear_100_439" x1="32.889" y1="55.6056" x2="33.2592" y2="54.9807" gradientUnits="userSpaceOnUse">
<stop stop-color="#BA9C16"/>
<stop offset="0.1656" stop-color="#C3A624"/>
<stop offset="0.1848" stop-color="#C9AE2E"/>
<stop offset="0.2433" stop-color="#DAC248"/>
<stop offset="0.3104" stop-color="#E7D360"/>
<stop offset="0.3889" stop-color="#F2E173"/>
<stop offset="0.4859" stop-color="#F9EB80"/>
<stop offset="0.6221" stop-color="#FEF088"/>
<stop offset="1" stop-color="#FFF28A"/>
</linearGradient>
<linearGradient id="paint59_linear_100_439" x1="45.4599" y1="20.5628" x2="43.7435" y2="26.0223" gradientUnits="userSpaceOnUse">
<stop stop-color="#967002"/>
<stop offset="0.2638" stop-color="#BFAE10"/>
<stop offset="0.5644" stop-color="#E8D100"/>
<stop offset="1" stop-color="#FCF3A2"/>
</linearGradient>
<linearGradient id="paint60_linear_100_439" x1="45.3508" y1="20.8795" x2="43.8361" y2="25.698" gradientUnits="userSpaceOnUse">
<stop stop-color="#FCF3A2"/>
<stop offset="0.4356" stop-color="#E8D100"/>
<stop offset="0.7362" stop-color="#BFAE10"/>
<stop offset="1" stop-color="#967002"/>
</linearGradient>
<linearGradient id="paint61_linear_100_439" x1="45.6721" y1="23.2645" x2="45.4416" y2="23.9567" gradientUnits="userSpaceOnUse">
<stop stop-color="#BA9C16"/>
<stop offset="0.1656" stop-color="#C3A624"/>
<stop offset="0.1848" stop-color="#C9AE2E"/>
<stop offset="0.2433" stop-color="#DAC248"/>
<stop offset="0.3104" stop-color="#E7D360"/>
<stop offset="0.3889" stop-color="#F2E173"/>
<stop offset="0.4859" stop-color="#F9EB80"/>
<stop offset="0.6221" stop-color="#FEF088"/>
<stop offset="1" stop-color="#FFF28A"/>
</linearGradient>
<linearGradient id="paint62_linear_100_439" x1="53.9733" y1="25.7052" x2="49.7614" y2="29.7488" gradientUnits="userSpaceOnUse">
<stop stop-color="#967002"/>
<stop offset="0.2638" stop-color="#BFAE10"/>
<stop offset="0.5644" stop-color="#E8D100"/>
<stop offset="1" stop-color="#FCF3A2"/>
</linearGradient>
<linearGradient id="paint63_linear_100_439" x1="53.7157" y1="25.9311" x2="49.9983" y2="29.4999" gradientUnits="userSpaceOnUse">
<stop stop-color="#FCF3A2"/>
<stop offset="0.4356" stop-color="#E8D100"/>
<stop offset="0.7362" stop-color="#BFAE10"/>
<stop offset="1" stop-color="#967002"/>
</linearGradient>
<linearGradient id="paint64_linear_100_439" x1="52.7758" y1="28.1616" x2="52.2296" y2="28.6678" gradientUnits="userSpaceOnUse">
<stop stop-color="#BA9C16"/>
<stop offset="0.1656" stop-color="#C3A624"/>
<stop offset="0.1848" stop-color="#C9AE2E"/>
<stop offset="0.2433" stop-color="#DAC248"/>
<stop offset="0.3104" stop-color="#E7D360"/>
<stop offset="0.3889" stop-color="#F2E173"/>
<stop offset="0.4859" stop-color="#F9EB80"/>
<stop offset="0.6221" stop-color="#FEF088"/>
<stop offset="1" stop-color="#FFF28A"/>
</linearGradient>
<linearGradient id="paint65_linear_100_439" x1="58.9921" y1="33.3419" x2="53.4899" y2="35.5508" gradientUnits="userSpaceOnUse">
<stop stop-color="#967002"/>
<stop offset="0.2638" stop-color="#BFAE10"/>
<stop offset="0.5644" stop-color="#E8D100"/>
<stop offset="1" stop-color="#FCF3A2"/>
</linearGradient>
<linearGradient id="paint66_linear_100_439" x1="58.6662" y1="33.4613" x2="53.8101" y2="35.4108" gradientUnits="userSpaceOnUse">
<stop stop-color="#FCF3A2"/>
<stop offset="0.4356" stop-color="#E8D100"/>
<stop offset="0.7362" stop-color="#BFAE10"/>
<stop offset="1" stop-color="#967002"/>
</linearGradient>
<linearGradient id="paint67_linear_100_439" x1="56.9343" y1="35.2068" x2="56.2278" y2="35.4757" gradientUnits="userSpaceOnUse">
<stop stop-color="#BA9C16"/>
<stop offset="0.1656" stop-color="#C3A624"/>
<stop offset="0.1848" stop-color="#C9AE2E"/>
<stop offset="0.2433" stop-color="#DAC248"/>
<stop offset="0.3104" stop-color="#E7D360"/>
<stop offset="0.3889" stop-color="#F2E173"/>
<stop offset="0.4859" stop-color="#F9EB80"/>
<stop offset="0.6221" stop-color="#FEF088"/>
<stop offset="1" stop-color="#FFF28A"/>
</linearGradient>
<linearGradient id="paint68_linear_100_439" x1="60.0818" y1="42.395" x2="54.1166" y2="42.395" gradientUnits="userSpaceOnUse">
<stop stop-color="#967002"/>
<stop offset="0.2638" stop-color="#BFAE10"/>
<stop offset="0.5644" stop-color="#E8D100"/>
<stop offset="1" stop-color="#FCF3A2"/>
</linearGradient>
<linearGradient id="paint69_linear_100_439" x1="59.7327" y1="42.3946" x2="54.4679" y2="42.3946" gradientUnits="userSpaceOnUse">
<stop stop-color="#FCF3A2"/>
<stop offset="0.4356" stop-color="#E8D100"/>
<stop offset="0.7362" stop-color="#BFAE10"/>
<stop offset="1" stop-color="#967002"/>
</linearGradient>
<linearGradient id="paint70_linear_100_439" x1="57.4613" y1="43.4318" x2="56.7013" y2="43.4179" gradientUnits="userSpaceOnUse">
<stop stop-color="#BA9C16"/>
<stop offset="0.1656" stop-color="#C3A624"/>
<stop offset="0.1848" stop-color="#C9AE2E"/>
<stop offset="0.2433" stop-color="#DAC248"/>
<stop offset="0.3104" stop-color="#E7D360"/>
<stop offset="0.3889" stop-color="#F2E173"/>
<stop offset="0.4859" stop-color="#F9EB80"/>
<stop offset="0.6221" stop-color="#FEF088"/>
<stop offset="1" stop-color="#FFF28A"/>
</linearGradient>
<linearGradient id="paint71_linear_100_439" x1="56.657" y1="51.3277" x2="51.8832" y2="47.9018" gradientUnits="userSpaceOnUse">
<stop stop-color="#967002"/>
<stop offset="0.2638" stop-color="#BFAE10"/>
<stop offset="0.5644" stop-color="#E8D100"/>
<stop offset="1" stop-color="#FCF3A2"/>
</linearGradient>
<linearGradient id="paint72_linear_100_439" x1="56.3689" y1="51.1389" x2="52.1556" y2="48.1153" gradientUnits="userSpaceOnUse">
<stop stop-color="#FCF3A2"/>
<stop offset="0.4356" stop-color="#E8D100"/>
<stop offset="0.7362" stop-color="#BFAE10"/>
<stop offset="1" stop-color="#967002"/>
</linearGradient>
<linearGradient id="paint73_linear_100_439" x1="53.882" y1="50.7677" x2="53.2818" y2="50.3207" gradientUnits="userSpaceOnUse">
<stop stop-color="#BA9C16"/>
<stop offset="0.1656" stop-color="#C3A624"/>
<stop offset="0.1848" stop-color="#C9AE2E"/>
<stop offset="0.2433" stop-color="#DAC248"/>
<stop offset="0.3104" stop-color="#E7D360"/>
<stop offset="0.3889" stop-color="#F2E173"/>
<stop offset="0.4859" stop-color="#F9EB80"/>
<stop offset="0.6221" stop-color="#FEF088"/>
<stop offset="1" stop-color="#FFF28A"/>
</linearGradient>
<linearGradient id="paint74_linear_100_439" x1="49.2221" y1="57.2408" x2="46.2952" y2="52.2701" gradientUnits="userSpaceOnUse">
<stop stop-color="#967002"/>
<stop offset="0.2638" stop-color="#BFAE10"/>
<stop offset="0.5644" stop-color="#E8D100"/>
<stop offset="1" stop-color="#FCF3A2"/>
</linearGradient>
<linearGradient id="paint75_linear_100_439" x1="49.0386" y1="56.9567" x2="46.4556" y2="52.5697" gradientUnits="userSpaceOnUse">
<stop stop-color="#FCF3A2"/>
<stop offset="0.4356" stop-color="#E8D100"/>
<stop offset="0.7362" stop-color="#BFAE10"/>
<stop offset="1" stop-color="#967002"/>
</linearGradient>
<linearGradient id="paint76_linear_100_439" x1="46.9226" y1="55.6542" x2="46.5608" y2="55.0149" gradientUnits="userSpaceOnUse">
<stop stop-color="#BA9C16"/>
<stop offset="0.1656" stop-color="#C3A624"/>
<stop offset="0.1848" stop-color="#C9AE2E"/>
<stop offset="0.2433" stop-color="#DAC248"/>
<stop offset="0.3104" stop-color="#E7D360"/>
<stop offset="0.3889" stop-color="#F2E173"/>
<stop offset="0.4859" stop-color="#F9EB80"/>
<stop offset="0.6221" stop-color="#FEF088"/>
<stop offset="1" stop-color="#FFF28A"/>
</linearGradient>
<linearGradient id="paint77_linear_100_439" x1="38.9355" y1="56.9658" x2="35.5056" y2="55.6487" gradientUnits="userSpaceOnUse">
<stop offset="0.0736196" stop-color="#4A3700"/>
<stop offset="0.184" stop-color="#967002"/>
<stop offset="0.3865" stop-color="#BFAE10"/>
<stop offset="0.5644" stop-color="#E8D100"/>
<stop offset="1" stop-color="#FCF3A2"/>
</linearGradient>
<linearGradient id="paint78_linear_100_439" x1="40.7321" y1="56.7852" x2="44.5153" y2="55.8399" gradientUnits="userSpaceOnUse">
<stop stop-color="#FCF3A2"/>
<stop offset="0.3926" stop-color="#E8D100"/>
<stop offset="0.7178" stop-color="#BFAE10"/>
<stop offset="1" stop-color="#967002"/>
</linearGradient>
<clipPath id="clip0_100_439">
<rect width="80" height="80" fill="white"/>
</clipPath>
</defs>
</svg>
