<svg width="100" height="100" viewBox="0 0 100 100" fill="none" xmlns="http://www.w3.org/2000/svg">
<g clip-path="url(#clip0_100_526)">
<path d="M93.6931 25.8033C93.3813 25.2277 93.0696 24.6522 92.7098 24.0767H88.2014C88.705 24.7961 89.1367 25.5395 89.5923 26.3069C93.9089 33.4771 96.211 41.5827 96.211 49.9999H99.976C99.976 41.4388 97.7938 33.1654 93.6931 25.8033Z" fill="#245EAB"/>
<path d="M49.976 3.76499C52.3741 3.76499 54.8201 3.95683 57.2182 4.34053L57.7938 0.623501C55.2278 0.215827 52.5899 0 49.976 0C22.4221 0 0 22.4221 0 49.976H3.76499C3.76499 24.5084 24.5084 3.76499 49.976 3.76499Z" fill="#245EAB"/>
<path d="M99.976 49.9761H96.211C96.211 75.4677 75.4676 96.1871 50 96.1871C24.5324 96.1871 3.76499 75.4677 3.76499 49.9761H0C0 77.53 22.4221 99.9521 49.976 99.9521C77.53 99.9521 99.976 77.554 99.976 49.9761Z" fill="#FFCA05"/>
<path d="M49.0408 21.2471C50.2398 21.9185 54.3165 24.6284 54.3165 29.4965C54.3165 33.813 47.3621 46.7147 50.048 50.048L67.3381 28.4893C67.3381 28.4893 71.6307 33.7171 69.0647 38.1535C66.3789 42.7579 59.7602 48.1535 57.1223 52.1583C55.4916 54.6284 56.283 55.9713 56.283 55.9713L77.2422 44.4845C77.2422 44.4845 78.9209 49.4725 74.94 53.0696C70.7434 56.8586 60.8153 58.3694 60.8153 62.3022H75.2038C75.2038 62.3022 73.741 66.6667 70.9592 67.2663C68.5132 67.8178 63.2614 66.379 60.7914 68.6092C58.1775 70.9593 55.2518 78.7051 46.4748 78.7051C40.5755 78.7051 36.0192 74.4605 33.1655 68.873C29.8801 62.4221 26.211 59.3046 22.4221 58.5133C22.4221 58.5133 24.4844 53.6452 29.9281 53.6452C37.4101 53.6452 40.5995 65.8993 46.235 65.8993C47.8657 65.8993 49.5923 65.06 49.5923 62.6619C49.5923 60.072 45.8513 57.9137 44.7962 57.1703C42.3022 55.4437 40.3357 52.6859 41.6067 48.0816L49.0408 21.2471Z" fill="#245EAB"/>
<path d="M84.6523 0C83.9329 0.815348 83.5012 1.8705 83.5012 3.04556C83.5492 5.61151 83.8609 8.17746 83.8849 10.7434C83.9329 13.1415 83.2134 15.3957 82.3501 17.5779C82.0624 18.1775 81.7506 18.777 81.4389 19.3765L80.5036 19.1847C79.6643 19.0168 79.1367 18.2014 79.3046 17.3621C79.4485 16.6427 80.0959 16.1151 80.8154 16.1151L81.1511 16.1631L80.4077 9.8801C80.1679 7.07434 78.729 4.6283 76.5947 3.02158C76.235 2.75779 75.8513 2.494 75.4437 2.27818V24.6043H80.5756C80.9593 26.6906 82.1103 28.5132 83.741 29.7602C84.1247 30.024 84.4365 30.3837 84.6763 30.7914C84.9161 30.3837 85.2278 30.024 85.6115 29.7602C87.2182 28.5132 88.3693 26.6906 88.777 24.6043H93.9329V2.30216C93.5252 2.51799 93.1415 2.78177 92.7818 3.04556C90.6475 4.65228 89.2087 7.09832 88.9688 9.90408L88.2254 16.187L88.5612 16.1391C89.2806 16.1391 89.9281 16.6427 90.072 17.3861C90.2398 18.2254 89.6883 19.0408 88.8729 19.2086L87.9377 19.4005C87.6259 18.801 87.3142 18.2014 87.0264 17.6019C86.1631 15.4197 85.4437 13.1655 85.4916 10.7674C85.5156 8.20144 85.8274 5.63549 85.8753 3.06954C85.8034 1.8705 85.3717 0.815348 84.6523 0ZM76.9545 5.51559C77.9616 6.69065 78.6091 8.15348 78.825 9.73621L79.4485 14.9161C78.6571 15.2998 78.0576 16.0192 77.8417 16.9065H76.9784V5.51559H76.9545ZM92.3501 5.51559V16.9065H91.4868C91.271 16.0432 90.6715 15.3237 89.8801 14.9161L90.5036 9.73621C90.6955 8.15348 91.3669 6.69065 92.3501 5.51559ZM84.6523 15.9472C85.06 17.2902 85.6355 18.5851 86.3549 19.7842C85.6835 20 85.084 20.3837 84.6523 20.9113C84.2206 20.3837 83.6451 19.976 82.9497 19.7842C83.6691 18.5851 84.2446 17.2902 84.6523 15.9472ZM76.9545 18.4652H77.8178C78.0816 19.5204 78.9209 20.3597 79.976 20.6715L80.7194 20.8393C80.5276 21.5588 80.4077 22.3261 80.4077 23.0935H76.9305V18.4652H76.9545ZM91.4868 18.4652H92.3501V23.0935H88.8729C88.8729 22.3022 88.753 21.5588 88.5612 20.8393L89.3046 20.6715C90.3837 20.3597 91.223 19.5204 91.4868 18.4652ZM82.2302 21.1751C83.1655 21.3189 83.8849 22.1103 83.8849 23.0695H81.9664C81.9664 22.4221 82.0624 21.7986 82.2302 21.1751ZM87.0744 21.1751C87.2422 21.7746 87.3382 22.4221 87.3382 23.0695H85.4197C85.4197 22.1103 86.1391 21.3189 87.0744 21.1751ZM82.1343 24.6283H83.8849V27.8657C83.0456 26.9784 82.4221 25.8753 82.1343 24.6283ZM85.4197 24.6283H87.1703C86.8825 25.8753 86.259 26.9784 85.4197 27.8657V24.6283Z" fill="#245EAB"/>
</g>
<defs>
<clipPath id="clip0_100_526">
<rect width="100" height="100" fill="white"/>
</clipPath>
</defs>
</svg>
