<svg width="100" height="99" viewBox="0 0 100 99" fill="none" xmlns="http://www.w3.org/2000/svg">
<g clip-path="url(#clip0_100_615)">
<path d="M49.5682 98.9319C76.944 98.9319 99.1364 76.7852 99.1364 49.4659C99.1364 22.1467 76.944 0 49.5682 0C22.1925 0 0 22.1467 0 49.4659C0 76.7852 22.1925 98.9319 49.5682 98.9319Z" fill="white"/>
<path d="M49.5681 97.6059C76.2102 97.6059 97.8082 76.0531 97.8082 49.466C97.8082 22.8788 76.2102 1.32568 49.5681 1.32568C22.926 1.32568 1.32834 22.8788 1.32834 49.466C1.32834 76.0531 22.926 97.6059 49.5681 97.6059Z" fill="#0F2F87"/>
<path d="M49.5683 96.2809C75.4767 96.2809 96.48 75.3209 96.48 49.4659C96.48 23.611 75.4767 2.65137 49.5683 2.65137C23.6598 2.65137 2.65692 23.611 2.65692 49.4659C2.65692 75.3209 23.6598 96.2809 49.5683 96.2809Z" fill="white"/>
<path d="M49.5682 75.9669C27.3055 64.8106 16.7507 45.5848 18.8491 17.6728C26.8097 10.0122 37.6355 5.2998 49.5682 5.2998C61.5009 5.2998 72.3265 10.0122 80.2872 17.6728C82.3856 45.5848 71.8309 64.8106 49.5682 75.9669Z" fill="#0F2F87"/>
<path d="M49.5682 53.176C46.799 51.57 44.3272 49.7595 42.2123 47.7875C39.4794 45.2416 37.2257 42.3231 35.5173 39.1144C33.779 35.8497 32.5398 32.1662 31.836 28.166C31.2444 24.8056 31.0098 21.1352 31.1387 17.234C36.7201 14.0451 43.0747 12.3633 49.5714 12.3633C56.0682 12.3633 62.4228 14.0451 68.0043 17.234C68.1331 21.132 67.8984 24.8056 67.307 28.166C66.5998 32.1662 65.3606 35.8497 63.6224 39.1144C61.9139 42.3231 59.6635 45.2416 56.9274 47.7875C54.8092 49.7595 52.3374 51.57 49.5682 53.176Z" fill="white"/>
<path d="M37.2256 49.0478C35.504 48.5102 33.822 47.8441 32.2457 46.9933C29.9821 45.75 27.6887 44.0484 26.8329 41.5224C25.9572 39.059 27.2459 36.8363 29.0701 35.2271C29.2452 35.7448 29.4996 36.4768 29.6714 36.9287C29.5492 37.0276 29.4335 37.1298 29.3212 37.2288C28.2208 38.2115 27.5302 39.5207 27.8275 41.0112C28.6636 44.8069 33.8352 47.633 37.2256 49.0478Z" fill="white"/>
<path d="M37.2256 49.0475C32.3216 48.1605 25.3359 45.8157 24.4634 40.1139C24.0901 37.4725 25.3788 34.9365 27.1368 33.0568C27.4375 32.7138 27.7779 32.3808 28.1414 32.0576C28.2604 32.5391 28.4719 33.2778 28.6305 33.8318C26.6081 35.695 24.9988 38.2936 25.8184 41.1198C26.281 42.7819 27.4012 44.18 28.7264 45.2452C31.1915 47.1876 34.2184 48.2857 37.2256 49.0442V49.0475Z" fill="white"/>
<path d="M71.1171 31.5726C74.1837 33.9239 75.2511 37.4986 72.6703 40.6579C70.7007 43.0092 67.8224 44.381 64.9343 45.3604C65.4167 44.6844 65.8794 43.9952 66.3156 43.2928C67.7399 42.8344 69.1145 42.2374 70.3967 41.4494C71.279 40.8821 72.1118 40.2028 72.7297 39.3585C74.7355 36.6479 73.3047 33.6733 71.1171 31.5693V31.5726Z" fill="white"/>
<path d="M71.1567 44.4476C68.3446 46.789 64.9674 48.2961 61.5108 49.4766C62.2047 48.7544 62.8689 48.0058 63.4968 47.2375V47.244C66.6956 46.0932 69.9307 44.6223 72.3167 42.1293C74.7455 39.6 75.4196 36.2296 73.1031 33.3804C72.5381 32.6747 71.8507 32.0844 71.1138 31.5732C76.791 35.1809 75.9484 40.4837 71.1502 44.4476H71.1567Z" fill="white"/>
<path d="M54.525 44.3446C54.1119 45.413 53.6096 46.3826 53.0346 47.1773C52.7901 47.517 52.5324 47.8237 52.2647 48.0974C51.4518 48.9218 50.5365 49.4099 49.5682 49.4099C48.6 49.4099 47.6846 48.9218 46.8716 48.0974C46.604 47.827 46.3463 47.517 46.1017 47.1773C45.5267 46.3793 45.0244 45.4131 44.6114 44.3413C44.8163 45.0767 45.0608 45.7758 45.3317 46.4189V52.8692H46.8716V49.0571C47.6978 50.0431 48.6297 50.5641 49.5682 50.5641C50.5067 50.5641 51.4385 50.0431 52.2647 49.0571V52.8726H53.8046V46.4222C54.0756 45.7792 54.3168 45.08 54.525 44.3479V44.3446Z" fill="#0F2F87"/>
<path d="M58.8044 38.3955C58.8077 38.2602 58.811 38.1251 58.811 37.9898C58.811 32.8949 54.6704 28.7661 49.5649 28.7661C44.4594 28.7661 40.3187 32.8949 40.3187 37.9898C40.3187 38.1251 40.3221 38.2602 40.3286 38.3955C39.8264 38.9462 39.5488 39.5497 39.5488 40.1828C39.5488 40.4368 39.5917 40.6841 39.6776 40.9249C40.0841 40.8358 40.56 40.7534 41.0887 40.6774V43.2596C41.7265 43.2596 42.2453 42.7418 42.2453 42.1054V40.5324C42.4436 40.5093 42.6485 40.4895 42.8599 40.4697L43.0814 42.2472C43.1342 42.6627 43.4052 43.0057 43.7687 43.1607L43.5406 40.4071L44.0232 41.5778C44.0958 41.215 44.1586 40.8061 44.2115 40.3576C45.8109 40.2455 47.6317 40.1828 49.5649 40.1828C51.498 40.1828 53.3188 40.2455 54.9183 40.3576C54.9678 40.8061 55.0339 41.215 55.1066 41.5778L55.5891 40.4071L55.361 43.1607C55.7278 43.0024 55.9988 42.6594 56.0484 42.2439L56.2698 40.4665C56.4813 40.4863 56.6828 40.506 56.8845 40.5291V42.1021C56.8845 42.7386 57.4033 43.2564 58.041 43.2564V40.6742C58.5731 40.75 59.0456 40.8325 59.4521 40.9215C59.538 40.6808 59.5809 40.4335 59.5809 40.1795C59.5809 39.5464 59.3034 38.9429 58.8011 38.3922L58.8044 38.3955ZM43.4052 37.9799C47.2682 36.8192 51.8681 36.8158 55.7312 37.9799C51.6137 37.6897 47.526 37.6865 43.4052 37.9799Z" fill="#0F2F87"/>
<path d="M42.5593 35.5331C42.3346 35.8464 42.0999 36.1267 41.8521 36.3773C41.1053 37.1357 40.2626 37.5842 39.3736 37.5842C38.4847 37.5842 37.6421 37.1357 36.8953 36.3773C36.6475 36.1267 36.4128 35.843 36.1881 35.5331C35.6594 34.801 35.1967 33.9139 34.82 32.9312C35.0116 33.6039 35.2331 34.2437 35.4809 34.8372V40.7369L36.8986 43.0453V37.2611C37.6586 38.1647 38.5145 38.6462 39.377 38.6462C40.2395 38.6462 41.1019 38.1647 41.862 37.2545C42.0867 36.9873 42.3048 36.6807 42.513 36.3443C43.0846 35.4078 43.5672 34.2305 43.9339 32.9345C43.5539 33.9172 43.0913 34.8043 42.5658 35.5364L42.5593 35.5331Z" fill="#0F2F87"/>
<path d="M33.5311 27.9316C33.2568 28.1526 33.0982 28.5055 33.1478 28.8847L33.4122 31.0052C33.465 31.4207 33.7558 31.757 34.1358 31.8824L33.5311 27.9316Z" fill="#0F2F87"/>
<path d="M45.2128 27.9316L44.608 31.8824C44.9914 31.757 45.2822 31.424 45.3317 31.0052L45.5961 28.8847C45.6424 28.5055 45.4837 28.1526 45.2128 27.9316Z" fill="#0F2F87"/>
<path d="M39.3703 19.2124C35.851 19.2124 32.9958 21.257 32.9958 24.7724C32.9958 25.2275 33.0454 25.6858 33.1346 26.1377L33.5278 27.9316L34.2879 30.3291C34.473 29.376 34.5886 28.0734 34.5886 26.6356C34.5886 25.9893 34.5655 25.3758 34.5225 24.8054C36.2872 26.5729 39.6215 27.0445 41.8454 26.4113C40.1039 26.5927 38.3294 26.1739 36.8357 25.2868C36.7365 25.2242 36.6375 25.1582 36.5383 25.089C37.3578 25.399 38.3261 25.577 39.3637 25.577C41.6537 25.577 43.6035 24.7097 44.3503 23.4928C44.2214 24.3734 44.1421 25.4583 44.1421 26.6389C44.1421 28.0734 44.2577 29.376 44.4428 30.3324L45.2028 27.9349L45.5994 26.1409C45.6919 25.6892 45.7382 25.2308 45.7382 24.7757C45.7382 21.2636 42.8864 19.2158 39.3637 19.2158L39.3703 19.2124Z" fill="#0F2F87"/>
<path d="M59.766 19.2127C59.766 19.2127 59.7363 19.2127 59.7197 19.2127C59.6635 19.2127 59.6074 19.2127 59.5513 19.2127C56.131 19.2951 53.3915 21.3265 53.3915 24.766V37.2281L56.5772 38.0888V35.4606C57.5024 36.5521 58.5929 37.2281 59.7627 37.2281C60.645 37.2281 61.4844 36.8423 62.2411 36.1861V43.2531L66.1372 36.1993V24.766C66.1372 21.2539 63.2854 19.2061 59.7627 19.2061L59.766 19.2127ZM62.9516 34.6987C62.0131 35.6155 60.9259 36.1728 59.766 36.1728C58.6061 36.1728 57.5156 35.6123 56.5804 34.6987V25.3068C57.8329 24.9804 58.8342 24.3703 59.3595 23.6118C59.462 24.1164 59.2968 24.6638 59.0192 25.1155C58.6788 25.6762 58.1798 26.1478 57.6412 26.5369C58.8474 26.0357 60.1064 25.0496 60.2122 23.6711C60.7474 24.4033 61.7289 24.9869 62.9516 25.3068V34.6987Z" fill="#0F2F87"/>
<path d="M49.5682 55.732L48.4545 55.0856C45.5432 53.3972 42.9326 51.4845 40.6987 49.4036C37.7842 46.6896 35.3817 43.5765 33.5576 40.1535C31.7104 36.6843 30.3952 32.7831 29.6484 28.5521C29.0304 25.0466 28.7826 21.2147 28.9181 17.165L28.9577 15.935L30.0284 15.3216C35.9402 11.9447 42.6947 10.1606 49.5616 10.1606C56.4284 10.1606 63.1829 11.9447 69.0947 15.3216L70.1654 15.935L70.2051 17.165C70.3406 21.2147 70.0927 25.0433 69.4747 28.5521C68.7279 32.7831 67.4127 36.6843 65.5655 40.1535C63.7414 43.5765 61.3423 46.6896 58.4276 49.4036C56.1938 51.4845 53.5832 53.3972 50.6719 55.0856L49.5583 55.732H49.5682ZM48.9006 54.3238L49.5682 54.7096L50.2356 54.3238C53.0876 52.6683 55.6452 50.7952 57.8328 48.7573C60.6747 46.1092 63.0176 43.0753 64.7956 39.738C66.5998 36.3512 67.882 32.5357 68.6155 28.3971C69.2236 24.951 69.4648 21.1817 69.3326 17.1914L69.3096 16.4527L68.6652 16.0867C62.8888 12.7857 56.2863 11.0411 49.5715 11.0411C42.8599 11.0411 36.2575 12.7857 30.4778 16.0867L29.8334 16.4527L29.8103 17.1914C29.6781 21.1817 29.9194 24.951 30.5274 28.3971C31.2576 32.5357 32.5431 36.3512 34.3441 39.738C36.122 43.0753 38.4649 46.1092 41.3068 48.7573C43.4944 50.7952 46.0488 52.6683 48.9039 54.3238H48.9006Z" fill="white"/>
<path d="M54.6241 6.92188H44.5122V17.6329C44.5122 18.4013 44.9649 19.0938 45.6687 19.4071L49.5681 21.0559L53.4674 19.3312C54.1714 19.0212 54.6241 18.3254 54.6241 17.557V6.92188Z" fill="#0F2F87"/>
<path d="M45.834 17.5537H47.9126C48.0579 18.3385 48.4776 19.0707 49.1418 19.6017C49.317 19.7105 49.4624 19.8589 49.5648 20.0369C49.6673 19.8589 49.8126 19.7105 49.9878 19.6017C50.652 19.0707 51.0717 18.3385 51.2171 17.5537H53.2956V8.55093C52.1853 9.15444 51.4385 10.2592 51.2898 11.5123L50.9792 14.157C51.3129 14.0812 51.6466 14.2923 51.7226 14.6253C51.7987 14.9584 51.5872 15.2915 51.2535 15.3674L50.9263 15.4398C50.8899 15.364 50.8503 15.2915 50.8074 15.2156C50.1926 14.1604 49.8886 12.9567 49.9316 11.7365L50.0307 8.92687C50.0473 8.44541 49.8787 7.97713 49.5582 7.61768C49.2376 7.97713 49.0691 8.44541 49.0856 8.92687L49.1848 11.7365C49.2277 12.9567 48.9237 14.1604 48.3091 15.2156C48.2661 15.2882 48.2265 15.364 48.1901 15.4398L47.863 15.3674C47.5292 15.2915 47.3177 14.9584 47.3937 14.6253C47.4697 14.2923 47.8035 14.0812 48.1373 14.157L47.8266 11.5123C47.6779 10.2592 46.9311 9.15444 45.8207 8.55093V17.5537H45.834ZM46.8088 14.4506H46.4586V9.84035C46.8816 10.3317 47.1459 10.9385 47.2219 11.5816L47.4665 13.6459C47.1261 13.8108 46.898 14.1109 46.8088 14.4506ZM48.5866 16.1621L48.6495 16.1753C49.003 16.2545 49.2575 16.571 49.2575 16.9337H48.4809C48.4809 16.6765 48.5173 16.416 48.59 16.1621H48.5866ZM50.6553 16.9337H49.8787C49.8787 16.571 50.1299 16.2577 50.4868 16.1753L50.5496 16.1621C50.6223 16.416 50.6586 16.6733 50.6586 16.9337H50.6553ZM50.2753 15.5289C50.2852 15.5454 50.2951 15.5652 50.305 15.5817C50.0076 15.6576 49.7498 15.829 49.5648 16.0566C49.3797 15.829 49.1253 15.6608 48.8246 15.5817C48.8346 15.5652 48.8445 15.5454 48.8544 15.5289C49.1616 15.0013 49.3996 14.434 49.5648 13.8438C49.7267 14.434 49.9646 15.0013 50.2753 15.5289ZM52.6777 9.84035V14.4506H52.3275C52.2382 14.1109 52.0102 13.8108 51.6698 13.6459L51.9144 11.5816C51.9904 10.9385 52.258 10.3317 52.6777 9.84035ZM52.6777 16.9337H51.2766C51.2766 16.6304 51.2369 16.3237 51.1543 16.0269L51.3956 15.9741C51.7624 15.8917 52.0763 15.6477 52.2415 15.308C52.2778 15.2321 52.3076 15.153 52.3275 15.0738H52.6777V16.937V16.9337ZM49.8787 18.8662V17.5537H50.5859C50.4768 18.0352 50.2389 18.4903 49.8787 18.8662ZM48.5503 17.5537H49.2575V18.8662C48.8973 18.4903 48.6594 18.0352 48.5503 17.5537ZM46.4586 16.9337V15.0705H46.8088C46.8286 15.1497 46.8584 15.2289 46.8947 15.3047C47.06 15.6444 47.3706 15.8883 47.7407 15.9708L47.9819 16.0236C47.8994 16.3237 47.8596 16.627 47.8596 16.9305H46.4586V16.9337Z" fill="white"/>
<path d="M9.18344 31.3781V31.3847C9.78817 34.7187 10.6804 37.9966 11.8998 41.1558C13.7569 45.9838 16.4039 50.5016 19.7117 54.4523C14.3782 45.9145 12.2567 35.7147 12.8515 25.7455L12.9077 24.7266C11.4801 26.8239 10.2343 29.0466 9.18344 31.3814V31.3781Z" fill="#0F2F87"/>
<path d="M5.31049 49.4628C5.31049 50.7654 5.36667 52.0449 5.47902 53.3146V53.3212C9.38826 56.9651 13.866 59.9397 18.5882 62.3899C15.9974 60.2233 13.5719 57.8885 11.4073 55.3822C9.03802 52.6913 7.09495 49.7629 5.39971 46.6895C5.34023 47.6095 5.31049 48.5329 5.31049 49.4628Z" fill="#0F2F87"/>
<path d="M7.8782 64.3188C8.3904 65.7434 8.9687 67.1352 9.61973 68.4839C12.8714 68.9324 16.123 69.3084 19.3714 69.6249C15.4853 67.953 11.652 66.1755 7.8815 64.3188H7.8782Z" fill="#0F2F87"/>
<path d="M13.1226 74.5225C13.7273 75.4029 14.3684 76.2538 15.0326 77.0848C17.7687 76.6133 20.9742 76.0691 21.569 75.9669C20.7858 75.8284 16.014 75.0171 13.1226 74.5225Z" fill="#0F2F87"/>
<path d="M18.8789 81.2888C19.4804 81.8659 20.0984 82.4266 20.7328 82.9706C22.4611 82.2188 24.2951 81.4273 24.7577 81.2295C24.0935 81.2328 21.05 81.269 18.8789 81.2888Z" fill="#0F2F87"/>
<path d="M24.9594 86.1735C25.3494 86.4405 25.7425 86.6978 26.1457 86.9451C27.1767 86.2328 28.2077 85.5205 28.4589 85.3457C28.0854 85.4347 26.3869 85.8371 24.9594 86.1735Z" fill="#0F2F87"/>
<path d="M89.9533 31.3781V31.3847C89.3485 34.7187 88.4563 37.9966 87.2369 41.1558C85.3797 45.9838 82.7328 50.5016 79.4249 54.4523C84.7585 45.9145 86.88 35.7147 86.2852 25.7455L86.229 24.7266C87.6566 26.8239 88.9024 29.0466 89.9533 31.3814V31.3781Z" fill="#0F2F87"/>
<path d="M93.8264 49.4628C93.8264 50.7654 93.77 52.0449 93.6573 53.3146V53.3212C89.7483 56.9651 85.2706 59.9397 80.5485 62.3899C83.1392 60.2233 85.5647 57.8885 87.7292 55.3822C90.0985 52.6913 92.0418 49.7629 93.7373 46.6895C93.7964 47.6095 93.8264 48.5329 93.8264 49.4628Z" fill="#0F2F87"/>
<path d="M91.2582 64.3188C90.7464 65.7434 90.1681 67.1352 89.5171 68.4839C86.2654 68.9324 83.0137 69.3084 79.7654 69.6249C83.6515 67.953 87.4848 66.1755 91.2554 64.3188H91.2582Z" fill="#0F2F87"/>
<path d="M86.0141 74.5225C85.4094 75.4029 84.7683 76.2538 84.1041 77.0848C81.3679 76.6133 78.1625 76.0691 77.5677 75.9669C78.3509 75.8284 83.1226 75.0171 86.0141 74.5225Z" fill="#0F2F87"/>
<path d="M80.2578 81.2888C79.6564 81.8659 79.0384 82.4266 78.4039 82.9706C76.6756 82.2188 74.8416 81.4273 74.379 81.2295C75.0432 81.2328 78.0867 81.269 80.2578 81.2888Z" fill="#0F2F87"/>
<path d="M74.1774 86.1735C73.7874 86.4405 73.3942 86.6978 72.991 86.9451C71.96 86.2328 70.929 85.5205 70.6778 85.3457C71.0479 85.4347 72.7497 85.8371 74.1774 86.1735Z" fill="#0F2F87"/>
<path d="M61.0746 69.9714C61.0746 76.3129 55.9262 81.4574 49.5715 81.4574C43.2169 81.4574 38.0684 76.3129 38.0684 69.9714C38.0684 67.6993 38.726 65.5854 39.8694 63.8013C40.8607 64.5434 41.905 65.2655 43.0054 65.9614C42.7972 66.2978 42.6882 66.6968 42.7179 67.1255C42.784 68.0983 43.5605 68.8964 44.5321 68.9755C45.6325 69.0711 46.5644 68.2731 46.6834 67.2244C43.967 65.4898 41.4985 63.5903 39.3142 61.5556C39.0995 61.3578 38.8913 61.1566 38.6831 60.9521C38.9904 58.7921 39.4001 56.7475 39.9057 54.8579L43.1375 60.4476C44.9749 59.2109 47.1856 58.4888 49.5715 58.4888C51.9575 58.4888 54.1682 59.2109 56.0055 60.4476L59.2374 54.8579C59.7429 56.7475 60.156 58.7921 60.46 60.9521C60.2518 61.1566 60.0436 61.3578 59.8288 61.5556C57.6445 63.587 55.176 65.4898 52.4597 67.2244C52.5786 68.2731 53.5105 69.0711 54.611 68.9755C55.5825 68.8964 56.3591 68.0983 56.4252 67.1255C56.4549 66.7 56.3458 66.2978 56.1376 65.9614C57.2381 65.2655 58.2856 64.5434 59.277 63.8013C60.4171 65.5822 61.0746 67.6993 61.0746 69.9714Z" fill="white"/>
<path d="M43.9768 66.5713C44.4527 66.8582 44.9352 67.1418 45.4275 67.4188C45.2821 67.6695 45.0112 67.8409 44.6972 67.8409C44.2345 67.8409 43.8579 67.465 43.8579 67.0033C43.8579 66.845 43.9008 66.6999 43.9768 66.5746V66.5713Z" fill="white"/>
<path d="M55.1595 66.5713C54.6836 66.8582 54.2011 67.1418 53.7087 67.4188C53.8541 67.6695 54.1251 67.8409 54.439 67.8409C54.9016 67.8409 55.2784 67.465 55.2784 67.0033C55.2784 66.845 55.2355 66.6999 55.1595 66.5746V66.5713Z" fill="white"/>
<path d="M47.6383 71.5707L49.5681 75.9666L51.498 71.5707L49.5681 69.9746L47.6383 71.5707Z" fill="#0F2F87"/>
</g>
<defs>
<clipPath id="clip0_100_615">
<rect width="100" height="99" fill="white"/>
</clipPath>
</defs>
</svg>
