<svg width="32" height="32" viewBox="0 0 32 32" fill="none" xmlns="http://www.w3.org/2000/svg">
  <path d="M19 4H9C8.20435 4 7.44129 4.31607 6.87868 4.87868C6.31607 5.44129 6 6.20435 6 7V25C6 25.7956 6.31607 26.5587 6.87868 27.1213C7.44129 27.6839 8.20435 28 9 28H23C23.7956 28 24.5587 27.6839 25.1213 27.1213C25.6839 26.5587 26 25.7956 26 25V11M19 4C19.5304 4 20.0391 4.21071 20.4142 4.58579L25.4142 9.58579C25.7893 9.96086 26 10.4696 26 11M19 4V10C19 10.2652 19.1054 10.5196 19.2929 10.7071C19.4804 10.8946 19.7348 11 20 11H26" stroke="#003C77" stroke-width="2.5" stroke-linecap="round" stroke-linejoin="round"/>
  <circle cx="16" cy="15.5" r="2.5" stroke="#003C77" stroke-width="2"/>
  <path d="M12 22C12 20.3431 13.7909 19 16 19C18.2091 19 20 20.3431 20 22" stroke="#003C77" stroke-width="2" stroke-linecap="round"/>
</svg>
