<svg width="54" height="54" viewBox="0 0 54 54" fill="none" xmlns="http://www.w3.org/2000/svg">
<path d="M17.1375 0.674805H36.1697L51.9753 16.4805V46.9697C51.9753 50.4417 48.9567 53.3252 45.1443 53.3252H16.9695C13.142 53.325 10.1248 50.4407 10.1248 46.9697V7.03027C10.1247 3.57769 13.2898 0.674923 17.1375 0.674805Z" fill="white" stroke="#DBDBDB" stroke-width="1.35"/>
<path d="M36.4846 11.016V0L52.65 16.2H41.873C37.0234 16.2 36.2601 12.744 36.4846 11.016Z" fill="#D4D4D8"/>
<rect x="1.34998" y="25.6499" width="34.8" height="20.4" rx="4.05" fill="#079455"/>
<path d="M9.49943 31.5137L11.2814 34.5253H11.3504L13.141 31.5137H15.2508L12.5542 35.9319L15.3112 40.3501H13.1626L11.3504 37.3342H11.2814L9.46923 40.3501H7.32917L10.0949 35.9319L7.38095 31.5137H9.49943ZM16.433 40.3501V31.5137H18.3013V38.8098H22.0895V40.3501H16.433ZM28.1203 34.0551C28.0858 33.707 27.9376 33.4366 27.6759 33.2439C27.4141 33.0512 27.0589 32.9548 26.6102 32.9548C26.3053 32.9548 26.0478 32.998 25.8379 33.0843C25.6279 33.1677 25.4668 33.2842 25.3546 33.4337C25.2453 33.5833 25.1907 33.753 25.1907 33.9429C25.1849 34.1011 25.218 34.2391 25.2899 34.3571C25.3647 34.475 25.4668 34.5771 25.5962 34.6634C25.7257 34.7468 25.8753 34.8202 26.045 34.8835C26.2147 34.9439 26.3959 34.9956 26.5886 35.0388L27.3825 35.2286C27.7679 35.3149 28.1217 35.43 28.4439 35.5738C28.7661 35.7176 29.0451 35.8945 29.2809 36.1045C29.5168 36.3145 29.6995 36.5619 29.8289 36.8466C29.9612 37.1314 30.0288 37.4579 30.0317 37.826C30.0288 38.3668 29.8907 38.8357 29.6175 39.2326C29.3471 39.6267 28.9559 39.933 28.4439 40.1516C27.9348 40.3674 27.3207 40.4752 26.6016 40.4752C25.8882 40.4752 25.2669 40.3659 24.7376 40.1473C24.2112 39.9287 23.7999 39.6051 23.5036 39.1765C23.2102 38.7451 23.0564 38.2115 23.042 37.5758H24.8498C24.8699 37.8721 24.9548 38.1194 25.1044 38.3179C25.2568 38.5135 25.4596 38.6616 25.7127 38.7623C25.9687 38.8601 26.2578 38.909 26.58 38.909C26.8964 38.909 27.1711 38.863 27.4041 38.7709C27.6399 38.6789 27.8226 38.5509 27.952 38.3869C28.0815 38.223 28.1462 38.0346 28.1462 37.8217C28.1462 37.6233 28.0872 37.4564 27.9693 37.3212C27.8542 37.186 27.6845 37.071 27.4602 36.9761C27.2387 36.8811 26.9669 36.7948 26.6447 36.7172L25.6825 36.4756C24.9375 36.2943 24.3493 36.011 23.9178 35.6256C23.4864 35.2401 23.2721 34.7209 23.275 34.068C23.2721 33.533 23.4145 33.0656 23.7021 32.6657C23.9926 32.2659 24.391 31.9538 24.8973 31.7295C25.4035 31.5051 25.9788 31.3929 26.6231 31.3929C27.2789 31.3929 27.8514 31.5051 28.3403 31.7295C28.8322 31.9538 29.2148 32.2659 29.488 32.6657C29.7613 33.0656 29.9022 33.5287 29.9109 34.0551H28.1203Z" fill="white"/>
</svg>
