<svg width="32" height="32" viewBox="0 0 32 32" fill="none" xmlns="http://www.w3.org/2000/svg">
<path d="M15.9993 27.3334C18.4123 27.3334 20.7261 27.095 22.8705 26.6579C25.5491 26.1119 26.8884 25.8389 28.1105 24.2675C29.3327 22.6962 29.3327 20.8925 29.3327 17.2847V14.7154C29.3327 11.1077 29.3327 9.30391 28.1105 7.73257C26.8884 6.16125 25.5491 5.88825 22.8705 5.34224C20.7261 4.90511 18.4123 4.66675 15.9993 4.66675C13.5864 4.66675 11.2725 4.90511 9.1281 5.34224C6.44956 5.88825 5.1103 6.16125 3.88815 7.73257C2.66602 9.30391 2.66602 11.1077 2.66602 14.7154V17.2847C2.66602 20.8925 2.66602 22.6962 3.88815 24.2675C5.1103 25.8389 6.44956 26.1119 9.1281 26.6579C11.2725 27.095 13.5864 27.3334 15.9993 27.3334Z" stroke="#0E0E0E" stroke-width="2"/>
<path d="M21.2828 16.4171C21.0849 17.2248 20.0321 17.805 17.9265 18.9654C15.6363 20.2272 14.4912 20.8583 13.5637 20.6152C13.2496 20.5328 12.9603 20.388 12.7173 20.1916C12 19.6118 12 18.4078 12 15.9999C12 13.592 12 12.3881 12.7173 11.8082C12.9603 11.6117 13.2496 11.467 13.5637 11.3846C14.4912 11.1415 15.6363 11.7725 17.9265 13.0345C20.0321 14.1948 21.0849 14.775 21.2828 15.5827C21.3501 15.8577 21.3501 16.1422 21.2828 16.4171Z" stroke="#0E0E0E" stroke-width="2" stroke-linejoin="round"/>
</svg>
